<?xml version="1.0" encoding="UTF-8" standalone="no"?>
<!DOCTYPE svg PUBLIC "-//W3C//DTD SVG 1.1//EN"
 "http://www.w3.org/Graphics/SVG/1.1/DTD/svg11.dtd">
<!-- Generated by graphviz version 8.1.0 (20230707.0739)
 -->
<!-- Title: TerminalBase Pages: 1 -->
<svg width="286pt" height="111pt"
 viewBox="0.00 0.00 285.62 111.00" xmlns="http://www.w3.org/2000/svg" xmlns:xlink="http://www.w3.org/1999/xlink">
<g id="graph0" class="graph" transform="scale(1 1) rotate(0) translate(4 107)">
<title>TerminalBase</title>
<!-- Node1 -->
<g id="Node000001" class="node">
<title>Node1</title>
<g id="a_Node000001"><a xlink:title=" ">
<polygon fill="#999999" stroke="#666666" points="171.75,-20.75 87.5,-20.75 87.5,0 171.75,0 171.75,-20.75"/>
<text text-anchor="middle" x="129.62" y="-6.3" font-family="Arial" font-size="11.00">TerminalBase</text>
</a>
</g>
</g>
<!-- Node2 -->
<g id="Node000002" class="node">
<title>Node2</title>
<g id="a_Node000002"><a xlink:title=" ">
<polygon fill="white" stroke="#bfbfbf" points="111.25,-96.62 0,-96.62 0,-75.88 111.25,-75.88 111.25,-96.62"/>
<text text-anchor="middle" x="55.62" y="-82.17" font-family="Arial" font-size="11.00">QAbstractListModel</text>
</a>
</g>
</g>
<!-- Node2&#45;&gt;Node1 -->
<g id="edge1_Node000001_Node000002" class="edge">
<title>Node2&#45;&gt;Node1</title>
<g id="a_edge1_Node000001_Node000002"><a xlink:title=" ">
<path fill="none" stroke="#63b8ff" d="M72.79,-68.12C87.54,-53.39 108.26,-32.7 120.18,-20.8"/>
<polygon fill="#63b8ff" stroke="#63b8ff" points="70.9,-65.05 66.3,-74.59 75.85,-70 70.9,-65.05"/>
</a>
</g>
</g>
<!-- Node3 -->
<g id="Node000003" class="node">
<title>Node3</title>
<g id="a_Node000003"><a xlink:title=" ">
<polygon fill="white" stroke="#bfbfbf" points="277.62,-103 129.62,-103 129.62,-69.5 277.62,-69.5 277.62,-103"/>
<text text-anchor="start" x="137.62" y="-88.55" font-family="Arial" font-size="11.00">vector&lt; GUI::TerminalBase</text>
<text text-anchor="middle" x="203.62" y="-75.8" font-family="Arial" font-size="11.00">::BasicMessage &gt;</text>
</a>
</g>
</g>
<!-- Node3&#45;&gt;Node1 -->
<g id="edge2_Node000001_Node000003" class="edge">
<title>Node3&#45;&gt;Node1</title>
<g id="a_edge2_Node000001_Node000003"><a xlink:title=" ">
<path fill="none" stroke="#9a32cd" stroke-dasharray="5,2" d="M179.82,-61.48C165.98,-47.67 149.32,-31.03 139.1,-20.83"/>
<polygon fill="#9a32cd" stroke="#9a32cd" points="177.02,-63.63 186.57,-68.22 181.96,-58.68 177.02,-63.63"/>
</a>
</g>
<text text-anchor="middle" x="189.5" y="-41.05" font-family="Arial" font-size="11.00" fill="grey"> storage</text>
</g>
</g>
</svg>
