<?xml version="1.0" encoding="UTF-8" standalone="no"?>
<!DOCTYPE svg PUBLIC "-//W3C//DTD SVG 1.1//EN"
 "http://www.w3.org/Graphics/SVG/1.1/DTD/svg11.dtd">
<!-- Generated by graphviz version 8.1.0 (20230707.0739)
 -->
<!-- Title: RealtimeLinePlot Pages: 1 -->
<svg width="107pt" height="199pt"
 viewBox="0.00 0.00 106.50 199.00" xmlns="http://www.w3.org/2000/svg" xmlns:xlink="http://www.w3.org/1999/xlink">
<g id="graph0" class="graph" transform="scale(1 1) rotate(0) translate(4 195)">
<title>RealtimeLinePlot</title>
<!-- Node1 -->
<g id="Node000001" class="node">
<title>Node1</title>
<g id="a_Node000001"><a xlink:title=" ">
<polygon fill="#999999" stroke="#666666" points="98.5,-20.75 0,-20.75 0,0 98.5,0 98.5,-20.75"/>
<text text-anchor="middle" x="49.25" y="-6.3" font-family="Arial" font-size="11.00">RealtimeLinePlot</text>
</a>
</g>
</g>
<!-- Node2 -->
<g id="Node000002" class="node">
<title>Node2</title>
<g id="a_Node000002"><a xlink:href="../../d4/d49/class_s_d_k_1_1_quick_1_1_line_plot.html" target="_top" xlink:title=" ">
<polygon fill="white" stroke="#bfbfbf" points="76.75,-77.5 21.75,-77.5 21.75,-56.75 76.75,-56.75 76.75,-77.5"/>
<text text-anchor="middle" x="49.25" y="-63.05" font-family="Arial" font-size="11.00">LinePlot</text>
</a>
</g>
</g>
<!-- Node2&#45;&gt;Node1 -->
<g id="edge1_Node000001_Node000002" class="edge">
<title>Node2&#45;&gt;Node1</title>
<g id="a_edge1_Node000001_Node000002"><a xlink:title=" ">
<path fill="none" stroke="#63b8ff" d="M49.25,-45.46C49.25,-37.09 49.25,-27.83 49.25,-21.08"/>
<polygon fill="#63b8ff" stroke="#63b8ff" points="45.75,-45.34 49.25,-55.34 52.75,-45.34 45.75,-45.34"/>
</a>
</g>
</g>
<!-- Node3 -->
<g id="Node000003" class="node">
<title>Node3</title>
<g id="a_Node000003"><a xlink:href="../../d2/d20/class_s_d_k_1_1_quick_1_1_chart_base.html" target="_top" xlink:title=" ">
<polygon fill="white" stroke="#bfbfbf" points="83.5,-134.25 15,-134.25 15,-113.5 83.5,-113.5 83.5,-134.25"/>
<text text-anchor="middle" x="49.25" y="-119.8" font-family="Arial" font-size="11.00">ChartBase</text>
</a>
</g>
</g>
<!-- Node3&#45;&gt;Node2 -->
<g id="edge2_Node000002_Node000003" class="edge">
<title>Node3&#45;&gt;Node2</title>
<g id="a_edge2_Node000002_Node000003"><a xlink:title=" ">
<path fill="none" stroke="#63b8ff" d="M49.25,-102.21C49.25,-93.84 49.25,-84.58 49.25,-77.83"/>
<polygon fill="#63b8ff" stroke="#63b8ff" points="45.75,-102.09 49.25,-112.09 52.75,-102.09 45.75,-102.09"/>
</a>
</g>
</g>
<!-- Node4 -->
<g id="Node000004" class="node">
<title>Node4</title>
<g id="a_Node000004"><a xlink:title=" ">
<polygon fill="white" stroke="#bfbfbf" points="86.5,-191 12,-191 12,-170.25 86.5,-170.25 86.5,-191"/>
<text text-anchor="middle" x="49.25" y="-176.55" font-family="Arial" font-size="11.00">QQuickItem</text>
</a>
</g>
</g>
<!-- Node4&#45;&gt;Node3 -->
<g id="edge3_Node000003_Node000004" class="edge">
<title>Node4&#45;&gt;Node3</title>
<g id="a_edge3_Node000003_Node000004"><a xlink:title=" ">
<path fill="none" stroke="#63b8ff" d="M49.25,-158.96C49.25,-150.59 49.25,-141.33 49.25,-134.58"/>
<polygon fill="#63b8ff" stroke="#63b8ff" points="45.75,-158.84 49.25,-168.84 52.75,-158.84 45.75,-158.84"/>
</a>
</g>
</g>
</g>
</svg>
