<?xml version="1.0" encoding="UTF-8" standalone="no"?>
<!DOCTYPE svg PUBLIC "-//W3C//DTD SVG 1.1//EN"
 "http://www.w3.org/Graphics/SVG/1.1/DTD/svg11.dtd">
<!-- Generated by graphviz version 8.1.0 (20230707.0739)
 -->
<!-- Title: CompleteMapImage Pages: 1 -->
<svg width="354pt" height="272pt"
 viewBox="0.00 0.00 354.25 271.50" xmlns="http://www.w3.org/2000/svg" xmlns:xlink="http://www.w3.org/1999/xlink">

<svg id="main" version="1.1" xmlns="http://www.w3.org/2000/svg" xmlns:xlink="http://www.w3.org/1999/xlink" xml:space="preserve" onload="init(evt)">
<style type="text/css"><![CDATA[
.node, .edge {opacity: 0.7;}
.node.selected, .edge.selected {opacity: 1;}
.edge:hover path { stroke: red; }
.edge:hover polygon { stroke: red; fill: red; }
]]></style>
<script type="application/ecmascript" xlink:href="../../svg.min.js"/>
<svg id="graph" class="graph">
<g id="graph0" class="graph" transform="scale(1 1) rotate(0) translate(4 267.5)">
<title>CompleteMapImage</title>
<!-- Node1 -->
<g id="Node000001" class="node">
<title>Node1</title>
<g id="a_Node000001"><a xlink:title="Радиолокационное изображение на карте, сохраненное в файл.">
<polygon fill="#999999" stroke="#666666" points="244.88,-20.75 131.38,-20.75 131.38,0 244.88,0 244.88,-20.75"/>
<text text-anchor="middle" x="188.12" y="-6.3" font-family="Arial" font-size="11.00">CompleteMapImage</text>
</a>
</g>
</g>
<!-- Node2 -->
<g id="Node000002" class="node">
<title>Node2</title>
<g id="a_Node000002"><a xlink:href="../../df/d2b/class_quasar_s_d_k_1_1_map_1_1_map_image.html" target="_top" xlink:title="Абстрактный класс, описывающий радиолокационное изображение в качестве объекта карты.">
<polygon fill="white" stroke="#666666" points="180.25,-78.5 114,-78.5 114,-57.75 180.25,-57.75 180.25,-78.5"/>
<text text-anchor="middle" x="147.12" y="-64.05" font-family="Arial" font-size="11.00">MapImage</text>
</a>
</g>
</g>
<!-- Node2&#45;&gt;Node1 -->
<g id="edge1_Node000001_Node000002" class="edge">
<title>Node2&#45;&gt;Node1</title>
<g id="a_edge1_Node000001_Node000002"><a xlink:title=" ">
<path fill="none" stroke="#63b8ff" d="M160.57,-48.84C167.41,-39.54 175.44,-28.62 181.07,-20.97"/>
<polygon fill="#63b8ff" stroke="#63b8ff" points="157.37,-46.28 154.27,-56.41 163.01,-50.43 157.37,-46.28"/>
</a>
</g>
</g>
<!-- Node3 -->
<g id="Node000003" class="node">
<title>Node3</title>
<g id="a_Node000003"><a xlink:href="../../d9/dd3/class_quasar_s_d_k_1_1_map_1_1_f_g_s_map_object.html" target="_top" xlink:title="Базовый класс для объектов карты, которые имеют четкую привязку в метрах по размеру.">
<polygon fill="white" stroke="#666666" points="93.62,-148 2.62,-148 2.62,-127.25 93.62,-127.25 93.62,-148"/>
<text text-anchor="middle" x="48.12" y="-133.55" font-family="Arial" font-size="11.00">FGSMapObject</text>
</a>
</g>
</g>
<!-- Node3&#45;&gt;Node2 -->
<g id="edge2_Node000002_Node000003" class="edge">
<title>Node3&#45;&gt;Node2</title>
<g id="a_edge2_Node000002_Node000003"><a xlink:title=" ">
<path fill="none" stroke="#63b8ff" d="M71.22,-120.88C90.2,-107.94 116.51,-90 132.65,-79"/>
<polygon fill="#63b8ff" stroke="#63b8ff" points="69.6,-118.43 63.31,-126.95 73.54,-124.21 69.6,-118.43"/>
</a>
</g>
</g>
<!-- Node4 -->
<g id="Node000004" class="node">
<title>Node4</title>
<g id="a_Node000004"><a xlink:href="../../d7/ddf/class_quasar_s_d_k_1_1_map_1_1_basic_map_object.html" target="_top" xlink:title="Абстрактный класс, реализующий функции интерфейса IMapObject, за исключением масштаба.">
<polygon fill="white" stroke="#666666" points="96.25,-205.75 0,-205.75 0,-185 96.25,-185 96.25,-205.75"/>
<text text-anchor="middle" x="48.12" y="-191.3" font-family="Arial" font-size="11.00">BasicMapObject</text>
</a>
</g>
</g>
<!-- Node4&#45;&gt;Node3 -->
<g id="edge3_Node000003_Node000004" class="edge">
<title>Node4&#45;&gt;Node3</title>
<g id="a_edge3_Node000003_Node000004"><a xlink:title=" ">
<path fill="none" stroke="#63b8ff" d="M48.12,-173.73C48.12,-164.99 48.12,-155.23 48.12,-148.22"/>
<polygon fill="#63b8ff" stroke="#63b8ff" points="44.63,-173.66 48.12,-183.66 51.63,-173.66 44.63,-173.66"/>
</a>
</g>
</g>
<!-- Node5 -->
<g id="Node000005" class="node">
<title>Node5</title>
<g id="a_Node000005"><a xlink:href="../../d5/d1e/class_quasar_s_d_k_1_1_map_1_1_i_map_object.html" target="_top" xlink:title="Интерфейс, описывающий абстрактный объект карты.">
<polygon fill="white" stroke="#666666" points="83.5,-263.5 12.75,-263.5 12.75,-242.75 83.5,-242.75 83.5,-263.5"/>
<text text-anchor="middle" x="48.12" y="-249.05" font-family="Arial" font-size="11.00">IMapObject</text>
</a>
</g>
</g>
<!-- Node5&#45;&gt;Node4 -->
<g id="edge4_Node000004_Node000005" class="edge">
<title>Node5&#45;&gt;Node4</title>
<g id="a_edge4_Node000004_Node000005"><a xlink:title=" ">
<path fill="none" stroke="#63b8ff" d="M48.12,-231.48C48.12,-222.74 48.12,-212.98 48.12,-205.97"/>
<polygon fill="#63b8ff" stroke="#63b8ff" points="44.63,-231.41 48.12,-241.41 51.63,-231.41 44.63,-231.41"/>
</a>
</g>
</g>
<!-- Node6 -->
<g id="Node000006" class="node">
<title>Node6</title>
<g id="a_Node000006"><a xlink:href="../../d7/d37/class_quasar_s_d_k_1_1_map_1_1_i_s_a_r_image.html" target="_top" xlink:title="Интерфейс, описывающий радиолокационное изображение с РЛС.">
<polygon fill="white" stroke="#666666" points="182.5,-148 111.75,-148 111.75,-127.25 182.5,-127.25 182.5,-148"/>
<text text-anchor="middle" x="147.12" y="-133.55" font-family="Arial" font-size="11.00">ISARImage</text>
</a>
</g>
</g>
<!-- Node6&#45;&gt;Node2 -->
<g id="edge5_Node000002_Node000006" class="edge">
<title>Node6&#45;&gt;Node2</title>
<g id="a_edge5_Node000002_Node000006"><a xlink:title=" ">
<path fill="none" stroke="#63b8ff" d="M147.12,-116.2C147.12,-103.78 147.12,-88.5 147.12,-78.78"/>
<polygon fill="#63b8ff" stroke="#63b8ff" points="143.63,-115.95 147.12,-125.95 150.63,-115.95 143.63,-115.95"/>
</a>
</g>
</g>
<!-- Node7 -->
<g id="Node000007" class="node">
<title>Node7</title>
<g id="a_Node000007"><a xlink:href="../../d4/d32/class_quasar_s_d_k_1_1_i_o_1_1_draft_file.html" target="_top" xlink:title="Класс, описывающий черновик файла &#45; файл, который еще не был сохранен на диск, но готовится к этому.">
<polygon fill="white" stroke="#666666" points="259.75,-78.5 202.5,-78.5 202.5,-57.75 259.75,-57.75 259.75,-78.5"/>
<text text-anchor="middle" x="231.12" y="-64.05" font-family="Arial" font-size="11.00">DraftFile</text>
</a>
</g>
</g>
<!-- Node7&#45;&gt;Node1 -->
<g id="edge6_Node000001_Node000007" class="edge">
<title>Node7&#45;&gt;Node1</title>
<g id="a_edge6_Node000001_Node000007"><a xlink:title=" ">
<path fill="none" stroke="#63b8ff" d="M217.02,-48.84C209.85,-39.54 201.42,-28.62 195.53,-20.97"/>
<polygon fill="#63b8ff" stroke="#63b8ff" points="214.76,-50.63 223.63,-56.41 220.3,-46.36 214.76,-50.63"/>
</a>
</g>
</g>
<!-- Node8 -->
<g id="Node000008" class="node">
<title>Node8</title>
<g id="a_Node000008"><a xlink:href="../../d3/d7e/class_quasar_s_d_k_1_1_i_o_1_1_basic_file.html" target="_top" xlink:title="Абстрактный класс для существующего файла в файловой системе.">
<polygon fill="white" stroke="#666666" points="261.62,-148 200.62,-148 200.62,-127.25 261.62,-127.25 261.62,-148"/>
<text text-anchor="middle" x="231.12" y="-133.55" font-family="Arial" font-size="11.00">BasicFile</text>
</a>
</g>
</g>
<!-- Node8&#45;&gt;Node7 -->
<g id="edge7_Node000007_Node000008" class="edge">
<title>Node8&#45;&gt;Node7</title>
<g id="a_edge7_Node000007_Node000008"><a xlink:title=" ">
<path fill="none" stroke="#63b8ff" d="M231.12,-116.2C231.12,-103.78 231.12,-88.5 231.12,-78.78"/>
<polygon fill="#63b8ff" stroke="#63b8ff" points="227.63,-115.95 231.12,-125.95 234.63,-115.95 227.63,-115.95"/>
</a>
</g>
</g>
<!-- Node9 -->
<g id="Node000009" class="node">
<title>Node9</title>
<g id="a_Node000009"><a xlink:href="../../df/dad/class_quasar_s_d_k_1_1_i_o_1_1_i_file.html" target="_top" xlink:title="Интерфейс, описывающий абстрактный файл в файловой системе.">
<polygon fill="white" stroke="#666666" points="248.88,-205.75 213.38,-205.75 213.38,-185 248.88,-185 248.88,-205.75"/>
<text text-anchor="middle" x="231.12" y="-191.3" font-family="Arial" font-size="11.00">IFile</text>
</a>
</g>
</g>
<!-- Node9&#45;&gt;Node8 -->
<g id="edge8_Node000008_Node000009" class="edge">
<title>Node9&#45;&gt;Node8</title>
<g id="a_edge8_Node000008_Node000009"><a xlink:title=" ">
<path fill="none" stroke="#63b8ff" d="M231.12,-173.73C231.12,-164.99 231.12,-155.23 231.12,-148.22"/>
<polygon fill="#63b8ff" stroke="#63b8ff" points="227.63,-173.66 231.12,-183.66 234.63,-173.66 227.63,-173.66"/>
</a>
</g>
</g>
<!-- Node10 -->
<g id="Node000010" class="node">
<title>Node10</title>
<g id="a_Node000010"><a xlink:href="../../d4/d32/class_quasar_s_d_k_1_1_i_o_1_1_draft_file.html#d4/d11/struct_quasar_s_d_k_1_1_i_o_1_1_draft_file_1_1filename__t" target="_top" xlink:title=" ">
<polygon fill="white" stroke="#bfbfbf" points="346.25,-148 280,-148 280,-127.25 346.25,-127.25 346.25,-148"/>
<text text-anchor="middle" x="313.12" y="-133.55" font-family="Arial" font-size="11.00">filename_t</text>
</a>
</g>
</g>
<!-- Node10&#45;&gt;Node7 -->
<g id="edge9_Node000007_Node000010" class="edge">
<title>Node10&#45;&gt;Node7</title>
<g id="a_edge9_Node000007_Node000010"><a xlink:title=" ">
<path fill="none" stroke="#9a32cd" stroke-dasharray="5,2" d="M292.91,-119.98C277.28,-107.12 256.18,-89.75 243.12,-79"/>
<polygon fill="#9a32cd" stroke="#9a32cd" points="290.43,-123.3 300.38,-126.95 294.88,-117.9 290.43,-123.3"/>
</a>
</g>
<text text-anchor="middle" x="310.12" y="-98.8" font-family="Arial" font-size="11.00" fill="grey"> m_filename</text>
</g>
</g>
</svg>
</svg>

<style type='text/css'>
<![CDATA[
[data-mouse-over-selected='false'] { opacity: 0.7; }
[data-mouse-over-selected='true']  { opacity: 1.0; }
]]>
</style>
<script type="application/ecmascript"><![CDATA[
document.addEventListener('DOMContentLoaded', (event) => {
  highlightEdges();
  highlightAdjacentNodes();
});
]]></script>
</svg>
