<?xml version="1.0" encoding="UTF-8" standalone="no"?>
<!DOCTYPE svg PUBLIC "-//W3C//DTD SVG 1.1//EN"
 "http://www.w3.org/Graphics/SVG/1.1/DTD/svg11.dtd">
<!-- Generated by graphviz version 8.1.0 (20230707.0739)
 -->
<!-- Title: StripImageChunkHeader Pages: 1 -->
<svg width="409pt" height="98pt"
 viewBox="0.00 0.00 408.88 98.25" xmlns="http://www.w3.org/2000/svg" xmlns:xlink="http://www.w3.org/1999/xlink">
<g id="graph0" class="graph" transform="scale(1 1) rotate(0) translate(4 94.25)">
<title>StripImageChunkHeader</title>
<!-- Node1 -->
<g id="Node000001" class="node">
<title>Node1</title>
<g id="a_Node000001"><a xlink:title="Полный заголовок пакета полосового потокового изображения.">
<polygon fill="#999999" stroke="#666666" points="255.88,-20.75 120.62,-20.75 120.62,0 255.88,0 255.88,-20.75"/>
<text text-anchor="middle" x="188.25" y="-6.3" font-family="Arial" font-size="11.00">StripImageChunkHeader</text>
</a>
</g>
</g>
<!-- Node2 -->
<g id="Node000002" class="node">
<title>Node2</title>
<g id="a_Node000002"><a xlink:href="../../d3/daf/group__sdk__images.html#d3/d28/struct_quasar_s_d_k_1_1_datagrams_1_1_strip_image_chunk_i_d" target="_top" xlink:title="Заголовок пакета полосового радиолокационного изображения.">
<polygon fill="white" stroke="#666666" points="110.5,-90.25 0,-90.25 0,-69.5 110.5,-69.5 110.5,-90.25"/>
<text text-anchor="middle" x="55.25" y="-75.8" font-family="Arial" font-size="11.00">StripImageChunkID</text>
</a>
</g>
</g>
<!-- Node2&#45;&gt;Node1 -->
<g id="edge1_Node000001_Node000002" class="edge">
<title>Node2&#45;&gt;Node1</title>
<g id="a_edge1_Node000001_Node000002"><a xlink:title=" ">
<path fill="none" stroke="#9a32cd" stroke-dasharray="5,2" d="M84.16,-64.2C109.83,-51.18 146.62,-32.5 168.89,-21.2"/>
<polygon fill="#9a32cd" stroke="#9a32cd" points="82.92,-61.41 75.59,-69.06 86.09,-67.66 82.92,-61.41"/>
</a>
</g>
<text text-anchor="middle" x="139.88" y="-41.05" font-family="Arial" font-size="11.00" fill="grey"> id</text>
</g>
<!-- Node3 -->
<g id="Node000003" class="node">
<title>Node3</title>
<g id="a_Node000003"><a xlink:href="../../d3/daf/group__sdk__images.html#d5/d2c/struct_quasar_s_d_k_1_1_datagrams_1_1_strip_image_chunk_nav" target="_top" xlink:title="Навигационные данные пакета полосового радиолокационного изображения.">
<polygon fill="white" stroke="#666666" points="247.62,-90.25 128.88,-90.25 128.88,-69.5 247.62,-69.5 247.62,-90.25"/>
<text text-anchor="middle" x="188.25" y="-75.8" font-family="Arial" font-size="11.00">StripImageChunkNav</text>
</a>
</g>
</g>
<!-- Node3&#45;&gt;Node1 -->
<g id="edge2_Node000001_Node000003" class="edge">
<title>Node3&#45;&gt;Node1</title>
<g id="a_edge2_Node000001_Node000003"><a xlink:title=" ">
<path fill="none" stroke="#9a32cd" stroke-dasharray="5,2" d="M188.25,-58.45C188.25,-46.03 188.25,-30.75 188.25,-21.03"/>
<polygon fill="#9a32cd" stroke="#9a32cd" points="184.75,-58.2 188.25,-68.2 191.75,-58.2 184.75,-58.2"/>
</a>
</g>
<text text-anchor="middle" x="214.12" y="-41.05" font-family="Arial" font-size="11.00" fill="grey"> navigation</text>
</g>
<!-- Node4 -->
<g id="Node000004" class="node">
<title>Node4</title>
<g id="a_Node000004"><a xlink:href="../../d3/daf/group__sdk__images.html#dc/dbc/struct_quasar_s_d_k_1_1_datagrams_1_1_strip_image_chunk_format" target="_top" xlink:title="Данные форматирования пакета полосового радиолокационного изображения.">
<polygon fill="white" stroke="#666666" points="400.88,-90.25 265.62,-90.25 265.62,-69.5 400.88,-69.5 400.88,-90.25"/>
<text text-anchor="middle" x="333.25" y="-75.8" font-family="Arial" font-size="11.00">StripImageChunkFormat</text>
</a>
</g>
</g>
<!-- Node4&#45;&gt;Node1 -->
<g id="edge3_Node000001_Node000004" class="edge">
<title>Node4&#45;&gt;Node1</title>
<g id="a_edge3_Node000001_Node000004"><a xlink:title=" ">
<path fill="none" stroke="#9a32cd" stroke-dasharray="5,2" d="M302.47,-64.55C274.46,-51.51 233.86,-32.6 209.36,-21.2"/>
<polygon fill="#9a32cd" stroke="#9a32cd" points="300.62,-68.01 311.17,-69.06 303.58,-61.67 300.62,-68.01"/>
</a>
</g>
<text text-anchor="middle" x="290.5" y="-41.05" font-family="Arial" font-size="11.00" fill="grey"> format</text>
</g>
</g>
</svg>
