<?xml version="1.0" encoding="UTF-8" standalone="no"?>
<!DOCTYPE svg PUBLIC "-//W3C//DTD SVG 1.1//EN"
 "http://www.w3.org/Graphics/SVG/1.1/DTD/svg11.dtd">
<!-- Generated by graphviz version 8.1.0 (20230707.0739)
 -->
<!-- Title: ClickHandler Pages: 1 -->
<svg width="189pt" height="156pt"
 viewBox="0.00 0.00 188.88 156.00" xmlns="http://www.w3.org/2000/svg" xmlns:xlink="http://www.w3.org/1999/xlink">
<g id="graph0" class="graph" transform="scale(1 1) rotate(0) translate(4 152)">
<title>ClickHandler</title>
<!-- Node1 -->
<g id="Node000001" class="node">
<title>Node1</title>
<g id="a_Node000001"><a xlink:title=" ">
<polygon fill="#999999" stroke="#666666" points="83.38,-20.75 5.88,-20.75 5.88,0 83.38,0 83.38,-20.75"/>
<text text-anchor="middle" x="44.62" y="-6.3" font-family="Arial" font-size="11.00">ClickHandler</text>
</a>
</g>
</g>
<!-- Node2 -->
<g id="Node000002" class="node">
<title>Node2</title>
<g id="a_Node000002"><a xlink:title=" ">
<polygon fill="white" stroke="#bfbfbf" points="57.25,-90.25 0,-90.25 0,-69.5 57.25,-69.5 57.25,-90.25"/>
<text text-anchor="middle" x="28.62" y="-75.8" font-family="Arial" font-size="11.00">QObject</text>
</a>
</g>
</g>
<!-- Node2&#45;&gt;Node1 -->
<g id="edge1_Node000001_Node000002" class="edge">
<title>Node2&#45;&gt;Node1</title>
<g id="a_edge1_Node000001_Node000002"><a xlink:title=" ">
<path fill="none" stroke="#63b8ff" d="M33.38,-58.83C36.34,-46.35 40.01,-30.85 42.34,-21.03"/>
<polygon fill="#63b8ff" stroke="#63b8ff" points="29.82,-57.67 30.92,-68.2 36.63,-59.28 29.82,-57.67"/>
</a>
</g>
</g>
<!-- Node3 -->
<g id="Node000003" class="node">
<title>Node3</title>
<g id="a_Node000003"><a xlink:href="../../d2/def/class_map_1_1_geo_marker_model.html" target="_top" xlink:title=" ">
<polygon fill="white" stroke="#bfbfbf" points="173.5,-90.25 75.75,-90.25 75.75,-69.5 173.5,-69.5 173.5,-90.25"/>
<text text-anchor="middle" x="124.62" y="-75.8" font-family="Arial" font-size="11.00">GeoMarkerModel</text>
</a>
</g>
</g>
<!-- Node3&#45;&gt;Node1 -->
<g id="edge2_Node000001_Node000003" class="edge">
<title>Node3&#45;&gt;Node1</title>
<g id="a_edge2_Node000001_Node000003"><a xlink:title=" ">
<path fill="none" stroke="#9a32cd" stroke-dasharray="5,2" d="M104.9,-62.23C89.66,-49.37 69.07,-32 56.33,-21.25"/>
<polygon fill="#9a32cd" stroke="#9a32cd" points="102.26,-65.43 112.16,-69.2 106.78,-60.08 102.26,-65.43"/>
</a>
</g>
<text text-anchor="middle" x="136.25" y="-41.05" font-family="Arial" font-size="11.00" fill="grey"> m_marker_model</text>
</g>
<!-- Node4 -->
<g id="Node000004" class="node">
<title>Node4</title>
<g id="a_Node000004"><a xlink:title=" ">
<polygon fill="white" stroke="#bfbfbf" points="180.25,-148 69,-148 69,-127.25 180.25,-127.25 180.25,-148"/>
<text text-anchor="middle" x="124.62" y="-133.55" font-family="Arial" font-size="11.00">QAbstractListModel</text>
</a>
</g>
</g>
<!-- Node4&#45;&gt;Node3 -->
<g id="edge3_Node000003_Node000004" class="edge">
<title>Node4&#45;&gt;Node3</title>
<g id="a_edge3_Node000003_Node000004"><a xlink:title=" ">
<path fill="none" stroke="#63b8ff" d="M124.62,-115.98C124.62,-107.24 124.62,-97.48 124.62,-90.47"/>
<polygon fill="#63b8ff" stroke="#63b8ff" points="121.13,-115.91 124.62,-125.91 128.13,-115.91 121.13,-115.91"/>
</a>
</g>
</g>
</g>
</svg>
