<?xml version="1.0" encoding="UTF-8" standalone="no"?>
<!DOCTYPE svg PUBLIC "-//W3C//DTD SVG 1.1//EN"
 "http://www.w3.org/Graphics/SVG/1.1/DTD/svg11.dtd">
<!-- Generated by graphviz version 8.1.0 (20230707.0739)
 -->
<!-- Title: StreamProcessor Pages: 1 -->
<svg width="348pt" height="156pt"
 viewBox="0.00 0.00 348.00 156.00" xmlns="http://www.w3.org/2000/svg" xmlns:xlink="http://www.w3.org/1999/xlink">

<svg id="main" version="1.1" xmlns="http://www.w3.org/2000/svg" xmlns:xlink="http://www.w3.org/1999/xlink" xml:space="preserve" onload="init(evt)">
<style type="text/css"><![CDATA[
.node, .edge {opacity: 0.7;}
.node.selected, .edge.selected {opacity: 1;}
.edge:hover path { stroke: red; }
.edge:hover polygon { stroke: red; fill: red; }
]]></style>
<script type="application/ecmascript" xlink:href="../../svg.min.js"/>
<svg id="graph" class="graph">
<g id="graph0" class="graph" transform="scale(1 1) rotate(0) translate(4 152)">
<title>StreamProcessor</title>
<!-- Node1 -->
<g id="Node000001" class="node">
<title>Node1</title>
<g id="a_Node000001"><a xlink:title=" ">
<polygon fill="#999999" stroke="#666666" points="188.12,-20.75 85.12,-20.75 85.12,0 188.12,0 188.12,-20.75"/>
<text text-anchor="middle" x="136.62" y="-6.3" font-family="Arial" font-size="11.00">StreamProcessor</text>
</a>
</g>
</g>
<!-- Node2 -->
<g id="Node000002" class="node">
<title>Node2</title>
<g id="a_Node000002"><a xlink:title=" ">
<polygon fill="white" stroke="#bfbfbf" points="57.25,-90.25 0,-90.25 0,-69.5 57.25,-69.5 57.25,-90.25"/>
<text text-anchor="middle" x="28.62" y="-75.8" font-family="Arial" font-size="11.00">QObject</text>
</a>
</g>
</g>
<!-- Node2&#45;&gt;Node1 -->
<g id="edge1_Node000001_Node000002" class="edge">
<title>Node2&#45;&gt;Node1</title>
<g id="a_edge1_Node000001_Node000002"><a xlink:title=" ">
<path fill="none" stroke="#63b8ff" d="M53.25,-63.48C74,-50.51 103.07,-32.35 120.83,-21.25"/>
<polygon fill="#63b8ff" stroke="#63b8ff" points="51.72,-60.94 45.1,-69.2 55.43,-66.87 51.72,-60.94"/>
</a>
</g>
</g>
<!-- Node3 -->
<g id="Node000003" class="node">
<title>Node3</title>
<g id="a_Node000003"><a xlink:title=" ">
<polygon fill="white" stroke="#bfbfbf" points="197.5,-90.25 75.75,-90.25 75.75,-69.5 197.5,-69.5 197.5,-90.25"/>
<text text-anchor="middle" x="136.62" y="-75.8" font-family="Arial" font-size="11.00">queue&lt; QByteArray &gt;</text>
</a>
</g>
</g>
<!-- Node3&#45;&gt;Node1 -->
<g id="edge2_Node000001_Node000003" class="edge">
<title>Node3&#45;&gt;Node1</title>
<g id="a_edge2_Node000001_Node000003"><a xlink:title=" ">
<path fill="none" stroke="#9a32cd" stroke-dasharray="5,2" d="M136.62,-58.45C136.62,-46.03 136.62,-30.75 136.62,-21.03"/>
<polygon fill="#9a32cd" stroke="#9a32cd" points="133.13,-58.2 136.62,-68.2 140.13,-58.2 133.13,-58.2"/>
</a>
</g>
<text text-anchor="middle" x="161" y="-41.05" font-family="Arial" font-size="11.00" fill="grey"> m_queue</text>
</g>
<!-- Node4 -->
<g id="Node000004" class="node">
<title>Node4</title>
<g id="a_Node000004"><a xlink:href="../../d4/db5/class_map_1_1_stream_segment_model.html" target="_top" xlink:title=" ">
<polygon fill="white" stroke="#bfbfbf" points="340,-90.25 215.25,-90.25 215.25,-69.5 340,-69.5 340,-90.25"/>
<text text-anchor="middle" x="277.62" y="-75.8" font-family="Arial" font-size="11.00">StreamSegmentModel</text>
</a>
</g>
</g>
<!-- Node4&#45;&gt;Node1 -->
<g id="edge3_Node000001_Node000004" class="edge">
<title>Node4&#45;&gt;Node1</title>
<g id="a_edge3_Node000001_Node000004"><a xlink:title=" ">
<path fill="none" stroke="#9a32cd" stroke-dasharray="5,2" d="M247.33,-64.37C220.11,-51.34 180.87,-32.55 157.15,-21.2"/>
<polygon fill="#9a32cd" stroke="#9a32cd" points="245.59,-67.9 256.12,-69.06 248.61,-61.59 245.59,-67.9"/>
</a>
</g>
<text text-anchor="middle" x="244" y="-41.05" font-family="Arial" font-size="11.00" fill="grey"> m_model</text>
</g>
<!-- Node5 -->
<g id="Node000005" class="node">
<title>Node5</title>
<g id="a_Node000005"><a xlink:title=" ">
<polygon fill="white" stroke="#bfbfbf" points="333.25,-148 222,-148 222,-127.25 333.25,-127.25 333.25,-148"/>
<text text-anchor="middle" x="277.62" y="-133.55" font-family="Arial" font-size="11.00">QAbstractListModel</text>
</a>
</g>
</g>
<!-- Node5&#45;&gt;Node4 -->
<g id="edge4_Node000004_Node000005" class="edge">
<title>Node5&#45;&gt;Node4</title>
<g id="a_edge4_Node000004_Node000005"><a xlink:title=" ">
<path fill="none" stroke="#63b8ff" d="M277.62,-115.98C277.62,-107.24 277.62,-97.48 277.62,-90.47"/>
<polygon fill="#63b8ff" stroke="#63b8ff" points="274.13,-115.91 277.62,-125.91 281.13,-115.91 274.13,-115.91"/>
</a>
</g>
</g>
</g>
</svg>
</svg>

<style type='text/css'>
<![CDATA[
[data-mouse-over-selected='false'] { opacity: 0.7; }
[data-mouse-over-selected='true']  { opacity: 1.0; }
]]>
</style>
<script type="application/ecmascript"><![CDATA[
document.addEventListener('DOMContentLoaded', (event) => {
  highlightEdges();
  highlightAdjacentNodes();
});
]]></script>
</svg>
