<?xml version="1.0" encoding="UTF-8" standalone="no"?>
<!DOCTYPE svg PUBLIC "-//W3C//DTD SVG 1.1//EN"
 "http://www.w3.org/Graphics/SVG/1.1/DTD/svg11.dtd">
<!-- Generated by graphviz version 8.1.0 (20230707.0739)
 -->
<!-- Title: imessage.h Pages: 1 -->
<svg width="230pt" height="86pt"
 viewBox="0.00 0.00 229.88 85.50" xmlns="http://www.w3.org/2000/svg" xmlns:xlink="http://www.w3.org/1999/xlink">
<g id="graph0" class="graph" transform="scale(1 1) rotate(0) translate(4 81.5)">
<title>imessage.h</title>
<!-- Node1 -->
<g id="Node000001" class="node">
<title>Node1</title>
<g id="a_Node000001"><a xlink:title=" ">
<polygon fill="#999999" stroke="#666666" points="142.75,-77.5 69.75,-77.5 69.75,-56.75 142.75,-56.75 142.75,-77.5"/>
<text text-anchor="middle" x="106.25" y="-63.05" font-family="Arial" font-size="11.00">imessage.h</text>
</a>
</g>
</g>
<!-- Node2 -->
<g id="Node000002" class="node">
<title>Node2</title>
<g id="a_Node000002"><a xlink:title=" ">
<polygon fill="#e0e0e0" stroke="#999999" points="92.5,-20.75 0,-20.75 0,0 92.5,0 92.5,-20.75"/>
<text text-anchor="middle" x="46.25" y="-6.3" font-family="Arial" font-size="11.00">QtCore/QString</text>
</a>
</g>
</g>
<!-- Node1&#45;&gt;Node2 -->
<g id="edge1_Node000001_Node000002" class="edge">
<title>Node1&#45;&gt;Node2</title>
<g id="a_edge1_Node000001_Node000002"><a xlink:title=" ">
<path fill="none" stroke="#63b8ff" d="M95.52,-56.34C86.99,-48.55 74.85,-37.47 64.76,-28.26"/>
<polygon fill="#63b8ff" stroke="#63b8ff" points="67.63,-26.23 57.88,-22.08 62.91,-31.4 67.63,-26.23"/>
</a>
</g>
</g>
<!-- Node3 -->
<g id="Node000003" class="node">
<title>Node3</title>
<g id="a_Node000003"><a xlink:title=" ">
<polygon fill="#e0e0e0" stroke="#999999" points="221.88,-20.75 110.62,-20.75 110.62,0 221.88,0 221.88,-20.75"/>
<text text-anchor="middle" x="166.25" y="-6.3" font-family="Arial" font-size="11.00">QtCore/QMetaType</text>
</a>
</g>
</g>
<!-- Node1&#45;&gt;Node3 -->
<g id="edge2_Node000001_Node000003" class="edge">
<title>Node1&#45;&gt;Node3</title>
<g id="a_edge2_Node000001_Node000003"><a xlink:title=" ">
<path fill="none" stroke="#63b8ff" d="M116.98,-56.34C125.51,-48.55 137.65,-37.47 147.74,-28.26"/>
<polygon fill="#63b8ff" stroke="#63b8ff" points="149.59,-31.4 154.62,-22.08 144.87,-26.23 149.59,-31.4"/>
</a>
</g>
</g>
</g>
</svg>
