<?xml version="1.0" encoding="UTF-8" standalone="no"?>
<!DOCTYPE svg PUBLIC "-//W3C//DTD SVG 1.1//EN"
 "http://www.w3.org/Graphics/SVG/1.1/DTD/svg11.dtd">
<!-- Generated by graphviz version 8.1.0 (20230707.0739)
 -->
<!-- Title: TelescopicImageMetadataID Pages: 1 -->
<svg width="140pt" height="92pt"
 viewBox="0.00 0.00 140.00 92.00" xmlns="http://www.w3.org/2000/svg" xmlns:xlink="http://www.w3.org/1999/xlink">
<g id="graph0" class="graph" transform="scale(1 1) rotate(0) translate(4 88)">
<title>TelescopicImageMetadataID</title>
<!-- Node1 -->
<g id="Node000001" class="node">
<title>Node1</title>
<g id="a_Node000001"><a xlink:title="Заголовок метаданных телескопического радиолокационного изображения.">
<polygon fill="#999999" stroke="none" points="132,-84 0,-84 0,0 132,0 132,-84"/>
<text text-anchor="start" x="4.88" y="-70.5" font-family="Helvetica,sans-Serif" font-size="10.00">TelescopicImageMetadataID</text>
<text text-anchor="start" x="8" y="-54.5" font-family="Helvetica,sans-Serif" font-size="10.00">+</text>
<text text-anchor="start" x="22" y="-54.5" font-family="Helvetica,sans-Serif" font-size="10.00">JPEG_HEADER_SIZE</text>
<text text-anchor="start" x="8" y="-38.5" font-family="Helvetica,sans-Serif" font-size="10.00">+</text>
<text text-anchor="start" x="22" y="-38.5" font-family="Helvetica,sans-Serif" font-size="10.00">meta_marker</text>
<text text-anchor="start" x="8" y="-22.5" font-family="Helvetica,sans-Serif" font-size="10.00">+</text>
<text text-anchor="start" x="22" y="-22.5" font-family="Helvetica,sans-Serif" font-size="10.00">meta_size</text>
<text text-anchor="start" x="64.5" y="-6.5" font-family="Helvetica,sans-Serif" font-size="10.00"> </text>
<polygon fill="#666666" stroke="#666666" points="0,-66 0,-66 132,-66 132,-66 0,-66"/>
<polygon fill="#666666" stroke="#666666" points="0,-18 0,-18 20,-18 20,-18 0,-18"/>
<polygon fill="#666666" stroke="#666666" points="20,-18 20,-18 132,-18 132,-18 20,-18"/>
<polygon fill="none" stroke="#666666" points="0,0 0,-84 132,-84 132,0 0,0"/>
</a>
</g>
</g>
</g>
</svg>
