<?xml version="1.0" encoding="UTF-8" standalone="no"?>
<!DOCTYPE svg PUBLIC "-//W3C//DTD SVG 1.1//EN"
 "http://www.w3.org/Graphics/SVG/1.1/DTD/svg11.dtd">
<!-- Generated by graphviz version 8.1.0 (20230707.0739)
 -->
<!-- Title: imapobject.h Pages: 1 -->
<svg width="495pt" height="313pt"
 viewBox="0.00 0.00 494.75 312.50" xmlns="http://www.w3.org/2000/svg" xmlns:xlink="http://www.w3.org/1999/xlink">
<g id="graph0" class="graph" transform="scale(1 1) rotate(0) translate(4 308.5)">
<title>imapobject.h</title>
<!-- Node1 -->
<g id="Node000001" class="node">
<title>Node1</title>
<g id="a_Node000001"><a xlink:title=" ">
<polygon fill="#999999" stroke="#666666" points="279,-304.5 200.75,-304.5 200.75,-283.75 279,-283.75 279,-304.5"/>
<text text-anchor="middle" x="239.88" y="-290.05" font-family="Arial" font-size="11.00">imapobject.h</text>
</a>
</g>
</g>
<!-- Node2 -->
<g id="Node000002" class="node">
<title>Node2</title>
<g id="a_Node000002"><a xlink:href="../../db/d2f/basicmapobject_8h_source.html" target="_top" xlink:title=" ">
<polygon fill="white" stroke="#666666" points="291,-247.75 188.75,-247.75 188.75,-227 291,-227 291,-247.75"/>
<text text-anchor="middle" x="239.88" y="-233.3" font-family="Arial" font-size="11.00">basicmapobject.h</text>
</a>
</g>
</g>
<!-- Node1&#45;&gt;Node2 -->
<g id="edge1_Node000001_Node000002" class="edge">
<title>Node1&#45;&gt;Node2</title>
<g id="a_edge1_Node000001_Node000002"><a xlink:title=" ">
<path fill="none" stroke="#63b8ff" d="M239.88,-272.46C239.88,-264.09 239.88,-254.83 239.88,-248.08"/>
<polygon fill="#63b8ff" stroke="#63b8ff" points="236.38,-272.34 239.88,-282.34 243.38,-272.34 236.38,-272.34"/>
</a>
</g>
</g>
<!-- Node3 -->
<g id="Node000003" class="node">
<title>Node3</title>
<g id="a_Node000003"><a xlink:href="../../d7/d33/basicmapobject_8c_09_09_source.html" target="_top" xlink:title=" ">
<polygon fill="white" stroke="#666666" points="115.75,-191 0,-191 0,-170.25 115.75,-170.25 115.75,-191"/>
<text text-anchor="middle" x="57.88" y="-176.55" font-family="Arial" font-size="11.00">basicmapobject.c++</text>
</a>
</g>
</g>
<!-- Node2&#45;&gt;Node3 -->
<g id="edge2_Node000002_Node000003" class="edge">
<title>Node2&#45;&gt;Node3</title>
<g id="a_edge2_Node000002_Node000003"><a xlink:title=" ">
<path fill="none" stroke="#63b8ff" d="M197.19,-223.53C164.55,-213.72 120.25,-200.39 90.44,-191.42"/>
<polygon fill="#63b8ff" stroke="#63b8ff" points="195.75,-227.06 206.34,-226.59 197.77,-220.35 195.75,-227.06"/>
</a>
</g>
</g>
<!-- Node4 -->
<g id="Node000004" class="node">
<title>Node4</title>
<g id="a_Node000004"><a xlink:href="../../da/de4/fgsmapobject_8h_source.html" target="_top" xlink:title=" ">
<polygon fill="white" stroke="#666666" points="224.38,-191 133.38,-191 133.38,-170.25 224.38,-170.25 224.38,-191"/>
<text text-anchor="middle" x="178.88" y="-176.55" font-family="Arial" font-size="11.00">fgsmapobject.h</text>
</a>
</g>
</g>
<!-- Node2&#45;&gt;Node4 -->
<g id="edge3_Node000002_Node000004" class="edge">
<title>Node2&#45;&gt;Node4</title>
<g id="a_edge3_Node000002_Node000004"><a xlink:title=" ">
<path fill="none" stroke="#63b8ff" d="M220.95,-219.39C210.67,-210.16 198.33,-199.09 189.69,-191.33"/>
<polygon fill="#63b8ff" stroke="#63b8ff" points="218.19,-221.51 227.97,-225.59 222.87,-216.3 218.19,-221.51"/>
</a>
</g>
</g>
<!-- Node12 -->
<g id="Node000012" class="node">
<title>Node12</title>
<g id="a_Node000012"><a xlink:href="../../db/d65/scalablemapobject_8h_source.html" target="_top" xlink:title=" ">
<polygon fill="white" stroke="#666666" points="359.12,-191 242.62,-191 242.62,-170.25 359.12,-170.25 359.12,-191"/>
<text text-anchor="middle" x="300.88" y="-176.55" font-family="Arial" font-size="11.00">scalablemapobject.h</text>
</a>
</g>
</g>
<!-- Node2&#45;&gt;Node12 -->
<g id="edge11_Node000002_Node000012" class="edge">
<title>Node2&#45;&gt;Node12</title>
<g id="a_edge11_Node000002_Node000012"><a xlink:title=" ">
<path fill="none" stroke="#63b8ff" d="M258.8,-219.39C269.08,-210.16 281.42,-199.09 290.06,-191.33"/>
<polygon fill="#63b8ff" stroke="#63b8ff" points="256.88,-216.3 251.78,-225.59 261.56,-221.51 256.88,-216.3"/>
</a>
</g>
</g>
<!-- Node13 -->
<g id="Node000013" class="node">
<title>Node13</title>
<g id="a_Node000013"><a xlink:href="../../da/d24/screenmapobject_8h_source.html" target="_top" xlink:title=" ">
<polygon fill="white" stroke="#666666" points="486.75,-191 377,-191 377,-170.25 486.75,-170.25 486.75,-191"/>
<text text-anchor="middle" x="431.88" y="-176.55" font-family="Arial" font-size="11.00">screenmapobject.h</text>
</a>
</g>
</g>
<!-- Node2&#45;&gt;Node13 -->
<g id="edge12_Node000002_Node000013" class="edge">
<title>Node2&#45;&gt;Node13</title>
<g id="a_edge12_Node000002_Node000013"><a xlink:title=" ">
<path fill="none" stroke="#63b8ff" d="M284.46,-223.66C318.93,-213.83 365.94,-200.43 397.52,-191.42"/>
<polygon fill="#63b8ff" stroke="#63b8ff" points="283.86,-220.48 275.2,-226.59 285.78,-227.21 283.86,-220.48"/>
</a>
</g>
</g>
<!-- Node5 -->
<g id="Node000005" class="node">
<title>Node5</title>
<g id="a_Node000005"><a xlink:href="../../d0/d04/fgsmapobject_8c_09_09_source.html" target="_top" xlink:title=" ">
<polygon fill="white" stroke="#666666" points="176.12,-134.25 71.62,-134.25 71.62,-113.5 176.12,-113.5 176.12,-134.25"/>
<text text-anchor="middle" x="123.88" y="-119.8" font-family="Arial" font-size="11.00">fgsmapobject.c++</text>
</a>
</g>
</g>
<!-- Node4&#45;&gt;Node5 -->
<g id="edge4_Node000004_Node000005" class="edge">
<title>Node4&#45;&gt;Node5</title>
<g id="a_edge4_Node000004_Node000005"><a xlink:title=" ">
<path fill="none" stroke="#63b8ff" d="M161.25,-162.08C152.1,-152.97 141.26,-142.18 133.62,-134.58"/>
<polygon fill="#63b8ff" stroke="#63b8ff" points="158.49,-164.26 168.04,-168.84 163.42,-159.3 158.49,-164.26"/>
</a>
</g>
</g>
<!-- Node6 -->
<g id="Node000006" class="node">
<title>Node6</title>
<g id="a_Node000006"><a xlink:href="../../d7/d16/mapimage_8h_source.html" target="_top" xlink:title=" ">
<polygon fill="white" stroke="#666666" points="271.25,-134.25 194.5,-134.25 194.5,-113.5 271.25,-113.5 271.25,-134.25"/>
<text text-anchor="middle" x="232.88" y="-119.8" font-family="Arial" font-size="11.00">mapimage.h</text>
</a>
</g>
</g>
<!-- Node4&#45;&gt;Node6 -->
<g id="edge5_Node000004_Node000006" class="edge">
<title>Node4&#45;&gt;Node6</title>
<g id="a_edge5_Node000004_Node000006"><a xlink:title=" ">
<path fill="none" stroke="#63b8ff" d="M196.18,-162.08C205.16,-152.97 215.8,-142.18 223.3,-134.58"/>
<polygon fill="#63b8ff" stroke="#63b8ff" points="194.06,-159.26 189.53,-168.84 199.04,-164.17 194.06,-159.26"/>
</a>
</g>
</g>
<!-- Node7 -->
<g id="Node000007" class="node">
<title>Node7</title>
<g id="a_Node000007"><a xlink:href="../../d1/d61/mapcompleteimage_8h_source.html" target="_top" xlink:title=" ">
<polygon fill="white" stroke="#666666" points="169.75,-77.5 48,-77.5 48,-56.75 169.75,-56.75 169.75,-77.5"/>
<text text-anchor="middle" x="108.88" y="-63.05" font-family="Arial" font-size="11.00">mapcompleteimage.h</text>
</a>
</g>
</g>
<!-- Node6&#45;&gt;Node7 -->
<g id="edge6_Node000006_Node000007" class="edge">
<title>Node6&#45;&gt;Node7</title>
<g id="a_edge6_Node000006_Node000007"><a xlink:title=" ">
<path fill="none" stroke="#63b8ff" d="M200.83,-108.72C178.85,-99.02 150.28,-86.41 130.85,-77.83"/>
<polygon fill="#63b8ff" stroke="#63b8ff" points="199.14,-112.25 209.71,-113.09 201.97,-105.85 199.14,-112.25"/>
</a>
</g>
</g>
<!-- Node9 -->
<g id="Node000009" class="node">
<title>Node9</title>
<g id="a_Node000009"><a xlink:href="../../d2/daa/mapimage_8c_09_09_source.html" target="_top" xlink:title=" ">
<polygon fill="white" stroke="#666666" points="278,-77.5 187.75,-77.5 187.75,-56.75 278,-56.75 278,-77.5"/>
<text text-anchor="middle" x="232.88" y="-63.05" font-family="Arial" font-size="11.00">mapimage.c++</text>
</a>
</g>
</g>
<!-- Node6&#45;&gt;Node9 -->
<g id="edge8_Node000006_Node000009" class="edge">
<title>Node6&#45;&gt;Node9</title>
<g id="a_edge8_Node000006_Node000009"><a xlink:title=" ">
<path fill="none" stroke="#63b8ff" d="M232.88,-102.21C232.88,-93.84 232.88,-84.58 232.88,-77.83"/>
<polygon fill="#63b8ff" stroke="#63b8ff" points="229.38,-102.09 232.88,-112.09 236.38,-102.09 229.38,-102.09"/>
</a>
</g>
</g>
<!-- Node10 -->
<g id="Node000010" class="node">
<title>Node10</title>
<g id="a_Node000010"><a xlink:href="../../d1/da7/mapimagesegment_8h_source.html" target="_top" xlink:title=" ">
<polygon fill="white" stroke="#666666" points="415.62,-77.5 296.12,-77.5 296.12,-56.75 415.62,-56.75 415.62,-77.5"/>
<text text-anchor="middle" x="355.88" y="-63.05" font-family="Arial" font-size="11.00">mapimagesegment.h</text>
</a>
</g>
</g>
<!-- Node6&#45;&gt;Node10 -->
<g id="edge9_Node000006_Node000010" class="edge">
<title>Node6&#45;&gt;Node10</title>
<g id="a_edge9_Node000006_Node000010"><a xlink:title=" ">
<path fill="none" stroke="#63b8ff" d="M264.66,-108.72C286.46,-99.02 314.81,-86.41 334.08,-77.83"/>
<polygon fill="#63b8ff" stroke="#63b8ff" points="263.58,-105.82 255.86,-113.09 266.42,-112.22 263.58,-105.82"/>
</a>
</g>
</g>
<!-- Node8 -->
<g id="Node000008" class="node">
<title>Node8</title>
<g id="a_Node000008"><a xlink:href="../../d2/dca/mapcompleteimage_8c_09_09_source.html" target="_top" xlink:title=" ">
<polygon fill="white" stroke="#666666" points="176.5,-20.75 41.25,-20.75 41.25,0 176.5,0 176.5,-20.75"/>
<text text-anchor="middle" x="108.88" y="-6.3" font-family="Arial" font-size="11.00">mapcompleteimage.c++</text>
</a>
</g>
</g>
<!-- Node7&#45;&gt;Node8 -->
<g id="edge7_Node000007_Node000008" class="edge">
<title>Node7&#45;&gt;Node8</title>
<g id="a_edge7_Node000007_Node000008"><a xlink:title=" ">
<path fill="none" stroke="#63b8ff" d="M108.88,-45.46C108.88,-37.09 108.88,-27.83 108.88,-21.08"/>
<polygon fill="#63b8ff" stroke="#63b8ff" points="105.38,-45.34 108.88,-55.34 112.38,-45.34 105.38,-45.34"/>
</a>
</g>
</g>
<!-- Node11 -->
<g id="Node000011" class="node">
<title>Node11</title>
<g id="a_Node000011"><a xlink:href="../../dd/d06/mapimagesegment_8c_09_09_source.html" target="_top" xlink:title=" ">
<polygon fill="white" stroke="#666666" points="422.38,-20.75 289.38,-20.75 289.38,0 422.38,0 422.38,-20.75"/>
<text text-anchor="middle" x="355.88" y="-6.3" font-family="Arial" font-size="11.00">mapimagesegment.c++</text>
</a>
</g>
</g>
<!-- Node10&#45;&gt;Node11 -->
<g id="edge10_Node000010_Node000011" class="edge">
<title>Node10&#45;&gt;Node11</title>
<g id="a_edge10_Node000010_Node000011"><a xlink:title=" ">
<path fill="none" stroke="#63b8ff" d="M355.88,-45.46C355.88,-37.09 355.88,-27.83 355.88,-21.08"/>
<polygon fill="#63b8ff" stroke="#63b8ff" points="352.38,-45.34 355.88,-55.34 359.38,-45.34 352.38,-45.34"/>
</a>
</g>
</g>
</g>
</svg>
