<?xml version="1.0" encoding="UTF-8" standalone="no"?>
<!DOCTYPE svg PUBLIC "-//W3C//DTD SVG 1.1//EN"
 "http://www.w3.org/Graphics/SVG/1.1/DTD/svg11.dtd">
<!-- Generated by graphviz version 8.1.0 (20230707.0739)
 -->
<!-- Title: IConnectable Pages: 1 -->
<!--zoomable 199 -->

<svg id="main" version="1.1" xmlns="http://www.w3.org/2000/svg" xmlns:xlink="http://www.w3.org/1999/xlink" xml:space="preserve" onload="init(evt)">
<style type="text/css"><![CDATA[
.node, .edge {opacity: 0.7;}
.node.selected, .edge.selected {opacity: 1;}
.edge:hover path { stroke: red; }
.edge:hover polygon { stroke: red; fill: red; }
]]></style>

<defs>
  <circle id="rim" cx="0" cy="0" r="7"/>
  <circle id="rim2" cx="0" cy="0" r="3.5"/>
  <g id="zoomPlus">
    <use xlink:href="#rim" fill="#404040"><set attributeName="fill" to="#808080" begin="zoomplus.mouseover" end="zoomplus.mouseout"/></use>
    <path d="M-4,0h8M0,-4v8" fill="none" stroke="white" stroke-width="1.5" pointer-events="none"/>
  </g>
  <g id="zoomMin">
    <use xlink:href="#rim" fill="#404040"><set attributeName="fill" to="#808080" begin="zoomminus.mouseover" end="zoomminus.mouseout"/></use>
    <path d="M-4,0h8" fill="none" stroke="white" stroke-width="1.5" pointer-events="none"/>
  </g>
  <g id="arrowUp" transform="translate(30 24)">
    <use xlink:href="#rim"/>
    <path pointer-events="none" fill="none" stroke="white" stroke-width="1.5" d="M0,-3.0v7 M-2.5,-0.5L0,-3.0L2.5,-0.5"/>
  </g>
  <g id="arrowRight" transform="rotate(90) translate(36 -43)">
    <use xlink:href="#rim"/>
    <path pointer-events="none" fill="none" stroke="white" stroke-width="1.5" d="M0,-3.0v7 M-2.5,-0.5L0,-3.0L2.5,-0.5"/>
  </g>
  <g id="arrowDown" transform="rotate(180) translate(-30 -48)">
    <use xlink:href="#rim"/>
    <path pointer-events="none" fill="none" stroke="white" stroke-width="1.5" d="M0,-3.0v7 M-2.5,-0.5L0,-3.0L2.5,-0.5"/>
  </g>
  <g id="arrowLeft" transform="rotate(270) translate(-36 17)">
    <use xlink:href="#rim"/>
    <path pointer-events="none" fill="none" stroke="white" stroke-width="1.5" d="M0,-3.0v7 M-2.5,-0.5L0,-3.0L2.5,-0.5"/>
  </g>
  <g id="resetDef">
    <use xlink:href="#rim2" fill="#404040"><set attributeName="fill" to="#808080" begin="reset.mouseover" end="reset.mouseout"/></use>
  </g>
</defs>
<script type="application/ecmascript">
var viewWidth = 575;
var viewHeight = 199;
var sectionId = 'dynsection-0';
</script>
<script type="application/ecmascript" xlink:href="../../svg.min.js"/>
<svg id="graph" class="graph">
<g id="viewport">
<title>IConnectable</title>
<!-- Node1 -->
<g id="Node000001" class="node">
<title>Node1</title>
<g id="a_Node000001"><a xlink:title="Абстрактный интерфейс для классов с функционалом подключения и отключения к сетевому адресу.">
<polygon fill="#999999" stroke="#666666" points="426.12,-191 346.38,-191 346.38,-170.25 426.12,-170.25 426.12,-191"/>
<text text-anchor="middle" x="386.25" y="-176.55" font-family="Arial" font-size="11.00">IConnectable</text>
</a>
</g>
</g>
<!-- Node2 -->
<g id="Node000002" class="node">
<title>Node2</title>
<g id="a_Node000002"><a xlink:href="../../db/d21/class_quasar_s_d_k_1_1_base_u_d_p_socket.html" target="_top" xlink:title="Базовый класс для сокетов, работающих по протоколу UDP.">
<polygon fill="white" stroke="#666666" points="249.5,-134.25 151,-134.25 151,-113.5 249.5,-113.5 249.5,-134.25"/>
<text text-anchor="middle" x="200.25" y="-119.8" font-family="Arial" font-size="11.00">BaseUDPSocket</text>
</a>
</g>
</g>
<!-- Node1&#45;&gt;Node2 -->
<g id="edge1_Node000001_Node000002" class="edge">
<title>Node1&#45;&gt;Node2</title>
<g id="a_edge1_Node000001_Node000002"><a xlink:title=" ">
<path fill="none" stroke="#63b8ff" d="M342.62,-166.78C309.27,-156.97 263.99,-143.64 233.53,-134.67"/>
<polygon fill="#63b8ff" stroke="#63b8ff" points="341.42,-170.37 352,-169.84 343.39,-163.66 341.42,-170.37"/>
</a>
</g>
</g>
<!-- Node8 -->
<g id="Node000008" class="node">
<title>Node8</title>
<g id="a_Node000008"><a xlink:href="../../df/d2b/class_quasar_s_d_k_1_1_output_redirect_server.html" target="_top" xlink:title="Класс для перенаправления вывода РЛС в отдельный Telnet сервер.">
<polygon fill="white" stroke="#666666" points="390.5,-134.25 268,-134.25 268,-113.5 390.5,-113.5 390.5,-134.25"/>
<text text-anchor="middle" x="329.25" y="-119.8" font-family="Arial" font-size="11.00">OutputRedirectServer</text>
</a>
</g>
</g>
<!-- Node1&#45;&gt;Node8 -->
<g id="edge7_Node000001_Node000008" class="edge">
<title>Node1&#45;&gt;Node8</title>
<g id="a_edge7_Node000001_Node000008"><a xlink:title=" ">
<path fill="none" stroke="#63b8ff" d="M368.27,-162.36C358.73,-153.19 347.35,-142.26 339.35,-134.58"/>
<polygon fill="#63b8ff" stroke="#63b8ff" points="365.42,-164.43 375.06,-168.84 370.27,-159.39 365.42,-164.43"/>
</a>
</g>
</g>
<!-- Node9 -->
<g id="Node000009" class="node">
<title>Node9</title>
<g id="a_Node000009"><a xlink:href="../../de/d88/class_quasar_s_d_k_1_1_ping_tester.html" target="_top" xlink:title="Класс для постоянной проверки выбранного адреса на доступность.">
<polygon fill="white" stroke="#666666" points="477.88,-134.25 408.62,-134.25 408.62,-113.5 477.88,-113.5 477.88,-134.25"/>
<text text-anchor="middle" x="443.25" y="-119.8" font-family="Arial" font-size="11.00">PingTester</text>
</a>
</g>
</g>
<!-- Node1&#45;&gt;Node9 -->
<g id="edge8_Node000001_Node000009" class="edge">
<title>Node1&#45;&gt;Node9</title>
<g id="a_edge8_Node000001_Node000009"><a xlink:title=" ">
<path fill="none" stroke="#63b8ff" d="M404.23,-162.36C413.77,-153.19 425.15,-142.26 433.15,-134.58"/>
<polygon fill="#63b8ff" stroke="#63b8ff" points="402.23,-159.39 397.44,-168.84 407.08,-164.43 402.23,-159.39"/>
</a>
</g>
</g>
<!-- Node10 -->
<g id="Node000010" class="node">
<title>Node10</title>
<g id="a_Node000010"><a xlink:href="../../db/dbd/class_quasar_s_d_k_1_1_t_c_p_server.html" target="_top" xlink:title="Класс для приема больших файлов с РЛС по протоколу TCP&#45;IP.">
<polygon fill="white" stroke="#666666" points="566.62,-134.25 495.88,-134.25 495.88,-113.5 566.62,-113.5 566.62,-134.25"/>
<text text-anchor="middle" x="531.25" y="-119.8" font-family="Arial" font-size="11.00">TCPServer</text>
</a>
</g>
</g>
<!-- Node1&#45;&gt;Node10 -->
<g id="edge9_Node000001_Node000010" class="edge">
<title>Node1&#45;&gt;Node10</title>
<g id="a_edge9_Node000001_Node000010"><a xlink:title=" ">
<path fill="none" stroke="#63b8ff" d="M422.34,-166C448.21,-156.23 482.43,-143.31 505.55,-134.58"/>
<polygon fill="#63b8ff" stroke="#63b8ff" points="421.29,-163.03 413.17,-169.84 423.76,-169.58 421.29,-163.03"/>
</a>
</g>
</g>
<!-- Node3 -->
<g id="Node000003" class="node">
<title>Node3</title>
<g id="a_Node000003"><a xlink:href="../../dd/dce/class_quasar_s_d_k_1_1_execd_socket.html" target="_top" xlink:title="Сокет для отправки команд на РЛС.">
<polygon fill="white" stroke="#666666" points="80.5,-77.5 0,-77.5 0,-56.75 80.5,-56.75 80.5,-77.5"/>
<text text-anchor="middle" x="40.25" y="-63.05" font-family="Arial" font-size="11.00">ExecdSocket</text>
</a>
</g>
</g>
<!-- Node2&#45;&gt;Node3 -->
<g id="edge2_Node000002_Node000003" class="edge">
<title>Node2&#45;&gt;Node3</title>
<g id="a_edge2_Node000002_Node000003"><a xlink:title=" ">
<path fill="none" stroke="#63b8ff" d="M161.6,-109.65C133.02,-99.87 94.74,-86.77 68.88,-77.92"/>
<polygon fill="#63b8ff" stroke="#63b8ff" points="160.05,-113.16 170.65,-113.09 162.32,-106.54 160.05,-113.16"/>
</a>
</g>
</g>
<!-- Node4 -->
<g id="Node000004" class="node">
<title>Node4</title>
<g id="a_Node000004"><a xlink:href="../../de/d4c/class_quasar_s_d_k_1_1_output_socket.html" target="_top" xlink:title="Сокет для приема и обработки вывода с РЛС.">
<polygon fill="white" stroke="#666666" points="181.62,-77.5 98.88,-77.5 98.88,-56.75 181.62,-56.75 181.62,-77.5"/>
<text text-anchor="middle" x="140.25" y="-63.05" font-family="Arial" font-size="11.00">OutputSocket</text>
</a>
</g>
</g>
<!-- Node2&#45;&gt;Node4 -->
<g id="edge3_Node000002_Node000004" class="edge">
<title>Node2&#45;&gt;Node4</title>
<g id="a_edge3_Node000002_Node000004"><a xlink:title=" ">
<path fill="none" stroke="#63b8ff" d="M181.63,-105.89C171.52,-96.66 159.39,-85.59 150.88,-77.83"/>
<polygon fill="#63b8ff" stroke="#63b8ff" points="178.78,-107.93 188.52,-112.09 183.5,-102.76 178.78,-107.93"/>
</a>
</g>
</g>
<!-- Node5 -->
<g id="Node000005" class="node">
<title>Node5</title>
<g id="a_Node000005"><a xlink:href="../../d5/d90/class_quasar_s_d_k_1_1_seamless_u_d_p_socket.html" target="_top" xlink:title="Базовый класс для UDP сокетов, требующих целостность датаграммы.">
<polygon fill="white" stroke="#666666" points="322.5,-77.5 200,-77.5 200,-56.75 322.5,-56.75 322.5,-77.5"/>
<text text-anchor="middle" x="261.25" y="-63.05" font-family="Arial" font-size="11.00">SeamlessUDPSocket</text>
</a>
</g>
</g>
<!-- Node2&#45;&gt;Node5 -->
<g id="edge4_Node000002_Node000005" class="edge">
<title>Node2&#45;&gt;Node5</title>
<g id="a_edge4_Node000002_Node000005"><a xlink:title=" ">
<path fill="none" stroke="#63b8ff" d="M219.18,-105.89C229.46,-96.66 241.79,-85.59 250.44,-77.83"/>
<polygon fill="#63b8ff" stroke="#63b8ff" points="217.26,-102.8 212.16,-112.09 221.94,-108.01 217.26,-102.8"/>
</a>
</g>
</g>
<!-- Node7 -->
<g id="Node000007" class="node">
<title>Node7</title>
<g id="a_Node000007"><a xlink:href="../../d5/d0a/class_quasar_s_d_k_1_1_telemetry_socket.html" target="_top" xlink:title="Класс для работы с сервисом navd2 на РЛС.">
<polygon fill="white" stroke="#666666" points="439.5,-77.5 341,-77.5 341,-56.75 439.5,-56.75 439.5,-77.5"/>
<text text-anchor="middle" x="390.25" y="-63.05" font-family="Arial" font-size="11.00">TelemetrySocket</text>
</a>
</g>
</g>
<!-- Node2&#45;&gt;Node7 -->
<g id="edge6_Node000002_Node000007" class="edge">
<title>Node2&#45;&gt;Node7</title>
<g id="a_edge6_Node000002_Node000007"><a xlink:title=" ">
<path fill="none" stroke="#63b8ff" d="M244.37,-110.16C278.48,-100.33 325,-86.93 356.26,-77.92"/>
<polygon fill="#63b8ff" stroke="#63b8ff" points="243.86,-106.95 235.22,-113.09 245.8,-113.68 243.86,-106.95"/>
</a>
</g>
</g>
<!-- Node6 -->
<g id="Node000006" class="node">
<title>Node6</title>
<g id="a_Node000006"><a xlink:href="../../d6/d4a/class_quasar_s_d_k_1_1_strip_socket.html" target="_top" xlink:title="Класс для приема больших файлов с РЛС по протоколу UDP.">
<polygon fill="white" stroke="#666666" points="297.38,-20.75 225.12,-20.75 225.12,0 297.38,0 297.38,-20.75"/>
<text text-anchor="middle" x="261.25" y="-6.3" font-family="Arial" font-size="11.00">StripSocket</text>
</a>
</g>
</g>
<!-- Node5&#45;&gt;Node6 -->
<g id="edge5_Node000005_Node000006" class="edge">
<title>Node5&#45;&gt;Node6</title>
<g id="a_edge5_Node000005_Node000006"><a xlink:title=" ">
<path fill="none" stroke="#63b8ff" d="M261.25,-45.46C261.25,-37.09 261.25,-27.83 261.25,-21.08"/>
<polygon fill="#63b8ff" stroke="#63b8ff" points="257.75,-45.34 261.25,-55.34 264.75,-45.34 257.75,-45.34"/>
</a>
</g>
</g>
</g>
</svg>

<g id="navigator" transform="translate(0 0)" fill="#404254">
  <rect fill="#f2f5e9" fill-opacity="0.5" stroke="#606060" stroke-width=".5" x="0" y="0" width="60" height="60"/>
  <use id="zoomplus" xlink:href="#zoomPlus" x="17" y="9" onmousedown="handleZoom(evt,'in')"/>
  <use id="zoomminus" xlink:href="#zoomMin" x="42" y="9" onmousedown="handleZoom(evt,'out')"/>
  <use id="reset" xlink:href="#resetDef" x="30" y="36" onmousedown="handleReset()"/>
   <use id="arrowup" xlink:href="#arrowUp" x="0" y="0" onmousedown="handlePan(0,-1)"/>
  <use id="arrowright" xlink:href="#arrowRight" x="0" y="0" onmousedown="handlePan(1,0)"/>
  <use id="arrowdown" xlink:href="#arrowDown" x="0" y="0" onmousedown="handlePan(0,1)"/>
  <use id="arrowleft" xlink:href="#arrowLeft" x="0" y="0" onmousedown="handlePan(-1,0)"/>
</g>
<svg viewBox="0 0 15 15" width="100%" height="30px" preserveAspectRatio="xMaxYMin meet">
 <g id="arrow_out" transform="scale(0.3 0.3)">
  <a xlink:href="class_quasar_s_d_k_1_1_i_connectable__inherit__graph_org.svg" target="_base">
   <rect id="button" ry="5" rx="5" y="6" x="6" height="38" width="38"
        fill="#f2f5e9" fill-opacity="0.5" stroke="#606060" stroke-width="1.0"/>
   <path id="arrow"
     d="M 11.500037,31.436501 C 11.940474,20.09759 22.043105,11.32322 32.158766,21.979434 L 37.068811,17.246167 C 37.068811,17.246167 37.088388,32 37.088388,32 L 22.160133,31.978069 C 22.160133,31.978069 26.997745,27.140456 26.997745,27.140456 C 18.528582,18.264221 13.291696,25.230495 11.500037,31.436501 z"
     style="fill:#404040;"/>
  </a>
 </g>
</svg>

<style type='text/css'>
<![CDATA[
[data-mouse-over-selected='false'] { opacity: 0.7; }
[data-mouse-over-selected='true']  { opacity: 1.0; }
]]>
</style>
<script type="application/ecmascript"><![CDATA[
document.addEventListener('DOMContentLoaded', (event) => {
  highlightEdges();
  highlightAdjacentNodes();
});
]]></script>
</svg>
