<?xml version="1.0" encoding="UTF-8" standalone="no"?>
<!DOCTYPE svg PUBLIC "-//W3C//DTD SVG 1.1//EN"
 "http://www.w3.org/Graphics/SVG/1.1/DTD/svg11.dtd">
<!-- Generated by graphviz version 8.1.0 (20230707.0739)
 -->
<!-- Title: iconnectable.h Pages: 1 -->
<svg width="1151pt" height="256pt"
 viewBox="0.00 0.00 1151.33 255.75" xmlns="http://www.w3.org/2000/svg" xmlns:xlink="http://www.w3.org/1999/xlink">
<g id="graph0" class="graph" transform="scale(1 1) rotate(0) translate(4 251.75)">
<title>iconnectable.h</title>
<!-- Node1 -->
<g id="Node000001" class="node">
<title>Node1</title>
<g id="a_Node000001"><a xlink:title=" ">
<polygon fill="#999999" stroke="#666666" points="916.12,-247.75 829.62,-247.75 829.62,-227 916.12,-227 916.12,-247.75"/>
<text text-anchor="middle" x="872.88" y="-233.3" font-family="Arial" font-size="11.00">iconnectable.h</text>
</a>
</g>
</g>
<!-- Node2 -->
<g id="Node000002" class="node">
<title>Node2</title>
<g id="a_Node000002"><a xlink:href="../../df/d1a/baseudpsocket_8h_source.html" target="_top" xlink:title=" ">
<polygon fill="white" stroke="#666666" points="537.5,-191 438.25,-191 438.25,-170.25 537.5,-170.25 537.5,-191"/>
<text text-anchor="middle" x="487.88" y="-176.55" font-family="Arial" font-size="11.00">baseudpsocket.h</text>
</a>
</g>
</g>
<!-- Node1&#45;&gt;Node2 -->
<g id="edge1_Node000001_Node000002" class="edge">
<title>Node1&#45;&gt;Node2</title>
<g id="a_edge1_Node000001_Node000002"><a xlink:title=" ">
<path fill="none" stroke="#63b8ff" d="M818.88,-228.7C744.17,-218.07 610.3,-199.03 537.8,-188.73"/>
<polygon fill="#63b8ff" stroke="#63b8ff" points="818.07,-232.26 828.46,-230.2 819.05,-225.33 818.07,-232.26"/>
</a>
</g>
</g>
<!-- Node15 -->
<g id="Node000015" class="node">
<title>Node15</title>
<g id="a_Node000015"><a xlink:href="../../df/d6a/pingtester_8h_source.html" target="_top" xlink:title=" ">
<polygon fill="white" stroke="#666666" points="961.38,-191 888.38,-191 888.38,-170.25 961.38,-170.25 961.38,-191"/>
<text text-anchor="middle" x="924.88" y="-176.55" font-family="Arial" font-size="11.00">pingtester.h</text>
</a>
</g>
</g>
<!-- Node1&#45;&gt;Node15 -->
<g id="edge17_Node000001_Node000015" class="edge">
<title>Node1&#45;&gt;Node15</title>
<g id="a_edge17_Node000001_Node000015"><a xlink:title=" ">
<path fill="none" stroke="#63b8ff" d="M889.54,-218.83C898.19,-209.72 908.43,-198.93 915.66,-191.33"/>
<polygon fill="#63b8ff" stroke="#63b8ff" points="887.52,-215.93 883.17,-225.59 892.6,-220.75 887.52,-215.93"/>
</a>
</g>
</g>
<!-- Node17 -->
<g id="Node000017" class="node">
<title>Node17</title>
<g id="a_Node000017"><a xlink:href="../../d9/d89/redirectserver_8h_source.html" target="_top" xlink:title=" ">
<polygon fill="white" stroke="#666666" points="1123.12,-191 1030.62,-191 1030.62,-170.25 1123.12,-170.25 1123.12,-191"/>
<text text-anchor="middle" x="1076.88" y="-176.55" font-family="Arial" font-size="11.00">redirectserver.h</text>
</a>
</g>
</g>
<!-- Node1&#45;&gt;Node17 -->
<g id="edge20_Node000001_Node000017" class="edge">
<title>Node1&#45;&gt;Node17</title>
<g id="a_edge20_Node000001_Node000017"><a xlink:title=" ">
<path fill="none" stroke="#63b8ff" d="M919.78,-223.79C956.44,-213.95 1006.68,-200.47 1040.38,-191.42"/>
<polygon fill="#63b8ff" stroke="#63b8ff" points="919.1,-220.61 910.35,-226.59 920.91,-227.38 919.1,-220.61"/>
</a>
</g>
</g>
<!-- Node19 -->
<g id="Node000019" class="node">
<title>Node19</title>
<g id="a_Node000019"><a xlink:href="../../de/dea/tcpserver_8h_source.html" target="_top" xlink:title=" ">
<polygon fill="white" stroke="#666666" points="857.25,-191 786.5,-191 786.5,-170.25 857.25,-170.25 857.25,-191"/>
<text text-anchor="middle" x="821.88" y="-176.55" font-family="Arial" font-size="11.00">tcpserver.h</text>
</a>
</g>
</g>
<!-- Node1&#45;&gt;Node19 -->
<g id="edge23_Node000001_Node000019" class="edge">
<title>Node1&#45;&gt;Node19</title>
<g id="a_edge23_Node000001_Node000019"><a xlink:title=" ">
<path fill="none" stroke="#63b8ff" d="M856.27,-218.55C847.84,-209.5 837.93,-198.86 830.91,-191.33"/>
<polygon fill="#63b8ff" stroke="#63b8ff" points="853.38,-220.66 862.76,-225.59 858.5,-215.88 853.38,-220.66"/>
</a>
</g>
</g>
<!-- Node3 -->
<g id="Node000003" class="node">
<title>Node3</title>
<g id="a_Node000003"><a xlink:href="../../d0/d0e/baseudpsocket_8c_09_09_source.html" target="_top" xlink:title=" ">
<polygon fill="white" stroke="#666666" points="603.25,-134.25 490.5,-134.25 490.5,-113.5 603.25,-113.5 603.25,-134.25"/>
<text text-anchor="middle" x="546.88" y="-119.8" font-family="Arial" font-size="11.00">baseudpsocket.c++</text>
</a>
</g>
</g>
<!-- Node2&#45;&gt;Node3 -->
<g id="edge2_Node000002_Node000003" class="edge">
<title>Node2&#45;&gt;Node3</title>
<g id="a_edge2_Node000002_Node000003"><a xlink:title=" ">
<path fill="none" stroke="#63b8ff" d="M506.48,-162.36C516.36,-153.19 528.14,-142.26 536.42,-134.58"/>
<polygon fill="#63b8ff" stroke="#63b8ff" points="504.37,-159.47 499.42,-168.84 509.13,-164.6 504.37,-159.47"/>
</a>
</g>
</g>
<!-- Node4 -->
<g id="Node000004" class="node">
<title>Node4</title>
<g id="a_Node000004"><a xlink:href="../../d7/d60/execdsocket_8h_source.html" target="_top" xlink:title=" ">
<polygon fill="white" stroke="#666666" points="367.12,-134.25 280.62,-134.25 280.62,-113.5 367.12,-113.5 367.12,-134.25"/>
<text text-anchor="middle" x="323.88" y="-119.8" font-family="Arial" font-size="11.00">execdsocket.h</text>
</a>
</g>
</g>
<!-- Node2&#45;&gt;Node4 -->
<g id="edge3_Node000002_Node000004" class="edge">
<title>Node2&#45;&gt;Node4</title>
<g id="a_edge3_Node000002_Node000004"><a xlink:title=" ">
<path fill="none" stroke="#63b8ff" d="M448.26,-166.4C418.97,-156.62 379.73,-143.52 353.22,-134.67"/>
<polygon fill="#63b8ff" stroke="#63b8ff" points="446.96,-169.99 457.56,-169.84 449.18,-163.35 446.96,-169.99"/>
</a>
</g>
</g>
<!-- Node7 -->
<g id="Node000007" class="node">
<title>Node7</title>
<g id="a_Node000007"><a xlink:href="../../de/d24/outputsocket_8h_source.html" target="_top" xlink:title=" ">
<polygon fill="white" stroke="#666666" points="472.5,-134.25 385.25,-134.25 385.25,-113.5 472.5,-113.5 472.5,-134.25"/>
<text text-anchor="middle" x="428.88" y="-119.8" font-family="Arial" font-size="11.00">outputsocket.h</text>
</a>
</g>
</g>
<!-- Node2&#45;&gt;Node7 -->
<g id="edge6_Node000002_Node000007" class="edge">
<title>Node2&#45;&gt;Node7</title>
<g id="a_edge6_Node000002_Node000007"><a xlink:title=" ">
<path fill="none" stroke="#63b8ff" d="M469.27,-162.36C459.39,-153.19 447.61,-142.26 439.33,-134.58"/>
<polygon fill="#63b8ff" stroke="#63b8ff" points="466.62,-164.6 476.33,-168.84 471.38,-159.47 466.62,-164.6"/>
</a>
</g>
</g>
<!-- Node9 -->
<g id="Node000009" class="node">
<title>Node9</title>
<g id="a_Node000009"><a xlink:href="../../db/d74/seamlessudpsocket_8h_source.html" target="_top" xlink:title=" ">
<polygon fill="white" stroke="#666666" points="233.5,-134.25 110.25,-134.25 110.25,-113.5 233.5,-113.5 233.5,-134.25"/>
<text text-anchor="middle" x="171.88" y="-119.8" font-family="Arial" font-size="11.00">seamlessudpsocket.h</text>
</a>
</g>
</g>
<!-- Node2&#45;&gt;Node9 -->
<g id="edge9_Node000002_Node000009" class="edge">
<title>Node2&#45;&gt;Node9</title>
<g id="a_edge9_Node000002_Node000009"><a xlink:title=" ">
<path fill="none" stroke="#63b8ff" d="M427.09,-169.09C369.79,-159.17 284.6,-144.41 228.65,-134.71"/>
<polygon fill="#63b8ff" stroke="#63b8ff" points="426.35,-172.69 436.8,-170.95 427.55,-165.79 426.35,-172.69"/>
</a>
</g>
</g>
<!-- Node13 -->
<g id="Node000013" class="node">
<title>Node13</title>
<g id="a_Node000013"><a xlink:href="../../d6/d56/telemetrysocket_8h_source.html" target="_top" xlink:title=" ">
<polygon fill="white" stroke="#666666" points="724,-134.25 621.75,-134.25 621.75,-113.5 724,-113.5 724,-134.25"/>
<text text-anchor="middle" x="672.88" y="-119.8" font-family="Arial" font-size="11.00">telemetrysocket.h</text>
</a>
</g>
</g>
<!-- Node2&#45;&gt;Node13 -->
<g id="edge14_Node000002_Node000013" class="edge">
<title>Node2&#45;&gt;Node13</title>
<g id="a_edge14_Node000002_Node000013"><a xlink:title=" ">
<path fill="none" stroke="#63b8ff" d="M531.27,-166.78C564.44,-156.97 609.48,-143.64 639.78,-134.67"/>
<polygon fill="#63b8ff" stroke="#63b8ff" points="530.54,-163.64 521.95,-169.84 532.53,-170.36 530.54,-163.64"/>
</a>
</g>
</g>
<!-- Node5 -->
<g id="Node000005" class="node">
<title>Node5</title>
<g id="a_Node000005"><a xlink:href="../../d8/dc2/execdsocket_8c_09_09_source.html" target="_top" xlink:title=" ">
<polygon fill="white" stroke="#666666" points="357.88,-77.5 257.88,-77.5 257.88,-56.75 357.88,-56.75 357.88,-77.5"/>
<text text-anchor="middle" x="307.88" y="-63.05" font-family="Arial" font-size="11.00">execdsocket.c++</text>
</a>
</g>
</g>
<!-- Node4&#45;&gt;Node5 -->
<g id="edge4_Node000004_Node000005" class="edge">
<title>Node4&#45;&gt;Node5</title>
<g id="a_edge4_Node000004_Node000005"><a xlink:title=" ">
<path fill="none" stroke="#63b8ff" d="M318,-102.78C315.51,-94.27 312.73,-84.74 310.71,-77.83"/>
<polygon fill="#63b8ff" stroke="#63b8ff" points="314.85,-103.47 321.01,-112.09 321.57,-101.51 314.85,-103.47"/>
</a>
</g>
</g>
<!-- Node6 -->
<g id="Node000006" class="node">
<title>Node6</title>
<g id="a_Node000006"><a xlink:href="../../de/d4b/quasar__api_8c_09_09_source.html" target="_top" xlink:title=" ">
<polygon fill="white" stroke="#666666" points="760.12,-20.75 667.62,-20.75 667.62,0 760.12,0 760.12,-20.75"/>
<text text-anchor="middle" x="713.88" y="-6.3" font-family="Arial" font-size="11.00">quasar_api.c++</text>
</a>
</g>
</g>
<!-- Node4&#45;&gt;Node6 -->
<g id="edge5_Node000004_Node000006" class="edge">
<title>Node4&#45;&gt;Node6</title>
<g id="a_edge5_Node000004_Node000006"><a xlink:title=" ">
<path fill="none" stroke="#63b8ff" d="M339.65,-105.49C354.79,-90.02 379.09,-68.12 404.88,-56.75 491.95,-18.36 604.86,-11.28 667.26,-10.63"/>
<polygon fill="#63b8ff" stroke="#63b8ff" points="337.57,-102.66 333.24,-112.32 342.66,-107.47 337.57,-102.66"/>
</a>
</g>
</g>
<!-- Node7&#45;&gt;Node6 -->
<g id="edge8_Node000007_Node000006" class="edge">
<title>Node7&#45;&gt;Node6</title>
<g id="a_edge8_Node000007_Node000006"><a xlink:title=" ">
<path fill="none" stroke="#63b8ff" d="M459.83,-108.41C478.25,-99.68 502.03,-88.21 522.88,-77.5 539.99,-68.7 543.11,-64.14 560.88,-56.75 597.46,-41.54 640.91,-29.16 672.14,-21.2"/>
<polygon fill="#63b8ff" stroke="#63b8ff" points="458.48,-105.65 450.93,-113.08 461.47,-111.98 458.48,-105.65"/>
</a>
</g>
</g>
<!-- Node8 -->
<g id="Node000008" class="node">
<title>Node8</title>
<g id="a_Node000008"><a xlink:href="../../d0/db9/outputsocket_8c_09_09_source.html" target="_top" xlink:title=" ">
<polygon fill="white" stroke="#666666" points="514.25,-77.5 413.5,-77.5 413.5,-56.75 514.25,-56.75 514.25,-77.5"/>
<text text-anchor="middle" x="463.88" y="-63.05" font-family="Arial" font-size="11.00">outputsocket.c++</text>
</a>
</g>
</g>
<!-- Node7&#45;&gt;Node8 -->
<g id="edge7_Node000007_Node000008" class="edge">
<title>Node7&#45;&gt;Node8</title>
<g id="a_edge7_Node000007_Node000008"><a xlink:title=" ">
<path fill="none" stroke="#63b8ff" d="M440.99,-103.92C446.61,-95.13 453.06,-85.05 457.67,-77.83"/>
<polygon fill="#63b8ff" stroke="#63b8ff" points="437.57,-101.78 435.13,-112.09 443.47,-105.55 437.57,-101.78"/>
</a>
</g>
</g>
<!-- Node10 -->
<g id="Node000010" class="node">
<title>Node10</title>
<g id="a_Node000010"><a xlink:href="../../d6/dc0/seamlessudpsocket_8c_09_09_source.html" target="_top" xlink:title=" ">
<polygon fill="white" stroke="#666666" points="240.25,-77.5 103.5,-77.5 103.5,-56.75 240.25,-56.75 240.25,-77.5"/>
<text text-anchor="middle" x="171.88" y="-63.05" font-family="Arial" font-size="11.00">seamlessudpsocket.c++</text>
</a>
</g>
</g>
<!-- Node9&#45;&gt;Node10 -->
<g id="edge10_Node000009_Node000010" class="edge">
<title>Node9&#45;&gt;Node10</title>
<g id="a_edge10_Node000009_Node000010"><a xlink:title=" ">
<path fill="none" stroke="#63b8ff" d="M171.88,-102.21C171.88,-93.84 171.88,-84.58 171.88,-77.83"/>
<polygon fill="#63b8ff" stroke="#63b8ff" points="168.38,-102.09 171.88,-112.09 175.38,-102.09 168.38,-102.09"/>
</a>
</g>
</g>
<!-- Node11 -->
<g id="Node000011" class="node">
<title>Node11</title>
<g id="a_Node000011"><a xlink:href="../../de/d8b/stripsocket_8h_source.html" target="_top" xlink:title=" ">
<polygon fill="white" stroke="#666666" points="85,-77.5 6.75,-77.5 6.75,-56.75 85,-56.75 85,-77.5"/>
<text text-anchor="middle" x="45.88" y="-63.05" font-family="Arial" font-size="11.00">stripsocket.h</text>
</a>
</g>
</g>
<!-- Node9&#45;&gt;Node11 -->
<g id="edge11_Node000009_Node000011" class="edge">
<title>Node9&#45;&gt;Node11</title>
<g id="a_edge11_Node000009_Node000011"><a xlink:title=" ">
<path fill="none" stroke="#63b8ff" d="M139.31,-108.72C116.98,-99.02 87.94,-86.41 68.21,-77.83"/>
<polygon fill="#63b8ff" stroke="#63b8ff" points="137.78,-112.31 148.35,-113.09 140.57,-105.89 137.78,-112.31"/>
</a>
</g>
</g>
<!-- Node11&#45;&gt;Node6 -->
<g id="edge12_Node000011_Node000006" class="edge">
<title>Node11&#45;&gt;Node6</title>
<g id="a_edge12_Node000011_Node000006"><a xlink:title=" ">
<path fill="none" stroke="#63b8ff" d="M96.17,-56.75C315.96,-28.3 565.89,-16.76 667.49,-12.94"/>
<polygon fill="#63b8ff" stroke="#63b8ff" points="95.85,-53.39 86.39,-58.16 96.76,-60.33 95.85,-53.39"/>
</a>
</g>
</g>
<!-- Node12 -->
<g id="Node000012" class="node">
<title>Node12</title>
<g id="a_Node000012"><a xlink:href="../../d6/df1/stripsocket_8c_09_09_source.html" target="_top" xlink:title=" ">
<polygon fill="white" stroke="#666666" points="91.75,-20.75 0,-20.75 0,0 91.75,0 91.75,-20.75"/>
<text text-anchor="middle" x="45.88" y="-6.3" font-family="Arial" font-size="11.00">stripsocket.c++</text>
</a>
</g>
</g>
<!-- Node11&#45;&gt;Node12 -->
<g id="edge13_Node000011_Node000012" class="edge">
<title>Node11&#45;&gt;Node12</title>
<g id="a_edge13_Node000011_Node000012"><a xlink:title=" ">
<path fill="none" stroke="#63b8ff" d="M45.88,-45.46C45.88,-37.09 45.88,-27.83 45.88,-21.08"/>
<polygon fill="#63b8ff" stroke="#63b8ff" points="42.38,-45.34 45.88,-55.34 49.38,-45.34 42.38,-45.34"/>
</a>
</g>
</g>
<!-- Node13&#45;&gt;Node6 -->
<g id="edge15_Node000013_Node000006" class="edge">
<title>Node13&#45;&gt;Node6</title>
<g id="a_edge15_Node000013_Node000006"><a xlink:title=" ">
<path fill="none" stroke="#63b8ff" d="M683.28,-103.29C687.23,-95.41 691.56,-86.16 694.88,-77.5 702.39,-57.87 708.55,-33.98 711.67,-20.96"/>
<polygon fill="#63b8ff" stroke="#63b8ff" points="679.75,-101.51 678.27,-112 685.97,-104.72 679.75,-101.51"/>
</a>
</g>
</g>
<!-- Node14 -->
<g id="Node000014" class="node">
<title>Node14</title>
<g id="a_Node000014"><a xlink:href="../../d8/d04/telemetrysocket_8c_09_09_source.html" target="_top" xlink:title=" ">
<polygon fill="white" stroke="#666666" points="685.75,-77.5 570,-77.5 570,-56.75 685.75,-56.75 685.75,-77.5"/>
<text text-anchor="middle" x="627.88" y="-63.05" font-family="Arial" font-size="11.00">telemetrysocket.c++</text>
</a>
</g>
</g>
<!-- Node13&#45;&gt;Node14 -->
<g id="edge16_Node000013_Node000014" class="edge">
<title>Node13&#45;&gt;Node14</title>
<g id="a_edge16_Node000013_Node000014"><a xlink:title=" ">
<path fill="none" stroke="#63b8ff" d="M657.99,-104.77C650.61,-95.78 641.97,-85.28 635.85,-77.83"/>
<polygon fill="#63b8ff" stroke="#63b8ff" points="655.78,-106.58 664.83,-112.09 661.18,-102.14 655.78,-106.58"/>
</a>
</g>
</g>
<!-- Node15&#45;&gt;Node6 -->
<g id="edge19_Node000015_Node000006" class="edge">
<title>Node15&#45;&gt;Node6</title>
<g id="a_edge19_Node000015_Node000006"><a xlink:title=" ">
<path fill="none" stroke="#63b8ff" d="M951.35,-163.77C969.8,-150.65 989.08,-131.34 976.88,-113.5 928.18,-42.36 822.13,-20.77 760.61,-14.22"/>
<polygon fill="#63b8ff" stroke="#63b8ff" points="949.61,-161.39 943.23,-169.85 953.49,-167.22 949.61,-161.39"/>
</a>
</g>
</g>
<!-- Node16 -->
<g id="Node000016" class="node">
<title>Node16</title>
<g id="a_Node000016"><a xlink:href="../../d3/d3a/pingtester_8c_09_09_source.html" target="_top" xlink:title=" ">
<polygon fill="white" stroke="#666666" points="968.12,-134.25 881.62,-134.25 881.62,-113.5 968.12,-113.5 968.12,-134.25"/>
<text text-anchor="middle" x="924.88" y="-119.8" font-family="Arial" font-size="11.00">pingtester.c++</text>
</a>
</g>
</g>
<!-- Node15&#45;&gt;Node16 -->
<g id="edge18_Node000015_Node000016" class="edge">
<title>Node15&#45;&gt;Node16</title>
<g id="a_edge18_Node000015_Node000016"><a xlink:title=" ">
<path fill="none" stroke="#63b8ff" d="M924.88,-158.96C924.88,-150.59 924.88,-141.33 924.88,-134.58"/>
<polygon fill="#63b8ff" stroke="#63b8ff" points="921.38,-158.84 924.88,-168.84 928.38,-158.84 921.38,-158.84"/>
</a>
</g>
</g>
<!-- Node17&#45;&gt;Node6 -->
<g id="edge21_Node000017_Node000006" class="edge">
<title>Node17&#45;&gt;Node6</title>
<g id="a_edge21_Node000017_Node000006"><a xlink:title=" ">
<path fill="none" stroke="#63b8ff" d="M1107.35,-164.65C1129.42,-151.76 1153.08,-132.32 1138.88,-113.5 1093.33,-53.16 861.23,-24.88 760.56,-15.31"/>
<polygon fill="#63b8ff" stroke="#63b8ff" points="1105.86,-162.03 1098.79,-169.92 1109.23,-168.16 1105.86,-162.03"/>
</a>
</g>
</g>
<!-- Node18 -->
<g id="Node000018" class="node">
<title>Node18</title>
<g id="a_Node000018"><a xlink:href="../../d5/d8b/redirectserver_8c_09_09_source.html" target="_top" xlink:title=" ">
<polygon fill="white" stroke="#666666" points="1129.88,-134.25 1023.88,-134.25 1023.88,-113.5 1129.88,-113.5 1129.88,-134.25"/>
<text text-anchor="middle" x="1076.88" y="-119.8" font-family="Arial" font-size="11.00">redirectserver.c++</text>
</a>
</g>
</g>
<!-- Node17&#45;&gt;Node18 -->
<g id="edge22_Node000017_Node000018" class="edge">
<title>Node17&#45;&gt;Node18</title>
<g id="a_edge22_Node000017_Node000018"><a xlink:title=" ">
<path fill="none" stroke="#63b8ff" d="M1076.88,-158.96C1076.88,-150.59 1076.88,-141.33 1076.88,-134.58"/>
<polygon fill="#63b8ff" stroke="#63b8ff" points="1073.38,-158.84 1076.88,-168.84 1080.38,-158.84 1073.38,-158.84"/>
</a>
</g>
</g>
<!-- Node19&#45;&gt;Node6 -->
<g id="edge24_Node000019_Node000006" class="edge">
<title>Node19&#45;&gt;Node6</title>
<g id="a_edge24_Node000019_Node000006"><a xlink:title=" ">
<path fill="none" stroke="#63b8ff" d="M799.86,-163.42C790.09,-155.43 778.99,-145.17 770.88,-134.25 742.82,-96.5 723.81,-42.74 716.84,-21.02"/>
<polygon fill="#63b8ff" stroke="#63b8ff" points="797.31,-166.65 807.34,-170.07 801.63,-161.14 797.31,-166.65"/>
</a>
</g>
</g>
<!-- Node20 -->
<g id="Node000020" class="node">
<title>Node20</title>
<g id="a_Node000020"><a xlink:href="../../d8/d5b/tcpserver_8c_09_09_source.html" target="_top" xlink:title=" ">
<polygon fill="white" stroke="#666666" points="864,-134.25 779.75,-134.25 779.75,-113.5 864,-113.5 864,-134.25"/>
<text text-anchor="middle" x="821.88" y="-119.8" font-family="Arial" font-size="11.00">tcpserver.c++</text>
</a>
</g>
</g>
<!-- Node19&#45;&gt;Node20 -->
<g id="edge25_Node000019_Node000020" class="edge">
<title>Node19&#45;&gt;Node20</title>
<g id="a_edge25_Node000019_Node000020"><a xlink:title=" ">
<path fill="none" stroke="#63b8ff" d="M821.88,-158.96C821.88,-150.59 821.88,-141.33 821.88,-134.58"/>
<polygon fill="#63b8ff" stroke="#63b8ff" points="818.38,-158.84 821.88,-168.84 825.38,-158.84 818.38,-158.84"/>
</a>
</g>
</g>
</g>
</svg>
