<?xml version="1.0" encoding="UTF-8" standalone="no"?>
<!DOCTYPE svg PUBLIC "-//W3C//DTD SVG 1.1//EN"
 "http://www.w3.org/Graphics/SVG/1.1/DTD/svg11.dtd">
<!-- Generated by graphviz version 8.1.0 (20230707.0739)
 -->
<!-- Title: CColorProvider.h Pages: 1 -->
<svg width="320pt" height="86pt"
 viewBox="0.00 0.00 320.25 85.50" xmlns="http://www.w3.org/2000/svg" xmlns:xlink="http://www.w3.org/1999/xlink">
<g id="graph0" class="graph" transform="scale(1 1) rotate(0) translate(4 81.5)">
<title>CColorProvider.h</title>
<!-- Node1 -->
<g id="Node000001" class="node">
<title>Node1</title>
<g id="a_Node000001"><a xlink:title=" ">
<polygon fill="#999999" stroke="#666666" points="168.88,-77.5 68.88,-77.5 68.88,-56.75 168.88,-56.75 168.88,-77.5"/>
<text text-anchor="middle" x="118.88" y="-63.05" font-family="Arial" font-size="11.00">CColorProvider.h</text>
</a>
</g>
</g>
<!-- Node2 -->
<g id="Node000002" class="node">
<title>Node2</title>
<g id="a_Node000002"><a xlink:title=" ">
<polygon fill="#e0e0e0" stroke="#999999" points="37.75,-20.75 0,-20.75 0,0 37.75,0 37.75,-20.75"/>
<text text-anchor="middle" x="18.88" y="-6.3" font-family="Arial" font-size="11.00">map</text>
</a>
</g>
</g>
<!-- Node1&#45;&gt;Node2 -->
<g id="edge1_Node000001_Node000002" class="edge">
<title>Node1&#45;&gt;Node2</title>
<g id="a_edge1_Node000001_Node000002"><a xlink:title=" ">
<path fill="none" stroke="#63b8ff" d="M101,-56.34C85.78,-48.01 63.68,-35.91 46.24,-26.36"/>
<polygon fill="#63b8ff" stroke="#63b8ff" points="48.05,-22.81 37.6,-21.08 44.69,-28.95 48.05,-22.81"/>
</a>
</g>
</g>
<!-- Node3 -->
<g id="Node000003" class="node">
<title>Node3</title>
<g id="a_Node000003"><a xlink:title=" ">
<polygon fill="#e0e0e0" stroke="#999999" points="96.25,-20.75 55.5,-20.75 55.5,0 96.25,0 96.25,-20.75"/>
<text text-anchor="middle" x="75.88" y="-6.3" font-family="Arial" font-size="11.00">array</text>
</a>
</g>
</g>
<!-- Node1&#45;&gt;Node3 -->
<g id="edge2_Node000001_Node000003" class="edge">
<title>Node1&#45;&gt;Node3</title>
<g id="a_edge2_Node000001_Node000003"><a xlink:title=" ">
<path fill="none" stroke="#63b8ff" d="M111.19,-56.34C105.38,-48.94 97.24,-38.57 90.23,-29.66"/>
<polygon fill="#63b8ff" stroke="#63b8ff" points="92.43,-27.78 83.5,-22.08 86.92,-32.1 92.43,-27.78"/>
</a>
</g>
</g>
<!-- Node4 -->
<g id="Node000004" class="node">
<title>Node4</title>
<g id="a_Node000004"><a xlink:title=" ">
<polygon fill="#e0e0e0" stroke="#999999" points="211,-20.75 114.75,-20.75 114.75,0 211,0 211,-20.75"/>
<text text-anchor="middle" x="162.88" y="-6.3" font-family="Arial" font-size="11.00">QtCore/QObject</text>
</a>
</g>
</g>
<!-- Node1&#45;&gt;Node4 -->
<g id="edge3_Node000001_Node000004" class="edge">
<title>Node1&#45;&gt;Node4</title>
<g id="a_edge3_Node000001_Node000004"><a xlink:title=" ">
<path fill="none" stroke="#63b8ff" d="M126.74,-56.34C132.75,-48.86 141.19,-38.36 148.41,-29.38"/>
<polygon fill="#63b8ff" stroke="#63b8ff" points="151.54,-32.07 155.08,-22.08 146.08,-27.68 151.54,-32.07"/>
</a>
</g>
</g>
<!-- Node5 -->
<g id="Node000005" class="node">
<title>Node5</title>
<g id="a_Node000005"><a xlink:title=" ">
<polygon fill="#e0e0e0" stroke="#999999" points="312.25,-20.75 229.5,-20.75 229.5,0 312.25,0 312.25,-20.75"/>
<text text-anchor="middle" x="270.88" y="-6.3" font-family="Arial" font-size="11.00">QtGui/QColor</text>
</a>
</g>
</g>
<!-- Node1&#45;&gt;Node5 -->
<g id="edge4_Node000001_Node000005" class="edge">
<title>Node1&#45;&gt;Node5</title>
<g id="a_edge4_Node000001_Node000005"><a xlink:title=" ">
<path fill="none" stroke="#63b8ff" d="M146.05,-56.34C170.4,-47.57 206.34,-34.62 233.42,-24.87"/>
<polygon fill="#63b8ff" stroke="#63b8ff" points="234.46,-27.85 242.68,-21.17 232.09,-21.27 234.46,-27.85"/>
</a>
</g>
</g>
</g>
</svg>
