<?xml version="1.0" encoding="UTF-8" standalone="no"?>
<!DOCTYPE svg PUBLIC "-//W3C//DTD SVG 1.1//EN"
 "http://www.w3.org/Graphics/SVG/1.1/DTD/svg11.dtd">
<!-- Generated by graphviz version 8.1.0 (20230707.0739)
 -->
<!-- Title: imagemetadata.h Pages: 1 -->
<svg width="443pt" height="199pt"
 viewBox="0.00 0.00 443.25 199.00" xmlns="http://www.w3.org/2000/svg" xmlns:xlink="http://www.w3.org/1999/xlink">

<svg id="main" version="1.1" xmlns="http://www.w3.org/2000/svg" xmlns:xlink="http://www.w3.org/1999/xlink" xml:space="preserve" onload="init(evt)">
<style type="text/css"><![CDATA[
.node, .edge {opacity: 0.7;}
.node.selected, .edge.selected {opacity: 1;}
.edge:hover path { stroke: red; }
.edge:hover polygon { stroke: red; fill: red; }
]]></style>
<script type="application/ecmascript" xlink:href="../../svg.min.js"/>
<svg id="graph" class="graph">
<g id="graph0" class="graph" transform="scale(1 1) rotate(0) translate(4 195)">
<title>imagemetadata.h</title>
<!-- Node1 -->
<g id="Node000001" class="node">
<title>Node1</title>
<g id="a_Node000001"><a xlink:title=" ">
<polygon fill="#999999" stroke="#666666" points="285.62,-191 184.88,-191 184.88,-170.25 285.62,-170.25 285.62,-191"/>
<text text-anchor="middle" x="235.25" y="-176.55" font-family="Arial" font-size="11.00">imagemetadata.h</text>
</a>
</g>
</g>
<!-- Node2 -->
<g id="Node000002" class="node">
<title>Node2</title>
<g id="a_Node000002"><a xlink:href="../../d5/db2/image_8h_source.html" target="_top" xlink:title=" ">
<polygon fill="white" stroke="#666666" points="262.75,-134.25 207.75,-134.25 207.75,-113.5 262.75,-113.5 262.75,-134.25"/>
<text text-anchor="middle" x="235.25" y="-119.8" font-family="Arial" font-size="11.00">image.h</text>
</a>
</g>
</g>
<!-- Node1&#45;&gt;Node2 -->
<g id="edge1_Node000001_Node000002" class="edge">
<title>Node1&#45;&gt;Node2</title>
<g id="a_edge1_Node000001_Node000002"><a xlink:title=" ">
<path fill="none" stroke="#63b8ff" d="M235.25,-158.96C235.25,-150.59 235.25,-141.33 235.25,-134.58"/>
<polygon fill="#63b8ff" stroke="#63b8ff" points="231.75,-158.84 235.25,-168.84 238.75,-158.84 231.75,-158.84"/>
</a>
</g>
</g>
<!-- Node3 -->
<g id="Node000003" class="node">
<title>Node3</title>
<g id="a_Node000003"><a xlink:href="../../d0/d8b/imagemodel_8h_source.html" target="_top" xlink:title=" ">
<polygon fill="white" stroke="#666666" points="220.75,-77.5 135.75,-77.5 135.75,-56.75 220.75,-56.75 220.75,-77.5"/>
<text text-anchor="middle" x="178.25" y="-63.05" font-family="Arial" font-size="11.00">imagemodel.h</text>
</a>
</g>
</g>
<!-- Node2&#45;&gt;Node3 -->
<g id="edge2_Node000002_Node000003" class="edge">
<title>Node2&#45;&gt;Node3</title>
<g id="a_edge2_Node000002_Node000003"><a xlink:title=" ">
<path fill="none" stroke="#63b8ff" d="M217.27,-105.61C207.73,-96.44 196.35,-85.51 188.35,-77.83"/>
<polygon fill="#63b8ff" stroke="#63b8ff" points="214.42,-107.68 224.06,-112.09 219.27,-102.64 214.42,-107.68"/>
</a>
</g>
</g>
<!-- Node7 -->
<g id="Node000007" class="node">
<title>Node7</title>
<g id="a_Node000007"><a xlink:href="../../d1/d63/imageprocessing_8h_source.html" target="_top" xlink:title=" ">
<polygon fill="white" stroke="#666666" points="347.75,-77.5 238.75,-77.5 238.75,-56.75 347.75,-56.75 347.75,-77.5"/>
<text text-anchor="middle" x="293.25" y="-63.05" font-family="Arial" font-size="11.00">imageprocessing.h</text>
</a>
</g>
</g>
<!-- Node2&#45;&gt;Node7 -->
<g id="edge6_Node000002_Node000007" class="edge">
<title>Node2&#45;&gt;Node7</title>
<g id="a_edge6_Node000002_Node000007"><a xlink:title=" ">
<path fill="none" stroke="#63b8ff" d="M253.54,-105.61C263.25,-96.44 274.83,-85.51 282.97,-77.83"/>
<polygon fill="#63b8ff" stroke="#63b8ff" points="251.49,-102.68 246.62,-112.09 256.29,-107.77 251.49,-102.68"/>
</a>
</g>
</g>
<!-- Node4 -->
<g id="Node000004" class="node">
<title>Node4</title>
<g id="a_Node000004"><a xlink:href="../../db/d49/imagemodel_8c_09_09_source.html" target="_top" xlink:title=" ">
<polygon fill="white" stroke="#666666" points="98.5,-20.75 0,-20.75 0,0 98.5,0 98.5,-20.75"/>
<text text-anchor="middle" x="49.25" y="-6.3" font-family="Arial" font-size="11.00">imagemodel.c++</text>
</a>
</g>
</g>
<!-- Node3&#45;&gt;Node4 -->
<g id="edge3_Node000003_Node000004" class="edge">
<title>Node3&#45;&gt;Node4</title>
<g id="a_edge3_Node000003_Node000004"><a xlink:title=" ">
<path fill="none" stroke="#63b8ff" d="M145.22,-52.11C122.32,-42.39 92.41,-29.69 72.11,-21.08"/>
<polygon fill="#63b8ff" stroke="#63b8ff" points="143.61,-55.65 154.19,-56.34 146.35,-49.21 143.61,-55.65"/>
</a>
</g>
</g>
<!-- Node5 -->
<g id="Node000005" class="node">
<title>Node5</title>
<g id="a_Node000005"><a xlink:href="../../d5/dab/imageprocessing_8c_09_09_source.html" target="_top" xlink:title=" ">
<polygon fill="white" stroke="#666666" points="239.5,-20.75 117,-20.75 117,0 239.5,0 239.5,-20.75"/>
<text text-anchor="middle" x="178.25" y="-6.3" font-family="Arial" font-size="11.00">imageprocessing.c++</text>
</a>
</g>
</g>
<!-- Node3&#45;&gt;Node5 -->
<g id="edge4_Node000003_Node000005" class="edge">
<title>Node3&#45;&gt;Node5</title>
<g id="a_edge4_Node000003_Node000005"><a xlink:title=" ">
<path fill="none" stroke="#63b8ff" d="M178.25,-45.46C178.25,-37.09 178.25,-27.83 178.25,-21.08"/>
<polygon fill="#63b8ff" stroke="#63b8ff" points="174.75,-45.34 178.25,-55.34 181.75,-45.34 174.75,-45.34"/>
</a>
</g>
</g>
<!-- Node6 -->
<g id="Node000006" class="node">
<title>Node6</title>
<g id="a_Node000006"><a xlink:href="../../dc/d20/quasar_8c_09_09_source.html" target="_top" xlink:title=" ">
<polygon fill="white" stroke="#666666" points="329.38,-20.75 257.12,-20.75 257.12,0 329.38,0 329.38,-20.75"/>
<text text-anchor="middle" x="293.25" y="-6.3" font-family="Arial" font-size="11.00">quasar.c++</text>
</a>
</g>
</g>
<!-- Node3&#45;&gt;Node6 -->
<g id="edge5_Node000003_Node000006" class="edge">
<title>Node3&#45;&gt;Node6</title>
<g id="a_edge5_Node000003_Node000006"><a xlink:title=" ">
<path fill="none" stroke="#63b8ff" d="M208.53,-51.71C228.83,-42.05 255.02,-29.58 272.87,-21.08"/>
<polygon fill="#63b8ff" stroke="#63b8ff" points="207.33,-48.88 199.81,-56.34 210.34,-55.2 207.33,-48.88"/>
</a>
</g>
</g>
<!-- Node7&#45;&gt;Node5 -->
<g id="edge8_Node000007_Node000005" class="edge">
<title>Node7&#45;&gt;Node5</title>
<g id="a_edge8_Node000007_Node000005"><a xlink:title=" ">
<path fill="none" stroke="#63b8ff" d="M262.97,-51.71C242.67,-42.05 216.48,-29.58 198.63,-21.08"/>
<polygon fill="#63b8ff" stroke="#63b8ff" points="261.16,-55.2 271.69,-56.34 264.17,-48.88 261.16,-55.2"/>
</a>
</g>
</g>
<!-- Node7&#45;&gt;Node6 -->
<g id="edge9_Node000007_Node000006" class="edge">
<title>Node7&#45;&gt;Node6</title>
<g id="a_edge9_Node000007_Node000006"><a xlink:title=" ">
<path fill="none" stroke="#63b8ff" d="M293.25,-45.46C293.25,-37.09 293.25,-27.83 293.25,-21.08"/>
<polygon fill="#63b8ff" stroke="#63b8ff" points="289.75,-45.34 293.25,-55.34 296.75,-45.34 289.75,-45.34"/>
</a>
</g>
</g>
<!-- Node8 -->
<g id="Node000008" class="node">
<title>Node8</title>
<g id="a_Node000008"><a xlink:href="../../d6/ddc/filesystem_8c_09_09_source.html" target="_top" xlink:title=" ">
<polygon fill="white" stroke="#666666" points="435.25,-20.75 347.25,-20.75 347.25,0 435.25,0 435.25,-20.75"/>
<text text-anchor="middle" x="391.25" y="-6.3" font-family="Arial" font-size="11.00">filesystem.c++</text>
</a>
</g>
</g>
<!-- Node7&#45;&gt;Node8 -->
<g id="edge7_Node000007_Node000008" class="edge">
<title>Node7&#45;&gt;Node8</title>
<g id="a_edge7_Node000007_Node000008"><a xlink:title=" ">
<path fill="none" stroke="#63b8ff" d="M320.24,-51.04C337.37,-41.48 359.02,-29.38 373.88,-21.08"/>
<polygon fill="#63b8ff" stroke="#63b8ff" points="318.79,-48.4 311.77,-56.34 322.21,-54.52 318.79,-48.4"/>
</a>
</g>
</g>
</g>
</svg>
</svg>

<style type='text/css'>
<![CDATA[
[data-mouse-over-selected='false'] { opacity: 0.7; }
[data-mouse-over-selected='true']  { opacity: 1.0; }
]]>
</style>
<script type="application/ecmascript"><![CDATA[
document.addEventListener('DOMContentLoaded', (event) => {
  highlightEdges();
  highlightAdjacentNodes();
});
]]></script>
</svg>
