<?xml version="1.0" encoding="UTF-8" standalone="no"?>
<!DOCTYPE svg PUBLIC "-//W3C//DTD SVG 1.1//EN"
 "http://www.w3.org/Graphics/SVG/1.1/DTD/svg11.dtd">
<!-- Generated by graphviz version 8.1.0 (20230707.0739)
 -->
<!-- Title: SAROutputModel Pages: 1 -->
<svg width="119pt" height="142pt"
 viewBox="0.00 0.00 119.25 142.25" xmlns="http://www.w3.org/2000/svg" xmlns:xlink="http://www.w3.org/1999/xlink">
<g id="graph0" class="graph" transform="scale(1 1) rotate(0) translate(4 138.25)">
<title>SAROutputModel</title>
<!-- Node1 -->
<g id="Node000001" class="node">
<title>Node1</title>
<g id="a_Node000001"><a xlink:title="Класс&#45;модель, обрабатывающий и хранящий сообщения от РЛС (VT100).">
<polygon fill="#999999" stroke="#666666" points="105.62,-20.75 5.62,-20.75 5.62,0 105.62,0 105.62,-20.75"/>
<text text-anchor="middle" x="55.62" y="-6.3" font-family="Arial" font-size="11.00">SAROutputModel</text>
</a>
</g>
</g>
<!-- Node2 -->
<g id="Node000002" class="node">
<title>Node2</title>
<g id="a_Node000002"><a xlink:href="../../de/de9/class_quasar_s_d_k_1_1_i_o_1_1_message_model.html" target="_top" xlink:title="Базовый класс для модели сообщений.">
<polygon fill="white" stroke="#666666" points="100,-77.5 11.25,-77.5 11.25,-56.75 100,-56.75 100,-77.5"/>
<text text-anchor="middle" x="55.62" y="-63.05" font-family="Arial" font-size="11.00">MessageModel</text>
</a>
</g>
</g>
<!-- Node2&#45;&gt;Node1 -->
<g id="edge1_Node000001_Node000002" class="edge">
<title>Node2&#45;&gt;Node1</title>
<g id="a_edge1_Node000001_Node000002"><a xlink:title=" ">
<path fill="none" stroke="#63b8ff" d="M55.62,-45.46C55.62,-37.09 55.62,-27.83 55.62,-21.08"/>
<polygon fill="#63b8ff" stroke="#63b8ff" points="52.13,-45.34 55.62,-55.34 59.13,-45.34 52.13,-45.34"/>
</a>
</g>
</g>
<!-- Node3 -->
<g id="Node000003" class="node">
<title>Node3</title>
<g id="a_Node000003"><a xlink:title=" ">
<polygon fill="white" stroke="#bfbfbf" points="111.25,-134.25 0,-134.25 0,-113.5 111.25,-113.5 111.25,-134.25"/>
<text text-anchor="middle" x="55.62" y="-119.8" font-family="Arial" font-size="11.00">QAbstractListModel</text>
</a>
</g>
</g>
<!-- Node3&#45;&gt;Node2 -->
<g id="edge2_Node000002_Node000003" class="edge">
<title>Node3&#45;&gt;Node2</title>
<g id="a_edge2_Node000002_Node000003"><a xlink:title=" ">
<path fill="none" stroke="#63b8ff" d="M55.62,-102.21C55.62,-93.84 55.62,-84.58 55.62,-77.83"/>
<polygon fill="#63b8ff" stroke="#63b8ff" points="52.13,-102.09 55.62,-112.09 59.13,-102.09 52.13,-102.09"/>
</a>
</g>
</g>
</g>
</svg>
