<?xml version="1.0" encoding="UTF-8" standalone="no"?>
<!DOCTYPE svg PUBLIC "-//W3C//DTD SVG 1.1//EN"
 "http://www.w3.org/Graphics/SVG/1.1/DTD/svg11.dtd">
<!-- Generated by graphviz version 8.1.0 (20230707.0739)
 -->
<!-- Title: OfflineTileLoader::TileItem Pages: 1 -->
<svg width="95pt" height="104pt"
 viewBox="0.00 0.00 95.00 104.00" xmlns="http://www.w3.org/2000/svg" xmlns:xlink="http://www.w3.org/1999/xlink">

<svg id="main" version="1.1" xmlns="http://www.w3.org/2000/svg" xmlns:xlink="http://www.w3.org/1999/xlink" xml:space="preserve" onload="init(evt)">
<style type="text/css"><![CDATA[
.node, .edge {opacity: 0.7;}
.node.selected, .edge.selected {opacity: 1;}
.edge:hover path { stroke: red; }
.edge:hover polygon { stroke: red; fill: red; }
]]></style>
<script type="application/ecmascript" xlink:href="../../svg.min.js"/>
<svg id="graph" class="graph">
<g id="graph0" class="graph" transform="scale(1 1) rotate(0) translate(4 100)">
<title>OfflineTileLoader::TileItem</title>
<!-- Node1 -->
<g id="Node000001" class="node">
<title>Node1</title>
<g id="a_Node000001"><a xlink:title=" ">
<polygon fill="#999999" stroke="none" points="87,-96 0,-96 0,0 87,0 87,-96"/>
<text text-anchor="start" x="4.88" y="-82.5" font-family="Helvetica,sans-Serif" font-size="10.00">OfflineTileLoader::</text>
<text text-anchor="start" x="26.62" y="-70.5" font-family="Helvetica,sans-Serif" font-size="10.00">TileItem</text>
<text text-anchor="start" x="11.5" y="-54.5" font-family="Helvetica,sans-Serif" font-size="10.00">+</text>
<text text-anchor="start" x="29" y="-54.5" font-family="Helvetica,sans-Serif" font-size="10.00">zoom</text>
<text text-anchor="start" x="11.5" y="-38.5" font-family="Helvetica,sans-Serif" font-size="10.00">+</text>
<text text-anchor="start" x="29" y="-38.5" font-family="Helvetica,sans-Serif" font-size="10.00">x</text>
<text text-anchor="start" x="11.5" y="-22.5" font-family="Helvetica,sans-Serif" font-size="10.00">+</text>
<text text-anchor="start" x="29" y="-22.5" font-family="Helvetica,sans-Serif" font-size="10.00">y</text>
<text text-anchor="start" x="11.5" y="-6.5" font-family="Helvetica,sans-Serif" font-size="10.00">+</text>
<text text-anchor="start" x="29" y="-6.5" font-family="Helvetica,sans-Serif" font-size="10.00">TileItem()</text>
<polygon fill="#666666" stroke="#666666" points="0,-66 0,-66 87,-66 87,-66 0,-66"/>
<polygon fill="#666666" stroke="#666666" points="0,-18 0,-18 27,-18 27,-18 0,-18"/>
<polygon fill="#666666" stroke="#666666" points="27,-18 27,-18 87,-18 87,-18 27,-18"/>
<polygon fill="none" stroke="#666666" points="0,0 0,-96 87,-96 87,0 0,0"/>
</a>
</g>
</g>
</g>
</svg>
</svg>

<style type='text/css'>
<![CDATA[
[data-mouse-over-selected='false'] { opacity: 0.7; }
[data-mouse-over-selected='true']  { opacity: 1.0; }
]]>
</style>
<script type="application/ecmascript"><![CDATA[
document.addEventListener('DOMContentLoaded', (event) => {
  highlightEdges();
  highlightAdjacentNodes();
});
]]></script>
</svg>
