<?xml version="1.0" encoding="UTF-8" standalone="no"?>
<!DOCTYPE svg PUBLIC "-//W3C//DTD SVG 1.1//EN"
 "http://www.w3.org/Graphics/SVG/1.1/DTD/svg11.dtd">
<!-- Generated by graphviz version 8.1.0 (20230707.0739)
 -->
<!-- Title: StripSocket Pages: 1 -->
<svg width="184pt" height="199pt"
 viewBox="0.00 0.00 184.00 199.00" xmlns="http://www.w3.org/2000/svg" xmlns:xlink="http://www.w3.org/1999/xlink">
<g id="graph0" class="graph" transform="scale(1 1) rotate(0) translate(4 195)">
<title>StripSocket</title>
<!-- Node1 -->
<g id="Node000001" class="node">
<title>Node1</title>
<g id="a_Node000001"><a xlink:title="Класс для приема больших файлов с РЛС по протоколу UDP.">
<polygon fill="#999999" stroke="#666666" points="123.25,-20.75 51,-20.75 51,0 123.25,0 123.25,-20.75"/>
<text text-anchor="middle" x="87.12" y="-6.3" font-family="Arial" font-size="11.00">StripSocket</text>
</a>
</g>
</g>
<!-- Node2 -->
<g id="Node000002" class="node">
<title>Node2</title>
<g id="a_Node000002"><a xlink:href="../../d5/d90/class_quasar_s_d_k_1_1_seamless_u_d_p_socket.html" target="_top" xlink:title="Базовый класс для UDP сокетов, требующих целостность датаграммы.">
<polygon fill="white" stroke="#666666" points="148.38,-77.5 25.88,-77.5 25.88,-56.75 148.38,-56.75 148.38,-77.5"/>
<text text-anchor="middle" x="87.12" y="-63.05" font-family="Arial" font-size="11.00">SeamlessUDPSocket</text>
</a>
</g>
</g>
<!-- Node2&#45;&gt;Node1 -->
<g id="edge1_Node000001_Node000002" class="edge">
<title>Node2&#45;&gt;Node1</title>
<g id="a_edge1_Node000001_Node000002"><a xlink:title=" ">
<path fill="none" stroke="#63b8ff" d="M87.12,-45.46C87.12,-37.09 87.12,-27.83 87.12,-21.08"/>
<polygon fill="#63b8ff" stroke="#63b8ff" points="83.63,-45.34 87.12,-55.34 90.63,-45.34 83.63,-45.34"/>
</a>
</g>
</g>
<!-- Node3 -->
<g id="Node000003" class="node">
<title>Node3</title>
<g id="a_Node000003"><a xlink:href="../../db/d21/class_quasar_s_d_k_1_1_base_u_d_p_socket.html" target="_top" xlink:title="Базовый класс для сокетов, работающих по протоколу UDP.">
<polygon fill="white" stroke="#666666" points="136.38,-134.25 37.87,-134.25 37.87,-113.5 136.38,-113.5 136.38,-134.25"/>
<text text-anchor="middle" x="87.12" y="-119.8" font-family="Arial" font-size="11.00">BaseUDPSocket</text>
</a>
</g>
</g>
<!-- Node3&#45;&gt;Node2 -->
<g id="edge2_Node000002_Node000003" class="edge">
<title>Node3&#45;&gt;Node2</title>
<g id="a_edge2_Node000002_Node000003"><a xlink:title=" ">
<path fill="none" stroke="#63b8ff" d="M87.12,-102.21C87.12,-93.84 87.12,-84.58 87.12,-77.83"/>
<polygon fill="#63b8ff" stroke="#63b8ff" points="83.63,-102.09 87.12,-112.09 90.63,-102.09 83.63,-102.09"/>
</a>
</g>
</g>
<!-- Node4 -->
<g id="Node000004" class="node">
<title>Node4</title>
<g id="a_Node000004"><a xlink:title=" ">
<polygon fill="white" stroke="#bfbfbf" points="78.25,-191 0,-191 0,-170.25 78.25,-170.25 78.25,-191"/>
<text text-anchor="middle" x="39.12" y="-176.55" font-family="Arial" font-size="11.00">QUdpSocket</text>
</a>
</g>
</g>
<!-- Node4&#45;&gt;Node3 -->
<g id="edge3_Node000003_Node000004" class="edge">
<title>Node4&#45;&gt;Node3</title>
<g id="a_edge3_Node000003_Node000004"><a xlink:title=" ">
<path fill="none" stroke="#63b8ff" d="M54.75,-161.8C62.69,-152.75 72.02,-142.11 78.62,-134.58"/>
<polygon fill="#63b8ff" stroke="#63b8ff" points="51.67,-159.01 47.71,-168.84 56.93,-163.62 51.67,-159.01"/>
</a>
</g>
</g>
<!-- Node5 -->
<g id="Node000005" class="node">
<title>Node5</title>
<g id="a_Node000005"><a xlink:href="../../df/dac/class_quasar_s_d_k_1_1_i_connectable.html" target="_top" xlink:title="Абстрактный интерфейс для классов с функционалом подключения и отключения к сетевому адресу.">
<polygon fill="white" stroke="#666666" points="176,-191 96.25,-191 96.25,-170.25 176,-170.25 176,-191"/>
<text text-anchor="middle" x="136.12" y="-176.55" font-family="Arial" font-size="11.00">IConnectable</text>
</a>
</g>
</g>
<!-- Node5&#45;&gt;Node3 -->
<g id="edge4_Node000003_Node000005" class="edge">
<title>Node5&#45;&gt;Node3</title>
<g id="a_edge4_Node000003_Node000005"><a xlink:title=" ">
<path fill="none" stroke="#63b8ff" d="M120.17,-161.8C112.07,-152.75 102.55,-142.11 95.81,-134.58"/>
<polygon fill="#63b8ff" stroke="#63b8ff" points="117.09,-163.72 126.36,-168.84 122.3,-159.05 117.09,-163.72"/>
</a>
</g>
</g>
</g>
</svg>
