<?xml version="1.0" encoding="UTF-8" standalone="no"?>
<!DOCTYPE svg PUBLIC "-//W3C//DTD SVG 1.1//EN"
 "http://www.w3.org/Graphics/SVG/1.1/DTD/svg11.dtd">
<!-- Generated by graphviz version 8.1.0 (20230707.0739)
 -->
<!-- Title: isarimage.h Pages: 1 -->
<svg width="389pt" height="199pt"
 viewBox="0.00 0.00 389.12 199.00" xmlns="http://www.w3.org/2000/svg" xmlns:xlink="http://www.w3.org/1999/xlink">

<svg id="main" version="1.1" xmlns="http://www.w3.org/2000/svg" xmlns:xlink="http://www.w3.org/1999/xlink" xml:space="preserve" onload="init(evt)">
<style type="text/css"><![CDATA[
.node, .edge {opacity: 0.7;}
.node.selected, .edge.selected {opacity: 1;}
.edge:hover path { stroke: red; }
.edge:hover polygon { stroke: red; fill: red; }
]]></style>
<script type="application/ecmascript" xlink:href="../../svg.min.js"/>
<svg id="graph" class="graph">
<g id="graph0" class="graph" transform="scale(1 1) rotate(0) translate(4 195)">
<title>isarimage.h</title>
<!-- Node1 -->
<g id="Node000001" class="node">
<title>Node1</title>
<g id="a_Node000001"><a xlink:title=" ">
<polygon fill="#999999" stroke="#666666" points="228.12,-191 155.12,-191 155.12,-170.25 228.12,-170.25 228.12,-191"/>
<text text-anchor="middle" x="191.62" y="-176.55" font-family="Arial" font-size="11.00">isarimage.h</text>
</a>
</g>
</g>
<!-- Node2 -->
<g id="Node000002" class="node">
<title>Node2</title>
<g id="a_Node000002"><a xlink:href="../../d7/d16/mapimage_8h_source.html" target="_top" xlink:title=" ">
<polygon fill="white" stroke="#666666" points="230,-134.25 153.25,-134.25 153.25,-113.5 230,-113.5 230,-134.25"/>
<text text-anchor="middle" x="191.62" y="-119.8" font-family="Arial" font-size="11.00">mapimage.h</text>
</a>
</g>
</g>
<!-- Node1&#45;&gt;Node2 -->
<g id="edge1_Node000001_Node000002" class="edge">
<title>Node1&#45;&gt;Node2</title>
<g id="a_edge1_Node000001_Node000002"><a xlink:title=" ">
<path fill="none" stroke="#63b8ff" d="M191.62,-158.96C191.62,-150.59 191.62,-141.33 191.62,-134.58"/>
<polygon fill="#63b8ff" stroke="#63b8ff" points="188.13,-158.84 191.62,-168.84 195.13,-158.84 188.13,-158.84"/>
</a>
</g>
</g>
<!-- Node3 -->
<g id="Node000003" class="node">
<title>Node3</title>
<g id="a_Node000003"><a xlink:href="../../d1/d61/mapcompleteimage_8h_source.html" target="_top" xlink:title=" ">
<polygon fill="white" stroke="#666666" points="128.5,-77.5 6.75,-77.5 6.75,-56.75 128.5,-56.75 128.5,-77.5"/>
<text text-anchor="middle" x="67.62" y="-63.05" font-family="Arial" font-size="11.00">mapcompleteimage.h</text>
</a>
</g>
</g>
<!-- Node2&#45;&gt;Node3 -->
<g id="edge2_Node000002_Node000003" class="edge">
<title>Node2&#45;&gt;Node3</title>
<g id="a_edge2_Node000002_Node000003"><a xlink:title=" ">
<path fill="none" stroke="#63b8ff" d="M159.58,-108.72C137.6,-99.02 109.03,-86.41 89.6,-77.83"/>
<polygon fill="#63b8ff" stroke="#63b8ff" points="157.89,-112.25 168.46,-113.09 160.72,-105.85 157.89,-112.25"/>
</a>
</g>
</g>
<!-- Node5 -->
<g id="Node000005" class="node">
<title>Node5</title>
<g id="a_Node000005"><a xlink:href="../../d2/daa/mapimage_8c_09_09_source.html" target="_top" xlink:title=" ">
<polygon fill="white" stroke="#666666" points="236.75,-77.5 146.5,-77.5 146.5,-56.75 236.75,-56.75 236.75,-77.5"/>
<text text-anchor="middle" x="191.62" y="-63.05" font-family="Arial" font-size="11.00">mapimage.c++</text>
</a>
</g>
</g>
<!-- Node2&#45;&gt;Node5 -->
<g id="edge4_Node000002_Node000005" class="edge">
<title>Node2&#45;&gt;Node5</title>
<g id="a_edge4_Node000002_Node000005"><a xlink:title=" ">
<path fill="none" stroke="#63b8ff" d="M191.62,-102.21C191.62,-93.84 191.62,-84.58 191.62,-77.83"/>
<polygon fill="#63b8ff" stroke="#63b8ff" points="188.13,-102.09 191.62,-112.09 195.13,-102.09 188.13,-102.09"/>
</a>
</g>
</g>
<!-- Node6 -->
<g id="Node000006" class="node">
<title>Node6</title>
<g id="a_Node000006"><a xlink:href="../../d1/da7/mapimagesegment_8h_source.html" target="_top" xlink:title=" ">
<polygon fill="white" stroke="#666666" points="374.38,-77.5 254.88,-77.5 254.88,-56.75 374.38,-56.75 374.38,-77.5"/>
<text text-anchor="middle" x="314.62" y="-63.05" font-family="Arial" font-size="11.00">mapimagesegment.h</text>
</a>
</g>
</g>
<!-- Node2&#45;&gt;Node6 -->
<g id="edge5_Node000002_Node000006" class="edge">
<title>Node2&#45;&gt;Node6</title>
<g id="a_edge5_Node000002_Node000006"><a xlink:title=" ">
<path fill="none" stroke="#63b8ff" d="M223.41,-108.72C245.21,-99.02 273.56,-86.41 292.83,-77.83"/>
<polygon fill="#63b8ff" stroke="#63b8ff" points="222.33,-105.82 214.61,-113.09 225.17,-112.22 222.33,-105.82"/>
</a>
</g>
</g>
<!-- Node4 -->
<g id="Node000004" class="node">
<title>Node4</title>
<g id="a_Node000004"><a xlink:href="../../d2/dca/mapcompleteimage_8c_09_09_source.html" target="_top" xlink:title=" ">
<polygon fill="white" stroke="#666666" points="135.25,-20.75 0,-20.75 0,0 135.25,0 135.25,-20.75"/>
<text text-anchor="middle" x="67.62" y="-6.3" font-family="Arial" font-size="11.00">mapcompleteimage.c++</text>
</a>
</g>
</g>
<!-- Node3&#45;&gt;Node4 -->
<g id="edge3_Node000003_Node000004" class="edge">
<title>Node3&#45;&gt;Node4</title>
<g id="a_edge3_Node000003_Node000004"><a xlink:title=" ">
<path fill="none" stroke="#63b8ff" d="M67.62,-45.46C67.62,-37.09 67.62,-27.83 67.62,-21.08"/>
<polygon fill="#63b8ff" stroke="#63b8ff" points="64.13,-45.34 67.62,-55.34 71.13,-45.34 64.13,-45.34"/>
</a>
</g>
</g>
<!-- Node7 -->
<g id="Node000007" class="node">
<title>Node7</title>
<g id="a_Node000007"><a xlink:href="../../dd/d06/mapimagesegment_8c_09_09_source.html" target="_top" xlink:title=" ">
<polygon fill="white" stroke="#666666" points="381.12,-20.75 248.12,-20.75 248.12,0 381.12,0 381.12,-20.75"/>
<text text-anchor="middle" x="314.62" y="-6.3" font-family="Arial" font-size="11.00">mapimagesegment.c++</text>
</a>
</g>
</g>
<!-- Node6&#45;&gt;Node7 -->
<g id="edge6_Node000006_Node000007" class="edge">
<title>Node6&#45;&gt;Node7</title>
<g id="a_edge6_Node000006_Node000007"><a xlink:title=" ">
<path fill="none" stroke="#63b8ff" d="M314.62,-45.46C314.62,-37.09 314.62,-27.83 314.62,-21.08"/>
<polygon fill="#63b8ff" stroke="#63b8ff" points="311.13,-45.34 314.62,-55.34 318.13,-45.34 311.13,-45.34"/>
</a>
</g>
</g>
</g>
</svg>
</svg>

<style type='text/css'>
<![CDATA[
[data-mouse-over-selected='false'] { opacity: 0.7; }
[data-mouse-over-selected='true']  { opacity: 1.0; }
]]>
</style>
<script type="application/ecmascript"><![CDATA[
document.addEventListener('DOMContentLoaded', (event) => {
  highlightEdges();
  highlightAdjacentNodes();
});
]]></script>
</svg>
