<?xml version="1.0" encoding="UTF-8" standalone="no"?>
<!DOCTYPE svg PUBLIC "-//W3C//DTD SVG 1.1//EN"
 "http://www.w3.org/Graphics/SVG/1.1/DTD/svg11.dtd">
<!-- Generated by graphviz version 8.1.0 (20230707.0739)
 -->
<!-- Title: TelemetryRequest Pages: 1 -->
<svg width="96pt" height="124pt"
 viewBox="0.00 0.00 96.00 124.00" xmlns="http://www.w3.org/2000/svg" xmlns:xlink="http://www.w3.org/1999/xlink">
<g id="graph0" class="graph" transform="scale(1 1) rotate(0) translate(4 120)">
<title>TelemetryRequest</title>
<!-- Node1 -->
<g id="Node000001" class="node">
<title>Node1</title>
<g id="a_Node000001"><a xlink:title="Датаграмма запроса телеметрии от наземки к РЛС.">
<polygon fill="#999999" stroke="none" points="88,-116 0,-116 0,0 88,0 88,-116"/>
<text text-anchor="start" x="4.62" y="-102.5" font-family="Helvetica,sans-Serif" font-size="10.00">TelemetryRequest</text>
<text text-anchor="start" x="9.5" y="-86.5" font-family="Helvetica,sans-Serif" font-size="10.00">+</text>
<text text-anchor="start" x="25" y="-86.5" font-family="Helvetica,sans-Serif" font-size="10.00">marker</text>
<text text-anchor="start" x="9.5" y="-70.5" font-family="Helvetica,sans-Serif" font-size="10.00">+</text>
<text text-anchor="start" x="25" y="-70.5" font-family="Helvetica,sans-Serif" font-size="10.00">init_flag</text>
<text text-anchor="start" x="9.5" y="-54.5" font-family="Helvetica,sans-Serif" font-size="10.00">+</text>
<text text-anchor="start" x="25" y="-54.5" font-family="Helvetica,sans-Serif" font-size="10.00">port</text>
<text text-anchor="start" x="9.5" y="-38.5" font-family="Helvetica,sans-Serif" font-size="10.00">+</text>
<text text-anchor="start" x="25" y="-38.5" font-family="Helvetica,sans-Serif" font-size="10.00">interval_ms</text>
<text text-anchor="start" x="9.5" y="-22.5" font-family="Helvetica,sans-Serif" font-size="10.00">+</text>
<text text-anchor="start" x="25" y="-22.5" font-family="Helvetica,sans-Serif" font-size="10.00">crc16</text>
<text text-anchor="start" x="42.5" y="-6.5" font-family="Helvetica,sans-Serif" font-size="10.00"> </text>
<polygon fill="#666666" stroke="#666666" points="0,-98 0,-98 88,-98 88,-98 0,-98"/>
<polygon fill="#666666" stroke="#666666" points="0,-18 0,-18 23,-18 23,-18 0,-18"/>
<polygon fill="#666666" stroke="#666666" points="23,-18 23,-18 88,-18 88,-18 23,-18"/>
<polygon fill="none" stroke="#666666" points="0,0 0,-116 88,-116 88,0 0,0"/>
</a>
</g>
</g>
</g>
</svg>
