<?xml version="1.0" encoding="UTF-8" standalone="no"?>
<!DOCTYPE svg PUBLIC "-//W3C//DTD SVG 1.1//EN"
 "http://www.w3.org/Graphics/SVG/1.1/DTD/svg11.dtd">
<!-- Generated by graphviz version 8.1.0 (20230707.0739)
 -->
<!-- Title: ColorProvider Pages: 1 -->
<svg width="442pt" height="111pt"
 viewBox="0.00 0.00 441.62 111.00" xmlns="http://www.w3.org/2000/svg" xmlns:xlink="http://www.w3.org/1999/xlink">

<svg id="main" version="1.1" xmlns="http://www.w3.org/2000/svg" xmlns:xlink="http://www.w3.org/1999/xlink" xml:space="preserve" onload="init(evt)">
<style type="text/css"><![CDATA[
.node, .edge {opacity: 0.7;}
.node.selected, .edge.selected {opacity: 1;}
.edge:hover path { stroke: red; }
.edge:hover polygon { stroke: red; fill: red; }
]]></style>
<script type="application/ecmascript" xlink:href="../../svg.min.js"/>
<svg id="graph" class="graph">
<g id="graph0" class="graph" transform="scale(1 1) rotate(0) translate(4 107)">
<title>ColorProvider</title>
<!-- Node1 -->
<g id="Node000001" class="node">
<title>Node1</title>
<g id="a_Node000001"><a xlink:title="Класс, предоставляющий палитру контрастных цветов.">
<polygon fill="#999999" stroke="#666666" points="255,-20.75 172.25,-20.75 172.25,0 255,0 255,-20.75"/>
<text text-anchor="middle" x="213.62" y="-6.3" font-family="Arial" font-size="11.00">ColorProvider</text>
</a>
</g>
</g>
<!-- Node2 -->
<g id="Node000002" class="node">
<title>Node2</title>
<g id="a_Node000002"><a xlink:title=" ">
<polygon fill="white" stroke="#bfbfbf" points="57.25,-103 0,-103 0,-82.25 57.25,-82.25 57.25,-103"/>
<text text-anchor="middle" x="28.62" y="-88.55" font-family="Arial" font-size="11.00">QObject</text>
</a>
</g>
</g>
<!-- Node2&#45;&gt;Node1 -->
<g id="edge1_Node000001_Node000002" class="edge">
<title>Node2&#45;&gt;Node1</title>
<g id="a_edge1_Node000001_Node000002"><a xlink:title=" ">
<path fill="none" stroke="#63b8ff" d="M61.18,-77.5C98.46,-61.33 158.56,-35.26 191.04,-21.17"/>
<polygon fill="#63b8ff" stroke="#63b8ff" points="60.09,-74.59 52.31,-81.78 62.88,-81.02 60.09,-74.59"/>
</a>
</g>
</g>
<!-- Node3 -->
<g id="Node000003" class="node">
<title>Node3</title>
<g id="a_Node000003"><a xlink:title=" ">
<polygon fill="white" stroke="#bfbfbf" points="225.75,-103 75.5,-103 75.5,-82.25 225.75,-82.25 225.75,-103"/>
<text text-anchor="middle" x="150.62" y="-88.55" font-family="Arial" font-size="11.00">map&lt; BaseColor, QColor &gt;</text>
</a>
</g>
</g>
<!-- Node3&#45;&gt;Node1 -->
<g id="edge2_Node000001_Node000003" class="edge">
<title>Node3&#45;&gt;Node1</title>
<g id="a_edge2_Node000001_Node000003"><a xlink:title=" ">
<path fill="none" stroke="#9a32cd" stroke-dasharray="5,2" d="M157.68,-71.89C162.07,-61.34 168.45,-48.54 176.62,-38.75 182.36,-31.88 190.16,-25.78 197.12,-21.09"/>
<polygon fill="#9a32cd" stroke="#9a32cd" points="154.17,-70.26 153.83,-80.85 160.7,-72.79 154.17,-70.26"/>
</a>
</g>
<text text-anchor="middle" x="215.62" y="-53.8" font-family="Arial" font-size="11.00" fill="grey"> m_dark_palette</text>
<text text-anchor="middle" x="215.62" y="-41.05" font-family="Arial" font-size="11.00" fill="grey">m_light_palette</text>
</g>
<!-- Node4 -->
<g id="Node000004" class="node">
<title>Node4</title>
<g id="a_Node000004"><a xlink:href="../../d0/db8/class_scenegraph_1_1_utils_1_1_color_provider.html#dc/d77/struct_scenegraph_1_1_utils_1_1_color_provider_1_1_c_p_iterator" target="_top" xlink:title=" ">
<polygon fill="white" stroke="#bfbfbf" points="309.38,-103 243.88,-103 243.88,-82.25 309.38,-82.25 309.38,-103"/>
<text text-anchor="middle" x="276.62" y="-88.55" font-family="Arial" font-size="11.00">CPIterator</text>
</a>
</g>
</g>
<!-- Node4&#45;&gt;Node1 -->
<g id="edge3_Node000001_Node000004" class="edge">
<title>Node4&#45;&gt;Node1</title>
<g id="a_edge3_Node000001_Node000004"><a xlink:title=" ">
<path fill="none" stroke="#9a32cd" stroke-dasharray="5,2" d="M271.3,-71.38C267.81,-60.85 262.42,-48.22 254.62,-38.75 248.75,-31.61 240.54,-25.62 233,-21.09"/>
<polygon fill="#9a32cd" stroke="#9a32cd" points="268.18,-72.16 274.37,-80.75 274.89,-70.17 268.18,-72.16"/>
</a>
</g>
<text text-anchor="middle" x="279.62" y="-47.42" font-family="Arial" font-size="11.00" fill="grey"> m_it</text>
</g>
<!-- Node5 -->
<g id="Node000005" class="node">
<title>Node5</title>
<g id="a_Node000005"><a xlink:title=" ">
<polygon fill="white" stroke="#bfbfbf" points="433.62,-103 327.62,-103 327.62,-82.25 433.62,-82.25 433.62,-103"/>
<text text-anchor="middle" x="380.62" y="-88.55" font-family="Arial" font-size="11.00">array&lt; bool, Max &gt;</text>
</a>
</g>
</g>
<!-- Node5&#45;&gt;Node1 -->
<g id="edge4_Node000001_Node000005" class="edge">
<title>Node5&#45;&gt;Node1</title>
<g id="a_edge4_Node000001_Node000005"><a xlink:title=" ">
<path fill="none" stroke="#9a32cd" stroke-dasharray="5,2" d="M358.1,-75.58C341.43,-64.21 317.85,-49.19 295.62,-38.75 280.82,-31.79 263.76,-25.8 249.04,-21.2"/>
<polygon fill="#9a32cd" stroke="#9a32cd" points="355.84,-78.96 366.06,-81.78 359.83,-73.21 355.84,-78.96"/>
</a>
</g>
<text text-anchor="middle" x="378.5" y="-47.42" font-family="Arial" font-size="11.00" fill="grey"> m_exclude_list</text>
</g>
</g>
</svg>
</svg>

<style type='text/css'>
<![CDATA[
[data-mouse-over-selected='false'] { opacity: 0.7; }
[data-mouse-over-selected='true']  { opacity: 1.0; }
]]>
</style>
<script type="application/ecmascript"><![CDATA[
document.addEventListener('DOMContentLoaded', (event) => {
  highlightEdges();
  highlightAdjacentNodes();
});
]]></script>
</svg>
