<?xml version="1.0" encoding="UTF-8" standalone="no"?>
<!DOCTYPE svg PUBLIC "-//W3C//DTD SVG 1.1//EN"
 "http://www.w3.org/Graphics/SVG/1.1/DTD/svg11.dtd">
<!-- Generated by graphviz version 8.1.0 (20230707.0739)
 -->
<!-- Title: BaseUDPSocket Pages: 1 -->
<svg width="448pt" height="199pt"
 viewBox="0.00 0.00 447.50 199.00" xmlns="http://www.w3.org/2000/svg" xmlns:xlink="http://www.w3.org/1999/xlink">

<svg id="main" version="1.1" xmlns="http://www.w3.org/2000/svg" xmlns:xlink="http://www.w3.org/1999/xlink" xml:space="preserve" onload="init(evt)">
<style type="text/css"><![CDATA[
.node, .edge {opacity: 0.7;}
.node.selected, .edge.selected {opacity: 1;}
.edge:hover path { stroke: red; }
.edge:hover polygon { stroke: red; fill: red; }
]]></style>
<script type="application/ecmascript" xlink:href="../../svg.min.js"/>
<svg id="graph" class="graph">
<g id="graph0" class="graph" transform="scale(1 1) rotate(0) translate(4 195)">
<title>BaseUDPSocket</title>
<!-- Node1 -->
<g id="Node000001" class="node">
<title>Node1</title>
<g id="a_Node000001"><a xlink:title="Базовый класс для сокетов, работающих по протоколу UDP.">
<polygon fill="#999999" stroke="#666666" points="249.5,-134.25 151,-134.25 151,-113.5 249.5,-113.5 249.5,-134.25"/>
<text text-anchor="middle" x="200.25" y="-119.8" font-family="Arial" font-size="11.00">BaseUDPSocket</text>
</a>
</g>
</g>
<!-- Node4 -->
<g id="Node000004" class="node">
<title>Node4</title>
<g id="a_Node000004"><a xlink:href="../../dd/dce/class_quasar_s_d_k_1_1_execd_socket.html" target="_top" xlink:title="Сокет для отправки команд на РЛС.">
<polygon fill="white" stroke="#666666" points="80.5,-77.5 0,-77.5 0,-56.75 80.5,-56.75 80.5,-77.5"/>
<text text-anchor="middle" x="40.25" y="-63.05" font-family="Arial" font-size="11.00">ExecdSocket</text>
</a>
</g>
</g>
<!-- Node1&#45;&gt;Node4 -->
<g id="edge3_Node000001_Node000004" class="edge">
<title>Node1&#45;&gt;Node4</title>
<g id="a_edge3_Node000001_Node000004"><a xlink:title=" ">
<path fill="none" stroke="#63b8ff" d="M161.6,-109.65C133.02,-99.87 94.74,-86.77 68.88,-77.92"/>
<polygon fill="#63b8ff" stroke="#63b8ff" points="160.05,-113.16 170.65,-113.09 162.32,-106.54 160.05,-113.16"/>
</a>
</g>
</g>
<!-- Node5 -->
<g id="Node000005" class="node">
<title>Node5</title>
<g id="a_Node000005"><a xlink:href="../../de/d4c/class_quasar_s_d_k_1_1_output_socket.html" target="_top" xlink:title="Сокет для приема и обработки вывода с РЛС.">
<polygon fill="white" stroke="#666666" points="181.62,-77.5 98.88,-77.5 98.88,-56.75 181.62,-56.75 181.62,-77.5"/>
<text text-anchor="middle" x="140.25" y="-63.05" font-family="Arial" font-size="11.00">OutputSocket</text>
</a>
</g>
</g>
<!-- Node1&#45;&gt;Node5 -->
<g id="edge4_Node000001_Node000005" class="edge">
<title>Node1&#45;&gt;Node5</title>
<g id="a_edge4_Node000001_Node000005"><a xlink:title=" ">
<path fill="none" stroke="#63b8ff" d="M181.63,-105.89C171.52,-96.66 159.39,-85.59 150.88,-77.83"/>
<polygon fill="#63b8ff" stroke="#63b8ff" points="178.78,-107.93 188.52,-112.09 183.5,-102.76 178.78,-107.93"/>
</a>
</g>
</g>
<!-- Node6 -->
<g id="Node000006" class="node">
<title>Node6</title>
<g id="a_Node000006"><a xlink:href="../../d5/d90/class_quasar_s_d_k_1_1_seamless_u_d_p_socket.html" target="_top" xlink:title="Базовый класс для UDP сокетов, требующих целостность датаграммы.">
<polygon fill="white" stroke="#666666" points="322.5,-77.5 200,-77.5 200,-56.75 322.5,-56.75 322.5,-77.5"/>
<text text-anchor="middle" x="261.25" y="-63.05" font-family="Arial" font-size="11.00">SeamlessUDPSocket</text>
</a>
</g>
</g>
<!-- Node1&#45;&gt;Node6 -->
<g id="edge5_Node000001_Node000006" class="edge">
<title>Node1&#45;&gt;Node6</title>
<g id="a_edge5_Node000001_Node000006"><a xlink:title=" ">
<path fill="none" stroke="#63b8ff" d="M219.18,-105.89C229.46,-96.66 241.79,-85.59 250.44,-77.83"/>
<polygon fill="#63b8ff" stroke="#63b8ff" points="217.26,-102.8 212.16,-112.09 221.94,-108.01 217.26,-102.8"/>
</a>
</g>
</g>
<!-- Node8 -->
<g id="Node000008" class="node">
<title>Node8</title>
<g id="a_Node000008"><a xlink:href="../../d5/d0a/class_quasar_s_d_k_1_1_telemetry_socket.html" target="_top" xlink:title="Класс для работы с сервисом navd2 на РЛС.">
<polygon fill="white" stroke="#666666" points="439.5,-77.5 341,-77.5 341,-56.75 439.5,-56.75 439.5,-77.5"/>
<text text-anchor="middle" x="390.25" y="-63.05" font-family="Arial" font-size="11.00">TelemetrySocket</text>
</a>
</g>
</g>
<!-- Node1&#45;&gt;Node8 -->
<g id="edge7_Node000001_Node000008" class="edge">
<title>Node1&#45;&gt;Node8</title>
<g id="a_edge7_Node000001_Node000008"><a xlink:title=" ">
<path fill="none" stroke="#63b8ff" d="M244.37,-110.16C278.48,-100.33 325,-86.93 356.26,-77.92"/>
<polygon fill="#63b8ff" stroke="#63b8ff" points="243.86,-106.95 235.22,-113.09 245.8,-113.68 243.86,-106.95"/>
</a>
</g>
</g>
<!-- Node2 -->
<g id="Node000002" class="node">
<title>Node2</title>
<g id="a_Node000002"><a xlink:title=" ">
<polygon fill="white" stroke="#bfbfbf" points="191.38,-191 113.12,-191 113.12,-170.25 191.38,-170.25 191.38,-191"/>
<text text-anchor="middle" x="152.25" y="-176.55" font-family="Arial" font-size="11.00">QUdpSocket</text>
</a>
</g>
</g>
<!-- Node2&#45;&gt;Node1 -->
<g id="edge1_Node000001_Node000002" class="edge">
<title>Node2&#45;&gt;Node1</title>
<g id="a_edge1_Node000001_Node000002"><a xlink:title=" ">
<path fill="none" stroke="#63b8ff" d="M167.88,-161.8C175.81,-152.75 185.14,-142.11 191.74,-134.58"/>
<polygon fill="#63b8ff" stroke="#63b8ff" points="164.79,-159.01 160.83,-168.84 170.06,-163.62 164.79,-159.01"/>
</a>
</g>
</g>
<!-- Node3 -->
<g id="Node000003" class="node">
<title>Node3</title>
<g id="a_Node000003"><a xlink:href="../../df/dac/class_quasar_s_d_k_1_1_i_connectable.html" target="_top" xlink:title="Абстрактный интерфейс для классов с функционалом подключения и отключения к сетевому адресу.">
<polygon fill="white" stroke="#666666" points="289.12,-191 209.38,-191 209.38,-170.25 289.12,-170.25 289.12,-191"/>
<text text-anchor="middle" x="249.25" y="-176.55" font-family="Arial" font-size="11.00">IConnectable</text>
</a>
</g>
</g>
<!-- Node3&#45;&gt;Node1 -->
<g id="edge2_Node000001_Node000003" class="edge">
<title>Node3&#45;&gt;Node1</title>
<g id="a_edge2_Node000001_Node000003"><a xlink:title=" ">
<path fill="none" stroke="#63b8ff" d="M233.3,-161.8C225.2,-152.75 215.67,-142.11 208.93,-134.58"/>
<polygon fill="#63b8ff" stroke="#63b8ff" points="230.21,-163.72 239.49,-168.84 235.43,-159.05 230.21,-163.72"/>
</a>
</g>
</g>
<!-- Node7 -->
<g id="Node000007" class="node">
<title>Node7</title>
<g id="a_Node000007"><a xlink:href="../../d6/d4a/class_quasar_s_d_k_1_1_strip_socket.html" target="_top" xlink:title="Класс для приема больших файлов с РЛС по протоколу UDP.">
<polygon fill="white" stroke="#666666" points="297.38,-20.75 225.12,-20.75 225.12,0 297.38,0 297.38,-20.75"/>
<text text-anchor="middle" x="261.25" y="-6.3" font-family="Arial" font-size="11.00">StripSocket</text>
</a>
</g>
</g>
<!-- Node6&#45;&gt;Node7 -->
<g id="edge6_Node000006_Node000007" class="edge">
<title>Node6&#45;&gt;Node7</title>
<g id="a_edge6_Node000006_Node000007"><a xlink:title=" ">
<path fill="none" stroke="#63b8ff" d="M261.25,-45.46C261.25,-37.09 261.25,-27.83 261.25,-21.08"/>
<polygon fill="#63b8ff" stroke="#63b8ff" points="257.75,-45.34 261.25,-55.34 264.75,-45.34 257.75,-45.34"/>
</a>
</g>
</g>
</g>
</svg>
</svg>

<style type='text/css'>
<![CDATA[
[data-mouse-over-selected='false'] { opacity: 0.7; }
[data-mouse-over-selected='true']  { opacity: 1.0; }
]]>
</style>
<script type="application/ecmascript"><![CDATA[
document.addEventListener('DOMContentLoaded', (event) => {
  highlightEdges();
  highlightAdjacentNodes();
});
]]></script>
</svg>
