<?xml version="1.0" encoding="UTF-8" standalone="no"?>
<!DOCTYPE svg PUBLIC "-//W3C//DTD SVG 1.1//EN"
 "http://www.w3.org/Graphics/SVG/1.1/DTD/svg11.dtd">
<!-- Generated by graphviz version 8.1.0 (20230707.0739)
 -->
<!-- Title: Route Pages: 1 -->
<svg width="132pt" height="156pt"
 viewBox="0.00 0.00 132.12 156.00" xmlns="http://www.w3.org/2000/svg" xmlns:xlink="http://www.w3.org/1999/xlink">
<g id="graph0" class="graph" transform="scale(1 1) rotate(0) translate(4 152)">
<title>Route</title>
<!-- Node1 -->
<g id="Node000001" class="node">
<title>Node1</title>
<g id="a_Node000001"><a xlink:title=" ">
<polygon fill="#999999" stroke="#666666" points="55.25,-20.75 10,-20.75 10,0 55.25,0 55.25,-20.75"/>
<text text-anchor="middle" x="32.62" y="-6.3" font-family="Arial" font-size="11.00">Route</text>
</a>
</g>
</g>
<!-- Node2 -->
<g id="Node000002" class="node">
<title>Node2</title>
<g id="a_Node000002"><a xlink:title=" ">
<polygon fill="white" stroke="#bfbfbf" points="57.25,-148 0,-148 0,-127.25 57.25,-127.25 57.25,-148"/>
<text text-anchor="middle" x="28.62" y="-133.55" font-family="Arial" font-size="11.00">QObject</text>
</a>
</g>
</g>
<!-- Node2&#45;&gt;Node1 -->
<g id="edge1_Node000001_Node000002" class="edge">
<title>Node2&#45;&gt;Node1</title>
<g id="a_edge1_Node000001_Node000002"><a xlink:title=" ">
<path fill="none" stroke="#63b8ff" d="M29.28,-116.13C30.15,-88.8 31.66,-41.51 32.31,-21.16"/>
<polygon fill="#63b8ff" stroke="#63b8ff" points="25.76,-115.69 28.94,-125.8 32.76,-115.91 25.76,-115.69"/>
</a>
</g>
</g>
<!-- Node3 -->
<g id="Node000003" class="node">
<title>Node3</title>
<g id="a_Node000003"><a xlink:href="../../d5/d14/class_map_1_1_route_logger.html" target="_top" xlink:title=" ">
<polygon fill="white" stroke="#bfbfbf" points="124.12,-90.25 45.12,-90.25 45.12,-69.5 124.12,-69.5 124.12,-90.25"/>
<text text-anchor="middle" x="84.62" y="-75.8" font-family="Arial" font-size="11.00">RouteLogger</text>
</a>
</g>
</g>
<!-- Node2&#45;&gt;Node3 -->
<g id="edge3_Node000003_Node000002" class="edge">
<title>Node2&#45;&gt;Node3</title>
<g id="a_edge3_Node000003_Node000002"><a xlink:title=" ">
<path fill="none" stroke="#63b8ff" d="M46.12,-119.2C55.65,-109.72 67.07,-98.36 74.98,-90.47"/>
<polygon fill="#63b8ff" stroke="#63b8ff" points="44,-116.38 39.38,-125.91 48.94,-121.34 44,-116.38"/>
</a>
</g>
</g>
<!-- Node3&#45;&gt;Node1 -->
<g id="edge2_Node000001_Node000003" class="edge">
<title>Node3&#45;&gt;Node1</title>
<g id="a_edge2_Node000001_Node000003"><a xlink:title=" ">
<path fill="none" stroke="#9a32cd" stroke-dasharray="5,2" d="M70.64,-60.72C60.8,-47.94 48.01,-31.35 40.06,-21.03"/>
<polygon fill="#9a32cd" stroke="#9a32cd" points="68.3,-62.42 77.17,-68.2 73.84,-58.15 68.3,-62.42"/>
</a>
</g>
<text text-anchor="middle" x="80.12" y="-41.05" font-family="Arial" font-size="11.00" fill="grey"> logger</text>
</g>
</g>
</svg>
