<?xml version="1.0" encoding="UTF-8" standalone="no"?>
<!DOCTYPE svg PUBLIC "-//W3C//DTD SVG 1.1//EN"
 "http://www.w3.org/Graphics/SVG/1.1/DTD/svg11.dtd">
<!-- Generated by graphviz version 8.1.0 (20230707.0739)
 -->
<!-- Title: TelemetrySocket Pages: 1 -->
<svg width="184pt" height="142pt"
 viewBox="0.00 0.00 184.00 142.25" xmlns="http://www.w3.org/2000/svg" xmlns:xlink="http://www.w3.org/1999/xlink">
<g id="graph0" class="graph" transform="scale(1 1) rotate(0) translate(4 138.25)">
<title>TelemetrySocket</title>
<!-- Node1 -->
<g id="Node000001" class="node">
<title>Node1</title>
<g id="a_Node000001"><a xlink:title="Класс для работы с сервисом navd2 на РЛС.">
<polygon fill="#999999" stroke="#666666" points="136.38,-20.75 37.87,-20.75 37.87,0 136.38,0 136.38,-20.75"/>
<text text-anchor="middle" x="87.12" y="-6.3" font-family="Arial" font-size="11.00">TelemetrySocket</text>
</a>
</g>
</g>
<!-- Node2 -->
<g id="Node000002" class="node">
<title>Node2</title>
<g id="a_Node000002"><a xlink:href="../../db/d21/class_quasar_s_d_k_1_1_base_u_d_p_socket.html" target="_top" xlink:title="Базовый класс для сокетов, работающих по протоколу UDP.">
<polygon fill="white" stroke="#666666" points="136.38,-77.5 37.87,-77.5 37.87,-56.75 136.38,-56.75 136.38,-77.5"/>
<text text-anchor="middle" x="87.12" y="-63.05" font-family="Arial" font-size="11.00">BaseUDPSocket</text>
</a>
</g>
</g>
<!-- Node2&#45;&gt;Node1 -->
<g id="edge1_Node000001_Node000002" class="edge">
<title>Node2&#45;&gt;Node1</title>
<g id="a_edge1_Node000001_Node000002"><a xlink:title=" ">
<path fill="none" stroke="#63b8ff" d="M87.12,-45.46C87.12,-37.09 87.12,-27.83 87.12,-21.08"/>
<polygon fill="#63b8ff" stroke="#63b8ff" points="83.63,-45.34 87.12,-55.34 90.63,-45.34 83.63,-45.34"/>
</a>
</g>
</g>
<!-- Node3 -->
<g id="Node000003" class="node">
<title>Node3</title>
<g id="a_Node000003"><a xlink:title=" ">
<polygon fill="white" stroke="#bfbfbf" points="78.25,-134.25 0,-134.25 0,-113.5 78.25,-113.5 78.25,-134.25"/>
<text text-anchor="middle" x="39.12" y="-119.8" font-family="Arial" font-size="11.00">QUdpSocket</text>
</a>
</g>
</g>
<!-- Node3&#45;&gt;Node2 -->
<g id="edge2_Node000002_Node000003" class="edge">
<title>Node3&#45;&gt;Node2</title>
<g id="a_edge2_Node000002_Node000003"><a xlink:title=" ">
<path fill="none" stroke="#63b8ff" d="M54.75,-105.05C62.69,-96 72.02,-85.36 78.62,-77.83"/>
<polygon fill="#63b8ff" stroke="#63b8ff" points="51.67,-102.26 47.71,-112.09 56.93,-106.87 51.67,-102.26"/>
</a>
</g>
</g>
<!-- Node4 -->
<g id="Node000004" class="node">
<title>Node4</title>
<g id="a_Node000004"><a xlink:href="../../df/dac/class_quasar_s_d_k_1_1_i_connectable.html" target="_top" xlink:title="Абстрактный интерфейс для классов с функционалом подключения и отключения к сетевому адресу.">
<polygon fill="white" stroke="#666666" points="176,-134.25 96.25,-134.25 96.25,-113.5 176,-113.5 176,-134.25"/>
<text text-anchor="middle" x="136.12" y="-119.8" font-family="Arial" font-size="11.00">IConnectable</text>
</a>
</g>
</g>
<!-- Node4&#45;&gt;Node2 -->
<g id="edge3_Node000002_Node000004" class="edge">
<title>Node4&#45;&gt;Node2</title>
<g id="a_edge3_Node000002_Node000004"><a xlink:title=" ">
<path fill="none" stroke="#63b8ff" d="M120.17,-105.05C112.07,-96 102.55,-85.36 95.81,-77.83"/>
<polygon fill="#63b8ff" stroke="#63b8ff" points="117.09,-106.97 126.36,-112.09 122.3,-102.3 117.09,-106.97"/>
</a>
</g>
</g>
</g>
</svg>
