<?xml version="1.0" encoding="UTF-8" standalone="no"?>
<!DOCTYPE svg PUBLIC "-//W3C//DTD SVG 1.1//EN"
 "http://www.w3.org/Graphics/SVG/1.1/DTD/svg11.dtd">
<!-- Generated by graphviz version 8.1.0 (20230707.0739)
 -->
<!-- Title: ImageProcessing Pages: 1 -->
<svg width="182pt" height="156pt"
 viewBox="0.00 0.00 182.38 156.00" xmlns="http://www.w3.org/2000/svg" xmlns:xlink="http://www.w3.org/1999/xlink">

<svg id="main" version="1.1" xmlns="http://www.w3.org/2000/svg" xmlns:xlink="http://www.w3.org/1999/xlink" xml:space="preserve" onload="init(evt)">
<style type="text/css"><![CDATA[
.node, .edge {opacity: 0.7;}
.node.selected, .edge.selected {opacity: 1;}
.edge:hover path { stroke: red; }
.edge:hover polygon { stroke: red; fill: red; }
]]></style>
<script type="application/ecmascript" xlink:href="../../svg.min.js"/>
<svg id="graph" class="graph">
<g id="graph0" class="graph" transform="scale(1 1) rotate(0) translate(4 152)">
<title>ImageProcessing</title>
<!-- Node1 -->
<g id="Node000001" class="node">
<title>Node1</title>
<g id="a_Node000001"><a xlink:title=" ">
<polygon fill="#999999" stroke="#666666" points="101.5,-20.75 0,-20.75 0,0 101.5,0 101.5,-20.75"/>
<text text-anchor="middle" x="50.75" y="-6.3" font-family="Arial" font-size="11.00">ImageProcessing</text>
</a>
</g>
</g>
<!-- Node2 -->
<g id="Node000002" class="node">
<title>Node2</title>
<g id="a_Node000002"><a xlink:title=" ">
<polygon fill="white" stroke="#bfbfbf" points="63.38,-90.25 6.13,-90.25 6.13,-69.5 63.38,-69.5 63.38,-90.25"/>
<text text-anchor="middle" x="34.75" y="-75.8" font-family="Arial" font-size="11.00">QObject</text>
</a>
</g>
</g>
<!-- Node2&#45;&gt;Node1 -->
<g id="edge1_Node000001_Node000002" class="edge">
<title>Node2&#45;&gt;Node1</title>
<g id="a_edge1_Node000001_Node000002"><a xlink:title=" ">
<path fill="none" stroke="#63b8ff" d="M39.5,-58.83C42.46,-46.35 46.13,-30.85 48.46,-21.03"/>
<polygon fill="#63b8ff" stroke="#63b8ff" points="35.94,-57.67 37.04,-68.2 42.75,-59.28 35.94,-57.67"/>
</a>
</g>
</g>
<!-- Node3 -->
<g id="Node000003" class="node">
<title>Node3</title>
<g id="a_Node000003"><a xlink:href="../../d0/d89/class_map_1_1_image_model.html" target="_top" xlink:title=" ">
<polygon fill="white" stroke="#bfbfbf" points="156,-90.25 81.5,-90.25 81.5,-69.5 156,-69.5 156,-90.25"/>
<text text-anchor="middle" x="118.75" y="-75.8" font-family="Arial" font-size="11.00">ImageModel</text>
</a>
</g>
</g>
<!-- Node3&#45;&gt;Node1 -->
<g id="edge2_Node000001_Node000003" class="edge">
<title>Node3&#45;&gt;Node1</title>
<g id="a_edge2_Node000001_Node000003"><a xlink:title=" ">
<path fill="none" stroke="#9a32cd" stroke-dasharray="5,2" d="M101.21,-61.46C88.24,-48.59 71.07,-31.55 60.47,-21.03"/>
<polygon fill="#9a32cd" stroke="#9a32cd" points="98.44,-63.64 108.01,-68.2 103.38,-58.67 98.44,-63.64"/>
</a>
</g>
<text text-anchor="middle" x="115.12" y="-41.05" font-family="Arial" font-size="11.00" fill="grey"> m_model</text>
</g>
<!-- Node4 -->
<g id="Node000004" class="node">
<title>Node4</title>
<g id="a_Node000004"><a xlink:title=" ">
<polygon fill="white" stroke="#bfbfbf" points="174.38,-148 63.12,-148 63.12,-127.25 174.38,-127.25 174.38,-148"/>
<text text-anchor="middle" x="118.75" y="-133.55" font-family="Arial" font-size="11.00">QAbstractListModel</text>
</a>
</g>
</g>
<!-- Node4&#45;&gt;Node3 -->
<g id="edge3_Node000003_Node000004" class="edge">
<title>Node4&#45;&gt;Node3</title>
<g id="a_edge3_Node000003_Node000004"><a xlink:title=" ">
<path fill="none" stroke="#63b8ff" d="M118.75,-115.98C118.75,-107.24 118.75,-97.48 118.75,-90.47"/>
<polygon fill="#63b8ff" stroke="#63b8ff" points="115.25,-115.91 118.75,-125.91 122.25,-115.91 115.25,-115.91"/>
</a>
</g>
</g>
</g>
</svg>
</svg>

<style type='text/css'>
<![CDATA[
[data-mouse-over-selected='false'] { opacity: 0.7; }
[data-mouse-over-selected='true']  { opacity: 1.0; }
]]>
</style>
<script type="application/ecmascript"><![CDATA[
document.addEventListener('DOMContentLoaded', (event) => {
  highlightEdges();
  highlightAdjacentNodes();
});
]]></script>
</svg>
