<?xml version="1.0" encoding="UTF-8" standalone="no"?>
<!DOCTYPE svg PUBLIC "-//W3C//DTD SVG 1.1//EN"
 "http://www.w3.org/Graphics/SVG/1.1/DTD/svg11.dtd">
<!-- Generated by graphviz version 8.1.0 (20230707.0739)
 -->
<!-- Title: ifile.h Pages: 1 -->
<svg width="229pt" height="256pt"
 viewBox="0.00 0.00 228.50 255.75" xmlns="http://www.w3.org/2000/svg" xmlns:xlink="http://www.w3.org/1999/xlink">

<svg id="main" version="1.1" xmlns="http://www.w3.org/2000/svg" xmlns:xlink="http://www.w3.org/1999/xlink" xml:space="preserve" onload="init(evt)">
<style type="text/css"><![CDATA[
.node, .edge {opacity: 0.7;}
.node.selected, .edge.selected {opacity: 1;}
.edge:hover path { stroke: red; }
.edge:hover polygon { stroke: red; fill: red; }
]]></style>
<script type="application/ecmascript" xlink:href="../../svg.min.js"/>
<svg id="graph" class="graph">
<g id="graph0" class="graph" transform="scale(1 1) rotate(0) translate(4 251.75)">
<title>ifile.h</title>
<!-- Node1 -->
<g id="Node000001" class="node">
<title>Node1</title>
<g id="a_Node000001"><a xlink:title=" ">
<polygon fill="#999999" stroke="#666666" points="115.25,-247.75 74.5,-247.75 74.5,-227 115.25,-227 115.25,-247.75"/>
<text text-anchor="middle" x="94.88" y="-233.3" font-family="Arial" font-size="11.00">ifile.h</text>
</a>
</g>
</g>
<!-- Node2 -->
<g id="Node000002" class="node">
<title>Node2</title>
<g id="a_Node000002"><a xlink:href="../../d7/d5d/basicfile_8h_source.html" target="_top" xlink:title=" ">
<polygon fill="white" stroke="#666666" points="127.25,-191 62.5,-191 62.5,-170.25 127.25,-170.25 127.25,-191"/>
<text text-anchor="middle" x="94.88" y="-176.55" font-family="Arial" font-size="11.00">basicfile.h</text>
</a>
</g>
</g>
<!-- Node1&#45;&gt;Node2 -->
<g id="edge1_Node000001_Node000002" class="edge">
<title>Node1&#45;&gt;Node2</title>
<g id="a_edge1_Node000001_Node000002"><a xlink:title=" ">
<path fill="none" stroke="#63b8ff" d="M94.88,-215.71C94.88,-207.34 94.88,-198.08 94.88,-191.33"/>
<polygon fill="#63b8ff" stroke="#63b8ff" points="91.38,-215.59 94.88,-225.59 98.38,-215.59 91.38,-215.59"/>
</a>
</g>
</g>
<!-- Node3 -->
<g id="Node000003" class="node">
<title>Node3</title>
<g id="a_Node000003"><a xlink:href="../../d0/db7/draftfile_8h_source.html" target="_top" xlink:title=" ">
<polygon fill="white" stroke="#666666" points="125,-134.25 64.75,-134.25 64.75,-113.5 125,-113.5 125,-134.25"/>
<text text-anchor="middle" x="94.88" y="-119.8" font-family="Arial" font-size="11.00">draftfile.h</text>
</a>
</g>
</g>
<!-- Node2&#45;&gt;Node3 -->
<g id="edge2_Node000002_Node000003" class="edge">
<title>Node2&#45;&gt;Node3</title>
<g id="a_edge2_Node000002_Node000003"><a xlink:title=" ">
<path fill="none" stroke="#63b8ff" d="M94.88,-158.96C94.88,-150.59 94.88,-141.33 94.88,-134.58"/>
<polygon fill="#63b8ff" stroke="#63b8ff" points="91.38,-158.84 94.88,-168.84 98.38,-158.84 91.38,-158.84"/>
</a>
</g>
</g>
<!-- Node4 -->
<g id="Node000004" class="node">
<title>Node4</title>
<g id="a_Node000004"><a xlink:href="../../d4/d86/draftfile_8c_09_09_source.html" target="_top" xlink:title=" ">
<polygon fill="white" stroke="#666666" points="73.75,-77.5 0,-77.5 0,-56.75 73.75,-56.75 73.75,-77.5"/>
<text text-anchor="middle" x="36.88" y="-63.05" font-family="Arial" font-size="11.00">draftfile.c++</text>
</a>
</g>
</g>
<!-- Node3&#45;&gt;Node4 -->
<g id="edge3_Node000003_Node000004" class="edge">
<title>Node3&#45;&gt;Node4</title>
<g id="a_edge3_Node000003_Node000004"><a xlink:title=" ">
<path fill="none" stroke="#63b8ff" d="M76.58,-105.61C66.87,-96.44 55.29,-85.51 47.15,-77.83"/>
<polygon fill="#63b8ff" stroke="#63b8ff" points="73.83,-107.77 83.51,-112.09 78.64,-102.68 73.83,-107.77"/>
</a>
</g>
</g>
<!-- Node5 -->
<g id="Node000005" class="node">
<title>Node5</title>
<g id="a_Node000005"><a xlink:href="../../d1/d61/mapcompleteimage_8h_source.html" target="_top" xlink:title=" ">
<polygon fill="white" stroke="#666666" points="213.75,-77.5 92,-77.5 92,-56.75 213.75,-56.75 213.75,-77.5"/>
<text text-anchor="middle" x="152.88" y="-63.05" font-family="Arial" font-size="11.00">mapcompleteimage.h</text>
</a>
</g>
</g>
<!-- Node3&#45;&gt;Node5 -->
<g id="edge4_Node000003_Node000005" class="edge">
<title>Node3&#45;&gt;Node5</title>
<g id="a_edge4_Node000003_Node000005"><a xlink:title=" ">
<path fill="none" stroke="#63b8ff" d="M113.17,-105.61C122.88,-96.44 134.46,-85.51 142.6,-77.83"/>
<polygon fill="#63b8ff" stroke="#63b8ff" points="111.11,-102.68 106.24,-112.09 115.92,-107.77 111.11,-102.68"/>
</a>
</g>
</g>
<!-- Node6 -->
<g id="Node000006" class="node">
<title>Node6</title>
<g id="a_Node000006"><a xlink:href="../../d2/dca/mapcompleteimage_8c_09_09_source.html" target="_top" xlink:title=" ">
<polygon fill="white" stroke="#666666" points="220.5,-20.75 85.25,-20.75 85.25,0 220.5,0 220.5,-20.75"/>
<text text-anchor="middle" x="152.88" y="-6.3" font-family="Arial" font-size="11.00">mapcompleteimage.c++</text>
</a>
</g>
</g>
<!-- Node5&#45;&gt;Node6 -->
<g id="edge5_Node000005_Node000006" class="edge">
<title>Node5&#45;&gt;Node6</title>
<g id="a_edge5_Node000005_Node000006"><a xlink:title=" ">
<path fill="none" stroke="#63b8ff" d="M152.88,-45.46C152.88,-37.09 152.88,-27.83 152.88,-21.08"/>
<polygon fill="#63b8ff" stroke="#63b8ff" points="149.38,-45.34 152.88,-55.34 156.38,-45.34 149.38,-45.34"/>
</a>
</g>
</g>
</g>
</svg>
</svg>

<style type='text/css'>
<![CDATA[
[data-mouse-over-selected='false'] { opacity: 0.7; }
[data-mouse-over-selected='true']  { opacity: 1.0; }
]]>
</style>
<script type="application/ecmascript"><![CDATA[
document.addEventListener('DOMContentLoaded', (event) => {
  highlightEdges();
  highlightAdjacentNodes();
});
]]></script>
</svg>
