<?xml version="1.0" encoding="UTF-8" standalone="no"?>
<!DOCTYPE svg PUBLIC "-//W3C//DTD SVG 1.1//EN"
 "http://www.w3.org/Graphics/SVG/1.1/DTD/svg11.dtd">
<!-- Generated by graphviz version 8.1.0 (20230707.0739)
 -->
<!-- Title: Settings Pages: 1 -->
<svg width="151pt" height="156pt"
 viewBox="0.00 0.00 150.88 156.00" xmlns="http://www.w3.org/2000/svg" xmlns:xlink="http://www.w3.org/1999/xlink">
<g id="graph0" class="graph" transform="scale(1 1) rotate(0) translate(4 152)">
<title>Settings</title>
<!-- Node1 -->
<g id="Node000001" class="node">
<title>Node1</title>
<g id="a_Node000001"><a xlink:title=" ">
<polygon fill="#999999" stroke="#666666" points="60.5,-20.75 4.75,-20.75 4.75,0 60.5,0 60.5,-20.75"/>
<text text-anchor="middle" x="32.62" y="-6.3" font-family="Arial" font-size="11.00">Settings</text>
</a>
</g>
</g>
<!-- Node2 -->
<g id="Node000002" class="node">
<title>Node2</title>
<g id="a_Node000002"><a xlink:title=" ">
<polygon fill="white" stroke="#bfbfbf" points="57.25,-148 0,-148 0,-127.25 57.25,-127.25 57.25,-148"/>
<text text-anchor="middle" x="28.62" y="-133.55" font-family="Arial" font-size="11.00">QObject</text>
</a>
</g>
</g>
<!-- Node2&#45;&gt;Node1 -->
<g id="edge1_Node000001_Node000002" class="edge">
<title>Node2&#45;&gt;Node1</title>
<g id="a_edge1_Node000001_Node000002"><a xlink:title=" ">
<path fill="none" stroke="#63b8ff" d="M29.28,-116.13C30.15,-88.8 31.66,-41.51 32.31,-21.16"/>
<polygon fill="#63b8ff" stroke="#63b8ff" points="25.76,-115.69 28.94,-125.8 32.76,-115.91 25.76,-115.69"/>
</a>
</g>
</g>
<!-- Node3 -->
<g id="Node000003" class="node">
<title>Node3</title>
<g id="a_Node000003"><a xlink:href="../../d0/d39/class_config_1_1internal_1_1_settings_wrapper.html" target="_top" xlink:title=" ">
<polygon fill="white" stroke="#bfbfbf" points="142.88,-90.25 44.37,-90.25 44.37,-69.5 142.88,-69.5 142.88,-90.25"/>
<text text-anchor="middle" x="93.62" y="-75.8" font-family="Arial" font-size="11.00">SettingsWrapper</text>
</a>
</g>
</g>
<!-- Node2&#45;&gt;Node3 -->
<g id="edge3_Node000003_Node000002" class="edge">
<title>Node2&#45;&gt;Node3</title>
<g id="a_edge3_Node000003_Node000002"><a xlink:title=" ">
<path fill="none" stroke="#63b8ff" d="M48.27,-119.78C59.45,-110.18 73.06,-98.52 82.43,-90.47"/>
<polygon fill="#63b8ff" stroke="#63b8ff" points="46.26,-117.75 40.95,-126.91 50.82,-123.06 46.26,-117.75"/>
</a>
</g>
</g>
<!-- Node3&#45;&gt;Node1 -->
<g id="edge2_Node000001_Node000003" class="edge">
<title>Node3&#45;&gt;Node1</title>
<g id="a_edge2_Node000001_Node000003"><a xlink:title=" ">
<path fill="none" stroke="#9a32cd" stroke-dasharray="5,2" d="M77.55,-61.09C65.97,-48.27 50.76,-31.45 41.35,-21.03"/>
<polygon fill="#9a32cd" stroke="#9a32cd" points="74.58,-63.13 83.89,-68.2 79.78,-58.44 74.58,-63.13"/>
</a>
</g>
<text text-anchor="middle" x="96.88" y="-41.05" font-family="Arial" font-size="11.00" fill="grey"> m_wrapper</text>
</g>
</g>
</svg>
