<?xml version="1.0" encoding="UTF-8" standalone="no"?>
<!DOCTYPE svg PUBLIC "-//W3C//DTD SVG 1.1//EN"
 "http://www.w3.org/Graphics/SVG/1.1/DTD/svg11.dtd">
<!-- Generated by graphviz version 8.1.0 (20230707.0739)
 -->
<!-- Title: DraftFile Pages: 1 -->
<svg width="164pt" height="156pt"
 viewBox="0.00 0.00 163.50 156.00" xmlns="http://www.w3.org/2000/svg" xmlns:xlink="http://www.w3.org/1999/xlink">
<g id="graph0" class="graph" transform="scale(1 1) rotate(0) translate(4 152)">
<title>DraftFile</title>
<!-- Node1 -->
<g id="Node000001" class="node">
<title>Node1</title>
<g id="a_Node000001"><a xlink:title="Класс, описывающий черновик файла &#45; файл, который еще не был сохранен на диск, но готовится к этому.">
<polygon fill="#999999" stroke="#666666" points="100.12,-20.75 42.88,-20.75 42.88,0 100.12,0 100.12,-20.75"/>
<text text-anchor="middle" x="71.5" y="-6.3" font-family="Arial" font-size="11.00">DraftFile</text>
</a>
</g>
</g>
<!-- Node2 -->
<g id="Node000002" class="node">
<title>Node2</title>
<g id="a_Node000002"><a xlink:href="../../d3/d7e/class_quasar_s_d_k_1_1_i_o_1_1_basic_file.html" target="_top" xlink:title="Абстрактный класс для существующего файла в файловой системе.">
<polygon fill="white" stroke="#666666" points="61,-90.25 0,-90.25 0,-69.5 61,-69.5 61,-90.25"/>
<text text-anchor="middle" x="30.5" y="-75.8" font-family="Arial" font-size="11.00">BasicFile</text>
</a>
</g>
</g>
<!-- Node2&#45;&gt;Node1 -->
<g id="edge1_Node000001_Node000002" class="edge">
<title>Node2&#45;&gt;Node1</title>
<g id="a_edge1_Node000001_Node000002"><a xlink:title=" ">
<path fill="none" stroke="#63b8ff" d="M41.98,-59.97C49.68,-47.3 59.49,-31.15 65.64,-21.03"/>
<polygon fill="#63b8ff" stroke="#63b8ff" points="38.57,-57.84 36.37,-68.2 44.56,-61.47 38.57,-57.84"/>
</a>
</g>
</g>
<!-- Node3 -->
<g id="Node000003" class="node">
<title>Node3</title>
<g id="a_Node000003"><a xlink:href="../../df/dad/class_quasar_s_d_k_1_1_i_o_1_1_i_file.html" target="_top" xlink:title="Интерфейс, описывающий абстрактный файл в файловой системе.">
<polygon fill="white" stroke="#666666" points="48.25,-148 12.75,-148 12.75,-127.25 48.25,-127.25 48.25,-148"/>
<text text-anchor="middle" x="30.5" y="-133.55" font-family="Arial" font-size="11.00">IFile</text>
</a>
</g>
</g>
<!-- Node3&#45;&gt;Node2 -->
<g id="edge2_Node000002_Node000003" class="edge">
<title>Node3&#45;&gt;Node2</title>
<g id="a_edge2_Node000002_Node000003"><a xlink:title=" ">
<path fill="none" stroke="#63b8ff" d="M30.5,-115.98C30.5,-107.24 30.5,-97.48 30.5,-90.47"/>
<polygon fill="#63b8ff" stroke="#63b8ff" points="27,-115.91 30.5,-125.91 34,-115.91 27,-115.91"/>
</a>
</g>
</g>
<!-- Node4 -->
<g id="Node000004" class="node">
<title>Node4</title>
<g id="a_Node000004"><a xlink:href="../../d4/d32/class_quasar_s_d_k_1_1_i_o_1_1_draft_file.html#d4/d11/struct_quasar_s_d_k_1_1_i_o_1_1_draft_file_1_1filename__t" target="_top" xlink:title=" ">
<polygon fill="white" stroke="#bfbfbf" points="145.62,-90.25 79.38,-90.25 79.38,-69.5 145.62,-69.5 145.62,-90.25"/>
<text text-anchor="middle" x="112.5" y="-75.8" font-family="Arial" font-size="11.00">filename_t</text>
</a>
</g>
</g>
<!-- Node4&#45;&gt;Node1 -->
<g id="edge3_Node000001_Node000004" class="edge">
<title>Node4&#45;&gt;Node1</title>
<g id="a_edge3_Node000001_Node000004"><a xlink:title=" ">
<path fill="none" stroke="#9a32cd" stroke-dasharray="5,2" d="M101.02,-59.97C93.32,-47.3 83.51,-31.15 77.36,-21.03"/>
<polygon fill="#9a32cd" stroke="#9a32cd" points="98.44,-61.47 106.63,-68.2 104.43,-57.84 98.44,-61.47"/>
</a>
</g>
<text text-anchor="middle" x="125.5" y="-41.05" font-family="Arial" font-size="11.00" fill="grey"> m_filename</text>
</g>
</g>
</svg>
