<?xml version="1.0" encoding="UTF-8" standalone="no"?>
<!DOCTYPE svg PUBLIC "-//W3C//DTD SVG 1.1//EN"
 "http://www.w3.org/Graphics/SVG/1.1/DTD/svg11.dtd">
<!-- Generated by graphviz version 8.1.0 (20230707.0739)
 -->
<!-- Title: imessage.h Pages: 1 -->
<svg width="333pt" height="256pt"
 viewBox="0.00 0.00 333.25 255.75" xmlns="http://www.w3.org/2000/svg" xmlns:xlink="http://www.w3.org/1999/xlink">

<svg id="main" version="1.1" xmlns="http://www.w3.org/2000/svg" xmlns:xlink="http://www.w3.org/1999/xlink" xml:space="preserve" onload="init(evt)">
<style type="text/css"><![CDATA[
.node, .edge {opacity: 0.7;}
.node.selected, .edge.selected {opacity: 1;}
.edge:hover path { stroke: red; }
.edge:hover polygon { stroke: red; fill: red; }
]]></style>
<script type="application/ecmascript" xlink:href="../../svg.min.js"/>
<svg id="graph" class="graph">
<g id="graph0" class="graph" transform="scale(1 1) rotate(0) translate(4 251.75)">
<title>imessage.h</title>
<!-- Node1 -->
<g id="Node000001" class="node">
<title>Node1</title>
<g id="a_Node000001"><a xlink:title=" ">
<polygon fill="#999999" stroke="#666666" points="163.62,-247.75 90.62,-247.75 90.62,-227 163.62,-227 163.62,-247.75"/>
<text text-anchor="middle" x="127.12" y="-233.3" font-family="Arial" font-size="11.00">imessage.h</text>
</a>
</g>
</g>
<!-- Node2 -->
<g id="Node000002" class="node">
<title>Node2</title>
<g id="a_Node000002"><a xlink:href="../../dc/d76/messagemodel_8h_source.html" target="_top" xlink:title=" ">
<polygon fill="white" stroke="#666666" points="121.5,-191 20.75,-191 20.75,-170.25 121.5,-170.25 121.5,-191"/>
<text text-anchor="middle" x="71.12" y="-176.55" font-family="Arial" font-size="11.00">messagemodel.h</text>
</a>
</g>
</g>
<!-- Node1&#45;&gt;Node2 -->
<g id="edge1_Node000001_Node000002" class="edge">
<title>Node1&#45;&gt;Node2</title>
<g id="a_edge1_Node000001_Node000002"><a xlink:title=" ">
<path fill="none" stroke="#63b8ff" d="M109.46,-219.11C100.09,-209.94 88.91,-199.01 81.05,-191.33"/>
<polygon fill="#63b8ff" stroke="#63b8ff" points="106.52,-221.1 116.11,-225.59 111.41,-216.09 106.52,-221.1"/>
</a>
</g>
</g>
<!-- Node9 -->
<g id="Node000009" class="node">
<title>Node9</title>
<g id="a_Node000009"><a xlink:href="../../df/dd9/sarmessage_8h_source.html" target="_top" xlink:title=" ">
<polygon fill="white" stroke="#666666" points="226.38,-191 139.88,-191 139.88,-170.25 226.38,-170.25 226.38,-191"/>
<text text-anchor="middle" x="183.12" y="-176.55" font-family="Arial" font-size="11.00">sarmessage.h</text>
</a>
</g>
</g>
<!-- Node1&#45;&gt;Node9 -->
<g id="edge9_Node000001_Node000009" class="edge">
<title>Node1&#45;&gt;Node9</title>
<g id="a_edge9_Node000001_Node000009"><a xlink:title=" ">
<path fill="none" stroke="#63b8ff" d="M144.79,-219.11C154.16,-209.94 165.34,-199.01 173.2,-191.33"/>
<polygon fill="#63b8ff" stroke="#63b8ff" points="142.84,-216.09 138.14,-225.59 147.73,-221.1 142.84,-216.09"/>
</a>
</g>
</g>
<!-- Node3 -->
<g id="Node000003" class="node">
<title>Node3</title>
<g id="a_Node000003"><a xlink:href="../../d6/d51/messagemodel_8c_09_09_source.html" target="_top" xlink:title=" ">
<polygon fill="white" stroke="#666666" points="114.25,-134.25 0,-134.25 0,-113.5 114.25,-113.5 114.25,-134.25"/>
<text text-anchor="middle" x="57.12" y="-119.8" font-family="Arial" font-size="11.00">messagemodel.c++</text>
</a>
</g>
</g>
<!-- Node2&#45;&gt;Node3 -->
<g id="edge2_Node000002_Node000003" class="edge">
<title>Node2&#45;&gt;Node3</title>
<g id="a_edge2_Node000002_Node000003"><a xlink:title=" ">
<path fill="none" stroke="#63b8ff" d="M65.91,-159.24C63.75,-150.8 61.35,-141.41 59.61,-134.58"/>
<polygon fill="#63b8ff" stroke="#63b8ff" points="62.75,-160.02 68.62,-168.84 69.54,-158.28 62.75,-160.02"/>
</a>
</g>
</g>
<!-- Node4 -->
<g id="Node000004" class="node">
<title>Node4</title>
<g id="a_Node000004"><a xlink:href="../../da/dde/saroutputmodel_8h_source.html" target="_top" xlink:title=" ">
<polygon fill="white" stroke="#666666" points="233.5,-134.25 132.75,-134.25 132.75,-113.5 233.5,-113.5 233.5,-134.25"/>
<text text-anchor="middle" x="183.12" y="-119.8" font-family="Arial" font-size="11.00">saroutputmodel.h</text>
</a>
</g>
</g>
<!-- Node2&#45;&gt;Node4 -->
<g id="edge3_Node000002_Node000004" class="edge">
<title>Node2&#45;&gt;Node4</title>
<g id="a_edge3_Node000002_Node000004"><a xlink:title=" ">
<path fill="none" stroke="#63b8ff" d="M100.88,-165.08C120.62,-155.43 145.97,-143.04 163.27,-134.58"/>
<polygon fill="#63b8ff" stroke="#63b8ff" points="99.6,-162.3 92.15,-169.84 102.67,-168.59 99.6,-162.3"/>
</a>
</g>
</g>
<!-- Node5 -->
<g id="Node000005" class="node">
<title>Node5</title>
<g id="a_Node000005"><a xlink:href="../../d7/d0e/quasar__api_8h_source.html" target="_top" xlink:title=" ">
<polygon fill="white" stroke="#666666" points="154.62,-77.5 75.62,-77.5 75.62,-56.75 154.62,-56.75 154.62,-77.5"/>
<text text-anchor="middle" x="115.12" y="-63.05" font-family="Arial" font-size="11.00">quasar_api.h</text>
</a>
</g>
</g>
<!-- Node4&#45;&gt;Node5 -->
<g id="edge4_Node000004_Node000005" class="edge">
<title>Node4&#45;&gt;Node5</title>
<g id="a_edge4_Node000004_Node000005"><a xlink:title=" ">
<path fill="none" stroke="#63b8ff" d="M162.71,-106.44C151.12,-97.11 137.01,-85.75 127.18,-77.83"/>
<polygon fill="#63b8ff" stroke="#63b8ff" points="159.98,-109.54 169.97,-113.09 164.37,-104.09 159.98,-109.54"/>
</a>
</g>
</g>
<!-- Node7 -->
<g id="Node000007" class="node">
<title>Node7</title>
<g id="a_Node000007"><a xlink:href="../../d8/ddd/register_8c_09_09_source.html" target="_top" xlink:title=" ">
<polygon fill="white" stroke="#666666" points="220.75,-20.75 145.5,-20.75 145.5,0 220.75,0 220.75,-20.75"/>
<text text-anchor="middle" x="183.12" y="-6.3" font-family="Arial" font-size="11.00">register.c++</text>
</a>
</g>
</g>
<!-- Node4&#45;&gt;Node7 -->
<g id="edge7_Node000004_Node000007" class="edge">
<title>Node4&#45;&gt;Node7</title>
<g id="a_edge7_Node000004_Node000007"><a xlink:title=" ">
<path fill="none" stroke="#63b8ff" d="M183.12,-102.63C183.12,-78.56 183.12,-39.34 183.12,-21.18"/>
<polygon fill="#63b8ff" stroke="#63b8ff" points="179.63,-102.37 183.12,-112.37 186.63,-102.37 179.63,-102.37"/>
</a>
</g>
</g>
<!-- Node8 -->
<g id="Node000008" class="node">
<title>Node8</title>
<g id="a_Node000008"><a xlink:href="../../d8/d7b/saroutputmodel_8c_09_09_source.html" target="_top" xlink:title=" ">
<polygon fill="white" stroke="#666666" points="325.25,-77.5 211,-77.5 211,-56.75 325.25,-56.75 325.25,-77.5"/>
<text text-anchor="middle" x="268.12" y="-63.05" font-family="Arial" font-size="11.00">saroutputmodel.c++</text>
</a>
</g>
</g>
<!-- Node4&#45;&gt;Node8 -->
<g id="edge8_Node000004_Node000008" class="edge">
<title>Node4&#45;&gt;Node8</title>
<g id="a_edge8_Node000004_Node000008"><a xlink:title=" ">
<path fill="none" stroke="#63b8ff" d="M207.37,-107.26C222.09,-97.78 240.41,-85.98 253.06,-77.83"/>
<polygon fill="#63b8ff" stroke="#63b8ff" points="205.83,-104.73 199.32,-113.09 209.62,-110.61 205.83,-104.73"/>
</a>
</g>
</g>
<!-- Node6 -->
<g id="Node000006" class="node">
<title>Node6</title>
<g id="a_Node000006"><a xlink:href="../../de/d4b/quasar__api_8c_09_09_source.html" target="_top" xlink:title=" ">
<polygon fill="white" stroke="#666666" points="127.38,-20.75 34.88,-20.75 34.88,0 127.38,0 127.38,-20.75"/>
<text text-anchor="middle" x="81.12" y="-6.3" font-family="Arial" font-size="11.00">quasar_api.c++</text>
</a>
</g>
</g>
<!-- Node5&#45;&gt;Node6 -->
<g id="edge5_Node000005_Node000006" class="edge">
<title>Node5&#45;&gt;Node6</title>
<g id="a_edge5_Node000005_Node000006"><a xlink:title=" ">
<path fill="none" stroke="#63b8ff" d="M103.36,-47.17C97.89,-38.38 91.63,-28.3 87.15,-21.08"/>
<polygon fill="#63b8ff" stroke="#63b8ff" points="100.8,-48.69 109.05,-55.34 106.74,-45 100.8,-48.69"/>
</a>
</g>
</g>
<!-- Node5&#45;&gt;Node7 -->
<g id="edge6_Node000005_Node000007" class="edge">
<title>Node5&#45;&gt;Node7</title>
<g id="a_edge6_Node000005_Node000007"><a xlink:title=" ">
<path fill="none" stroke="#63b8ff" d="M135.54,-49.69C147.13,-40.36 161.24,-29 171.07,-21.08"/>
<polygon fill="#63b8ff" stroke="#63b8ff" points="133.88,-47.34 128.28,-56.34 138.27,-52.79 133.88,-47.34"/>
</a>
</g>
</g>
<!-- Node9&#45;&gt;Node4 -->
<g id="edge10_Node000009_Node000004" class="edge">
<title>Node9&#45;&gt;Node4</title>
<g id="a_edge10_Node000009_Node000004"><a xlink:title=" ">
<path fill="none" stroke="#63b8ff" d="M183.12,-158.96C183.12,-150.59 183.12,-141.33 183.12,-134.58"/>
<polygon fill="#63b8ff" stroke="#63b8ff" points="179.63,-158.84 183.12,-168.84 186.63,-158.84 179.63,-158.84"/>
</a>
</g>
</g>
</g>
</svg>
</svg>

<style type='text/css'>
<![CDATA[
[data-mouse-over-selected='false'] { opacity: 0.7; }
[data-mouse-over-selected='true']  { opacity: 1.0; }
]]>
</style>
<script type="application/ecmascript"><![CDATA[
document.addEventListener('DOMContentLoaded', (event) => {
  highlightEdges();
  highlightAdjacentNodes();
});
]]></script>
</svg>
