<?xml version="1.0" encoding="UTF-8" standalone="no"?>
<!DOCTYPE svg PUBLIC "-//W3C//DTD SVG 1.1//EN"
 "http://www.w3.org/Graphics/SVG/1.1/DTD/svg11.dtd">
<!-- Generated by graphviz version 8.1.0 (20230707.0739)
 -->
<!-- Title: PlannerRemoveDatagram Pages: 1 -->
<svg width="127pt" height="156pt"
 viewBox="0.00 0.00 127.00 156.00" xmlns="http://www.w3.org/2000/svg" xmlns:xlink="http://www.w3.org/1999/xlink">
<g id="graph0" class="graph" transform="scale(1 1) rotate(0) translate(4 152)">
<title>PlannerRemoveDatagram</title>
<!-- Node1 -->
<g id="Node000001" class="node">
<title>Node1</title>
<g id="a_Node000001"><a xlink:title="Структура удаления точки из полётного задания.">
<polygon fill="#999999" stroke="none" points="119,-148 0,-148 0,0 119,0 119,-148"/>
<text text-anchor="start" x="4.75" y="-134.5" font-family="Helvetica,sans-Serif" font-size="10.00">PlannerRemoveDatagram</text>
<text text-anchor="start" x="21.5" y="-118.5" font-family="Helvetica,sans-Serif" font-size="10.00">+</text>
<text text-anchor="start" x="49" y="-118.5" font-family="Helvetica,sans-Serif" font-size="10.00">marker</text>
<text text-anchor="start" x="21.5" y="-102.5" font-family="Helvetica,sans-Serif" font-size="10.00">+</text>
<text text-anchor="start" x="49" y="-102.5" font-family="Helvetica,sans-Serif" font-size="10.00">id</text>
<text text-anchor="start" x="21.5" y="-86.5" font-family="Helvetica,sans-Serif" font-size="10.00">+</text>
<text text-anchor="start" x="49" y="-86.5" font-family="Helvetica,sans-Serif" font-size="10.00">r</text>
<text text-anchor="start" x="21.5" y="-70.5" font-family="Helvetica,sans-Serif" font-size="10.00">+</text>
<text text-anchor="start" x="49" y="-70.5" font-family="Helvetica,sans-Serif" font-size="10.00">lat</text>
<text text-anchor="start" x="21.5" y="-54.5" font-family="Helvetica,sans-Serif" font-size="10.00">+</text>
<text text-anchor="start" x="49" y="-54.5" font-family="Helvetica,sans-Serif" font-size="10.00">lon</text>
<text text-anchor="start" x="21.5" y="-38.5" font-family="Helvetica,sans-Serif" font-size="10.00">+</text>
<text text-anchor="start" x="49" y="-38.5" font-family="Helvetica,sans-Serif" font-size="10.00">cnt</text>
<text text-anchor="start" x="21.5" y="-22.5" font-family="Helvetica,sans-Serif" font-size="10.00">+</text>
<text text-anchor="start" x="49" y="-22.5" font-family="Helvetica,sans-Serif" font-size="10.00">len</text>
<text text-anchor="start" x="58" y="-6.5" font-family="Helvetica,sans-Serif" font-size="10.00"> </text>
<polygon fill="#666666" stroke="#666666" points="0,-130 0,-130 119,-130 119,-130 0,-130"/>
<polygon fill="#666666" stroke="#666666" points="0,-18 0,-18 47,-18 47,-18 0,-18"/>
<polygon fill="#666666" stroke="#666666" points="47,-18 47,-18 119,-18 119,-18 47,-18"/>
<polygon fill="none" stroke="#666666" points="0,0 0,-148 119,-148 119,0 0,0"/>
</a>
</g>
</g>
</g>
</svg>
