<?xml version="1.0" encoding="UTF-8" standalone="no"?>
<!DOCTYPE svg PUBLIC "-//W3C//DTD SVG 1.1//EN"
 "http://www.w3.org/Graphics/SVG/1.1/DTD/svg11.dtd">
<!-- Generated by graphviz version 8.1.0 (20230707.0739)
 -->
<!-- Title: MapImageSegment Pages: 1 -->
<svg width="242pt" height="256pt"
 viewBox="0.00 0.00 242.00 255.75" xmlns="http://www.w3.org/2000/svg" xmlns:xlink="http://www.w3.org/1999/xlink">
<g id="graph0" class="graph" transform="scale(1 1) rotate(0) translate(4 251.75)">
<title>MapImageSegment</title>
<!-- Node1 -->
<g id="Node000001" class="node">
<title>Node1</title>
<g id="a_Node000001"><a xlink:title="Сегмент или полное радиолокационное изображение на карте, сохраненное в Base64&#45;строке.">
<polygon fill="#999999" stroke="#666666" points="199.38,-20.75 88.88,-20.75 88.88,0 199.38,0 199.38,-20.75"/>
<text text-anchor="middle" x="144.12" y="-6.3" font-family="Arial" font-size="11.00">MapImageSegment</text>
</a>
</g>
</g>
<!-- Node2 -->
<g id="Node000002" class="node">
<title>Node2</title>
<g id="a_Node000002"><a xlink:href="../../df/d2b/class_quasar_s_d_k_1_1_map_1_1_map_image.html" target="_top" xlink:title="Абстрактный класс, описывающий радиолокационное изображение в качестве объекта карты.">
<polygon fill="white" stroke="#666666" points="130.25,-77.5 64,-77.5 64,-56.75 130.25,-56.75 130.25,-77.5"/>
<text text-anchor="middle" x="97.12" y="-63.05" font-family="Arial" font-size="11.00">MapImage</text>
</a>
</g>
</g>
<!-- Node2&#45;&gt;Node1 -->
<g id="edge1_Node000001_Node000002" class="edge">
<title>Node2&#45;&gt;Node1</title>
<g id="a_edge1_Node000001_Node000002"><a xlink:title=" ">
<path fill="none" stroke="#63b8ff" d="M112.67,-48.02C120.38,-39.03 129.4,-28.53 135.8,-21.08"/>
<polygon fill="#63b8ff" stroke="#63b8ff" points="109.39,-45.47 105.53,-55.34 114.7,-50.03 109.39,-45.47"/>
</a>
</g>
</g>
<!-- Node3 -->
<g id="Node000003" class="node">
<title>Node3</title>
<g id="a_Node000003"><a xlink:href="../../d9/dd3/class_quasar_s_d_k_1_1_map_1_1_f_g_s_map_object.html" target="_top" xlink:title="Базовый класс для объектов карты, которые имеют четкую привязку в метрах по размеру.">
<polygon fill="white" stroke="#666666" points="93.62,-134.25 2.62,-134.25 2.62,-113.5 93.62,-113.5 93.62,-134.25"/>
<text text-anchor="middle" x="48.12" y="-119.8" font-family="Arial" font-size="11.00">FGSMapObject</text>
</a>
</g>
</g>
<!-- Node3&#45;&gt;Node2 -->
<g id="edge2_Node000002_Node000003" class="edge">
<title>Node3&#45;&gt;Node2</title>
<g id="a_edge2_Node000002_Node000003"><a xlink:title=" ">
<path fill="none" stroke="#63b8ff" d="M64.08,-105.05C72.18,-96 81.7,-85.36 88.44,-77.83"/>
<polygon fill="#63b8ff" stroke="#63b8ff" points="61.95,-102.3 57.89,-112.09 67.16,-106.97 61.95,-102.3"/>
</a>
</g>
</g>
<!-- Node4 -->
<g id="Node000004" class="node">
<title>Node4</title>
<g id="a_Node000004"><a xlink:href="../../d7/ddf/class_quasar_s_d_k_1_1_map_1_1_basic_map_object.html" target="_top" xlink:title="Абстрактный класс, реализующий функции интерфейса IMapObject, за исключением масштаба.">
<polygon fill="white" stroke="#666666" points="96.25,-191 0,-191 0,-170.25 96.25,-170.25 96.25,-191"/>
<text text-anchor="middle" x="48.12" y="-176.55" font-family="Arial" font-size="11.00">BasicMapObject</text>
</a>
</g>
</g>
<!-- Node4&#45;&gt;Node3 -->
<g id="edge3_Node000003_Node000004" class="edge">
<title>Node4&#45;&gt;Node3</title>
<g id="a_edge3_Node000003_Node000004"><a xlink:title=" ">
<path fill="none" stroke="#63b8ff" d="M48.12,-158.96C48.12,-150.59 48.12,-141.33 48.12,-134.58"/>
<polygon fill="#63b8ff" stroke="#63b8ff" points="44.63,-158.84 48.12,-168.84 51.63,-158.84 44.63,-158.84"/>
</a>
</g>
</g>
<!-- Node5 -->
<g id="Node000005" class="node">
<title>Node5</title>
<g id="a_Node000005"><a xlink:href="../../d5/d1e/class_quasar_s_d_k_1_1_map_1_1_i_map_object.html" target="_top" xlink:title="Интерфейс, описывающий абстрактный объект карты.">
<polygon fill="white" stroke="#666666" points="83.5,-247.75 12.75,-247.75 12.75,-227 83.5,-227 83.5,-247.75"/>
<text text-anchor="middle" x="48.12" y="-233.3" font-family="Arial" font-size="11.00">IMapObject</text>
</a>
</g>
</g>
<!-- Node5&#45;&gt;Node4 -->
<g id="edge4_Node000004_Node000005" class="edge">
<title>Node5&#45;&gt;Node4</title>
<g id="a_edge4_Node000004_Node000005"><a xlink:title=" ">
<path fill="none" stroke="#63b8ff" d="M48.12,-215.71C48.12,-207.34 48.12,-198.08 48.12,-191.33"/>
<polygon fill="#63b8ff" stroke="#63b8ff" points="44.63,-215.59 48.12,-225.59 51.63,-215.59 44.63,-215.59"/>
</a>
</g>
</g>
<!-- Node6 -->
<g id="Node000006" class="node">
<title>Node6</title>
<g id="a_Node000006"><a xlink:href="../../d7/d37/class_quasar_s_d_k_1_1_map_1_1_i_s_a_r_image.html" target="_top" xlink:title="Интерфейс, описывающий радиолокационное изображение с РЛС.">
<polygon fill="white" stroke="#666666" points="182.5,-134.25 111.75,-134.25 111.75,-113.5 182.5,-113.5 182.5,-134.25"/>
<text text-anchor="middle" x="147.12" y="-119.8" font-family="Arial" font-size="11.00">ISARImage</text>
</a>
</g>
</g>
<!-- Node6&#45;&gt;Node2 -->
<g id="edge5_Node000002_Node000006" class="edge">
<title>Node6&#45;&gt;Node2</title>
<g id="a_edge5_Node000002_Node000006"><a xlink:title=" ">
<path fill="none" stroke="#63b8ff" d="M130.85,-105.05C122.58,-96 112.86,-85.36 105.99,-77.83"/>
<polygon fill="#63b8ff" stroke="#63b8ff" points="127.86,-107.06 137.19,-112.09 133.03,-102.34 127.86,-107.06"/>
</a>
</g>
</g>
<!-- Node7 -->
<g id="Node000007" class="node">
<title>Node7</title>
<g id="a_Node000007"><a xlink:href="../../d8/dec/class_quasar_s_d_k_1_1_i_o_1_1_base64_object.html" target="_top" xlink:title="Объект, способный конвертировать свои бинарные данные в base64&#45;строку.">
<polygon fill="white" stroke="#666666" points="234,-77.5 148.25,-77.5 148.25,-56.75 234,-56.75 234,-77.5"/>
<text text-anchor="middle" x="191.12" y="-63.05" font-family="Arial" font-size="11.00">Base64Object</text>
</a>
</g>
</g>
<!-- Node7&#45;&gt;Node1 -->
<g id="edge6_Node000001_Node000007" class="edge">
<title>Node7&#45;&gt;Node1</title>
<g id="a_edge6_Node000001_Node000007"><a xlink:title=" ">
<path fill="none" stroke="#63b8ff" d="M175.58,-48.02C167.87,-39.03 158.85,-28.53 152.45,-21.08"/>
<polygon fill="#63b8ff" stroke="#63b8ff" points="173.55,-50.03 182.72,-55.34 178.86,-45.47 173.55,-50.03"/>
</a>
</g>
</g>
</g>
</svg>
