<?xml version="1.0" encoding="UTF-8" standalone="no"?>
<!DOCTYPE svg PUBLIC "-//W3C//DTD SVG 1.1//EN"
 "http://www.w3.org/Graphics/SVG/1.1/DTD/svg11.dtd">
<!-- Generated by graphviz version 8.1.0 (20230707.0739)
 -->
<!-- Title: CompleteMapImage Pages: 1 -->
<svg width="270pt" height="256pt"
 viewBox="0.00 0.00 269.62 255.75" xmlns="http://www.w3.org/2000/svg" xmlns:xlink="http://www.w3.org/1999/xlink">
<g id="graph0" class="graph" transform="scale(1 1) rotate(0) translate(4 251.75)">
<title>CompleteMapImage</title>
<!-- Node1 -->
<g id="Node000001" class="node">
<title>Node1</title>
<g id="a_Node000001"><a xlink:title="Радиолокационное изображение на карте, сохраненное в файл.">
<polygon fill="#999999" stroke="#666666" points="243.88,-20.75 130.38,-20.75 130.38,0 243.88,0 243.88,-20.75"/>
<text text-anchor="middle" x="187.12" y="-6.3" font-family="Arial" font-size="11.00">CompleteMapImage</text>
</a>
</g>
</g>
<!-- Node2 -->
<g id="Node000002" class="node">
<title>Node2</title>
<g id="a_Node000002"><a xlink:href="../../df/d2b/class_quasar_s_d_k_1_1_map_1_1_map_image.html" target="_top" xlink:title="Абстрактный класс, описывающий радиолокационное изображение в качестве объекта карты.">
<polygon fill="white" stroke="#666666" points="180.25,-77.5 114,-77.5 114,-56.75 180.25,-56.75 180.25,-77.5"/>
<text text-anchor="middle" x="147.12" y="-63.05" font-family="Arial" font-size="11.00">MapImage</text>
</a>
</g>
</g>
<!-- Node2&#45;&gt;Node1 -->
<g id="edge1_Node000001_Node000002" class="edge">
<title>Node2&#45;&gt;Node1</title>
<g id="a_edge1_Node000001_Node000002"><a xlink:title=" ">
<path fill="none" stroke="#63b8ff" d="M160.76,-47.46C167.24,-38.59 174.71,-28.37 180.04,-21.08"/>
<polygon fill="#63b8ff" stroke="#63b8ff" points="157.35,-45.2 154.28,-55.34 163,-49.33 157.35,-45.2"/>
</a>
</g>
</g>
<!-- Node3 -->
<g id="Node000003" class="node">
<title>Node3</title>
<g id="a_Node000003"><a xlink:href="../../d9/dd3/class_quasar_s_d_k_1_1_map_1_1_f_g_s_map_object.html" target="_top" xlink:title="Базовый класс для объектов карты, которые имеют четкую привязку в метрах по размеру.">
<polygon fill="white" stroke="#666666" points="93.62,-134.25 2.62,-134.25 2.62,-113.5 93.62,-113.5 93.62,-134.25"/>
<text text-anchor="middle" x="48.12" y="-119.8" font-family="Arial" font-size="11.00">FGSMapObject</text>
</a>
</g>
</g>
<!-- Node3&#45;&gt;Node2 -->
<g id="edge2_Node000002_Node000003" class="edge">
<title>Node3&#45;&gt;Node2</title>
<g id="a_edge2_Node000002_Node000003"><a xlink:title=" ">
<path fill="none" stroke="#63b8ff" d="M75.39,-107.79C92.69,-98.23 114.56,-86.13 129.58,-77.83"/>
<polygon fill="#63b8ff" stroke="#63b8ff" points="73.88,-105.18 66.82,-113.09 77.27,-111.31 73.88,-105.18"/>
</a>
</g>
</g>
<!-- Node4 -->
<g id="Node000004" class="node">
<title>Node4</title>
<g id="a_Node000004"><a xlink:href="../../d7/ddf/class_quasar_s_d_k_1_1_map_1_1_basic_map_object.html" target="_top" xlink:title="Абстрактный класс, реализующий функции интерфейса IMapObject, за исключением масштаба.">
<polygon fill="white" stroke="#666666" points="96.25,-191 0,-191 0,-170.25 96.25,-170.25 96.25,-191"/>
<text text-anchor="middle" x="48.12" y="-176.55" font-family="Arial" font-size="11.00">BasicMapObject</text>
</a>
</g>
</g>
<!-- Node4&#45;&gt;Node3 -->
<g id="edge3_Node000003_Node000004" class="edge">
<title>Node4&#45;&gt;Node3</title>
<g id="a_edge3_Node000003_Node000004"><a xlink:title=" ">
<path fill="none" stroke="#63b8ff" d="M48.12,-158.96C48.12,-150.59 48.12,-141.33 48.12,-134.58"/>
<polygon fill="#63b8ff" stroke="#63b8ff" points="44.63,-158.84 48.12,-168.84 51.63,-158.84 44.63,-158.84"/>
</a>
</g>
</g>
<!-- Node5 -->
<g id="Node000005" class="node">
<title>Node5</title>
<g id="a_Node000005"><a xlink:href="../../d5/d1e/class_quasar_s_d_k_1_1_map_1_1_i_map_object.html" target="_top" xlink:title="Интерфейс, описывающий абстрактный объект карты.">
<polygon fill="white" stroke="#666666" points="83.5,-247.75 12.75,-247.75 12.75,-227 83.5,-227 83.5,-247.75"/>
<text text-anchor="middle" x="48.12" y="-233.3" font-family="Arial" font-size="11.00">IMapObject</text>
</a>
</g>
</g>
<!-- Node5&#45;&gt;Node4 -->
<g id="edge4_Node000004_Node000005" class="edge">
<title>Node5&#45;&gt;Node4</title>
<g id="a_edge4_Node000004_Node000005"><a xlink:title=" ">
<path fill="none" stroke="#63b8ff" d="M48.12,-215.71C48.12,-207.34 48.12,-198.08 48.12,-191.33"/>
<polygon fill="#63b8ff" stroke="#63b8ff" points="44.63,-215.59 48.12,-225.59 51.63,-215.59 44.63,-215.59"/>
</a>
</g>
</g>
<!-- Node6 -->
<g id="Node000006" class="node">
<title>Node6</title>
<g id="a_Node000006"><a xlink:href="../../d7/d37/class_quasar_s_d_k_1_1_map_1_1_i_s_a_r_image.html" target="_top" xlink:title="Интерфейс, описывающий радиолокационное изображение с РЛС.">
<polygon fill="white" stroke="#666666" points="182.5,-134.25 111.75,-134.25 111.75,-113.5 182.5,-113.5 182.5,-134.25"/>
<text text-anchor="middle" x="147.12" y="-119.8" font-family="Arial" font-size="11.00">ISARImage</text>
</a>
</g>
</g>
<!-- Node6&#45;&gt;Node2 -->
<g id="edge5_Node000002_Node000006" class="edge">
<title>Node6&#45;&gt;Node2</title>
<g id="a_edge5_Node000002_Node000006"><a xlink:title=" ">
<path fill="none" stroke="#63b8ff" d="M147.12,-102.21C147.12,-93.84 147.12,-84.58 147.12,-77.83"/>
<polygon fill="#63b8ff" stroke="#63b8ff" points="143.63,-102.09 147.12,-112.09 150.63,-102.09 143.63,-102.09"/>
</a>
</g>
</g>
<!-- Node7 -->
<g id="Node000007" class="node">
<title>Node7</title>
<g id="a_Node000007"><a xlink:href="../../d4/d32/class_quasar_s_d_k_1_1_i_o_1_1_draft_file.html" target="_top" xlink:title="Класс, описывающий черновик файла &#45; файл, который еще не был сохранен на диск, но готовится к этому.">
<polygon fill="white" stroke="#666666" points="257.75,-77.5 200.5,-77.5 200.5,-56.75 257.75,-56.75 257.75,-77.5"/>
<text text-anchor="middle" x="229.12" y="-63.05" font-family="Arial" font-size="11.00">DraftFile</text>
</a>
</g>
</g>
<!-- Node7&#45;&gt;Node1 -->
<g id="edge6_Node000001_Node000007" class="edge">
<title>Node7&#45;&gt;Node1</title>
<g id="a_edge6_Node000001_Node000007"><a xlink:title=" ">
<path fill="none" stroke="#63b8ff" d="M215.02,-47.74C208.17,-38.81 200.23,-28.45 194.57,-21.08"/>
<polygon fill="#63b8ff" stroke="#63b8ff" points="212.75,-49.53 221.62,-55.34 218.31,-45.27 212.75,-49.53"/>
</a>
</g>
</g>
<!-- Node8 -->
<g id="Node000008" class="node">
<title>Node8</title>
<g id="a_Node000008"><a xlink:href="../../d3/d7e/class_quasar_s_d_k_1_1_i_o_1_1_basic_file.html" target="_top" xlink:title="Абстрактный класс для существующего файла в файловой системе.">
<polygon fill="white" stroke="#666666" points="261.62,-134.25 200.62,-134.25 200.62,-113.5 261.62,-113.5 261.62,-134.25"/>
<text text-anchor="middle" x="231.12" y="-119.8" font-family="Arial" font-size="11.00">BasicFile</text>
</a>
</g>
</g>
<!-- Node8&#45;&gt;Node7 -->
<g id="edge7_Node000007_Node000008" class="edge">
<title>Node8&#45;&gt;Node7</title>
<g id="a_edge7_Node000007_Node000008"><a xlink:title=" ">
<path fill="none" stroke="#63b8ff" d="M230.37,-102.21C230.06,-93.84 229.73,-84.58 229.48,-77.83"/>
<polygon fill="#63b8ff" stroke="#63b8ff" points="226.9,-102.22 230.77,-112.09 233.9,-101.97 226.9,-102.22"/>
</a>
</g>
</g>
<!-- Node9 -->
<g id="Node000009" class="node">
<title>Node9</title>
<g id="a_Node000009"><a xlink:href="../../df/dad/class_quasar_s_d_k_1_1_i_o_1_1_i_file.html" target="_top" xlink:title="Интерфейс, описывающий абстрактный файл в файловой системе.">
<polygon fill="white" stroke="#666666" points="248.88,-191 213.38,-191 213.38,-170.25 248.88,-170.25 248.88,-191"/>
<text text-anchor="middle" x="231.12" y="-176.55" font-family="Arial" font-size="11.00">IFile</text>
</a>
</g>
</g>
<!-- Node9&#45;&gt;Node8 -->
<g id="edge8_Node000008_Node000009" class="edge">
<title>Node9&#45;&gt;Node8</title>
<g id="a_edge8_Node000008_Node000009"><a xlink:title=" ">
<path fill="none" stroke="#63b8ff" d="M231.12,-158.96C231.12,-150.59 231.12,-141.33 231.12,-134.58"/>
<polygon fill="#63b8ff" stroke="#63b8ff" points="227.63,-158.84 231.12,-168.84 234.63,-158.84 227.63,-158.84"/>
</a>
</g>
</g>
</g>
</svg>
