<?xml version="1.0" encoding="UTF-8" standalone="no"?>
<!DOCTYPE svg PUBLIC "-//W3C//DTD SVG 1.1//EN"
 "http://www.w3.org/Graphics/SVG/1.1/DTD/svg11.dtd">
<!-- Generated by graphviz version 8.1.0 (20230707.0739)
 -->
<!-- Title: RealtimeLinePlot Pages: 1 -->
<svg width="183pt" height="214pt"
 viewBox="0.00 0.00 183.12 213.75" xmlns="http://www.w3.org/2000/svg" xmlns:xlink="http://www.w3.org/1999/xlink">

<svg id="main" version="1.1" xmlns="http://www.w3.org/2000/svg" xmlns:xlink="http://www.w3.org/1999/xlink" xml:space="preserve" onload="init(evt)">
<style type="text/css"><![CDATA[
.node, .edge {opacity: 0.7;}
.node.selected, .edge.selected {opacity: 1;}
.edge:hover path { stroke: red; }
.edge:hover polygon { stroke: red; fill: red; }
]]></style>
<script type="application/ecmascript" xlink:href="../../svg.min.js"/>
<svg id="graph" class="graph">
<g id="graph0" class="graph" transform="scale(1 1) rotate(0) translate(4 209.75)">
<title>RealtimeLinePlot</title>
<!-- Node1 -->
<g id="Node000001" class="node">
<title>Node1</title>
<g id="a_Node000001"><a xlink:title=" ">
<polygon fill="#999999" stroke="#666666" points="149.5,-20.75 51,-20.75 51,0 149.5,0 149.5,-20.75"/>
<text text-anchor="middle" x="100.25" y="-6.3" font-family="Arial" font-size="11.00">RealtimeLinePlot</text>
</a>
</g>
</g>
<!-- Node2 -->
<g id="Node000002" class="node">
<title>Node2</title>
<g id="a_Node000002"><a xlink:href="../../d4/d49/class_s_d_k_1_1_quick_1_1_line_plot.html" target="_top" xlink:title=" ">
<polygon fill="white" stroke="#bfbfbf" points="95.75,-78.5 40.75,-78.5 40.75,-57.75 95.75,-57.75 95.75,-78.5"/>
<text text-anchor="middle" x="68.25" y="-64.05" font-family="Arial" font-size="11.00">LinePlot</text>
</a>
</g>
</g>
<!-- Node2&#45;&gt;Node1 -->
<g id="edge1_Node000001_Node000002" class="edge">
<title>Node2&#45;&gt;Node1</title>
<g id="a_edge1_Node000001_Node000002"><a xlink:title=" ">
<path fill="none" stroke="#63b8ff" d="M79.25,-47.96C84.47,-38.86 90.49,-28.38 94.74,-20.97"/>
<polygon fill="#63b8ff" stroke="#63b8ff" points="75.77,-46 73.82,-56.41 81.84,-49.48 75.77,-46"/>
</a>
</g>
</g>
<!-- Node3 -->
<g id="Node000003" class="node">
<title>Node3</title>
<g id="a_Node000003"><a xlink:href="../../d2/d20/class_s_d_k_1_1_quick_1_1_chart_base.html" target="_top" xlink:title=" ">
<polygon fill="white" stroke="#bfbfbf" points="71.5,-148 3,-148 3,-127.25 71.5,-127.25 71.5,-148"/>
<text text-anchor="middle" x="37.25" y="-133.55" font-family="Arial" font-size="11.00">ChartBase</text>
</a>
</g>
</g>
<!-- Node3&#45;&gt;Node2 -->
<g id="edge2_Node000002_Node000003" class="edge">
<title>Node3&#45;&gt;Node2</title>
<g id="a_edge2_Node000002_Node000003"><a xlink:title=" ">
<path fill="none" stroke="#63b8ff" d="M46.28,-116.97C52.04,-104.42 59.26,-88.7 63.82,-78.78"/>
<polygon fill="#63b8ff" stroke="#63b8ff" points="42.68,-115.41 41.69,-125.95 49.05,-118.33 42.68,-115.41"/>
</a>
</g>
</g>
<!-- Node4 -->
<g id="Node000004" class="node">
<title>Node4</title>
<g id="a_Node000004"><a xlink:title=" ">
<polygon fill="white" stroke="#bfbfbf" points="74.5,-205.75 0,-205.75 0,-185 74.5,-185 74.5,-205.75"/>
<text text-anchor="middle" x="37.25" y="-191.3" font-family="Arial" font-size="11.00">QQuickItem</text>
</a>
</g>
</g>
<!-- Node4&#45;&gt;Node3 -->
<g id="edge3_Node000003_Node000004" class="edge">
<title>Node4&#45;&gt;Node3</title>
<g id="a_edge3_Node000003_Node000004"><a xlink:title=" ">
<path fill="none" stroke="#63b8ff" d="M37.25,-173.73C37.25,-164.99 37.25,-155.23 37.25,-148.22"/>
<polygon fill="#63b8ff" stroke="#63b8ff" points="33.75,-173.66 37.25,-183.66 40.75,-173.66 33.75,-173.66"/>
</a>
</g>
</g>
<!-- Node5 -->
<g id="Node000005" class="node">
<title>Node5</title>
<g id="a_Node000005"><a xlink:title=" ">
<polygon fill="white" stroke="#bfbfbf" points="175.12,-148 89.38,-148 89.38,-127.25 175.12,-127.25 175.12,-148"/>
<text text-anchor="middle" x="132.25" y="-133.55" font-family="Arial" font-size="11.00">vector&lt; float &gt;</text>
</a>
</g>
</g>
<!-- Node5&#45;&gt;Node1 -->
<g id="edge5_Node000001_Node000005" class="edge">
<title>Node5&#45;&gt;Node1</title>
<g id="a_edge5_Node000001_Node000005"><a xlink:title=" ">
<path fill="none" stroke="#9a32cd" stroke-dasharray="5,2" d="M127.11,-116.49C120.14,-89.22 107.97,-41.6 102.75,-21.16"/>
<polygon fill="#9a32cd" stroke="#9a32cd" points="123.87,-116.97 129.74,-125.8 130.65,-115.24 123.87,-116.97"/>
</a>
</g>
<text text-anchor="middle" x="128.38" y="-64.05" font-family="Arial" font-size="11.00" fill="grey"> vec</text>
</g>
<!-- Node5&#45;&gt;Node2 -->
<g id="edge4_Node000002_Node000005" class="edge">
<title>Node5&#45;&gt;Node2</title>
<g id="a_edge4_Node000002_Node000005"><a xlink:title=" ">
<path fill="none" stroke="#9a32cd" stroke-dasharray="5,2" d="M115.74,-119.21C103.54,-106.34 87.38,-89.3 77.4,-78.78"/>
<polygon fill="#9a32cd" stroke="#9a32cd" points="112.66,-121.11 122.08,-125.95 117.74,-116.29 112.66,-121.11"/>
</a>
</g>
<text text-anchor="middle" x="110.38" y="-98.8" font-family="Arial" font-size="11.00" fill="grey"> v</text>
</g>
</g>
</svg>
</svg>

<style type='text/css'>
<![CDATA[
[data-mouse-over-selected='false'] { opacity: 0.7; }
[data-mouse-over-selected='true']  { opacity: 1.0; }
]]>
</style>
<script type="application/ecmascript"><![CDATA[
document.addEventListener('DOMContentLoaded', (event) => {
  highlightEdges();
  highlightAdjacentNodes();
});
]]></script>
</svg>
