<svg width="566.9" height="198.4" xmlns="http://www.w3.org/2000/svg" xml:space="preserve" version="1.1">

 <g>
  <title>Layer 1</title>
  <path id="svg_2" stroke-miterlimit="10" stroke-width="6" stroke="#C7A750" fill="none" d="m157.6,139.1c-8.7,5 -18.6,7.8 -29.3,7.8c-32.2,0 -58.4,-26.1 -58.4,-58.4s26.1,-58.4 58.4,-58.4s58.4,26.1 58.4,58.4c0,10.7 -2.8,20.5 -7.8,29.2" class="st0"/>
  <path id="svg_3" stroke-miterlimit="10" stroke-width="6" stroke="#C7A750" fill="none" d="m146,126.9" class="st0"/>
  <path id="svg_4" stroke-miterlimit="10" stroke-width="6" stroke="#C7A750" fill="none" d="m146,126.9c-5.4,2.5 -11.3,3.8 -17.6,3.8c-23.3,0 -42.1,-18.8 -42.1,-42.1s18.8,-42.1 42.1,-42.1s42.1,18.8 42.1,42.1c0,6.4 -1.3,12.3 -4,17.7" class="st0"/>
  <path id="svg_5" stroke-miterlimit="10" stroke-width="6" stroke="#C7A750" fill="none" d="m121.4,114.1c-11.2,-3 -19.5,-13.3 -19.5,-25.5c0,-14.6 11.8,-26.4 26.4,-26.4s26.4,11.8 26.4,26.4c0,8.3 -3.2,12.6 -3.2,12.6" class="st0"/>
  <path id="svg_6" stroke-miterlimit="10" stroke-width="6" stroke="#C7A750" fill="none" d="m166.4,106.6c-4.7,-3.2 -15,-5.4 -15,-5.4" class="st0"/>
  <path id="svg_7" stroke-miterlimit="10" stroke-width="6" stroke="#C7A750" fill="none" d="m178.8,117.8c-3.3,-3.6 -8.1,-8 -11.8,-10.8c-0.2,-0.1 -0.5,-0.3 -0.7,-0.5" class="st0"/>
  <path id="svg_8" stroke-miterlimit="10" stroke-width="6" stroke="#C7A750" fill="none" d="m157.6,139.1c1.1,1.2 2.2,2.5 2.9,3.5c4.6,5.6 15.8,7.2 21.3,0c3.3,-4.3 5,-12.9 0,-21c-0.7,-1 -1.8,-2.3 -3,-3.8" class="st0"/>
  <path id="svg_9" stroke-miterlimit="10" stroke-width="6" stroke="#C7A750" fill="none" d="m145.4,126.3c4.3,4 13,12.8 12.3,12.8" class="st0"/>
  <path id="svg_10" stroke-miterlimit="10" stroke-width="6" stroke="#C7A750" fill="none" d="m117.8,112.8c-2.2,-0.5 16,5 20.5,7.8c2.2,1.3 7.6,6.2 7.6,6.2" class="st0"/>
  <g id="svg_11">
   <path id="svg_12" fill="#C7A750" d="m136,109c6.3,-0.1 12.3,2 18.1,4.5c3.8,1.5 7.3,4.6 10.5,7.2c4.6,2.8 8.2,7 9.5,12.3c0.2,0.7 0.8,4.7 -0.7,4c-3.3,-2.2 -7,-4 -9.8,-6.7c-2.3,-2.5 -4.3,-5.7 -6.6,-8.3c-2.6,-3.3 -6.5,-5.5 -10.1,-7.6c-3.5,-1.8 -7.1,-3.8 -10.9,-4.5c-0.5,-0.1 -0.5,-0.9 0,-0.9l0,0z" class="st1"/>
  </g>
  <text font-weight="normal" id="svg_13" font-size="113.3839px" font-family="'HPSimplified-Regular'" fill="#000000" class="st2 st3 st4" transform="matrix(1 0 0 1 196.073 149.96)">uaSAR</text>
 </g>
</svg>