<?xml version="1.0" encoding="utf-8"?>
<!-- Generator: Adobe Illustrator 27.1.1, SVG Export Plug-In . SVG Version: 6.00 Build 0)  -->
<svg version="1.1" id="Слой_2_00000101068874857158874570000004139845325246184363_"
	 xmlns="http://www.w3.org/2000/svg" xmlns:xlink="http://www.w3.org/1999/xlink" x="0px" y="0px" viewBox="0 0 566.9 198.4"
	 style="enable-background:new 0 0 566.9 198.4;" xml:space="preserve">
<style type="text/css">
	.st0{fill:none;stroke:#C7A750;stroke-width:6;stroke-miterlimit:10;}
	.st1{fill:#C7A750;}
	.st2{fill:#FFFFFF;}
	.st3{font-family:'HPSimplified-Regular';}
	.st4{font-size:113.3839px;}
</style>
<g>
	<path class="st0" d="M157.6,139.1c-8.7,5-18.6,7.8-29.3,7.8c-32.2,0-58.4-26.1-58.4-58.4s26.1-58.4,58.4-58.4s58.4,26.1,58.4,58.4
		c0,10.7-2.8,20.5-7.8,29.2"/>
	<path class="st0" d="M146,126.9"/>
	<path class="st0" d="M146,126.9c-5.4,2.5-11.3,3.8-17.6,3.8c-23.3,0-42.1-18.8-42.1-42.1s18.8-42.1,42.1-42.1s42.1,18.8,42.1,42.1
		c0,6.4-1.3,12.3-4,17.7"/>
	<path class="st0" d="M121.4,114.1c-11.2-3-19.5-13.3-19.5-25.5c0-14.6,11.8-26.4,26.4-26.4s26.4,11.8,26.4,26.4
		c0,8.3-3.2,12.6-3.2,12.6"/>
	<path class="st0" d="M166.4,106.6c-4.7-3.2-15-5.4-15-5.4"/>
	<path class="st0" d="M178.8,117.8c-3.3-3.6-8.1-8-11.8-10.8c-0.2-0.1-0.5-0.3-0.7-0.5"/>
	<path class="st0" d="M157.6,139.1c1.1,1.2,2.2,2.5,2.9,3.5c4.6,5.6,15.8,7.2,21.3,0c3.3-4.3,5-12.9,0-21c-0.7-1-1.8-2.3-3-3.8"/>
	<path class="st0" d="M145.4,126.3c4.3,4,13,12.8,12.3,12.8"/>
	<path class="st0" d="M117.8,112.8c-2.2-0.5,16,5,20.5,7.8c2.2,1.3,7.6,6.2,7.6,6.2"/>
	<g>
		<path class="st1" d="M136,109c6.3-0.1,12.3,2,18.1,4.5c3.8,1.5,7.3,4.6,10.5,7.2c4.6,2.8,8.2,7,9.5,12.3c0.2,0.7,0.8,4.7-0.7,4
			c-3.3-2.2-7-4-9.8-6.7c-2.3-2.5-4.3-5.7-6.6-8.3c-2.6-3.3-6.5-5.5-10.1-7.6c-3.5-1.8-7.1-3.8-10.9-4.5
			C135.5,109.8,135.5,109,136,109L136,109z"/>
	</g>
	<text transform="matrix(1 0 0 1 196.0728 149.9602)" class="st2 st3 st4">uaSAR</text>
</g>
</svg>
