<?xml version="1.0" encoding="utf-8"?>
<!-- Generator: Adobe Illustrator 27.1.1, SVG Export Plug-In . SVG Version: 6.00 Build 0)  -->
<svg version="1.1" id="Слой_2" xmlns="http://www.w3.org/2000/svg" xmlns:xlink="http://www.w3.org/1999/xlink" x="0px" y="0px"
	 viewBox="0 0 560 288" style="enable-background:new 0 0 560 288;" xml:space="preserve">
<style type="text/css">
	.st0{fill:none;stroke:#C7A750;stroke-width:6;stroke-miterlimit:10;}
	.st1{fill:#C7A750;}
</style>
<path class="st0" d="M306.14,188.94c-7.68,4.48-16.61,7.04-26.14,7.04c-28.71,0-51.98-23.27-51.98-51.98
	c0-28.71,23.27-51.98,51.98-51.98s51.98,23.27,51.98,51.98c0,9.47-2.53,18.34-6.95,25.99"/>
<path class="st0" d="M295.74,178.04"/>
<path class="st0" d="M295.74,178.04c-4.79,2.22-10.12,3.45-15.74,3.45c-20.71,0-37.49-16.78-37.49-37.49s16.78-37.49,37.49-37.49
	c20.71,0,37.49,16.78,37.49,37.49c0,5.66-1.25,11.02-3.5,15.83"/>
<path class="st0" d="M273.81,166.67c-9.97-2.72-17.3-11.84-17.3-22.67c0-12.97,10.52-23.49,23.49-23.49
	c12.97,0,23.49,10.52,23.49,23.49c0,7.45-2.82,11.17-2.82,11.17"/>
<path class="st0" d="M313.93,159.97c-4.24-2.77-13.42-4.84-13.26-4.8"/>
<path class="st0" d="M325.03,169.99c-2.94-3.21-7.23-7.09-10.47-9.58c-0.19-0.15-0.4-0.3-0.63-0.44"/>
<path class="st0" d="M306.14,188.94c1,1.15,1.9,2.2,2.63,3.1c4.13,5.02,14.14,6.45,18.96,0c2.89-3.86,4.52-11.52,0-18.67
	c-0.59-0.94-1.55-2.11-2.71-3.38"/>
<path class="st0" d="M295.18,177.55c3.88,3.59,11.55,11.39,10.96,11.39"/>
<path class="st0" d="M270.59,165.53c-1.96-0.38,14.16,4.46,18.34,7.03c2,1.23,6.81,5.48,6.81,5.48"/>
<g>
	<path class="st1" d="M286.86,162.17c5.61-0.11,10.97,1.84,16.07,4.02c3.39,1.33,6.48,4.11,9.44,6.36c4.05,2.51,7.3,6.24,8.47,11.02
		c0.18,0.57,0.7,4.22-0.59,3.49c-3.04-1.95-6.21-3.47-8.8-6.01c-2.12-2.22-3.78-5.05-5.87-7.36c-2.31-2.88-5.8-4.88-9.04-6.79
		c-3.06-1.64-6.26-3.36-9.69-4.03C286.44,162.84,286.43,162.18,286.86,162.17L286.86,162.17z"/>
</g>
</svg>
