<?xml version="1.0" encoding="UTF-8" standalone="no"?>
<!DOCTYPE svg PUBLIC "-//W3C//DTD SVG 1.1//EN"
 "http://www.w3.org/Graphics/SVG/1.1/DTD/svg11.dtd">
<!-- Generated by graphviz version 8.1.0 (20230707.0739)
 -->
<!-- Title: QuaSAR Pages: 1 -->
<svg width="545pt" height="226pt"
 viewBox="0.00 0.00 545.35 225.50" xmlns="http://www.w3.org/2000/svg" xmlns:xlink="http://www.w3.org/1999/xlink">
<g id="graph0" class="graph" transform="scale(1 1) rotate(0) translate(4 221.5)">
<title>QuaSAR</title>
<!-- Node1 -->
<g id="Node000001" class="node">
<title>Node1</title>
<g id="a_Node000001"><a xlink:title=" ">
<polygon fill="#999999" stroke="#666666" points="200.72,-20.75 141.22,-20.75 141.22,0 200.72,0 200.72,-20.75"/>
<text text-anchor="middle" x="170.97" y="-6.3" font-family="Arial" font-size="11.00">QuaSAR</text>
</a>
</g>
</g>
<!-- Node2 -->
<g id="Node000002" class="node">
<title>Node2</title>
<g id="a_Node000002"><a xlink:title=" ">
<polygon fill="white" stroke="#bfbfbf" points="185.6,-159.75 128.35,-159.75 128.35,-139 185.6,-139 185.6,-159.75"/>
<text text-anchor="middle" x="156.97" y="-145.3" font-family="Arial" font-size="11.00">QObject</text>
</a>
</g>
</g>
<!-- Node2&#45;&gt;Node1 -->
<g id="edge1_Node000001_Node000002" class="edge">
<title>Node2&#45;&gt;Node1</title>
<g id="a_edge1_Node000001_Node000002"><a xlink:title=" ">
<path fill="none" stroke="#63b8ff" d="M117.11,-143.87C63.78,-135.99 -21.23,-115.9 4.97,-69.5 31.55,-22.44 100.73,-12.67 140.9,-11.12"/>
<polygon fill="#63b8ff" stroke="#63b8ff" points="116.57,-147.47 126.96,-145.37 117.53,-140.53 116.57,-147.47"/>
</a>
</g>
</g>
<!-- Node3 -->
<g id="Node000003" class="node">
<title>Node3</title>
<g id="a_Node000003"><a xlink:href="../../da/d40/class_application_1_1_update_manager.html" target="_top" xlink:title=" ">
<polygon fill="white" stroke="#bfbfbf" points="106.22,-90.25 13.72,-90.25 13.72,-69.5 106.22,-69.5 106.22,-90.25"/>
<text text-anchor="middle" x="59.97" y="-75.8" font-family="Arial" font-size="11.00">UpdateManager</text>
</a>
</g>
</g>
<!-- Node2&#45;&gt;Node3 -->
<g id="edge3_Node000003_Node000002" class="edge">
<title>Node2&#45;&gt;Node3</title>
<g id="a_edge3_Node000003_Node000002"><a xlink:title=" ">
<path fill="none" stroke="#63b8ff" d="M134.09,-132.45C115.51,-119.52 89.9,-101.7 74.16,-90.75"/>
<polygon fill="#63b8ff" stroke="#63b8ff" points="131.87,-135.86 142.07,-138.7 135.87,-130.12 131.87,-135.86"/>
</a>
</g>
</g>
<!-- Node4 -->
<g id="Node000004" class="node">
<title>Node4</title>
<g id="a_Node000004"><a xlink:href="../../dc/d45/class_application_1_1_quick_utils.html" target="_top" xlink:title=" ">
<polygon fill="white" stroke="#bfbfbf" points="189.72,-90.25 124.22,-90.25 124.22,-69.5 189.72,-69.5 189.72,-90.25"/>
<text text-anchor="middle" x="156.97" y="-75.8" font-family="Arial" font-size="11.00">QuickUtils</text>
</a>
</g>
</g>
<!-- Node2&#45;&gt;Node4 -->
<g id="edge5_Node000004_Node000002" class="edge">
<title>Node2&#45;&gt;Node4</title>
<g id="a_edge5_Node000004_Node000002"><a xlink:title=" ">
<path fill="none" stroke="#63b8ff" d="M156.97,-127.95C156.97,-115.53 156.97,-100.25 156.97,-90.53"/>
<polygon fill="#63b8ff" stroke="#63b8ff" points="153.47,-127.7 156.97,-137.7 160.47,-127.7 153.47,-127.7"/>
</a>
</g>
</g>
<!-- Node5 -->
<g id="Node000005" class="node">
<title>Node5</title>
<g id="a_Node000005"><a xlink:href="../../d0/def/class_networking_1_1_h_t_t_p_downloader.html" target="_top" xlink:title="Class for downloading files by HTTP/HTTPS protocol.">
<polygon fill="white" stroke="#666666" points="310.47,-90.25 207.47,-90.25 207.47,-69.5 310.47,-69.5 310.47,-90.25"/>
<text text-anchor="middle" x="258.97" y="-75.8" font-family="Arial" font-size="11.00">HTTPDownloader</text>
</a>
</g>
</g>
<!-- Node2&#45;&gt;Node5 -->
<g id="edge7_Node000005_Node000002" class="edge">
<title>Node2&#45;&gt;Node5</title>
<g id="a_edge7_Node000005_Node000002"><a xlink:title=" ">
<path fill="none" stroke="#63b8ff" d="M180.5,-132.81C200.08,-119.85 227.36,-101.8 244.05,-90.75"/>
<polygon fill="#63b8ff" stroke="#63b8ff" points="178.99,-130.27 172.59,-138.7 182.86,-136.1 178.99,-130.27"/>
</a>
</g>
</g>
<!-- Node6 -->
<g id="Node000006" class="node">
<title>Node6</title>
<g id="a_Node000006"><a xlink:href="../../de/d9c/class_processing_1_1_stream_processor.html" target="_top" xlink:title=" ">
<polygon fill="white" stroke="#bfbfbf" points="431.47,-90.25 328.47,-90.25 328.47,-69.5 431.47,-69.5 431.47,-90.25"/>
<text text-anchor="middle" x="379.97" y="-75.8" font-family="Arial" font-size="11.00">StreamProcessor</text>
</a>
</g>
</g>
<!-- Node2&#45;&gt;Node6 -->
<g id="edge9_Node000006_Node000002" class="edge">
<title>Node2&#45;&gt;Node6</title>
<g id="a_edge9_Node000006_Node000002"><a xlink:title=" ">
<path fill="none" stroke="#63b8ff" d="M196.01,-136.56C238.97,-123.56 307.23,-102.89 347.41,-90.73"/>
<polygon fill="#63b8ff" stroke="#63b8ff" points="195.23,-133.44 186.67,-139.69 197.25,-140.14 195.23,-133.44"/>
</a>
</g>
</g>
<!-- Node3&#45;&gt;Node1 -->
<g id="edge2_Node000001_Node000003" class="edge">
<title>Node3&#45;&gt;Node1</title>
<g id="a_edge2_Node000001_Node000003"><a xlink:title=" ">
<path fill="none" stroke="#9a32cd" stroke-dasharray="5,2" d="M58.26,-58.19C58.75,-51.28 60.57,-44.01 65.22,-38.75 83.94,-17.58 116.69,-11.78 140.8,-10.63"/>
<polygon fill="#9a32cd" stroke="#9a32cd" points="54.78,-58.1 58.43,-68.05 61.78,-58 54.78,-58.1"/>
</a>
</g>
<text text-anchor="middle" x="112.85" y="-41.05" font-family="Arial" font-size="11.00" fill="grey"> m_updateManager</text>
</g>
<!-- Node4&#45;&gt;Node1 -->
<g id="edge4_Node000001_Node000004" class="edge">
<title>Node4&#45;&gt;Node1</title>
<g id="a_edge4_Node000001_Node000004"><a xlink:title=" ">
<path fill="none" stroke="#9a32cd" stroke-dasharray="5,2" d="M161.21,-58.45C163.78,-46.03 166.95,-30.75 168.97,-21.03"/>
<polygon fill="#9a32cd" stroke="#9a32cd" points="157.58,-57.7 158.98,-68.2 164.44,-59.12 157.58,-57.7"/>
</a>
</g>
<text text-anchor="middle" x="198.6" y="-41.05" font-family="Arial" font-size="11.00" fill="grey"> m_quickUtils</text>
</g>
<!-- Node5&#45;&gt;Node1 -->
<g id="edge6_Node000001_Node000005" class="edge">
<title>Node5&#45;&gt;Node1</title>
<g id="a_edge6_Node000001_Node000005"><a xlink:title=" ">
<path fill="none" stroke="#9a32cd" stroke-dasharray="5,2" d="M250.45,-59.28C246.56,-52.09 241.38,-44.35 234.97,-38.75 225.32,-30.32 212.69,-24.18 201.2,-19.88"/>
<polygon fill="#9a32cd" stroke="#9a32cd" points="247.7,-60.63 255.21,-68.1 254,-57.58 247.7,-60.63"/>
</a>
</g>
<text text-anchor="middle" x="293.6" y="-41.05" font-family="Arial" font-size="11.00" fill="grey"> m_httpDownloader</text>
</g>
<!-- Node6&#45;&gt;Node1 -->
<g id="edge8_Node000001_Node000006" class="edge">
<title>Node6&#45;&gt;Node1</title>
<g id="a_edge8_Node000001_Node000006"><a xlink:title=" ">
<path fill="none" stroke="#9a32cd" stroke-dasharray="5,2" d="M368.09,-60.19C362.11,-52.32 354.18,-43.84 344.97,-38.75 320.82,-25.4 244.22,-17.27 201.15,-13.63"/>
<polygon fill="#9a32cd" stroke="#9a32cd" points="365.77,-61.99 374.36,-68.2 371.52,-57.99 365.77,-61.99"/>
</a>
</g>
<text text-anchor="middle" x="415.35" y="-41.05" font-family="Arial" font-size="11.00" fill="grey"> m_stream_processor</text>
</g>
<!-- Node7 -->
<g id="Node000007" class="node">
<title>Node7</title>
<g id="a_Node000007"><a xlink:title=" ">
<polygon fill="white" stroke="#bfbfbf" points="394.85,-159.75 273.1,-159.75 273.1,-139 394.85,-139 394.85,-159.75"/>
<text text-anchor="middle" x="333.97" y="-145.3" font-family="Arial" font-size="11.00">queue&lt; QByteArray &gt;</text>
</a>
</g>
</g>
<!-- Node7&#45;&gt;Node6 -->
<g id="edge10_Node000006_Node000007" class="edge">
<title>Node7&#45;&gt;Node6</title>
<g id="a_edge10_Node000006_Node000007"><a xlink:title=" ">
<path fill="none" stroke="#9a32cd" stroke-dasharray="5,2" d="M335.79,-128.23C337.11,-121.47 339.37,-114.15 343.22,-108.25 347.92,-101.06 355.2,-95.06 362.04,-90.53"/>
<polygon fill="#9a32cd" stroke="#9a32cd" points="332.24,-127.35 334.34,-137.73 339.17,-128.3 332.24,-127.35"/>
</a>
</g>
<text text-anchor="middle" x="368.35" y="-110.55" font-family="Arial" font-size="11.00" fill="grey"> m_queue</text>
</g>
<!-- Node8 -->
<g id="Node000008" class="node">
<title>Node8</title>
<g id="a_Node000008"><a xlink:href="../../d4/db5/class_map_1_1_stream_segment_model.html" target="_top" xlink:title=" ">
<polygon fill="white" stroke="#bfbfbf" points="537.35,-159.75 412.6,-159.75 412.6,-139 537.35,-139 537.35,-159.75"/>
<text text-anchor="middle" x="474.97" y="-145.3" font-family="Arial" font-size="11.00">StreamSegmentModel</text>
</a>
</g>
</g>
<!-- Node8&#45;&gt;Node6 -->
<g id="edge11_Node000006_Node000008" class="edge">
<title>Node8&#45;&gt;Node6</title>
<g id="a_edge11_Node000006_Node000008"><a xlink:title=" ">
<path fill="none" stroke="#9a32cd" stroke-dasharray="5,2" d="M452.56,-132.45C434.36,-119.52 409.28,-101.7 393.87,-90.75"/>
<polygon fill="#9a32cd" stroke="#9a32cd" points="450.18,-135.76 460.36,-138.7 454.24,-130.06 450.18,-135.76"/>
</a>
</g>
<text text-anchor="middle" x="460.35" y="-110.55" font-family="Arial" font-size="11.00" fill="grey"> m_model</text>
</g>
<!-- Node9 -->
<g id="Node000009" class="node">
<title>Node9</title>
<g id="a_Node000009"><a xlink:title=" ">
<polygon fill="white" stroke="#bfbfbf" points="530.6,-217.5 419.35,-217.5 419.35,-196.75 530.6,-196.75 530.6,-217.5"/>
<text text-anchor="middle" x="474.97" y="-203.05" font-family="Arial" font-size="11.00">QAbstractListModel</text>
</a>
</g>
</g>
<!-- Node9&#45;&gt;Node8 -->
<g id="edge12_Node000008_Node000009" class="edge">
<title>Node9&#45;&gt;Node8</title>
<g id="a_edge12_Node000008_Node000009"><a xlink:title=" ">
<path fill="none" stroke="#63b8ff" d="M474.97,-185.48C474.97,-176.74 474.97,-166.98 474.97,-159.97"/>
<polygon fill="#63b8ff" stroke="#63b8ff" points="471.47,-185.41 474.97,-195.41 478.47,-185.41 471.47,-185.41"/>
</a>
</g>
</g>
</g>
</svg>
