<?xml version="1.0" encoding="UTF-8" standalone="no"?>
<!DOCTYPE svg PUBLIC "-//W3C//DTD SVG 1.1//EN"
 "http://www.w3.org/Graphics/SVG/1.1/DTD/svg11.dtd">
<!-- Generated by graphviz version 8.1.0 (20230707.0739)
 -->
<!-- Title: GeoMarker Pages: 1 -->
<svg width="280pt" height="199pt"
 viewBox="0.00 0.00 280.25 199.00" xmlns="http://www.w3.org/2000/svg" xmlns:xlink="http://www.w3.org/1999/xlink">
<g id="graph0" class="graph" transform="scale(1 1) rotate(0) translate(4 195)">
<title>GeoMarker</title>
<!-- Node1 -->
<g id="Node000001" class="node">
<title>Node1</title>
<g id="a_Node000001"><a xlink:title=" ">
<polygon fill="#999999" stroke="#666666" points="190.5,-20.75 121.25,-20.75 121.25,0 190.5,0 190.5,-20.75"/>
<text text-anchor="middle" x="155.88" y="-6.3" font-family="Arial" font-size="11.00">GeoMarker</text>
</a>
</g>
</g>
<!-- Node2 -->
<g id="Node000002" class="node">
<title>Node2</title>
<g id="a_Node000002"><a xlink:href="../../d5/daf/class_quasar_s_d_k_1_1_map_1_1_screen_map_object.html" target="_top" xlink:title="Базовый класс для объектов карты, привязанных по размеру к экрану.">
<polygon fill="white" stroke="#666666" points="103.75,-77.5 0,-77.5 0,-56.75 103.75,-56.75 103.75,-77.5"/>
<text text-anchor="middle" x="51.88" y="-63.05" font-family="Arial" font-size="11.00">ScreenMapObject</text>
</a>
</g>
</g>
<!-- Node2&#45;&gt;Node1 -->
<g id="edge1_Node000001_Node000002" class="edge">
<title>Node2&#45;&gt;Node1</title>
<g id="a_edge1_Node000001_Node000002"><a xlink:title=" ">
<path fill="none" stroke="#63b8ff" d="M80.01,-51.31C98.26,-41.7 121.52,-29.46 137.44,-21.08"/>
<polygon fill="#63b8ff" stroke="#63b8ff" points="78.69,-48.58 71.47,-56.34 81.95,-54.78 78.69,-48.58"/>
</a>
</g>
</g>
<!-- Node3 -->
<g id="Node000003" class="node">
<title>Node3</title>
<g id="a_Node000003"><a xlink:href="../../d7/ddf/class_quasar_s_d_k_1_1_map_1_1_basic_map_object.html" target="_top" xlink:title="Абстрактный класс, реализующий функции интерфейса IMapObject, за исключением масштаба.">
<polygon fill="white" stroke="#666666" points="100,-134.25 3.75,-134.25 3.75,-113.5 100,-113.5 100,-134.25"/>
<text text-anchor="middle" x="51.88" y="-119.8" font-family="Arial" font-size="11.00">BasicMapObject</text>
</a>
</g>
</g>
<!-- Node3&#45;&gt;Node2 -->
<g id="edge2_Node000002_Node000003" class="edge">
<title>Node3&#45;&gt;Node2</title>
<g id="a_edge2_Node000002_Node000003"><a xlink:title=" ">
<path fill="none" stroke="#63b8ff" d="M51.88,-102.21C51.88,-93.84 51.88,-84.58 51.88,-77.83"/>
<polygon fill="#63b8ff" stroke="#63b8ff" points="48.38,-102.09 51.88,-112.09 55.38,-102.09 48.38,-102.09"/>
</a>
</g>
</g>
<!-- Node4 -->
<g id="Node000004" class="node">
<title>Node4</title>
<g id="a_Node000004"><a xlink:href="../../d5/d1e/class_quasar_s_d_k_1_1_map_1_1_i_map_object.html" target="_top" xlink:title="Интерфейс, описывающий абстрактный объект карты.">
<polygon fill="white" stroke="#666666" points="87.25,-191 16.5,-191 16.5,-170.25 87.25,-170.25 87.25,-191"/>
<text text-anchor="middle" x="51.88" y="-176.55" font-family="Arial" font-size="11.00">IMapObject</text>
</a>
</g>
</g>
<!-- Node4&#45;&gt;Node3 -->
<g id="edge3_Node000003_Node000004" class="edge">
<title>Node4&#45;&gt;Node3</title>
<g id="a_edge3_Node000003_Node000004"><a xlink:title=" ">
<path fill="none" stroke="#63b8ff" d="M51.88,-158.96C51.88,-150.59 51.88,-141.33 51.88,-134.58"/>
<polygon fill="#63b8ff" stroke="#63b8ff" points="48.38,-158.84 51.88,-168.84 55.38,-158.84 48.38,-158.84"/>
</a>
</g>
</g>
<!-- Node5 -->
<g id="Node000005" class="node">
<title>Node5</title>
<g id="a_Node000005"><a xlink:href="../../d9/d5a/class_i_nameable.html" target="_top" xlink:title=" ">
<polygon fill="white" stroke="#bfbfbf" points="189.75,-77.5 122,-77.5 122,-56.75 189.75,-56.75 189.75,-77.5"/>
<text text-anchor="middle" x="155.88" y="-63.05" font-family="Arial" font-size="11.00">INameable</text>
</a>
</g>
</g>
<!-- Node5&#45;&gt;Node1 -->
<g id="edge4_Node000001_Node000005" class="edge">
<title>Node5&#45;&gt;Node1</title>
<g id="a_edge4_Node000001_Node000005"><a xlink:title=" ">
<path fill="none" stroke="#63b8ff" d="M155.88,-45.46C155.88,-37.09 155.88,-27.83 155.88,-21.08"/>
<polygon fill="#63b8ff" stroke="#63b8ff" points="152.38,-45.34 155.88,-55.34 159.38,-45.34 152.38,-45.34"/>
</a>
</g>
</g>
<!-- Node6 -->
<g id="Node000006" class="node">
<title>Node6</title>
<g id="a_Node000006"><a xlink:href="../../de/de2/class_i_colorable.html" target="_top" xlink:title=" ">
<polygon fill="white" stroke="#bfbfbf" points="272.25,-77.5 207.5,-77.5 207.5,-56.75 272.25,-56.75 272.25,-77.5"/>
<text text-anchor="middle" x="239.88" y="-63.05" font-family="Arial" font-size="11.00">IColorable</text>
</a>
</g>
</g>
<!-- Node6&#45;&gt;Node1 -->
<g id="edge5_Node000001_Node000006" class="edge">
<title>Node6&#45;&gt;Node1</title>
<g id="a_edge5_Node000001_Node000006"><a xlink:title=" ">
<path fill="none" stroke="#63b8ff" d="M215.91,-50.51C201.37,-41.03 183.27,-29.23 170.76,-21.08"/>
<polygon fill="#63b8ff" stroke="#63b8ff" points="213.57,-53.81 223.86,-56.34 217.39,-47.94 213.57,-53.81"/>
</a>
</g>
</g>
</g>
</svg>
