<?xml version="1.0" encoding="UTF-8" standalone="no"?>
<!DOCTYPE svg PUBLIC "-//W3C//DTD SVG 1.1//EN"
 "http://www.w3.org/Graphics/SVG/1.1/DTD/svg11.dtd">
<!-- Generated by graphviz version 8.1.0 (20230707.0739)
 -->
<!-- Title: IMapObject Pages: 1 -->
<svg width="426pt" height="256pt"
 viewBox="0.00 0.00 425.62 255.75" xmlns="http://www.w3.org/2000/svg" xmlns:xlink="http://www.w3.org/1999/xlink">
<g id="graph0" class="graph" transform="scale(1 1) rotate(0) translate(4 251.75)">
<title>IMapObject</title>
<!-- Node1 -->
<g id="Node000001" class="node">
<title>Node1</title>
<g id="a_Node000001"><a xlink:title="Интерфейс, описывающий абстрактный объект карты.">
<polygon fill="#999999" stroke="#666666" points="276.12,-247.75 205.38,-247.75 205.38,-227 276.12,-227 276.12,-247.75"/>
<text text-anchor="middle" x="240.75" y="-233.3" font-family="Arial" font-size="11.00">IMapObject</text>
</a>
</g>
</g>
<!-- Node2 -->
<g id="Node000002" class="node">
<title>Node2</title>
<g id="a_Node000002"><a xlink:href="../../d7/ddf/class_quasar_s_d_k_1_1_map_1_1_basic_map_object.html" target="_top" xlink:title="Абстрактный класс, реализующий функции интерфейса IMapObject, за исключением масштаба.">
<polygon fill="white" stroke="#666666" points="288.88,-191 192.62,-191 192.62,-170.25 288.88,-170.25 288.88,-191"/>
<text text-anchor="middle" x="240.75" y="-176.55" font-family="Arial" font-size="11.00">BasicMapObject</text>
</a>
</g>
</g>
<!-- Node1&#45;&gt;Node2 -->
<g id="edge1_Node000001_Node000002" class="edge">
<title>Node1&#45;&gt;Node2</title>
<g id="a_edge1_Node000001_Node000002"><a xlink:title=" ">
<path fill="none" stroke="#63b8ff" d="M240.75,-215.71C240.75,-207.34 240.75,-198.08 240.75,-191.33"/>
<polygon fill="#63b8ff" stroke="#63b8ff" points="237.25,-215.59 240.75,-225.59 244.25,-215.59 237.25,-215.59"/>
</a>
</g>
</g>
<!-- Node3 -->
<g id="Node000003" class="node">
<title>Node3</title>
<g id="a_Node000003"><a xlink:href="../../d9/dd3/class_quasar_s_d_k_1_1_map_1_1_f_g_s_map_object.html" target="_top" xlink:title="Базовый класс для объектов карты, которые имеют четкую привязку в метрах по размеру.">
<polygon fill="white" stroke="#666666" points="167.25,-134.25 76.25,-134.25 76.25,-113.5 167.25,-113.5 167.25,-134.25"/>
<text text-anchor="middle" x="121.75" y="-119.8" font-family="Arial" font-size="11.00">FGSMapObject</text>
</a>
</g>
</g>
<!-- Node2&#45;&gt;Node3 -->
<g id="edge2_Node000002_Node000003" class="edge">
<title>Node2&#45;&gt;Node3</title>
<g id="a_edge2_Node000002_Node000003"><a xlink:title=" ">
<path fill="none" stroke="#63b8ff" d="M209.71,-165.34C188.66,-155.66 161.4,-143.12 142.84,-134.58"/>
<polygon fill="#63b8ff" stroke="#63b8ff" points="207.93,-168.84 218.48,-169.84 210.85,-162.48 207.93,-168.84"/>
</a>
</g>
</g>
<!-- Node7 -->
<g id="Node000007" class="node">
<title>Node7</title>
<g id="a_Node000007"><a xlink:href="../../da/d1a/class_quasar_s_d_k_1_1_map_1_1_scalable_map_object.html" target="_top" xlink:title=" ">
<polygon fill="white" stroke="#bfbfbf" points="296,-134.25 185.5,-134.25 185.5,-113.5 296,-113.5 296,-134.25"/>
<text text-anchor="middle" x="240.75" y="-119.8" font-family="Arial" font-size="11.00">ScalableMapObject</text>
</a>
</g>
</g>
<!-- Node2&#45;&gt;Node7 -->
<g id="edge6_Node000002_Node000007" class="edge">
<title>Node2&#45;&gt;Node7</title>
<g id="a_edge6_Node000002_Node000007"><a xlink:title=" ">
<path fill="none" stroke="#63b8ff" d="M240.75,-158.96C240.75,-150.59 240.75,-141.33 240.75,-134.58"/>
<polygon fill="#63b8ff" stroke="#63b8ff" points="237.25,-158.84 240.75,-168.84 244.25,-158.84 237.25,-158.84"/>
</a>
</g>
</g>
<!-- Node8 -->
<g id="Node000008" class="node">
<title>Node8</title>
<g id="a_Node000008"><a xlink:href="../../d5/daf/class_quasar_s_d_k_1_1_map_1_1_screen_map_object.html" target="_top" xlink:title="Базовый класс для объектов карты, привязанных по размеру к экрану.">
<polygon fill="white" stroke="#666666" points="417.62,-134.25 313.88,-134.25 313.88,-113.5 417.62,-113.5 417.62,-134.25"/>
<text text-anchor="middle" x="365.75" y="-119.8" font-family="Arial" font-size="11.00">ScreenMapObject</text>
</a>
</g>
</g>
<!-- Node2&#45;&gt;Node8 -->
<g id="edge7_Node000002_Node000008" class="edge">
<title>Node2&#45;&gt;Node8</title>
<g id="a_edge7_Node000002_Node000008"><a xlink:title=" ">
<path fill="none" stroke="#63b8ff" d="M273.06,-165.47C295.21,-155.77 324.01,-143.16 343.6,-134.58"/>
<polygon fill="#63b8ff" stroke="#63b8ff" points="271.85,-162.62 264.1,-169.84 274.66,-169.03 271.85,-162.62"/>
</a>
</g>
</g>
<!-- Node4 -->
<g id="Node000004" class="node">
<title>Node4</title>
<g id="a_Node000004"><a xlink:href="../../df/d2b/class_quasar_s_d_k_1_1_map_1_1_map_image.html" target="_top" xlink:title="Абстрактный класс, описывающий радиолокационное изображение в качестве объекта карты.">
<polygon fill="white" stroke="#666666" points="154.88,-77.5 88.62,-77.5 88.62,-56.75 154.88,-56.75 154.88,-77.5"/>
<text text-anchor="middle" x="121.75" y="-63.05" font-family="Arial" font-size="11.00">MapImage</text>
</a>
</g>
</g>
<!-- Node3&#45;&gt;Node4 -->
<g id="edge3_Node000003_Node000004" class="edge">
<title>Node3&#45;&gt;Node4</title>
<g id="a_edge3_Node000003_Node000004"><a xlink:title=" ">
<path fill="none" stroke="#63b8ff" d="M121.75,-102.21C121.75,-93.84 121.75,-84.58 121.75,-77.83"/>
<polygon fill="#63b8ff" stroke="#63b8ff" points="118.25,-102.09 121.75,-112.09 125.25,-102.09 118.25,-102.09"/>
</a>
</g>
</g>
<!-- Node5 -->
<g id="Node000005" class="node">
<title>Node5</title>
<g id="a_Node000005"><a xlink:href="../../dc/dc3/class_quasar_s_d_k_1_1_map_1_1_complete_map_image.html" target="_top" xlink:title="Радиолокационное изображение на карте, сохраненное в файл.">
<polygon fill="white" stroke="#666666" points="113.5,-20.75 0,-20.75 0,0 113.5,0 113.5,-20.75"/>
<text text-anchor="middle" x="56.75" y="-6.3" font-family="Arial" font-size="11.00">CompleteMapImage</text>
</a>
</g>
</g>
<!-- Node4&#45;&gt;Node5 -->
<g id="edge4_Node000004_Node000005" class="edge">
<title>Node4&#45;&gt;Node5</title>
<g id="a_edge4_Node000004_Node000005"><a xlink:title=" ">
<path fill="none" stroke="#63b8ff" d="M101.91,-49.41C90.89,-40.13 77.58,-28.92 68.27,-21.08"/>
<polygon fill="#63b8ff" stroke="#63b8ff" points="99.23,-52.57 109.13,-56.34 103.74,-47.22 99.23,-52.57"/>
</a>
</g>
</g>
<!-- Node6 -->
<g id="Node000006" class="node">
<title>Node6</title>
<g id="a_Node000006"><a xlink:href="../../d1/d05/class_quasar_s_d_k_1_1_map_1_1_map_image_segment.html" target="_top" xlink:title="Сегмент или полное радиолокационное изображение на карте, сохраненное в Base64&#45;строке.">
<polygon fill="white" stroke="#666666" points="242,-20.75 131.5,-20.75 131.5,0 242,0 242,-20.75"/>
<text text-anchor="middle" x="186.75" y="-6.3" font-family="Arial" font-size="11.00">MapImageSegment</text>
</a>
</g>
</g>
<!-- Node4&#45;&gt;Node6 -->
<g id="edge5_Node000004_Node000006" class="edge">
<title>Node4&#45;&gt;Node6</title>
<g id="a_edge5_Node000004_Node000006"><a xlink:title=" ">
<path fill="none" stroke="#63b8ff" d="M141.59,-49.41C152.61,-40.13 165.92,-28.92 175.23,-21.08"/>
<polygon fill="#63b8ff" stroke="#63b8ff" points="139.76,-47.22 134.37,-56.34 144.27,-52.57 139.76,-47.22"/>
</a>
</g>
</g>
<!-- Node9 -->
<g id="Node000009" class="node">
<title>Node9</title>
<g id="a_Node000009"><a xlink:href="../../d4/d7f/class_map_1_1_geo_marker.html" target="_top" xlink:title=" ">
<polygon fill="white" stroke="#bfbfbf" points="400.38,-77.5 331.12,-77.5 331.12,-56.75 400.38,-56.75 400.38,-77.5"/>
<text text-anchor="middle" x="365.75" y="-63.05" font-family="Arial" font-size="11.00">GeoMarker</text>
</a>
</g>
</g>
<!-- Node8&#45;&gt;Node9 -->
<g id="edge8_Node000008_Node000009" class="edge">
<title>Node8&#45;&gt;Node9</title>
<g id="a_edge8_Node000008_Node000009"><a xlink:title=" ">
<path fill="none" stroke="#63b8ff" d="M365.75,-102.21C365.75,-93.84 365.75,-84.58 365.75,-77.83"/>
<polygon fill="#63b8ff" stroke="#63b8ff" points="362.25,-102.09 365.75,-112.09 369.25,-102.09 362.25,-102.09"/>
</a>
</g>
</g>
<!-- Node10 -->
<g id="Node000010" class="node">
<title>Node10</title>
<g id="a_Node000010"><a xlink:href="../../db/d2b/class_map_1_1_planner_mark.html" target="_top" xlink:title="Геометка с заданной командой для планировщика.">
<polygon fill="white" stroke="#666666" points="404.12,-20.75 327.38,-20.75 327.38,0 404.12,0 404.12,-20.75"/>
<text text-anchor="middle" x="365.75" y="-6.3" font-family="Arial" font-size="11.00">PlannerMark</text>
</a>
</g>
</g>
<!-- Node9&#45;&gt;Node10 -->
<g id="edge9_Node000009_Node000010" class="edge">
<title>Node9&#45;&gt;Node10</title>
<g id="a_edge9_Node000009_Node000010"><a xlink:title=" ">
<path fill="none" stroke="#63b8ff" d="M365.75,-45.46C365.75,-37.09 365.75,-27.83 365.75,-21.08"/>
<polygon fill="#63b8ff" stroke="#63b8ff" points="362.25,-45.34 365.75,-55.34 369.25,-45.34 362.25,-45.34"/>
</a>
</g>
</g>
</g>
</svg>
