<?xml version="1.0" encoding="UTF-8" standalone="no"?>
<!DOCTYPE svg PUBLIC "-//W3C//DTD SVG 1.1//EN"
 "http://www.w3.org/Graphics/SVG/1.1/DTD/svg11.dtd">
<!-- Generated by graphviz version 8.1.0 (20230707.0739)
 -->
<!-- Title: TelemetryDatagram Pages: 1 -->
<svg width="102pt" height="220pt"
 viewBox="0.00 0.00 102.00 220.00" xmlns="http://www.w3.org/2000/svg" xmlns:xlink="http://www.w3.org/1999/xlink">
<g id="graph0" class="graph" transform="scale(1 1) rotate(0) translate(4 216)">
<title>TelemetryDatagram</title>
<!-- Node1 -->
<g id="Node000001" class="node">
<title>Node1</title>
<g id="a_Node000001"><a xlink:title="Датаграмма телеметрии от РЛС к наземке.">
<polygon fill="#999999" stroke="none" points="94,-212 0,-212 0,0 94,0 94,-212"/>
<text text-anchor="start" x="4.62" y="-198.5" font-family="Helvetica,sans-Serif" font-size="10.00">TelemetryDatagram</text>
<text text-anchor="start" x="6" y="-182.5" font-family="Helvetica,sans-Serif" font-size="10.00">+</text>
<text text-anchor="start" x="18" y="-182.5" font-family="Helvetica,sans-Serif" font-size="10.00">marker</text>
<text text-anchor="start" x="6" y="-166.5" font-family="Helvetica,sans-Serif" font-size="10.00">+</text>
<text text-anchor="start" x="18" y="-166.5" font-family="Helvetica,sans-Serif" font-size="10.00">version</text>
<text text-anchor="start" x="6" y="-150.5" font-family="Helvetica,sans-Serif" font-size="10.00">+</text>
<text text-anchor="start" x="18" y="-150.5" font-family="Helvetica,sans-Serif" font-size="10.00">latitude</text>
<text text-anchor="start" x="6" y="-134.5" font-family="Helvetica,sans-Serif" font-size="10.00">+</text>
<text text-anchor="start" x="18" y="-134.5" font-family="Helvetica,sans-Serif" font-size="10.00">longitude</text>
<text text-anchor="start" x="6" y="-118.5" font-family="Helvetica,sans-Serif" font-size="10.00">+</text>
<text text-anchor="start" x="18" y="-118.5" font-family="Helvetica,sans-Serif" font-size="10.00">altitude</text>
<text text-anchor="start" x="6" y="-102.5" font-family="Helvetica,sans-Serif" font-size="10.00">+</text>
<text text-anchor="start" x="18" y="-102.5" font-family="Helvetica,sans-Serif" font-size="10.00">velocity_course</text>
<text text-anchor="start" x="6" y="-86.5" font-family="Helvetica,sans-Serif" font-size="10.00">+</text>
<text text-anchor="start" x="18" y="-86.5" font-family="Helvetica,sans-Serif" font-size="10.00">velocity_east</text>
<text text-anchor="start" x="6" y="-70.5" font-family="Helvetica,sans-Serif" font-size="10.00">+</text>
<text text-anchor="start" x="18" y="-70.5" font-family="Helvetica,sans-Serif" font-size="10.00">velocity_north</text>
<text text-anchor="start" x="6" y="-54.5" font-family="Helvetica,sans-Serif" font-size="10.00">+</text>
<text text-anchor="start" x="18" y="-54.5" font-family="Helvetica,sans-Serif" font-size="10.00">velocity_vertical</text>
<text text-anchor="start" x="6" y="-38.5" font-family="Helvetica,sans-Serif" font-size="10.00">+</text>
<text text-anchor="start" x="18" y="-38.5" font-family="Helvetica,sans-Serif" font-size="10.00">pitch</text>
<text text-anchor="start" x="18" y="-22.5" font-family="Helvetica,sans-Serif" font-size="10.00">и 6 больше...</text>
<text text-anchor="start" x="45.5" y="-6.5" font-family="Helvetica,sans-Serif" font-size="10.00"> </text>
<polygon fill="#666666" stroke="#666666" points="0,-194 0,-194 94,-194 94,-194 0,-194"/>
<polygon fill="#666666" stroke="#666666" points="0,-18 0,-18 16,-18 16,-18 0,-18"/>
<polygon fill="#666666" stroke="#666666" points="16,-18 16,-18 94,-18 94,-18 16,-18"/>
<polygon fill="none" stroke="#666666" points="0,0 0,-212 94,-212 94,0 0,0"/>
</a>
</g>
</g>
</g>
</svg>
