<?xml version="1.0" encoding="UTF-8" standalone="no"?>
<!DOCTYPE svg PUBLIC "-//W3C//DTD SVG 1.1//EN"
 "http://www.w3.org/Graphics/SVG/1.1/DTD/svg11.dtd">
<!-- Generated by graphviz version 8.1.0 (20230707.0739)
 -->
<!-- Title: QuasarAPI Pages: 1 -->
<!--zoomable 580 -->

<svg id="main" version="1.1" xmlns="http://www.w3.org/2000/svg" xmlns:xlink="http://www.w3.org/1999/xlink" xml:space="preserve" onload="init(evt)">
<style type="text/css"><![CDATA[
.node, .edge {opacity: 0.7;}
.node.selected, .edge.selected {opacity: 1;}
.edge:hover path { stroke: red; }
.edge:hover polygon { stroke: red; fill: red; }
]]></style>

<defs>
  <circle id="rim" cx="0" cy="0" r="7"/>
  <circle id="rim2" cx="0" cy="0" r="3.5"/>
  <g id="zoomPlus">
    <use xlink:href="#rim" fill="#404040"><set attributeName="fill" to="#808080" begin="zoomplus.mouseover" end="zoomplus.mouseout"/></use>
    <path d="M-4,0h8M0,-4v8" fill="none" stroke="white" stroke-width="1.5" pointer-events="none"/>
  </g>
  <g id="zoomMin">
    <use xlink:href="#rim" fill="#404040"><set attributeName="fill" to="#808080" begin="zoomminus.mouseover" end="zoomminus.mouseout"/></use>
    <path d="M-4,0h8" fill="none" stroke="white" stroke-width="1.5" pointer-events="none"/>
  </g>
  <g id="arrowUp" transform="translate(30 24)">
    <use xlink:href="#rim"/>
    <path pointer-events="none" fill="none" stroke="white" stroke-width="1.5" d="M0,-3.0v7 M-2.5,-0.5L0,-3.0L2.5,-0.5"/>
  </g>
  <g id="arrowRight" transform="rotate(90) translate(36 -43)">
    <use xlink:href="#rim"/>
    <path pointer-events="none" fill="none" stroke="white" stroke-width="1.5" d="M0,-3.0v7 M-2.5,-0.5L0,-3.0L2.5,-0.5"/>
  </g>
  <g id="arrowDown" transform="rotate(180) translate(-30 -48)">
    <use xlink:href="#rim"/>
    <path pointer-events="none" fill="none" stroke="white" stroke-width="1.5" d="M0,-3.0v7 M-2.5,-0.5L0,-3.0L2.5,-0.5"/>
  </g>
  <g id="arrowLeft" transform="rotate(270) translate(-36 17)">
    <use xlink:href="#rim"/>
    <path pointer-events="none" fill="none" stroke="white" stroke-width="1.5" d="M0,-3.0v7 M-2.5,-0.5L0,-3.0L2.5,-0.5"/>
  </g>
  <g id="resetDef">
    <use xlink:href="#rim2" fill="#404040"><set attributeName="fill" to="#808080" begin="reset.mouseover" end="reset.mouseout"/></use>
  </g>
</defs>
<script type="application/ecmascript">
var viewWidth = 990;
var viewHeight = 580;
var sectionId = 'dynsection-1';
</script>
<script type="application/ecmascript" xlink:href="../../svg.min.js"/>
<svg id="graph" class="graph">
<g id="viewport">
<title>QuasarAPI</title>
<!-- Node1 -->
<g id="Node000001" class="node">
<title>Node1</title>
<g id="a_Node000001"><a xlink:title="Публичный интерфейс для работы с сетевой составляющей РЛС &quot;Квазар&quot;.">
<polygon fill="#999999" stroke="#666666" points="981.5,-296.12 912.25,-296.12 912.25,-275.38 981.5,-275.38 981.5,-296.12"/>
<text text-anchor="middle" x="946.88" y="-281.68" font-family="Arial" font-size="11.00">QuasarAPI</text>
</a>
</g>
</g>
<!-- Node2 -->
<g id="Node000002" class="node">
<title>Node2</title>
<g id="a_Node000002"><a xlink:title=" ">
<polygon fill="white" stroke="#bfbfbf" points="232.88,-408.12 175.62,-408.12 175.62,-387.38 232.88,-387.38 232.88,-408.12"/>
<text text-anchor="middle" x="204.25" y="-393.68" font-family="Arial" font-size="11.00">QObject</text>
</a>
</g>
</g>
<!-- Node2&#45;&gt;Node1 -->
<g id="edge1_Node000001_Node000002" class="edge">
<title>Node2&#45;&gt;Node1</title>
<g id="a_edge1_Node000001_Node000002"><a xlink:title=" ">
<path fill="none" stroke="#63b8ff" d="M244.22,-398.74C337.53,-400.36 580.77,-400.08 778.75,-360.75 831.24,-350.32 846.75,-351.4 894.25,-326.75 909.69,-318.74 925,-305.78 934.88,-296.58"/>
<polygon fill="#63b8ff" stroke="#63b8ff" points="244.4,-395.22 234.34,-398.53 244.27,-402.22 244.4,-395.22"/>
</a>
</g>
</g>
<!-- Node3 -->
<g id="Node000003" class="node">
<title>Node3</title>
<g id="a_Node000003"><a xlink:href="../../d4/da9/class_quasar_s_d_k_1_1_telemetry.html" target="_top" xlink:title="Класс&#45;хранилище для текущей телеметрии РЛС.">
<polygon fill="white" stroke="#666666" points="488.88,-217.12 424.12,-217.12 424.12,-196.38 488.88,-196.38 488.88,-217.12"/>
<text text-anchor="middle" x="456.5" y="-202.68" font-family="Arial" font-size="11.00">Telemetry</text>
</a>
</g>
</g>
<!-- Node2&#45;&gt;Node3 -->
<g id="edge3_Node000003_Node000002" class="edge">
<title>Node2&#45;&gt;Node3</title>
<g id="a_edge3_Node000003_Node000002"><a xlink:title=" ">
<path fill="none" stroke="#63b8ff" d="M224.76,-379.56C245.33,-360.67 278.96,-330.59 309.75,-306.75 354.64,-271.99 410.76,-235.25 438.44,-217.54"/>
<polygon fill="#63b8ff" stroke="#63b8ff" points="222.76,-376.57 217.79,-385.92 227.51,-381.71 222.76,-376.57"/>
</a>
</g>
</g>
<!-- Node5 -->
<g id="Node000005" class="node">
<title>Node5</title>
<g id="a_Node000005"><a xlink:href="../../df/d8a/class_quasar_s_d_k_1_1_remote_data.html" target="_top" xlink:title="Класс&#45;хранилище для данных, связанных с РЛС.">
<polygon fill="white" stroke="#666666" points="636.38,-365.12 558.12,-365.12 558.12,-344.38 636.38,-344.38 636.38,-365.12"/>
<text text-anchor="middle" x="597.25" y="-350.68" font-family="Arial" font-size="11.00">RemoteData</text>
</a>
</g>
</g>
<!-- Node2&#45;&gt;Node5 -->
<g id="edge6_Node000005_Node000002" class="edge">
<title>Node2&#45;&gt;Node5</title>
<g id="a_edge6_Node000005_Node000002"><a xlink:title=" ">
<path fill="none" stroke="#63b8ff" d="M243.87,-392.27C263.57,-389.56 287.92,-386.32 309.75,-383.75 398.38,-373.33 502.7,-363.34 557.74,-358.25"/>
<polygon fill="#63b8ff" stroke="#63b8ff" points="243.59,-388.92 234.16,-393.76 244.55,-395.85 243.59,-388.92"/>
</a>
</g>
</g>
<!-- Node11 -->
<g id="Node000011" class="node">
<title>Node11</title>
<g id="a_Node000011"><a xlink:href="../../de/d88/class_quasar_s_d_k_1_1_ping_tester.html" target="_top" xlink:title="Класс для постоянной проверки выбранного адреса на доступность.">
<polygon fill="white" stroke="#666666" points="491.12,-446.12 421.88,-446.12 421.88,-425.38 491.12,-425.38 491.12,-446.12"/>
<text text-anchor="middle" x="456.5" y="-431.68" font-family="Arial" font-size="11.00">PingTester</text>
</a>
</g>
</g>
<!-- Node2&#45;&gt;Node11 -->
<g id="edge13_Node000011_Node000002" class="edge">
<title>Node2&#45;&gt;Node11</title>
<g id="a_edge13_Node000011_Node000002"><a xlink:title=" ">
<path fill="none" stroke="#63b8ff" d="M243.69,-403.59C292.33,-410.97 375.33,-423.58 421.67,-430.61"/>
<polygon fill="#63b8ff" stroke="#63b8ff" points="244.4,-400 233.99,-401.96 243.35,-406.92 244.4,-400"/>
</a>
</g>
</g>
<!-- Node13 -->
<g id="Node000013" class="node">
<title>Node13</title>
<g id="a_Node000013"><a xlink:href="../../df/d2b/class_quasar_s_d_k_1_1_output_redirect_server.html" target="_top" xlink:title="Класс для перенаправления вывода РЛС в отдельный Telnet сервер.">
<polygon fill="white" stroke="#666666" points="517.75,-531.12 395.25,-531.12 395.25,-510.38 517.75,-510.38 517.75,-531.12"/>
<text text-anchor="middle" x="456.5" y="-516.67" font-family="Arial" font-size="11.00">OutputRedirectServer</text>
</a>
</g>
</g>
<!-- Node2&#45;&gt;Node13 -->
<g id="edge16_Node000013_Node000002" class="edge">
<title>Node2&#45;&gt;Node13</title>
<g id="a_edge16_Node000013_Node000002"><a xlink:title=" ">
<path fill="none" stroke="#63b8ff" d="M236.62,-413.17C288.07,-438.46 389.12,-488.13 433.6,-509.99"/>
<polygon fill="#63b8ff" stroke="#63b8ff" points="238.54,-409.72 228.02,-408.45 235.45,-416 238.54,-409.72"/>
</a>
</g>
</g>
<!-- Node18 -->
<g id="Node000018" class="node">
<title>Node18</title>
<g id="a_Node000018"><a xlink:href="../../d3/d1d/class_quasar_s_d_k_1_1_execd_argument_parser.html" target="_top" xlink:title="Класс для хранения и обработки аргументов команд сервиса execd.">
<polygon fill="white" stroke="#666666" points="520,-293.12 393,-293.12 393,-272.38 520,-272.38 520,-293.12"/>
<text text-anchor="middle" x="456.5" y="-278.68" font-family="Arial" font-size="11.00">ExecdArgumentParser</text>
</a>
</g>
</g>
<!-- Node2&#45;&gt;Node18 -->
<g id="edge26_Node000018_Node000002" class="edge">
<title>Node2&#45;&gt;Node18</title>
<g id="a_edge26_Node000018_Node000002"><a xlink:title=" ">
<path fill="none" stroke="#63b8ff" d="M233.37,-381.74C269.52,-361.58 334.61,-326.69 393,-302.75 401.12,-299.42 410.01,-296.29 418.47,-293.53"/>
<polygon fill="#63b8ff" stroke="#63b8ff" points="231.98,-379.07 224.97,-387.02 235.41,-385.18 231.98,-379.07"/>
</a>
</g>
</g>
<!-- Node21 -->
<g id="Node000021" class="node">
<title>Node21</title>
<g id="a_Node000021"><a xlink:href="../../db/dbd/class_quasar_s_d_k_1_1_t_c_p_server.html" target="_top" xlink:title="Класс для приема больших файлов с РЛС по протоколу TCP&#45;IP.">
<polygon fill="white" stroke="#666666" points="491.88,-571.12 421.12,-571.12 421.12,-550.38 491.88,-550.38 491.88,-571.12"/>
<text text-anchor="middle" x="456.5" y="-556.67" font-family="Arial" font-size="11.00">TCPServer</text>
</a>
</g>
</g>
<!-- Node2&#45;&gt;Node21 -->
<g id="edge31_Node000021_Node000002" class="edge">
<title>Node2&#45;&gt;Node21</title>
<g id="a_edge31_Node000021_Node000002"><a xlink:title=" ">
<path fill="none" stroke="#63b8ff" d="M224.34,-415.84C256.65,-445.58 325.25,-504.97 393,-539.75 401.66,-544.19 411.45,-548 420.68,-551.11"/>
<polygon fill="#63b8ff" stroke="#63b8ff" points="227.28,-413.86 217.57,-409.62 222.51,-418.99 227.28,-413.86"/>
</a>
</g>
</g>
<!-- Node3&#45;&gt;Node1 -->
<g id="edge2_Node000001_Node000003" class="edge">
<title>Node3&#45;&gt;Node1</title>
<g id="a_edge2_Node000001_Node000003"><a xlink:title=" ">
<path fill="none" stroke="#9a32cd" stroke-dasharray="5,2" d="M499.85,-212.41C561.39,-220.75 679.06,-237.21 778.75,-254 825.06,-261.8 878.31,-272.16 912.02,-278.89"/>
<polygon fill="#9a32cd" stroke="#9a32cd" points="500.41,-208.81 490.03,-210.94 499.47,-215.75 500.41,-208.81"/>
</a>
</g>
<text text-anchor="middle" x="726.62" y="-256.05" font-family="Arial" font-size="11.00" fill="grey"> m_telemetry</text>
</g>
<!-- Node14 -->
<g id="Node000014" class="node">
<title>Node14</title>
<g id="a_Node000014"><a xlink:href="../../d5/d0a/class_quasar_s_d_k_1_1_telemetry_socket.html" target="_top" xlink:title="Класс для работы с сервисом navd2 на РЛС.">
<polygon fill="white" stroke="#666666" points="775.88,-192.12 677.38,-192.12 677.38,-171.38 775.88,-171.38 775.88,-192.12"/>
<text text-anchor="middle" x="726.62" y="-177.68" font-family="Arial" font-size="11.00">TelemetrySocket</text>
</a>
</g>
</g>
<!-- Node3&#45;&gt;Node14 -->
<g id="edge22_Node000014_Node000003" class="edge">
<title>Node3&#45;&gt;Node14</title>
<g id="a_edge22_Node000014_Node000003"><a xlink:title=" ">
<path fill="none" stroke="#9a32cd" stroke-dasharray="5,2" d="M499.99,-202.79C548.16,-198.3 626.54,-190.99 677.09,-186.28"/>
<polygon fill="#9a32cd" stroke="#9a32cd" points="499.94,-199.37 490.31,-203.78 500.59,-206.34 499.94,-199.37"/>
</a>
</g>
<text text-anchor="middle" x="597.25" y="-200.05" font-family="Arial" font-size="11.00" fill="grey"> output</text>
</g>
<!-- Node4 -->
<g id="Node000004" class="node">
<title>Node4</title>
<g id="a_Node000004"><a xlink:href="../../d8/d07/group__sdk__protocol.html#da/d38/struct_quasar_s_d_k_1_1_datagrams_1_1_telemetry_datagram" target="_top" xlink:title="Датаграмма телеметрии от РЛС к наземке.">
<polygon fill="white" stroke="#666666" points="261,-218.12 147.5,-218.12 147.5,-197.38 261,-197.38 261,-218.12"/>
<text text-anchor="middle" x="204.25" y="-203.68" font-family="Arial" font-size="11.00">TelemetryDatagram</text>
</a>
</g>
</g>
<!-- Node4&#45;&gt;Node3 -->
<g id="edge4_Node000003_Node000004" class="edge">
<title>Node4&#45;&gt;Node3</title>
<g id="a_edge4_Node000003_Node000004"><a xlink:title=" ">
<path fill="none" stroke="#9a32cd" stroke-dasharray="5,2" d="M272.29,-207.48C321.48,-207.29 386.07,-207.03 423.95,-206.88"/>
<polygon fill="#9a32cd" stroke="#9a32cd" points="272.4,-203.99 262.41,-207.53 272.42,-210.99 272.4,-203.99"/>
</a>
</g>
<text text-anchor="middle" x="342.38" y="-209.05" font-family="Arial" font-size="11.00" fill="grey"> m_datagram</text>
</g>
<!-- Node5&#45;&gt;Node1 -->
<g id="edge5_Node000001_Node000005" class="edge">
<title>Node5&#45;&gt;Node1</title>
<g id="a_edge5_Node000001_Node000005"><a xlink:title=" ">
<path fill="none" stroke="#9a32cd" stroke-dasharray="5,2" d="M647.34,-348.34C706.44,-340.11 808.44,-324.3 894.25,-302.75 901.21,-301 908.58,-298.8 915.51,-296.55"/>
<polygon fill="#9a32cd" stroke="#9a32cd" points="646.9,-345 637.47,-349.83 647.85,-351.94 646.9,-345"/>
</a>
</g>
<text text-anchor="middle" x="726.62" y="-346.05" font-family="Arial" font-size="11.00" fill="grey"> m_remoteData</text>
</g>
<!-- Node6 -->
<g id="Node000006" class="node">
<title>Node6</title>
<g id="a_Node000006"><a xlink:href="../../df/d9e/class_quasar_s_d_k_1_1_i_o_1_1_s_a_r_output_model.html" target="_top" xlink:title="Класс&#45;модель, обрабатывающий и хранящий сообщения от РЛС (VT100).">
<polygon fill="white" stroke="#666666" points="776.62,-65.12 676.62,-65.12 676.62,-44.38 776.62,-44.38 776.62,-65.12"/>
<text text-anchor="middle" x="726.62" y="-50.67" font-family="Arial" font-size="11.00">SAROutputModel</text>
</a>
</g>
</g>
<!-- Node6&#45;&gt;Node1 -->
<g id="edge7_Node000001_Node000006" class="edge">
<title>Node6&#45;&gt;Node1</title>
<g id="a_edge7_Node000001_Node000006"><a xlink:title=" ">
<path fill="none" stroke="#9a32cd" stroke-dasharray="5,2" d="M787.62,-46.4C822.76,-44.96 865.71,-49.67 894.25,-75 924.96,-102.25 940.8,-235.92 944.83,-275"/>
<polygon fill="#9a32cd" stroke="#9a32cd" points="787.77,-42.94 777.99,-47.02 788.18,-49.93 787.77,-42.94"/>
</a>
</g>
<text text-anchor="middle" x="845.5" y="-77.05" font-family="Arial" font-size="11.00" fill="grey"> m_outputModel</text>
</g>
<!-- Node7 -->
<g id="Node000007" class="node">
<title>Node7</title>
<g id="a_Node000007"><a xlink:href="../../de/de9/class_quasar_s_d_k_1_1_i_o_1_1_message_model.html" target="_top" xlink:title="Базовый класс для модели сообщений.">
<polygon fill="white" stroke="#666666" points="500.88,-65.12 412.12,-65.12 412.12,-44.38 500.88,-44.38 500.88,-65.12"/>
<text text-anchor="middle" x="456.5" y="-50.67" font-family="Arial" font-size="11.00">MessageModel</text>
</a>
</g>
</g>
<!-- Node7&#45;&gt;Node6 -->
<g id="edge8_Node000006_Node000007" class="edge">
<title>Node7&#45;&gt;Node6</title>
<g id="a_edge8_Node000006_Node000007"><a xlink:title=" ">
<path fill="none" stroke="#63b8ff" d="M512.03,-54.75C560.26,-54.75 629.99,-54.75 676.51,-54.75"/>
<polygon fill="#63b8ff" stroke="#63b8ff" points="512.18,-51.25 502.18,-54.75 512.18,-58.25 512.18,-51.25"/>
</a>
</g>
</g>
<!-- Node8 -->
<g id="Node000008" class="node">
<title>Node8</title>
<g id="a_Node000008"><a xlink:title=" ">
<polygon fill="white" stroke="#bfbfbf" points="259.88,-72.12 148.62,-72.12 148.62,-51.38 259.88,-51.38 259.88,-72.12"/>
<text text-anchor="middle" x="204.25" y="-57.67" font-family="Arial" font-size="11.00">QAbstractListModel</text>
</a>
</g>
</g>
<!-- Node8&#45;&gt;Node7 -->
<g id="edge9_Node000007_Node000008" class="edge">
<title>Node8&#45;&gt;Node7</title>
<g id="a_edge9_Node000007_Node000008"><a xlink:title=" ">
<path fill="none" stroke="#63b8ff" d="M270.89,-59.91C315.4,-58.67 373,-57.06 411.93,-55.97"/>
<polygon fill="#63b8ff" stroke="#63b8ff" points="271.07,-56.44 261.17,-60.21 271.26,-63.43 271.07,-56.44"/>
</a>
</g>
</g>
<!-- Node9 -->
<g id="Node000009" class="node">
<title>Node9</title>
<g id="a_Node000009"><a xlink:title=" ">
<polygon fill="white" stroke="#bfbfbf" points="291.75,-33.5 116.75,-33.5 116.75,0 291.75,0 291.75,-33.5"/>
<text text-anchor="start" x="124.75" y="-19.05" font-family="Arial" font-size="11.00">vector&lt; unique_ptr</text>
<text text-anchor="middle" x="204.25" y="-6.3" font-family="Arial" font-size="11.00">&lt; QuasarSDK::IO::IMessage &gt; &gt;</text>
</a>
</g>
</g>
<!-- Node9&#45;&gt;Node7 -->
<g id="edge10_Node000007_Node000009" class="edge">
<title>Node9&#45;&gt;Node7</title>
<g id="a_edge10_Node000007_Node000009"><a xlink:title=" ">
<path fill="none" stroke="#9a32cd" stroke-dasharray="5,2" d="M302.89,-29.36C326.53,-32.62 351.69,-36.27 375,-40 386.93,-41.91 399.81,-44.18 411.69,-46.35"/>
<polygon fill="#9a32cd" stroke="#9a32cd" points="303.54,-25.77 293.15,-27.89 302.59,-32.71 303.54,-25.77"/>
</a>
</g>
<text text-anchor="middle" x="342.38" y="-42.05" font-family="Arial" font-size="11.00" fill="grey"> m_storage</text>
</g>
<!-- Node10 -->
<g id="Node000010" class="node">
<title>Node10</title>
<g id="a_Node000010"><a xlink:href="../../df/d9e/class_quasar_s_d_k_1_1_i_o_1_1_s_a_r_output_model.html#d6/dab/struct_quasar_s_d_k_1_1_i_o_1_1_s_a_r_output_model_1_1_cursor_position" target="_top" xlink:title=" ">
<polygon fill="white" stroke="#bfbfbf" points="500.88,-26.12 412.12,-26.12 412.12,-5.38 500.88,-5.38 500.88,-26.12"/>
<text text-anchor="middle" x="456.5" y="-11.68" font-family="Arial" font-size="11.00">CursorPosition</text>
</a>
</g>
</g>
<!-- Node10&#45;&gt;Node6 -->
<g id="edge11_Node000006_Node000010" class="edge">
<title>Node10&#45;&gt;Node6</title>
<g id="a_edge11_Node000006_Node000010"><a xlink:title=" ">
<path fill="none" stroke="#9a32cd" stroke-dasharray="5,2" d="M512.09,-19.98C552.23,-23.55 607.99,-29.45 656.5,-38 665.62,-39.61 675.33,-41.71 684.5,-43.88"/>
<polygon fill="#9a32cd" stroke="#9a32cd" points="512.47,-16.41 502.2,-19.04 511.87,-23.39 512.47,-16.41"/>
</a>
</g>
<text text-anchor="middle" x="597.25" y="-40.05" font-family="Arial" font-size="11.00" fill="grey"> m_cursorPosition</text>
</g>
<!-- Node11&#45;&gt;Node1 -->
<g id="edge12_Node000001_Node000011" class="edge">
<title>Node11&#45;&gt;Node1</title>
<g id="a_edge12_Node000001_Node000011"><a xlink:title=" ">
<path fill="none" stroke="#9a32cd" stroke-dasharray="5,2" d="M502.36,-436.23C600.73,-436.45 831.66,-432.19 894.25,-388.75 926.46,-366.4 939.61,-317.9 944,-296.39"/>
<polygon fill="#9a32cd" stroke="#9a32cd" points="502.6,-432.73 492.59,-436.19 502.57,-439.73 502.6,-432.73"/>
</a>
</g>
<text text-anchor="middle" x="726.62" y="-484.05" font-family="Arial" font-size="11.00" fill="grey"> m_com1PingTester</text>
<text text-anchor="middle" x="726.62" y="-471.3" font-family="Arial" font-size="11.00" fill="grey">m_com2PingTester</text>
<text text-anchor="middle" x="726.62" y="-458.55" font-family="Arial" font-size="11.00" fill="grey">m_de10PingTester</text>
<text text-anchor="middle" x="726.62" y="-445.8" font-family="Arial" font-size="11.00" fill="grey">m_jetson0PingTester</text>
<text text-anchor="middle" x="726.62" y="-433.05" font-family="Arial" font-size="11.00" fill="grey">m_navPingTester</text>
</g>
<!-- Node12 -->
<g id="Node000012" class="node">
<title>Node12</title>
<g id="a_Node000012"><a xlink:href="../../df/dac/class_quasar_s_d_k_1_1_i_connectable.html" target="_top" xlink:title="Абстрактный интерфейс для классов с функционалом подключения и отключения к сетевому адресу.">
<polygon fill="white" stroke="#666666" points="79.75,-508.12 0,-508.12 0,-487.38 79.75,-487.38 79.75,-508.12"/>
<text text-anchor="middle" x="39.88" y="-493.68" font-family="Arial" font-size="11.00">IConnectable</text>
</a>
</g>
</g>
<!-- Node12&#45;&gt;Node11 -->
<g id="edge14_Node000011_Node000012" class="edge">
<title>Node12&#45;&gt;Node11</title>
<g id="a_edge14_Node000011_Node000012"><a xlink:title=" ">
<path fill="none" stroke="#63b8ff" d="M90.6,-490.31C176.03,-477.54 348.54,-451.74 421.59,-440.82"/>
<polygon fill="#63b8ff" stroke="#63b8ff" points="90.25,-486.98 80.88,-491.92 91.29,-493.9 90.25,-486.98"/>
</a>
</g>
</g>
<!-- Node12&#45;&gt;Node13 -->
<g id="edge17_Node000013_Node000012" class="edge">
<title>Node12&#45;&gt;Node13</title>
<g id="a_edge17_Node000013_Node000012"><a xlink:title=" ">
<path fill="none" stroke="#63b8ff" d="M90.62,-500.51C166.95,-504.74 312.72,-512.83 395.03,-517.4"/>
<polygon fill="#63b8ff" stroke="#63b8ff" points="91.06,-496.97 80.88,-499.91 90.67,-503.96 91.06,-496.97"/>
</a>
</g>
</g>
<!-- Node15 -->
<g id="Node000015" class="node">
<title>Node15</title>
<g id="a_Node000015"><a xlink:href="../../db/d21/class_quasar_s_d_k_1_1_base_u_d_p_socket.html" target="_top" xlink:title="Базовый класс для сокетов, работающих по протоколу UDP.">
<polygon fill="white" stroke="#666666" points="253.5,-179.12 155,-179.12 155,-158.38 253.5,-158.38 253.5,-179.12"/>
<text text-anchor="middle" x="204.25" y="-164.68" font-family="Arial" font-size="11.00">BaseUDPSocket</text>
</a>
</g>
</g>
<!-- Node12&#45;&gt;Node15 -->
<g id="edge21_Node000015_Node000012" class="edge">
<title>Node12&#45;&gt;Node15</title>
<g id="a_edge21_Node000015_Node000012"><a xlink:title=" ">
<path fill="none" stroke="#63b8ff" d="M43.2,-476.59C50.53,-413.71 75.19,-229.75 116.75,-188.75 126.84,-178.79 140.86,-173.41 154.66,-170.6"/>
<polygon fill="#63b8ff" stroke="#63b8ff" points="39.65,-475.84 42,-486.17 46.6,-476.63 39.65,-475.84"/>
</a>
</g>
</g>
<!-- Node12&#45;&gt;Node21 -->
<g id="edge32_Node000021_Node000012" class="edge">
<title>Node12&#45;&gt;Node21</title>
<g id="a_edge32_Node000021_Node000012"><a xlink:title=" ">
<path fill="none" stroke="#63b8ff" d="M82.23,-511.73C93.34,-515.09 105.42,-518.38 116.75,-520.75 226.6,-543.7 359.44,-554.59 421.04,-558.7"/>
<polygon fill="#63b8ff" stroke="#63b8ff" points="83.52,-508.15 72.93,-508.52 81.44,-514.84 83.52,-508.15"/>
</a>
</g>
</g>
<!-- Node13&#45;&gt;Node1 -->
<g id="edge15_Node000001_Node000013" class="edge">
<title>Node13&#45;&gt;Node1</title>
<g id="a_edge15_Node000001_Node000013"><a xlink:title=" ">
<path fill="none" stroke="#9a32cd" stroke-dasharray="5,2" d="M528.89,-526.73C595.52,-529.82 696.71,-528.04 778.75,-498.75 838.04,-477.58 855.43,-466.31 894.25,-416.75 924.4,-378.26 938.95,-319.95 943.87,-296.29"/>
<polygon fill="#9a32cd" stroke="#9a32cd" points="529.26,-523.2 519.09,-526.18 528.9,-530.19 529.26,-523.2"/>
</a>
</g>
<text text-anchor="middle" x="726.62" y="-523.05" font-family="Arial" font-size="11.00" fill="grey"> m_redirectServer</text>
</g>
<!-- Node14&#45;&gt;Node1 -->
<g id="edge18_Node000001_Node000014" class="edge">
<title>Node14&#45;&gt;Node1</title>
<g id="a_edge18_Node000001_Node000014"><a xlink:title=" ">
<path fill="none" stroke="#9a32cd" stroke-dasharray="5,2" d="M786.93,-176.31C820.82,-176.05 862.71,-180.81 894.25,-201 921.68,-218.55 936.74,-256.38 942.75,-274.98"/>
<polygon fill="#9a32cd" stroke="#9a32cd" points="787.15,-172.82 777.23,-176.55 787.31,-179.82 787.15,-172.82"/>
</a>
</g>
<text text-anchor="middle" x="845.5" y="-203.05" font-family="Arial" font-size="11.00" fill="grey"> m_telemetrySocket</text>
</g>
<!-- Node15&#45;&gt;Node14 -->
<g id="edge19_Node000014_Node000015" class="edge">
<title>Node15&#45;&gt;Node14</title>
<g id="a_edge19_Node000014_Node000015"><a xlink:title=" ">
<path fill="none" stroke="#63b8ff" d="M264.65,-170.23C368.56,-172.83 581.34,-178.15 677.07,-180.54"/>
<polygon fill="#63b8ff" stroke="#63b8ff" points="264.82,-166.71 254.74,-169.96 264.65,-173.71 264.82,-166.71"/>
</a>
</g>
</g>
<!-- Node17 -->
<g id="Node000017" class="node">
<title>Node17</title>
<g id="a_Node000017"><a xlink:href="../../dd/dce/class_quasar_s_d_k_1_1_execd_socket.html" target="_top" xlink:title="Сокет для отправки команд на РЛС.">
<polygon fill="white" stroke="#666666" points="766.88,-296.12 686.38,-296.12 686.38,-275.38 766.88,-275.38 766.88,-296.12"/>
<text text-anchor="middle" x="726.62" y="-281.68" font-family="Arial" font-size="11.00">ExecdSocket</text>
</a>
</g>
</g>
<!-- Node15&#45;&gt;Node17 -->
<g id="edge24_Node000017_Node000015" class="edge">
<title>Node15&#45;&gt;Node17</title>
<g id="a_edge24_Node000017_Node000015"><a xlink:title=" ">
<path fill="none" stroke="#63b8ff" d="M264.18,-175.11C274.07,-178.14 283.72,-182.5 291.75,-188.75 305.55,-199.5 295.53,-213.56 309.75,-223.75 325.03,-234.7 585.01,-268.17 685.98,-280.83"/>
<polygon fill="#63b8ff" stroke="#63b8ff" points="265.4,-171.55 254.84,-172.42 263.63,-178.33 265.4,-171.55"/>
</a>
</g>
</g>
<!-- Node20 -->
<g id="Node000020" class="node">
<title>Node20</title>
<g id="a_Node000020"><a xlink:href="../../de/d4c/class_quasar_s_d_k_1_1_output_socket.html" target="_top" xlink:title="Сокет для приема и обработки вывода с РЛС.">
<polygon fill="white" stroke="#666666" points="638.62,-108.12 555.88,-108.12 555.88,-87.38 638.62,-87.38 638.62,-108.12"/>
<text text-anchor="middle" x="597.25" y="-93.67" font-family="Arial" font-size="11.00">OutputSocket</text>
</a>
</g>
</g>
<!-- Node15&#45;&gt;Node20 -->
<g id="edge29_Node000020_Node000015" class="edge">
<title>Node15&#45;&gt;Node20</title>
<g id="a_edge29_Node000020_Node000015"><a xlink:title=" ">
<path fill="none" stroke="#63b8ff" d="M243.69,-154.28C281.2,-140.83 340.17,-121.46 393,-111.75 448.66,-101.52 514.14,-98.61 555.42,-97.86"/>
<polygon fill="#63b8ff" stroke="#63b8ff" points="242.9,-151.2 234.7,-157.9 245.29,-157.78 242.9,-151.2"/>
</a>
</g>
</g>
<!-- Node23 -->
<g id="Node000023" class="node">
<title>Node23</title>
<g id="a_Node000023"><a xlink:href="../../d5/d90/class_quasar_s_d_k_1_1_seamless_u_d_p_socket.html" target="_top" xlink:title="Базовый класс для UDP сокетов, требующих целостность датаграммы.">
<polygon fill="white" stroke="#666666" points="517.75,-141.12 395.25,-141.12 395.25,-120.38 517.75,-120.38 517.75,-141.12"/>
<text text-anchor="middle" x="456.5" y="-126.67" font-family="Arial" font-size="11.00">SeamlessUDPSocket</text>
</a>
</g>
</g>
<!-- Node15&#45;&gt;Node23 -->
<g id="edge35_Node000023_Node000015" class="edge">
<title>Node15&#45;&gt;Node23</title>
<g id="a_edge35_Node000023_Node000015"><a xlink:title=" ">
<path fill="none" stroke="#63b8ff" d="M264.57,-159.74C303.97,-153.76 355.53,-145.93 395.14,-139.92"/>
<polygon fill="#63b8ff" stroke="#63b8ff" points="264.16,-156.42 254.8,-161.38 265.21,-163.34 264.16,-156.42"/>
</a>
</g>
</g>
<!-- Node16 -->
<g id="Node000016" class="node">
<title>Node16</title>
<g id="a_Node000016"><a xlink:title=" ">
<polygon fill="white" stroke="#bfbfbf" points="79,-179.12 0.75,-179.12 0.75,-158.38 79,-158.38 79,-179.12"/>
<text text-anchor="middle" x="39.88" y="-164.68" font-family="Arial" font-size="11.00">QUdpSocket</text>
</a>
</g>
</g>
<!-- Node16&#45;&gt;Node15 -->
<g id="edge20_Node000015_Node000016" class="edge">
<title>Node16&#45;&gt;Node15</title>
<g id="a_edge20_Node000015_Node000016"><a xlink:title=" ">
<path fill="none" stroke="#63b8ff" d="M90.31,-168.75C110.7,-168.75 134.25,-168.75 154.56,-168.75"/>
<polygon fill="#63b8ff" stroke="#63b8ff" points="90.36,-165.25 80.36,-168.75 90.36,-172.25 90.36,-165.25"/>
</a>
</g>
</g>
<!-- Node17&#45;&gt;Node1 -->
<g id="edge23_Node000001_Node000017" class="edge">
<title>Node17&#45;&gt;Node1</title>
<g id="a_edge23_Node000001_Node000017"><a xlink:title=" ">
<path fill="none" stroke="#9a32cd" stroke-dasharray="5,2" d="M778.04,-285.75C819.17,-285.75 876.16,-285.75 912.02,-285.75"/>
<polygon fill="#9a32cd" stroke="#9a32cd" points="778.15,-282.25 768.15,-285.75 778.15,-289.25 778.15,-282.25"/>
</a>
</g>
<text text-anchor="middle" x="845.5" y="-288.05" font-family="Arial" font-size="11.00" fill="grey"> m_execdSocket</text>
</g>
<!-- Node18&#45;&gt;Node17 -->
<g id="edge25_Node000017_Node000018" class="edge">
<title>Node18&#45;&gt;Node17</title>
<g id="a_edge25_Node000017_Node000018"><a xlink:title=" ">
<path fill="none" stroke="#9a32cd" stroke-dasharray="5,2" d="M531.13,-283.57C581.15,-284.13 645.36,-284.85 686.01,-285.31"/>
<polygon fill="#9a32cd" stroke="#9a32cd" points="531.4,-280.07 521.36,-283.45 531.32,-287.07 531.4,-280.07"/>
</a>
</g>
<text text-anchor="middle" x="597.25" y="-287.05" font-family="Arial" font-size="11.00" fill="grey"> m_args</text>
</g>
<!-- Node19 -->
<g id="Node000019" class="node">
<title>Node19</title>
<g id="a_Node000019"><a xlink:title=" ">
<polygon fill="white" stroke="#bfbfbf" points="511.38,-332.12 401.62,-332.12 401.62,-311.38 511.38,-311.38 511.38,-332.12"/>
<text text-anchor="middle" x="456.5" y="-317.68" font-family="Arial" font-size="11.00">array&lt; QString, 2 &gt;</text>
</a>
</g>
</g>
<!-- Node19&#45;&gt;Node17 -->
<g id="edge27_Node000017_Node000019" class="edge">
<title>Node19&#45;&gt;Node17</title>
<g id="a_edge27_Node000017_Node000019"><a xlink:title=" ">
<path fill="none" stroke="#9a32cd" stroke-dasharray="5,2" d="M522.66,-316.03C561.61,-312.25 612.02,-306.7 656.5,-299.75 666.06,-298.26 676.3,-296.35 685.89,-294.43"/>
<polygon fill="#9a32cd" stroke="#9a32cd" points="522.35,-312.64 512.73,-317.08 523.02,-319.61 522.35,-312.64"/>
</a>
</g>
<text text-anchor="middle" x="597.25" y="-316.05" font-family="Arial" font-size="11.00" fill="grey"> m_remote_address_list</text>
</g>
<!-- Node20&#45;&gt;Node1 -->
<g id="edge28_Node000001_Node000020" class="edge">
<title>Node20&#45;&gt;Node1</title>
<g id="a_edge28_Node000001_Node000020"><a xlink:title=" ">
<path fill="none" stroke="#9a32cd" stroke-dasharray="5,2" d="M649.71,-96.57C724.59,-95.95 858.54,-99.3 894.25,-129.75 939.18,-168.07 945.2,-246.41 945.86,-275"/>
<polygon fill="#9a32cd" stroke="#9a32cd" points="650.07,-93.08 640.11,-96.69 650.15,-100.08 650.07,-93.08"/>
</a>
</g>
<text text-anchor="middle" x="726.62" y="-102.05" font-family="Arial" font-size="11.00" fill="grey"> m_outputSocket</text>
</g>
<!-- Node21&#45;&gt;Node1 -->
<g id="edge30_Node000001_Node000021" class="edge">
<title>Node21&#45;&gt;Node1</title>
<g id="a_edge30_Node000001_Node000021"><a xlink:title=" ">
<path fill="none" stroke="#9a32cd" stroke-dasharray="5,2" d="M503.08,-564.09C566.51,-567.27 684.25,-567.83 778.75,-537.75 835.95,-519.54 857.87,-515.49 894.25,-467.75 935.86,-413.15 943.94,-326.4 945.5,-296.38"/>
<polygon fill="#9a32cd" stroke="#9a32cd" points="503.43,-560.55 493.25,-563.49 503.05,-567.54 503.43,-560.55"/>
</a>
</g>
<text text-anchor="middle" x="726.62" y="-561.05" font-family="Arial" font-size="11.00" fill="grey"> m_tcpServer</text>
</g>
<!-- Node22 -->
<g id="Node000022" class="node">
<title>Node22</title>
<g id="a_Node000022"><a xlink:href="../../d6/d4a/class_quasar_s_d_k_1_1_strip_socket.html" target="_top" xlink:title="Класс для приема больших файлов с РЛС по протоколу UDP.">
<polygon fill="white" stroke="#666666" points="762.75,-153.12 690.5,-153.12 690.5,-132.38 762.75,-132.38 762.75,-153.12"/>
<text text-anchor="middle" x="726.62" y="-138.68" font-family="Arial" font-size="11.00">StripSocket</text>
</a>
</g>
</g>
<!-- Node22&#45;&gt;Node1 -->
<g id="edge33_Node000001_Node000022" class="edge">
<title>Node22&#45;&gt;Node1</title>
<g id="a_edge33_Node000001_Node000022"><a xlink:title=" ">
<path fill="none" stroke="#9a32cd" stroke-dasharray="5,2" d="M773.7,-135.21C809.96,-131.89 859.93,-133.42 894.25,-159 932.73,-187.69 942.63,-250.02 945.09,-275.04"/>
<polygon fill="#9a32cd" stroke="#9a32cd" points="773.48,-131.82 763.92,-136.37 774.23,-138.78 773.48,-131.82"/>
</a>
</g>
<text text-anchor="middle" x="845.5" y="-161.05" font-family="Arial" font-size="11.00" fill="grey"> m_stripSocket</text>
</g>
<!-- Node23&#45;&gt;Node22 -->
<g id="edge34_Node000022_Node000023" class="edge">
<title>Node23&#45;&gt;Node22</title>
<g id="a_edge34_Node000022_Node000023"><a xlink:title=" ">
<path fill="none" stroke="#63b8ff" d="M528.84,-133.94C580.83,-136.27 649.07,-139.32 690.01,-141.16"/>
<polygon fill="#63b8ff" stroke="#63b8ff" points="529.15,-130.41 519.01,-133.46 528.84,-137.4 529.15,-130.41"/>
</a>
</g>
</g>
</g>
</svg>

<g id="navigator" transform="translate(0 0)" fill="#404254">
  <rect fill="#f2f5e9" fill-opacity="0.5" stroke="#606060" stroke-width=".5" x="0" y="0" width="60" height="60"/>
  <use id="zoomplus" xlink:href="#zoomPlus" x="17" y="9" onmousedown="handleZoom(evt,'in')"/>
  <use id="zoomminus" xlink:href="#zoomMin" x="42" y="9" onmousedown="handleZoom(evt,'out')"/>
  <use id="reset" xlink:href="#resetDef" x="30" y="36" onmousedown="handleReset()"/>
   <use id="arrowup" xlink:href="#arrowUp" x="0" y="0" onmousedown="handlePan(0,-1)"/>
  <use id="arrowright" xlink:href="#arrowRight" x="0" y="0" onmousedown="handlePan(1,0)"/>
  <use id="arrowdown" xlink:href="#arrowDown" x="0" y="0" onmousedown="handlePan(0,1)"/>
  <use id="arrowleft" xlink:href="#arrowLeft" x="0" y="0" onmousedown="handlePan(-1,0)"/>
</g>
<svg viewBox="0 0 15 15" width="100%" height="30px" preserveAspectRatio="xMaxYMin meet">
 <g id="arrow_out" transform="scale(0.3 0.3)">
  <a xlink:href="class_quasar_s_d_k_1_1_quasar_a_p_i__coll__graph_org.svg" target="_base">
   <rect id="button" ry="5" rx="5" y="6" x="6" height="38" width="38"
        fill="#f2f5e9" fill-opacity="0.5" stroke="#606060" stroke-width="1.0"/>
   <path id="arrow"
     d="M 11.500037,31.436501 C 11.940474,20.09759 22.043105,11.32322 32.158766,21.979434 L 37.068811,17.246167 C 37.068811,17.246167 37.088388,32 37.088388,32 L 22.160133,31.978069 C 22.160133,31.978069 26.997745,27.140456 26.997745,27.140456 C 18.528582,18.264221 13.291696,25.230495 11.500037,31.436501 z"
     style="fill:#404040;"/>
  </a>
 </g>
</svg>

<style type='text/css'>
<![CDATA[
[data-mouse-over-selected='false'] { opacity: 0.7; }
[data-mouse-over-selected='true']  { opacity: 1.0; }
]]>
</style>
<script type="application/ecmascript"><![CDATA[
document.addEventListener('DOMContentLoaded', (event) => {
  highlightEdges();
  highlightAdjacentNodes();
});
]]></script>
</svg>
