<?xml version="1.0" encoding="UTF-8" standalone="no"?>
<!DOCTYPE svg PUBLIC "-//W3C//DTD SVG 1.1//EN"
 "http://www.w3.org/Graphics/SVG/1.1/DTD/svg11.dtd">
<!-- Generated by graphviz version 8.1.0 (20230707.0739)
 -->
<!-- Title: ScalableMapObject Pages: 1 -->
<svg width="119pt" height="142pt"
 viewBox="0.00 0.00 118.50 142.25" xmlns="http://www.w3.org/2000/svg" xmlns:xlink="http://www.w3.org/1999/xlink">
<g id="graph0" class="graph" transform="scale(1 1) rotate(0) translate(4 138.25)">
<title>ScalableMapObject</title>
<!-- Node1 -->
<g id="Node000001" class="node">
<title>Node1</title>
<g id="a_Node000001"><a xlink:title=" ">
<polygon fill="#999999" stroke="#666666" points="110.5,-20.75 0,-20.75 0,0 110.5,0 110.5,-20.75"/>
<text text-anchor="middle" x="55.25" y="-6.3" font-family="Arial" font-size="11.00">ScalableMapObject</text>
</a>
</g>
</g>
<!-- Node2 -->
<g id="Node000002" class="node">
<title>Node2</title>
<g id="a_Node000002"><a xlink:href="../../d7/ddf/class_quasar_s_d_k_1_1_map_1_1_basic_map_object.html" target="_top" xlink:title="Абстрактный класс, реализующий функции интерфейса IMapObject, за исключением масштаба.">
<polygon fill="white" stroke="#666666" points="103.38,-77.5 7.12,-77.5 7.12,-56.75 103.38,-56.75 103.38,-77.5"/>
<text text-anchor="middle" x="55.25" y="-63.05" font-family="Arial" font-size="11.00">BasicMapObject</text>
</a>
</g>
</g>
<!-- Node2&#45;&gt;Node1 -->
<g id="edge1_Node000001_Node000002" class="edge">
<title>Node2&#45;&gt;Node1</title>
<g id="a_edge1_Node000001_Node000002"><a xlink:title=" ">
<path fill="none" stroke="#63b8ff" d="M55.25,-45.46C55.25,-37.09 55.25,-27.83 55.25,-21.08"/>
<polygon fill="#63b8ff" stroke="#63b8ff" points="51.75,-45.34 55.25,-55.34 58.75,-45.34 51.75,-45.34"/>
</a>
</g>
</g>
<!-- Node3 -->
<g id="Node000003" class="node">
<title>Node3</title>
<g id="a_Node000003"><a xlink:href="../../d5/d1e/class_quasar_s_d_k_1_1_map_1_1_i_map_object.html" target="_top" xlink:title="Интерфейс, описывающий абстрактный объект карты.">
<polygon fill="white" stroke="#666666" points="90.62,-134.25 19.88,-134.25 19.88,-113.5 90.62,-113.5 90.62,-134.25"/>
<text text-anchor="middle" x="55.25" y="-119.8" font-family="Arial" font-size="11.00">IMapObject</text>
</a>
</g>
</g>
<!-- Node3&#45;&gt;Node2 -->
<g id="edge2_Node000002_Node000003" class="edge">
<title>Node3&#45;&gt;Node2</title>
<g id="a_edge2_Node000002_Node000003"><a xlink:title=" ">
<path fill="none" stroke="#63b8ff" d="M55.25,-102.21C55.25,-93.84 55.25,-84.58 55.25,-77.83"/>
<polygon fill="#63b8ff" stroke="#63b8ff" points="51.75,-102.09 55.25,-112.09 58.75,-102.09 51.75,-102.09"/>
</a>
</g>
</g>
</g>
</svg>
