<?xml version="1.0" encoding="UTF-8" standalone="no"?>
<!DOCTYPE svg PUBLIC "-//W3C//DTD SVG 1.1//EN"
 "http://www.w3.org/Graphics/SVG/1.1/DTD/svg11.dtd">
<!-- Generated by graphviz version 8.1.0 (20230707.0739)
 -->
<!-- Title: MatrixPlot Pages: 1 -->
<svg width="236pt" height="98pt"
 viewBox="0.00 0.00 235.88 98.25" xmlns="http://www.w3.org/2000/svg" xmlns:xlink="http://www.w3.org/1999/xlink">
<g id="graph0" class="graph" transform="scale(1 1) rotate(0) translate(4 94.25)">
<title>MatrixPlot</title>
<!-- Node1 -->
<g id="Node000001" class="node">
<title>Node1</title>
<g id="a_Node000001"><a xlink:title=" ">
<polygon fill="#999999" stroke="#666666" points="129.88,-20.75 66.62,-20.75 66.62,0 129.88,0 129.88,-20.75"/>
<text text-anchor="middle" x="98.25" y="-6.3" font-family="Arial" font-size="11.00">MatrixPlot</text>
</a>
</g>
</g>
<!-- Node2 -->
<g id="Node000002" class="node">
<title>Node2</title>
<g id="a_Node000002"><a xlink:title=" ">
<polygon fill="white" stroke="#bfbfbf" points="74.5,-90.25 0,-90.25 0,-69.5 74.5,-69.5 74.5,-90.25"/>
<text text-anchor="middle" x="37.25" y="-75.8" font-family="Arial" font-size="11.00">QQuickItem</text>
</a>
</g>
</g>
<!-- Node2&#45;&gt;Node1 -->
<g id="edge1_Node000001_Node000002" class="edge">
<title>Node2&#45;&gt;Node1</title>
<g id="a_edge1_Node000001_Node000002"><a xlink:title=" ">
<path fill="none" stroke="#63b8ff" d="M53.32,-61.09C64.91,-48.27 80.11,-31.45 89.53,-21.03"/>
<polygon fill="#63b8ff" stroke="#63b8ff" points="51.1,-58.44 46.99,-68.2 56.29,-63.13 51.1,-58.44"/>
</a>
</g>
</g>
<!-- Node3 -->
<g id="Node000003" class="node">
<title>Node3</title>
<g id="a_Node000003"><a xlink:title=" ">
<polygon fill="white" stroke="#bfbfbf" points="227.88,-90.25 92.62,-90.25 92.62,-69.5 227.88,-69.5 227.88,-90.25"/>
<text text-anchor="middle" x="160.25" y="-75.8" font-family="Arial" font-size="11.00">vector&lt; vector&lt; float &gt; &gt;</text>
</a>
</g>
</g>
<!-- Node3&#45;&gt;Node1 -->
<g id="edge2_Node000001_Node000003" class="edge">
<title>Node3&#45;&gt;Node1</title>
<g id="a_edge2_Node000001_Node000003"><a xlink:title=" ">
<path fill="none" stroke="#9a32cd" stroke-dasharray="5,2" d="M144.25,-61.46C132.43,-48.59 116.78,-31.55 107.12,-21.03"/>
<polygon fill="#9a32cd" stroke="#9a32cd" points="141.02,-63.21 150.37,-68.2 146.18,-58.47 141.02,-63.21"/>
</a>
</g>
<text text-anchor="middle" x="146.25" y="-41.05" font-family="Arial" font-size="11.00" fill="grey"> data</text>
</g>
</g>
</svg>
