<?xml version="1.0" encoding="UTF-8" standalone="no"?>
<!DOCTYPE svg PUBLIC "-//W3C//DTD SVG 1.1//EN"
 "http://www.w3.org/Graphics/SVG/1.1/DTD/svg11.dtd">
<!-- Generated by graphviz version 8.1.0 (20230707.0739)
 -->
<!-- Title: ScreenMapObject Pages: 1 -->
<svg width="112pt" height="256pt"
 viewBox="0.00 0.00 111.75 255.75" xmlns="http://www.w3.org/2000/svg" xmlns:xlink="http://www.w3.org/1999/xlink">
<g id="graph0" class="graph" transform="scale(1 1) rotate(0) translate(4 251.75)">
<title>ScreenMapObject</title>
<!-- Node1 -->
<g id="Node000001" class="node">
<title>Node1</title>
<g id="a_Node000001"><a xlink:title="Базовый класс для объектов карты, привязанных по размеру к экрану.">
<polygon fill="#999999" stroke="#666666" points="103.75,-134.25 0,-134.25 0,-113.5 103.75,-113.5 103.75,-134.25"/>
<text text-anchor="middle" x="51.88" y="-119.8" font-family="Arial" font-size="11.00">ScreenMapObject</text>
</a>
</g>
</g>
<!-- Node4 -->
<g id="Node000004" class="node">
<title>Node4</title>
<g id="a_Node000004"><a xlink:href="../../d4/d7f/class_map_1_1_geo_marker.html" target="_top" xlink:title=" ">
<polygon fill="white" stroke="#bfbfbf" points="86.5,-77.5 17.25,-77.5 17.25,-56.75 86.5,-56.75 86.5,-77.5"/>
<text text-anchor="middle" x="51.88" y="-63.05" font-family="Arial" font-size="11.00">GeoMarker</text>
</a>
</g>
</g>
<!-- Node1&#45;&gt;Node4 -->
<g id="edge3_Node000001_Node000004" class="edge">
<title>Node1&#45;&gt;Node4</title>
<g id="a_edge3_Node000001_Node000004"><a xlink:title=" ">
<path fill="none" stroke="#63b8ff" d="M51.88,-102.21C51.88,-93.84 51.88,-84.58 51.88,-77.83"/>
<polygon fill="#63b8ff" stroke="#63b8ff" points="48.38,-102.09 51.88,-112.09 55.38,-102.09 48.38,-102.09"/>
</a>
</g>
</g>
<!-- Node2 -->
<g id="Node000002" class="node">
<title>Node2</title>
<g id="a_Node000002"><a xlink:href="../../d7/ddf/class_quasar_s_d_k_1_1_map_1_1_basic_map_object.html" target="_top" xlink:title="Абстрактный класс, реализующий функции интерфейса IMapObject, за исключением масштаба.">
<polygon fill="white" stroke="#666666" points="100,-191 3.75,-191 3.75,-170.25 100,-170.25 100,-191"/>
<text text-anchor="middle" x="51.88" y="-176.55" font-family="Arial" font-size="11.00">BasicMapObject</text>
</a>
</g>
</g>
<!-- Node2&#45;&gt;Node1 -->
<g id="edge1_Node000001_Node000002" class="edge">
<title>Node2&#45;&gt;Node1</title>
<g id="a_edge1_Node000001_Node000002"><a xlink:title=" ">
<path fill="none" stroke="#63b8ff" d="M51.88,-158.96C51.88,-150.59 51.88,-141.33 51.88,-134.58"/>
<polygon fill="#63b8ff" stroke="#63b8ff" points="48.38,-158.84 51.88,-168.84 55.38,-158.84 48.38,-158.84"/>
</a>
</g>
</g>
<!-- Node3 -->
<g id="Node000003" class="node">
<title>Node3</title>
<g id="a_Node000003"><a xlink:href="../../d5/d1e/class_quasar_s_d_k_1_1_map_1_1_i_map_object.html" target="_top" xlink:title="Интерфейс, описывающий абстрактный объект карты.">
<polygon fill="white" stroke="#666666" points="87.25,-247.75 16.5,-247.75 16.5,-227 87.25,-227 87.25,-247.75"/>
<text text-anchor="middle" x="51.88" y="-233.3" font-family="Arial" font-size="11.00">IMapObject</text>
</a>
</g>
</g>
<!-- Node3&#45;&gt;Node2 -->
<g id="edge2_Node000002_Node000003" class="edge">
<title>Node3&#45;&gt;Node2</title>
<g id="a_edge2_Node000002_Node000003"><a xlink:title=" ">
<path fill="none" stroke="#63b8ff" d="M51.88,-215.71C51.88,-207.34 51.88,-198.08 51.88,-191.33"/>
<polygon fill="#63b8ff" stroke="#63b8ff" points="48.38,-215.59 51.88,-225.59 55.38,-215.59 48.38,-215.59"/>
</a>
</g>
</g>
<!-- Node5 -->
<g id="Node000005" class="node">
<title>Node5</title>
<g id="a_Node000005"><a xlink:href="../../db/d2b/class_map_1_1_planner_mark.html" target="_top" xlink:title="Геометка с заданной командой для планировщика.">
<polygon fill="white" stroke="#666666" points="90.25,-20.75 13.5,-20.75 13.5,0 90.25,0 90.25,-20.75"/>
<text text-anchor="middle" x="51.88" y="-6.3" font-family="Arial" font-size="11.00">PlannerMark</text>
</a>
</g>
</g>
<!-- Node4&#45;&gt;Node5 -->
<g id="edge4_Node000004_Node000005" class="edge">
<title>Node4&#45;&gt;Node5</title>
<g id="a_edge4_Node000004_Node000005"><a xlink:title=" ">
<path fill="none" stroke="#63b8ff" d="M51.88,-45.46C51.88,-37.09 51.88,-27.83 51.88,-21.08"/>
<polygon fill="#63b8ff" stroke="#63b8ff" points="48.38,-45.34 51.88,-55.34 55.38,-45.34 48.38,-45.34"/>
</a>
</g>
</g>
</g>
</svg>
