<?xml version="1.0" encoding="UTF-8" standalone="no"?>
<!DOCTYPE svg PUBLIC "-//W3C//DTD SVG 1.1//EN"
 "http://www.w3.org/Graphics/SVG/1.1/DTD/svg11.dtd">
<!-- Generated by graphviz version 8.1.0 (20230707.0739)
 -->
<!-- Title: TelescopicImage Pages: 1 -->
<svg width="284pt" height="98pt"
 viewBox="0.00 0.00 284.12 98.25" xmlns="http://www.w3.org/2000/svg" xmlns:xlink="http://www.w3.org/1999/xlink">
<g id="graph0" class="graph" transform="scale(1 1) rotate(0) translate(4 94.25)">
<title>TelescopicImage</title>
<!-- Node1 -->
<g id="Node000001" class="node">
<title>Node1</title>
<g id="a_Node000001"><a xlink:title=" ">
<polygon fill="#999999" stroke="#666666" points="165.62,-20.75 66.38,-20.75 66.38,0 165.62,0 165.62,-20.75"/>
<text text-anchor="middle" x="116" y="-6.3" font-family="Arial" font-size="11.00">TelescopicImage</text>
</a>
</g>
</g>
<!-- Node2 -->
<g id="Node000002" class="node">
<title>Node2</title>
<g id="a_Node000002"><a xlink:href="../../d0/d6f/struct_map_1_1_image.html" target="_top" xlink:title=" ">
<polygon fill="white" stroke="#bfbfbf" points="46,-90.25 0,-90.25 0,-69.5 46,-69.5 46,-90.25"/>
<text text-anchor="middle" x="23" y="-75.8" font-family="Arial" font-size="11.00">Image</text>
</a>
</g>
</g>
<!-- Node2&#45;&gt;Node1 -->
<g id="edge1_Node000001_Node000002" class="edge">
<title>Node2&#45;&gt;Node1</title>
<g id="a_edge1_Node000001_Node000002"><a xlink:title=" ">
<path fill="none" stroke="#63b8ff" d="M44.94,-62.95C62.75,-50.02 87.31,-32.2 102.4,-21.25"/>
<polygon fill="#63b8ff" stroke="#63b8ff" points="43.36,-60.5 37.32,-69.2 47.47,-66.16 43.36,-60.5"/>
</a>
</g>
</g>
<!-- Node3 -->
<g id="Node000003" class="node">
<title>Node3</title>
<g id="a_Node000003"><a xlink:href="../../d0/d82/namespace_map.html#d1/dbd/struct_map_1_1_image_meta_header" target="_top" xlink:title="Заголовок метаданных телескопического РЛИ.">
<polygon fill="white" stroke="#666666" points="168.25,-90.25 63.75,-90.25 63.75,-69.5 168.25,-69.5 168.25,-90.25"/>
<text text-anchor="middle" x="116" y="-75.8" font-family="Arial" font-size="11.00">ImageMetaHeader</text>
</a>
</g>
</g>
<!-- Node3&#45;&gt;Node1 -->
<g id="edge2_Node000001_Node000003" class="edge">
<title>Node3&#45;&gt;Node1</title>
<g id="a_edge2_Node000001_Node000003"><a xlink:title=" ">
<path fill="none" stroke="#9a32cd" stroke-dasharray="5,2" d="M116,-58.45C116,-46.03 116,-30.75 116,-21.03"/>
<polygon fill="#9a32cd" stroke="#9a32cd" points="112.5,-58.2 116,-68.2 119.5,-58.2 112.5,-58.2"/>
</a>
</g>
<text text-anchor="middle" x="134.38" y="-41.05" font-family="Arial" font-size="11.00" fill="grey"> header</text>
</g>
<!-- Node4 -->
<g id="Node000004" class="node">
<title>Node4</title>
<g id="a_Node000004"><a xlink:href="../../d0/d82/namespace_map.html#db/d1a/struct_map_1_1_image_metadata" target="_top" xlink:title="Тело метаданных телескопического РЛИ.">
<polygon fill="white" stroke="#666666" points="276.12,-90.25 185.88,-90.25 185.88,-69.5 276.12,-69.5 276.12,-90.25"/>
<text text-anchor="middle" x="231" y="-75.8" font-family="Arial" font-size="11.00">ImageMetadata</text>
</a>
</g>
</g>
<!-- Node4&#45;&gt;Node1 -->
<g id="edge3_Node000001_Node000004" class="edge">
<title>Node4&#45;&gt;Node1</title>
<g id="a_edge3_Node000001_Node000004"><a xlink:title=" ">
<path fill="none" stroke="#9a32cd" stroke-dasharray="5,2" d="M205.07,-63.66C182.96,-50.68 151.82,-32.4 132.82,-21.25"/>
<polygon fill="#9a32cd" stroke="#9a32cd" points="203.13,-67.16 213.52,-69.2 206.67,-61.12 203.13,-67.16"/>
</a>
</g>
<text text-anchor="middle" x="196.88" y="-41.05" font-family="Arial" font-size="11.00" fill="grey"> meta</text>
</g>
</g>
</svg>
