<?xml version="1.0" encoding="UTF-8" standalone="no"?>
<!DOCTYPE svg PUBLIC "-//W3C//DTD SVG 1.1//EN"
 "http://www.w3.org/Graphics/SVG/1.1/DTD/svg11.dtd">
<!-- Generated by graphviz version 8.1.0 (20230707.0739)
 -->
<!-- Title: MapImage Pages: 1 -->
<svg width="250pt" height="256pt"
 viewBox="0.00 0.00 250.00 255.75" xmlns="http://www.w3.org/2000/svg" xmlns:xlink="http://www.w3.org/1999/xlink">
<g id="graph0" class="graph" transform="scale(1 1) rotate(0) translate(4 251.75)">
<title>MapImage</title>
<!-- Node1 -->
<g id="Node000001" class="node">
<title>Node1</title>
<g id="a_Node000001"><a xlink:title="Абстрактный класс, описывающий радиолокационное изображение в качестве объекта карты.">
<polygon fill="#999999" stroke="#666666" points="154.88,-77.5 88.62,-77.5 88.62,-56.75 154.88,-56.75 154.88,-77.5"/>
<text text-anchor="middle" x="121.75" y="-63.05" font-family="Arial" font-size="11.00">MapImage</text>
</a>
</g>
</g>
<!-- Node6 -->
<g id="Node000006" class="node">
<title>Node6</title>
<g id="a_Node000006"><a xlink:href="../../dc/dc3/class_quasar_s_d_k_1_1_map_1_1_complete_map_image.html" target="_top" xlink:title="Радиолокационное изображение на карте, сохраненное в файл.">
<polygon fill="white" stroke="#666666" points="113.5,-20.75 0,-20.75 0,0 113.5,0 113.5,-20.75"/>
<text text-anchor="middle" x="56.75" y="-6.3" font-family="Arial" font-size="11.00">CompleteMapImage</text>
</a>
</g>
</g>
<!-- Node1&#45;&gt;Node6 -->
<g id="edge5_Node000001_Node000006" class="edge">
<title>Node1&#45;&gt;Node6</title>
<g id="a_edge5_Node000001_Node000006"><a xlink:title=" ">
<path fill="none" stroke="#63b8ff" d="M101.91,-49.41C90.89,-40.13 77.58,-28.92 68.27,-21.08"/>
<polygon fill="#63b8ff" stroke="#63b8ff" points="99.23,-52.57 109.13,-56.34 103.74,-47.22 99.23,-52.57"/>
</a>
</g>
</g>
<!-- Node7 -->
<g id="Node000007" class="node">
<title>Node7</title>
<g id="a_Node000007"><a xlink:href="../../d1/d05/class_quasar_s_d_k_1_1_map_1_1_map_image_segment.html" target="_top" xlink:title="Сегмент или полное радиолокационное изображение на карте, сохраненное в Base64&#45;строке.">
<polygon fill="white" stroke="#666666" points="242,-20.75 131.5,-20.75 131.5,0 242,0 242,-20.75"/>
<text text-anchor="middle" x="186.75" y="-6.3" font-family="Arial" font-size="11.00">MapImageSegment</text>
</a>
</g>
</g>
<!-- Node1&#45;&gt;Node7 -->
<g id="edge6_Node000001_Node000007" class="edge">
<title>Node1&#45;&gt;Node7</title>
<g id="a_edge6_Node000001_Node000007"><a xlink:title=" ">
<path fill="none" stroke="#63b8ff" d="M141.59,-49.41C152.61,-40.13 165.92,-28.92 175.23,-21.08"/>
<polygon fill="#63b8ff" stroke="#63b8ff" points="139.76,-47.22 134.37,-56.34 144.27,-52.57 139.76,-47.22"/>
</a>
</g>
</g>
<!-- Node2 -->
<g id="Node000002" class="node">
<title>Node2</title>
<g id="a_Node000002"><a xlink:href="../../d9/dd3/class_quasar_s_d_k_1_1_map_1_1_f_g_s_map_object.html" target="_top" xlink:title="Базовый класс для объектов карты, которые имеют четкую привязку в метрах по размеру.">
<polygon fill="white" stroke="#666666" points="118.25,-134.25 27.25,-134.25 27.25,-113.5 118.25,-113.5 118.25,-134.25"/>
<text text-anchor="middle" x="72.75" y="-119.8" font-family="Arial" font-size="11.00">FGSMapObject</text>
</a>
</g>
</g>
<!-- Node2&#45;&gt;Node1 -->
<g id="edge1_Node000001_Node000002" class="edge">
<title>Node2&#45;&gt;Node1</title>
<g id="a_edge1_Node000001_Node000002"><a xlink:title=" ">
<path fill="none" stroke="#63b8ff" d="M88.7,-105.05C96.8,-96 106.33,-85.36 113.07,-77.83"/>
<polygon fill="#63b8ff" stroke="#63b8ff" points="86.57,-102.3 82.51,-112.09 91.79,-106.97 86.57,-102.3"/>
</a>
</g>
</g>
<!-- Node3 -->
<g id="Node000003" class="node">
<title>Node3</title>
<g id="a_Node000003"><a xlink:href="../../d7/ddf/class_quasar_s_d_k_1_1_map_1_1_basic_map_object.html" target="_top" xlink:title="Абстрактный класс, реализующий функции интерфейса IMapObject, за исключением масштаба.">
<polygon fill="white" stroke="#666666" points="120.88,-191 24.62,-191 24.62,-170.25 120.88,-170.25 120.88,-191"/>
<text text-anchor="middle" x="72.75" y="-176.55" font-family="Arial" font-size="11.00">BasicMapObject</text>
</a>
</g>
</g>
<!-- Node3&#45;&gt;Node2 -->
<g id="edge2_Node000002_Node000003" class="edge">
<title>Node3&#45;&gt;Node2</title>
<g id="a_edge2_Node000002_Node000003"><a xlink:title=" ">
<path fill="none" stroke="#63b8ff" d="M72.75,-158.96C72.75,-150.59 72.75,-141.33 72.75,-134.58"/>
<polygon fill="#63b8ff" stroke="#63b8ff" points="69.25,-158.84 72.75,-168.84 76.25,-158.84 69.25,-158.84"/>
</a>
</g>
</g>
<!-- Node4 -->
<g id="Node000004" class="node">
<title>Node4</title>
<g id="a_Node000004"><a xlink:href="../../d5/d1e/class_quasar_s_d_k_1_1_map_1_1_i_map_object.html" target="_top" xlink:title="Интерфейс, описывающий абстрактный объект карты.">
<polygon fill="white" stroke="#666666" points="108.12,-247.75 37.38,-247.75 37.38,-227 108.12,-227 108.12,-247.75"/>
<text text-anchor="middle" x="72.75" y="-233.3" font-family="Arial" font-size="11.00">IMapObject</text>
</a>
</g>
</g>
<!-- Node4&#45;&gt;Node3 -->
<g id="edge3_Node000003_Node000004" class="edge">
<title>Node4&#45;&gt;Node3</title>
<g id="a_edge3_Node000003_Node000004"><a xlink:title=" ">
<path fill="none" stroke="#63b8ff" d="M72.75,-215.71C72.75,-207.34 72.75,-198.08 72.75,-191.33"/>
<polygon fill="#63b8ff" stroke="#63b8ff" points="69.25,-215.59 72.75,-225.59 76.25,-215.59 69.25,-215.59"/>
</a>
</g>
</g>
<!-- Node5 -->
<g id="Node000005" class="node">
<title>Node5</title>
<g id="a_Node000005"><a xlink:href="../../d7/d37/class_quasar_s_d_k_1_1_map_1_1_i_s_a_r_image.html" target="_top" xlink:title="Интерфейс, описывающий радиолокационное изображение с РЛС.">
<polygon fill="white" stroke="#666666" points="207.12,-134.25 136.38,-134.25 136.38,-113.5 207.12,-113.5 207.12,-134.25"/>
<text text-anchor="middle" x="171.75" y="-119.8" font-family="Arial" font-size="11.00">ISARImage</text>
</a>
</g>
</g>
<!-- Node5&#45;&gt;Node1 -->
<g id="edge4_Node000001_Node000005" class="edge">
<title>Node5&#45;&gt;Node1</title>
<g id="a_edge4_Node000001_Node000005"><a xlink:title=" ">
<path fill="none" stroke="#63b8ff" d="M155.47,-105.05C147.21,-96 137.49,-85.36 130.61,-77.83"/>
<polygon fill="#63b8ff" stroke="#63b8ff" points="152.48,-107.06 161.81,-112.09 157.65,-102.34 152.48,-107.06"/>
</a>
</g>
</g>
</g>
</svg>
