<svg width="840" height="220" viewBox="0 0 840 220" fill="none" xmlns="http://www.w3.org/2000/svg">
<path d="M27.953 28.3753L21.624 35.2064L45.8851 59.378L40.6109 68.311L35.8642 80.3968L33.7546 92.4826V101.941L35.8642 112.45L39.0287 125.062L46.9399 136.622L53.2689 143.979L66.4543 154.488L78.0574 159.743L91.7702 161.319H103.373L113.394 159.743L120.251 157.641L127.107 154.488L135.018 150.284L145.567 161.319L140.292 164.997L129.217 170.252L112.339 175.507L97.0444 176.558H88.0783L72.2559 172.879L61.7076 168.15L52.2141 162.895L45.3577 157.641L37.4465 150.284L32.6997 143.979C30.5901 140.826 26.3708 134.31 26.3708 133.469C26.3708 132.628 23.9095 127.514 22.6789 125.062L20.5692 116.654L18.4595 104.043V94.059C18.8111 90.5558 19.6198 83.3394 20.0418 82.4987C20.5692 81.4477 21.624 76.193 21.624 75.6676C21.624 75.2472 22.3272 72.3396 22.6789 70.9383L26.3708 63.0563L13.1854 49.3941L8.43865 56.7507L4.74674 64.6327L1.05483 79.3458L0 96.1609V106.67L1.05483 117.18L4.74674 131.367L9.49347 142.402L17.9321 155.539L28.4804 168.15L41.6658 179.185L57.4882 188.118L70.1462 191.796L80.6945 194.949L94.4073 196H103.373L116.031 194.949L127.107 191.796L137.128 188.118L145.567 183.914L151.896 179.71L158.752 173.93L174.574 189.169H202L148.204 136.622L149.786 134.52L154.005 128.214L157.697 119.807L160.334 112.45L161.389 103.517V95.1099L160.334 85.126L157.697 76.7185L154.005 68.311L147.149 57.8016L138.71 49.3941L132.909 44.6649L125.525 40.4611L115.504 37.3083L106.538 35.2064L96.517 34.681L89.1332 35.2064L80.1671 36.2574L73.8381 38.3593L87.5509 53.5979H103.901L113.394 55.1743L120.778 59.378L128.162 64.1072L133.963 70.9383L140.82 81.9732L142.402 92.4826V103.517L140.292 112.976L138.183 118.756L135.018 123.485L128.162 117.18H101.791L120.251 136.622L113.394 140.3L103.373 142.402H90.188L78.0574 138.724L70.1462 133.469L63.8172 127.689L59.0705 120.858L54.8512 112.45L52.2141 100.365L53.2689 89.3298L55.3786 81.4477L59.5979 73.0402L66.4543 64.6327L72.2559 59.9035L48.5222 36.2574L50.6319 33.63L60.6528 27.3244L73.3107 22.0697L86.4961 18.9169L99.154 18.3914L111.812 19.4424L120.251 21.5442L130.799 25.2225L140.292 30.4772L149.258 37.3083L157.697 46.2413L165.608 57.2761L172.465 70.9383L174.574 77.7694L176.157 85.126L177.211 94.059V101.941L176.684 109.823L174.574 118.231L171.41 128.214L168.245 135.046L181.958 147.657L185.65 140.826L188.815 134.52L190.924 127.164L193.561 118.231L195.144 108.247L195.671 99.8391V90.3807L194.616 81.9732L192.507 71.9893L188.815 62.0054L186.178 55.1743L182.486 48.3432L178.794 42.563L172.992 35.2064L168.245 29.9517L159.279 21.5442L151.896 16.2895L143.984 11.0349L135.018 7.35657L124.47 3.67828L113.922 1.05094L104.956 0H95.4621L85.9687 1.05094L73.3107 3.15281L62.7624 6.30563L53.7963 10.5094L46.4125 14.1877L41.1384 17.3405L34.282 22.5952L27.953 28.3753Z" fill="#E5C890"/>
<path d="M253.3 193.4C241.5 193.4 232.5 189.8 226.3 182.6C220.1 175.4 217 164.867 217 151V88.8H239.4V146.6C239.4 155.267 241 161.7 244.2 165.9C247.467 170.033 252.367 172.1 258.9 172.1C266.033 172.1 271.333 170.033 274.8 165.9C278.267 161.7 280 155.4 280 147V88.8H302.5V191H280V181.4C276.867 185.4 273.067 188.4 268.6 190.4C264.2 192.4 259.1 193.4 253.3 193.4ZM364.992 193.4C353.792 193.4 344.992 190.367 338.592 184.3C332.192 178.233 328.992 170 328.992 159.6C328.992 152.8 330.626 146.9 333.892 141.9C337.159 136.833 341.759 132.933 347.692 130.2C353.626 127.4 360.559 126 368.492 126C373.159 126 377.592 126.467 381.792 127.4C386.059 128.267 389.859 129.6 393.192 131.4V124.8C393.192 118.267 391.526 113.433 388.192 110.3C384.859 107.1 379.826 105.5 373.092 105.5C368.159 105.5 363.059 106.4 357.792 108.2C352.526 110 347.359 112.6 342.292 116L335.592 98.1C341.192 94.3667 347.492 91.5 354.492 89.5C361.492 87.4333 368.526 86.4 375.592 86.4C388.726 86.4 398.559 89.6 405.092 96C411.692 102.333 414.992 111.867 414.992 124.6V191H393.192V182.4C389.592 185.933 385.359 188.667 380.492 190.6C375.626 192.467 370.459 193.4 364.992 193.4ZM369.592 174.3C373.926 174.3 378.126 173.367 382.192 171.5C386.326 169.633 389.992 166.967 393.192 163.5V149.6C390.192 147.933 386.792 146.667 382.992 145.8C379.259 144.867 375.592 144.4 371.992 144.4C365.326 144.4 360.092 145.767 356.292 148.5C352.492 151.167 350.592 154.867 350.592 159.6C350.592 164.133 352.259 167.733 355.592 170.4C358.926 173 363.592 174.3 369.592 174.3ZM489.967 193.4C481.434 193.4 473.667 191.933 466.667 189C459.734 186 453.801 181.867 448.867 176.6C444.001 171.267 440.367 165.067 437.967 158L459.067 150.1C462.001 156.5 466.201 161.7 471.667 165.7C477.134 169.633 483.434 171.6 490.567 171.6C498.034 171.6 504.034 169.933 508.567 166.6C513.101 163.267 515.367 158.4 515.367 152C515.367 147.6 514.034 143.933 511.367 141C508.701 138 505.134 135.467 500.667 133.4C496.201 131.267 491.301 129.267 485.967 127.4C480.967 125.6 475.901 123.633 470.767 121.5C465.634 119.367 460.967 116.767 456.767 113.7C452.567 110.567 449.167 106.733 446.567 102.2C444.034 97.6 442.767 92 442.767 85.4C442.767 78.7333 444.567 72.6333 448.167 67.1C451.767 61.5 456.967 57.0333 463.767 53.7C470.567 50.3 478.767 48.6 488.367 48.6C496.301 48.6 503.301 49.9 509.367 52.5C515.434 55.0333 520.434 58.5333 524.367 63C528.301 67.4 531.067 72.3667 532.667 77.9L511.867 84.8C510.067 80.7333 507.134 77.3 503.067 74.5C499.067 71.6333 493.701 70.2 486.967 70.2C480.434 70.2 475.334 71.5667 471.667 74.3C468.001 76.9667 466.167 80.7333 466.167 85.6C466.167 89.0667 467.401 92 469.867 94.4C472.334 96.7333 475.634 98.8 479.767 100.6C483.967 102.4 488.567 104.2 493.567 106C498.901 107.933 504.201 110.067 509.467 112.4C514.801 114.733 519.667 117.6 524.067 121C528.534 124.4 532.067 128.6 534.667 133.6C537.334 138.6 538.667 144.7 538.667 151.9C538.667 160.7 536.534 168.2 532.267 174.4C528.001 180.533 522.167 185.233 514.767 188.5C507.434 191.767 499.167 193.4 489.967 193.4ZM551.978 191L604.078 51H625.878L677.978 191H653.478L642.178 159.8H587.878L576.778 191H551.978ZM595.278 138.9H634.578L619.178 96.6C618.778 95.4667 618.311 94.1333 617.778 92.6C617.245 91.0667 616.711 89.5667 616.178 88.1C615.645 86.5667 615.245 85.2 614.978 84C614.645 85.2 614.211 86.5667 613.678 88.1C613.211 89.5667 612.711 91.0667 612.178 92.6C611.645 94.1333 611.178 95.4667 610.778 96.6L595.278 138.9ZM700.459 191V51H761.359C772.826 51 781.893 53 788.559 57C795.226 61 799.959 66.2333 802.759 72.7C805.626 79.1 807.059 85.9 807.059 93.1C807.059 98.5 806.026 103.9 803.959 109.3C801.893 114.7 798.659 119.533 794.259 123.8C789.926 128 784.359 131.033 777.559 132.9L805.959 191H780.059L752.759 135.6H723.559V191H700.459ZM723.559 114H761.759C767.159 114 771.426 113 774.559 111C777.759 109 780.026 106.433 781.359 103.3C782.693 100.167 783.359 96.8667 783.359 93.4C783.359 90.2 782.726 87.0333 781.459 83.9C780.259 80.7 778.059 78.0333 774.859 75.9C771.726 73.7 767.359 72.6 761.759 72.6H723.559V114Z" fill="#DCE0E8"/>
</svg>
