<?xml version="1.0" encoding="UTF-8" standalone="no"?>
<!DOCTYPE svg PUBLIC "-//W3C//DTD SVG 1.1//EN"
 "http://www.w3.org/Graphics/SVG/1.1/DTD/svg11.dtd">
<!-- Generated by graphviz version 8.1.0 (20230707.0739)
 -->
<!-- Title: SAROutputModel Pages: 1 -->
<svg width="317pt" height="181pt"
 viewBox="0.00 0.00 316.88 180.50" xmlns="http://www.w3.org/2000/svg" xmlns:xlink="http://www.w3.org/1999/xlink">

<svg id="main" version="1.1" xmlns="http://www.w3.org/2000/svg" xmlns:xlink="http://www.w3.org/1999/xlink" xml:space="preserve" onload="init(evt)">
<style type="text/css"><![CDATA[
.node, .edge {opacity: 0.7;}
.node.selected, .edge.selected {opacity: 1;}
.edge:hover path { stroke: red; }
.edge:hover polygon { stroke: red; fill: red; }
]]></style>
<script type="application/ecmascript" xlink:href="../../svg.min.js"/>
<svg id="graph" class="graph">
<g id="graph0" class="graph" transform="scale(1 1) rotate(0) translate(4 176.5)">
<title>SAROutputModel</title>
<!-- Node1 -->
<g id="Node000001" class="node">
<title>Node1</title>
<g id="a_Node000001"><a xlink:title="Класс&#45;модель, обрабатывающий и хранящий сообщения от РЛС (VT100).">
<polygon fill="#999999" stroke="#666666" points="238.62,-20.75 138.62,-20.75 138.62,0 238.62,0 238.62,-20.75"/>
<text text-anchor="middle" x="188.62" y="-6.3" font-family="Arial" font-size="11.00">SAROutputModel</text>
</a>
</g>
</g>
<!-- Node2 -->
<g id="Node000002" class="node">
<title>Node2</title>
<g id="a_Node000002"><a xlink:href="../../de/de9/class_quasar_s_d_k_1_1_i_o_1_1_message_model.html" target="_top" xlink:title="Базовый класс для модели сообщений.">
<polygon fill="white" stroke="#666666" points="180,-90.25 91.25,-90.25 91.25,-69.5 180,-69.5 180,-90.25"/>
<text text-anchor="middle" x="135.62" y="-75.8" font-family="Arial" font-size="11.00">MessageModel</text>
</a>
</g>
</g>
<!-- Node2&#45;&gt;Node1 -->
<g id="edge1_Node000001_Node000002" class="edge">
<title>Node2&#45;&gt;Node1</title>
<g id="a_edge1_Node000001_Node000002"><a xlink:title=" ">
<path fill="none" stroke="#63b8ff" d="M149.88,-60.72C159.91,-47.94 172.94,-31.35 181.05,-21.03"/>
<polygon fill="#63b8ff" stroke="#63b8ff" points="146.64,-58.18 143.22,-68.2 152.15,-62.5 146.64,-58.18"/>
</a>
</g>
</g>
<!-- Node3 -->
<g id="Node000003" class="node">
<title>Node3</title>
<g id="a_Node000003"><a xlink:title=" ">
<polygon fill="white" stroke="#bfbfbf" points="111.25,-166.12 0,-166.12 0,-145.38 111.25,-145.38 111.25,-166.12"/>
<text text-anchor="middle" x="55.62" y="-151.68" font-family="Arial" font-size="11.00">QAbstractListModel</text>
</a>
</g>
</g>
<!-- Node3&#45;&gt;Node2 -->
<g id="edge2_Node000002_Node000003" class="edge">
<title>Node3&#45;&gt;Node2</title>
<g id="a_edge2_Node000002_Node000003"><a xlink:title=" ">
<path fill="none" stroke="#63b8ff" d="M74.13,-137.66C89.98,-123.03 112.23,-102.48 125.16,-90.54"/>
<polygon fill="#63b8ff" stroke="#63b8ff" points="72.06,-134.74 67.08,-144.09 76.8,-139.88 72.06,-134.74"/>
</a>
</g>
</g>
<!-- Node4 -->
<g id="Node000004" class="node">
<title>Node4</title>
<g id="a_Node000004"><a xlink:title=" ">
<polygon fill="white" stroke="#bfbfbf" points="304.12,-172.5 129.12,-172.5 129.12,-139 304.12,-139 304.12,-172.5"/>
<text text-anchor="start" x="137.12" y="-158.05" font-family="Arial" font-size="11.00">vector&lt; unique_ptr</text>
<text text-anchor="middle" x="216.62" y="-145.3" font-family="Arial" font-size="11.00">&lt; QuasarSDK::IO::IMessage &gt; &gt;</text>
</a>
</g>
</g>
<!-- Node4&#45;&gt;Node2 -->
<g id="edge3_Node000002_Node000004" class="edge">
<title>Node4&#45;&gt;Node2</title>
<g id="a_edge3_Node000002_Node000004"><a xlink:title=" ">
<path fill="none" stroke="#9a32cd" stroke-dasharray="5,2" d="M190.99,-131.37C175.77,-117.48 157.28,-100.63 145.99,-90.33"/>
<polygon fill="#9a32cd" stroke="#9a32cd" points="188.3,-133.57 198.05,-137.72 193.02,-128.4 188.3,-133.57"/>
</a>
</g>
<text text-anchor="middle" x="206.38" y="-110.55" font-family="Arial" font-size="11.00" fill="grey"> m_storage</text>
</g>
<!-- Node5 -->
<g id="Node000005" class="node">
<title>Node5</title>
<g id="a_Node000005"><a xlink:href="../../df/d9e/class_quasar_s_d_k_1_1_i_o_1_1_s_a_r_output_model.html#d6/dab/struct_quasar_s_d_k_1_1_i_o_1_1_s_a_r_output_model_1_1_cursor_position" target="_top" xlink:title=" ">
<polygon fill="white" stroke="#bfbfbf" points="287,-90.25 198.25,-90.25 198.25,-69.5 287,-69.5 287,-90.25"/>
<text text-anchor="middle" x="242.62" y="-75.8" font-family="Arial" font-size="11.00">CursorPosition</text>
</a>
</g>
</g>
<!-- Node5&#45;&gt;Node1 -->
<g id="edge4_Node000001_Node000005" class="edge">
<title>Node5&#45;&gt;Node1</title>
<g id="a_edge4_Node000001_Node000005"><a xlink:title=" ">
<path fill="none" stroke="#9a32cd" stroke-dasharray="5,2" d="M228.1,-60.72C217.88,-47.94 204.6,-31.35 196.35,-21.03"/>
<polygon fill="#9a32cd" stroke="#9a32cd" points="225.91,-62.58 234.89,-68.2 231.37,-58.21 225.91,-62.58"/>
</a>
</g>
<text text-anchor="middle" x="264.25" y="-41.05" font-family="Arial" font-size="11.00" fill="grey"> m_cursorPosition</text>
</g>
</g>
</svg>
</svg>

<style type='text/css'>
<![CDATA[
[data-mouse-over-selected='false'] { opacity: 0.7; }
[data-mouse-over-selected='true']  { opacity: 1.0; }
]]>
</style>
<script type="application/ecmascript"><![CDATA[
document.addEventListener('DOMContentLoaded', (event) => {
  highlightEdges();
  highlightAdjacentNodes();
});
]]></script>
</svg>
