<?xml version="1.0" encoding="UTF-8" standalone="no"?>
<!DOCTYPE svg PUBLIC "-//W3C//DTD SVG 1.1//EN"
 "http://www.w3.org/Graphics/SVG/1.1/DTD/svg11.dtd">
<!-- Generated by graphviz version 8.1.0 (20230707.0739)
 -->
<!-- Title: DebugConsole Pages: 1 -->
<svg width="286pt" height="169pt"
 viewBox="0.00 0.00 285.62 168.75" xmlns="http://www.w3.org/2000/svg" xmlns:xlink="http://www.w3.org/1999/xlink">

<svg id="main" version="1.1" xmlns="http://www.w3.org/2000/svg" xmlns:xlink="http://www.w3.org/1999/xlink" xml:space="preserve" onload="init(evt)">
<style type="text/css"><![CDATA[
.node, .edge {opacity: 0.7;}
.node.selected, .edge.selected {opacity: 1;}
.edge:hover path { stroke: red; }
.edge:hover polygon { stroke: red; fill: red; }
]]></style>
<script type="application/ecmascript" xlink:href="../../svg.min.js"/>
<svg id="graph" class="graph">
<g id="graph0" class="graph" transform="scale(1 1) rotate(0) translate(4 164.75)">
<title>DebugConsole</title>
<!-- Node1 -->
<g id="Node000001" class="node">
<title>Node1</title>
<g id="a_Node000001"><a xlink:title=" ">
<polygon fill="#999999" stroke="#666666" points="174,-20.75 85.25,-20.75 85.25,0 174,0 174,-20.75"/>
<text text-anchor="middle" x="129.62" y="-6.3" font-family="Arial" font-size="11.00">DebugConsole</text>
</a>
</g>
</g>
<!-- Node2 -->
<g id="Node000002" class="node">
<title>Node2</title>
<g id="a_Node000002"><a xlink:href="../../d2/db3/class_g_u_i_1_1_terminal_base.html" target="_top" xlink:title=" ">
<polygon fill="white" stroke="#bfbfbf" points="171.75,-78.5 87.5,-78.5 87.5,-57.75 171.75,-57.75 171.75,-78.5"/>
<text text-anchor="middle" x="129.62" y="-64.05" font-family="Arial" font-size="11.00">TerminalBase</text>
</a>
</g>
</g>
<!-- Node2&#45;&gt;Node1 -->
<g id="edge1_Node000001_Node000002" class="edge">
<title>Node2&#45;&gt;Node1</title>
<g id="a_edge1_Node000001_Node000002"><a xlink:title=" ">
<path fill="none" stroke="#63b8ff" d="M129.62,-46.48C129.62,-37.74 129.62,-27.98 129.62,-20.97"/>
<polygon fill="#63b8ff" stroke="#63b8ff" points="126.13,-46.41 129.62,-56.41 133.13,-46.41 126.13,-46.41"/>
</a>
</g>
</g>
<!-- Node3 -->
<g id="Node000003" class="node">
<title>Node3</title>
<g id="a_Node000003"><a xlink:title=" ">
<polygon fill="white" stroke="#bfbfbf" points="111.25,-154.38 0,-154.38 0,-133.62 111.25,-133.62 111.25,-154.38"/>
<text text-anchor="middle" x="55.62" y="-139.93" font-family="Arial" font-size="11.00">QAbstractListModel</text>
</a>
</g>
</g>
<!-- Node3&#45;&gt;Node2 -->
<g id="edge2_Node000002_Node000003" class="edge">
<title>Node3&#45;&gt;Node2</title>
<g id="a_edge2_Node000002_Node000003"><a xlink:title=" ">
<path fill="none" stroke="#63b8ff" d="M72.79,-125.87C87.54,-111.14 108.26,-90.45 120.18,-78.55"/>
<polygon fill="#63b8ff" stroke="#63b8ff" points="70.9,-122.8 66.3,-132.34 75.85,-127.75 70.9,-122.8"/>
</a>
</g>
</g>
<!-- Node4 -->
<g id="Node000004" class="node">
<title>Node4</title>
<g id="a_Node000004"><a xlink:title=" ">
<polygon fill="white" stroke="#bfbfbf" points="277.62,-160.75 129.62,-160.75 129.62,-127.25 277.62,-127.25 277.62,-160.75"/>
<text text-anchor="start" x="137.62" y="-146.3" font-family="Arial" font-size="11.00">vector&lt; GUI::TerminalBase</text>
<text text-anchor="middle" x="203.62" y="-133.55" font-family="Arial" font-size="11.00">::BasicMessage &gt;</text>
</a>
</g>
</g>
<!-- Node4&#45;&gt;Node2 -->
<g id="edge3_Node000002_Node000004" class="edge">
<title>Node4&#45;&gt;Node2</title>
<g id="a_edge3_Node000002_Node000004"><a xlink:title=" ">
<path fill="none" stroke="#9a32cd" stroke-dasharray="5,2" d="M179.82,-119.23C165.98,-105.42 149.32,-88.78 139.1,-78.58"/>
<polygon fill="#9a32cd" stroke="#9a32cd" points="177.02,-121.38 186.57,-125.97 181.96,-116.43 177.02,-121.38"/>
</a>
</g>
<text text-anchor="middle" x="189.5" y="-98.8" font-family="Arial" font-size="11.00" fill="grey"> storage</text>
</g>
</g>
</svg>
</svg>

<style type='text/css'>
<![CDATA[
[data-mouse-over-selected='false'] { opacity: 0.7; }
[data-mouse-over-selected='true']  { opacity: 1.0; }
]]>
</style>
<script type="application/ecmascript"><![CDATA[
document.addEventListener('DOMContentLoaded', (event) => {
  highlightEdges();
  highlightAdjacentNodes();
});
]]></script>
</svg>
