<?xml version="1.0" encoding="UTF-8" standalone="no"?>
<!DOCTYPE svg PUBLIC "-//W3C//DTD SVG 1.1//EN"
 "http://www.w3.org/Graphics/SVG/1.1/DTD/svg11.dtd">
<!-- Generated by graphviz version 8.1.0 (20230707.0739)
 -->
<!-- Title: src Pages: 1 -->
<!--zoomable 98 -->

<svg id="main" version="1.1" xmlns="http://www.w3.org/2000/svg" xmlns:xlink="http://www.w3.org/1999/xlink" xml:space="preserve" onload="init(evt)">
<style type="text/css"><![CDATA[
.node, .edge {opacity: 0.7;}
.node.selected, .edge.selected {opacity: 1;}
.edge:hover path { stroke: red; }
.edge:hover polygon { stroke: red; fill: red; }
]]></style>

<defs>
  <circle id="rim" cx="0" cy="0" r="7"/>
  <circle id="rim2" cx="0" cy="0" r="3.5"/>
  <g id="zoomPlus">
    <use xlink:href="#rim" fill="#404040"><set attributeName="fill" to="#808080" begin="zoomplus.mouseover" end="zoomplus.mouseout"/></use>
    <path d="M-4,0h8M0,-4v8" fill="none" stroke="white" stroke-width="1.5" pointer-events="none"/>
  </g>
  <g id="zoomMin">
    <use xlink:href="#rim" fill="#404040"><set attributeName="fill" to="#808080" begin="zoomminus.mouseover" end="zoomminus.mouseout"/></use>
    <path d="M-4,0h8" fill="none" stroke="white" stroke-width="1.5" pointer-events="none"/>
  </g>
  <g id="arrowUp" transform="translate(30 24)">
    <use xlink:href="#rim"/>
    <path pointer-events="none" fill="none" stroke="white" stroke-width="1.5" d="M0,-3.0v7 M-2.5,-0.5L0,-3.0L2.5,-0.5"/>
  </g>
  <g id="arrowRight" transform="rotate(90) translate(36 -43)">
    <use xlink:href="#rim"/>
    <path pointer-events="none" fill="none" stroke="white" stroke-width="1.5" d="M0,-3.0v7 M-2.5,-0.5L0,-3.0L2.5,-0.5"/>
  </g>
  <g id="arrowDown" transform="rotate(180) translate(-30 -48)">
    <use xlink:href="#rim"/>
    <path pointer-events="none" fill="none" stroke="white" stroke-width="1.5" d="M0,-3.0v7 M-2.5,-0.5L0,-3.0L2.5,-0.5"/>
  </g>
  <g id="arrowLeft" transform="rotate(270) translate(-36 17)">
    <use xlink:href="#rim"/>
    <path pointer-events="none" fill="none" stroke="white" stroke-width="1.5" d="M0,-3.0v7 M-2.5,-0.5L0,-3.0L2.5,-0.5"/>
  </g>
  <g id="resetDef">
    <use xlink:href="#rim2" fill="#404040"><set attributeName="fill" to="#808080" begin="reset.mouseover" end="reset.mouseout"/></use>
  </g>
</defs>
<script type="application/ecmascript">
var viewWidth = 528;
var viewHeight = 98;
var sectionId = 'dynsection-0';
</script>
<script type="application/ecmascript" xlink:href="svg.min.js"/>
<svg id="graph" class="graph">
<g id="viewport">
<title>src</title>
<g id="clust1" class="cluster">
<title>clusterdir_5eaa9160e914aa78085dedce4b00e66f</title>
<g id="a_clust1"><a xlink:href="dir_5eaa9160e914aa78085dedce4b00e66f.html" target="_top" xlink:title="sdk">
<polygon fill="#ece5ef" stroke="#7f7f7f" stroke-dasharray="5,2" points="8,-8 8,-81.5 512,-81.5 512,-8 8,-8"/>
<text text-anchor="middle" x="260" y="-67.05" font-family="Arial" font-size="11.00">sdk</text>
</a>
</g>
</g>
<g id="clust2" class="cluster">
<title>clusterdir_72207ca2e38c1e1375ea23aa1480da49</title>
<g id="a_clust2"><a xlink:href="dir_72207ca2e38c1e1375ea23aa1480da49.html" target="_top">
<polygon fill="#ece5ef" stroke="#404040" stroke-width="2" points="16,-16 16,-52.75 504,-52.75 504,-16 16,-16"/>
</a>
</g>
</g>
<!-- dir_72207ca2e38c1e1375ea23aa1480da49 -->
<g id="node1" class="node">
<title>dir_72207ca2e38c1e1375ea23aa1480da49</title>
<text text-anchor="middle" x="480" y="-30.3" font-family="Arial" font-size="11.00">src</text>
</g>
<!-- dir_d870837f33cedd26bb049026a9d97fef -->
<g id="node2" class="node">
<title>dir_d870837f33cedd26bb049026a9d97fef</title>
<g id="a_node2"><a xlink:href="dir_d870837f33cedd26bb049026a9d97fef.html" target="_top" xlink:title="cartography">
<polygon fill="#a885b3" stroke="#404040" points="445.88,-44.75 372.12,-44.75 372.12,-24 445.88,-24 445.88,-44.75"/>
<text text-anchor="middle" x="409" y="-30.3" font-family="Arial" font-size="11.00">cartography</text>
</a>
</g>
</g>
<!-- dir_bb2bcd1ae4be61eb87860e92161ea1c8 -->
<g id="node3" class="node">
<title>dir_bb2bcd1ae4be61eb87860e92161ea1c8</title>
<g id="a_node3"><a xlink:href="dir_bb2bcd1ae4be61eb87860e92161ea1c8.html" target="_top" xlink:title="crypto">
<polygon fill="#a885b3" stroke="#404040" points="354,-44.75 308,-44.75 308,-24 354,-24 354,-44.75"/>
<text text-anchor="middle" x="331" y="-30.3" font-family="Arial" font-size="11.00">crypto</text>
</a>
</g>
</g>
<!-- dir_f82e4cc18a2ffd55cdc6892911588b32 -->
<g id="node4" class="node">
<title>dir_f82e4cc18a2ffd55cdc6892911588b32</title>
<g id="a_node4"><a xlink:href="dir_f82e4cc18a2ffd55cdc6892911588b32.html" target="_top" xlink:title="gizmos">
<polygon fill="#a885b3" stroke="#404040" points="290,-44.75 238,-44.75 238,-24 290,-24 290,-44.75"/>
<text text-anchor="middle" x="264" y="-30.3" font-family="Arial" font-size="11.00">gizmos</text>
</a>
</g>
</g>
<!-- dir_7c8d8d365d4992e8f5aa348cd86d4ced -->
<g id="node5" class="node">
<title>dir_7c8d8d365d4992e8f5aa348cd86d4ced</title>
<g id="a_node5"><a xlink:href="dir_7c8d8d365d4992e8f5aa348cd86d4ced.html" target="_top" xlink:title="global">
<polygon fill="#a885b3" stroke="#404040" points="220.25,-44.75 175.75,-44.75 175.75,-24 220.25,-24 220.25,-44.75"/>
<text text-anchor="middle" x="198" y="-30.3" font-family="Arial" font-size="11.00">global</text>
</a>
</g>
</g>
<!-- dir_b12f37765c7b1079f990cb4c3776fe72 -->
<g id="node6" class="node">
<title>dir_b12f37765c7b1079f990cb4c3776fe72</title>
<g id="a_node6"><a xlink:href="dir_b12f37765c7b1079f990cb4c3776fe72.html" target="_top" xlink:title="quick">
<polygon fill="#a885b3" stroke="#404040" points="157.75,-44.75 116.25,-44.75 116.25,-24 157.75,-24 157.75,-44.75"/>
<text text-anchor="middle" x="137" y="-30.3" font-family="Arial" font-size="11.00">quick</text>
</a>
</g>
</g>
<!-- dir_3f181dd110168c01e0f708b9df749247 -->
<g id="node7" class="node">
<title>dir_3f181dd110168c01e0f708b9df749247</title>
<g id="a_node7"><a xlink:href="dir_3f181dd110168c01e0f708b9df749247.html" target="_top" xlink:title="scenegraph">
<polygon fill="#a885b3" stroke="#404040" points="97.88,-44.75 24.12,-44.75 24.12,-24 97.88,-24 97.88,-44.75"/>
<text text-anchor="middle" x="61" y="-30.3" font-family="Arial" font-size="11.00">scenegraph</text>
</a>
</g>
</g>
</g>
</svg>

<g id="navigator" transform="translate(0 0)" fill="#404254">
  <rect fill="#f2f5e9" fill-opacity="0.5" stroke="#606060" stroke-width=".5" x="0" y="0" width="60" height="60"/>
  <use id="zoomplus" xlink:href="#zoomPlus" x="17" y="9" onmousedown="handleZoom(evt,'in')"/>
  <use id="zoomminus" xlink:href="#zoomMin" x="42" y="9" onmousedown="handleZoom(evt,'out')"/>
  <use id="reset" xlink:href="#resetDef" x="30" y="36" onmousedown="handleReset()"/>
   <use id="arrowup" xlink:href="#arrowUp" x="0" y="0" onmousedown="handlePan(0,-1)"/>
  <use id="arrowright" xlink:href="#arrowRight" x="0" y="0" onmousedown="handlePan(1,0)"/>
  <use id="arrowdown" xlink:href="#arrowDown" x="0" y="0" onmousedown="handlePan(0,1)"/>
  <use id="arrowleft" xlink:href="#arrowLeft" x="0" y="0" onmousedown="handlePan(-1,0)"/>
</g>
<svg viewBox="0 0 15 15" width="100%" height="30px" preserveAspectRatio="xMaxYMin meet">
 <g id="arrow_out" transform="scale(0.3 0.3)">
  <a xlink:href="dir_72207ca2e38c1e1375ea23aa1480da49_dep_org.svg" target="_base">
   <rect id="button" ry="5" rx="5" y="6" x="6" height="38" width="38"
        fill="#f2f5e9" fill-opacity="0.5" stroke="#606060" stroke-width="1.0"/>
   <path id="arrow"
     d="M 11.500037,31.436501 C 11.940474,20.09759 22.043105,11.32322 32.158766,21.979434 L 37.068811,17.246167 C 37.068811,17.246167 37.088388,32 37.088388,32 L 22.160133,31.978069 C 22.160133,31.978069 26.997745,27.140456 26.997745,27.140456 C 18.528582,18.264221 13.291696,25.230495 11.500037,31.436501 z"
     style="fill:#404040;"/>
  </a>
 </g>
</svg>

<style type='text/css'>
<![CDATA[
[data-mouse-over-selected='false'] { opacity: 0.7; }
[data-mouse-over-selected='true']  { opacity: 1.0; }
]]>
</style>
<script type="application/ecmascript"><![CDATA[
document.addEventListener('DOMContentLoaded', (event) => {
  highlightEdges();
  highlightAdjacentNodes();
});
]]></script>
</svg>
