<?xml version="1.0" encoding="UTF-8" standalone="no"?>
<!DOCTYPE svg PUBLIC "-//W3C//DTD SVG 1.1//EN"
 "http://www.w3.org/Graphics/SVG/1.1/DTD/svg11.dtd">
<!-- Generated by graphviz version 8.1.0 (20230707.0739)
 -->
<!-- Title: c++ Pages: 1 -->
<!--zoomable 154 -->

<svg id="main" version="1.1" xmlns="http://www.w3.org/2000/svg" xmlns:xlink="http://www.w3.org/1999/xlink" xml:space="preserve" onload="init(evt)">
<style type="text/css"><![CDATA[
.node, .edge {opacity: 0.7;}
.node.selected, .edge.selected {opacity: 1;}
.edge:hover path { stroke: red; }
.edge:hover polygon { stroke: red; fill: red; }
]]></style>

<defs>
  <circle id="rim" cx="0" cy="0" r="7"/>
  <circle id="rim2" cx="0" cy="0" r="3.5"/>
  <g id="zoomPlus">
    <use xlink:href="#rim" fill="#404040"><set attributeName="fill" to="#808080" begin="zoomplus.mouseover" end="zoomplus.mouseout"/></use>
    <path d="M-4,0h8M0,-4v8" fill="none" stroke="white" stroke-width="1.5" pointer-events="none"/>
  </g>
  <g id="zoomMin">
    <use xlink:href="#rim" fill="#404040"><set attributeName="fill" to="#808080" begin="zoomminus.mouseover" end="zoomminus.mouseout"/></use>
    <path d="M-4,0h8" fill="none" stroke="white" stroke-width="1.5" pointer-events="none"/>
  </g>
  <g id="arrowUp" transform="translate(30 24)">
    <use xlink:href="#rim"/>
    <path pointer-events="none" fill="none" stroke="white" stroke-width="1.5" d="M0,-3.0v7 M-2.5,-0.5L0,-3.0L2.5,-0.5"/>
  </g>
  <g id="arrowRight" transform="rotate(90) translate(36 -43)">
    <use xlink:href="#rim"/>
    <path pointer-events="none" fill="none" stroke="white" stroke-width="1.5" d="M0,-3.0v7 M-2.5,-0.5L0,-3.0L2.5,-0.5"/>
  </g>
  <g id="arrowDown" transform="rotate(180) translate(-30 -48)">
    <use xlink:href="#rim"/>
    <path pointer-events="none" fill="none" stroke="white" stroke-width="1.5" d="M0,-3.0v7 M-2.5,-0.5L0,-3.0L2.5,-0.5"/>
  </g>
  <g id="arrowLeft" transform="rotate(270) translate(-36 17)">
    <use xlink:href="#rim"/>
    <path pointer-events="none" fill="none" stroke="white" stroke-width="1.5" d="M0,-3.0v7 M-2.5,-0.5L0,-3.0L2.5,-0.5"/>
  </g>
  <g id="resetDef">
    <use xlink:href="#rim2" fill="#404040"><set attributeName="fill" to="#808080" begin="reset.mouseover" end="reset.mouseout"/></use>
  </g>
</defs>
<script type="application/ecmascript">
var viewWidth = 569;
var viewHeight = 154;
var sectionId = 'dynsection-0';
</script>
<script type="application/ecmascript" xlink:href="svg.min.js"/>
<svg id="graph" class="graph">
<g id="viewport">
<title>c++</title>
<g id="clust1" class="cluster">
<title>clusterdir_68267d1309a1af8e8297ef4c3efbcdba</title>
<g id="a_clust1"><a xlink:href="dir_68267d1309a1af8e8297ef4c3efbcdba.html" target="_top" xlink:title="src">
<polygon fill="#ece5ef" stroke="#404040" stroke-dasharray="5,2" points="8,-8 8,-138.25 553,-138.25 553,-8 8,-8"/>
<text text-anchor="middle" x="280.5" y="-123.8" font-family="Arial" font-size="11.00">src</text>
</a>
</g>
</g>
<g id="clust2" class="cluster">
<title>clusterdir_fcb2a60e1810a51543a3cc3a113d0956</title>
<g id="a_clust2"><a xlink:href="dir_fcb2a60e1810a51543a3cc3a113d0956.html" target="_top">
<polygon fill="#ece5ef" stroke="#404040" stroke-width="2" points="16,-16 16,-109.5 545,-109.5 545,-16 16,-16"/>
</a>
</g>
</g>
<!-- dir_fcb2a60e1810a51543a3cc3a113d0956 -->
<g id="node1" class="node">
<title>dir_fcb2a60e1810a51543a3cc3a113d0956</title>
<text text-anchor="middle" x="519" y="-87.05" font-family="Arial" font-size="11.00">c++</text>
</g>
<!-- dir_2658f57a99a735e2e16983d97ef2d726 -->
<g id="node7" class="node">
<title>dir_2658f57a99a735e2e16983d97ef2d726</title>
<g id="a_node7"><a xlink:href="dir_2658f57a99a735e2e16983d97ef2d726.html" target="_top" xlink:title="network">
<polygon fill="#a885b3" stroke="#404040" points="537.12,-44.75 482.88,-44.75 482.88,-24 537.12,-24 537.12,-44.75"/>
<text text-anchor="middle" x="510" y="-30.3" font-family="Arial" font-size="11.00">network</text>
</a>
</g>
</g>
<!-- dir_fcb2a60e1810a51543a3cc3a113d0956&#45;&gt;dir_2658f57a99a735e2e16983d97ef2d726 -->
<g id="edge1" class="edge">
<title>dir_fcb2a60e1810a51543a3cc3a113d0956&#45;&gt;dir_2658f57a99a735e2e16983d97ef2d726</title>
<path fill="none" stroke="#63b8ff" d="M517.51,-81.08C516.38,-74.16 514.76,-64.33 513.32,-55.57"/>
<polygon fill="#63b8ff" stroke="#63b8ff" points="516.66,-55.28 511.58,-45.98 509.75,-56.42 516.66,-55.28"/>
<g id="a_edge1&#45;headlabel"><a xlink:href="dir_000001_000020.html" target="_top" xlink:title="1">
<text text-anchor="middle" x="520.04" y="-53.29" font-family="Arial" font-size="11.00" fill="#63b8ff">1</text>
</a>
</g>
</g>
<!-- dir_c5171aff2693f781e67d327e1a130229 -->
<g id="node2" class="node">
<title>dir_c5171aff2693f781e67d327e1a130229</title>
<g id="a_node2"><a xlink:href="dir_c5171aff2693f781e67d327e1a130229.html" target="_top" xlink:title="application">
<polygon fill="#a885b3" stroke="#404040" points="482.88,-101.5 415.12,-101.5 415.12,-80.75 482.88,-80.75 482.88,-101.5"/>
<text text-anchor="middle" x="449" y="-87.05" font-family="Arial" font-size="11.00">application</text>
</a>
</g>
</g>
<!-- dir_48a82678458ea86f0aa1c1f2db0ce8e0 -->
<g id="node3" class="node">
<title>dir_48a82678458ea86f0aa1c1f2db0ce8e0</title>
<g id="a_node3"><a xlink:href="dir_48a82678458ea86f0aa1c1f2db0ce8e0.html" target="_top" xlink:title="config">
<polygon fill="#a885b3" stroke="#404040" points="396.62,-101.5 351.38,-101.5 351.38,-80.75 396.62,-80.75 396.62,-101.5"/>
<text text-anchor="middle" x="374" y="-87.05" font-family="Arial" font-size="11.00">config</text>
</a>
</g>
</g>
<!-- dir_392cd7b15ef9ed290b0b4dd321bc05ae -->
<g id="node4" class="node">
<title>dir_392cd7b15ef9ed290b0b4dd321bc05ae</title>
<g id="a_node4"><a xlink:href="dir_392cd7b15ef9ed290b0b4dd321bc05ae.html" target="_top" xlink:title="filesystem">
<polygon fill="#a885b3" stroke="#404040" points="333.75,-101.5 268.25,-101.5 268.25,-80.75 333.75,-80.75 333.75,-101.5"/>
<text text-anchor="middle" x="301" y="-87.05" font-family="Arial" font-size="11.00">filesystem</text>
</a>
</g>
</g>
<!-- dir_26318e8bd4be45baf98311c3e5c1a731 -->
<g id="node5" class="node">
<title>dir_26318e8bd4be45baf98311c3e5c1a731</title>
<g id="a_node5"><a xlink:href="dir_26318e8bd4be45baf98311c3e5c1a731.html" target="_top" xlink:title="gui">
<polygon fill="#a885b3" stroke="#404040" points="250.12,-101.5 219.88,-101.5 219.88,-80.75 250.12,-80.75 250.12,-101.5"/>
<text text-anchor="middle" x="235" y="-87.05" font-family="Arial" font-size="11.00">gui</text>
</a>
</g>
</g>
<!-- dir_d88003ba6281a9447bd5134cfe1c08c9 -->
<g id="node6" class="node">
<title>dir_d88003ba6281a9447bd5134cfe1c08c9</title>
<g id="a_node6"><a xlink:href="dir_d88003ba6281a9447bd5134cfe1c08c9.html" target="_top" xlink:title="map">
<polygon fill="#a885b3" stroke="#404040" points="201.88,-101.5 164.12,-101.5 164.12,-80.75 201.88,-80.75 201.88,-101.5"/>
<text text-anchor="middle" x="183" y="-87.05" font-family="Arial" font-size="11.00">map</text>
</a>
</g>
</g>
<!-- dir_4ceb41d6cb119213b0b762a086661145 -->
<g id="node8" class="node">
<title>dir_4ceb41d6cb119213b0b762a086661145</title>
<g id="a_node8"><a xlink:href="dir_4ceb41d6cb119213b0b762a086661145.html" target="_top" xlink:title="processing">
<polygon fill="#a885b3" stroke="#404040" points="146,-101.5 76,-101.5 76,-80.75 146,-80.75 146,-101.5"/>
<text text-anchor="middle" x="111" y="-87.05" font-family="Arial" font-size="11.00">processing</text>
</a>
</g>
</g>
<!-- dir_5eaa9160e914aa78085dedce4b00e66f -->
<g id="node9" class="node">
<title>dir_5eaa9160e914aa78085dedce4b00e66f</title>
<g id="a_node9"><a xlink:href="dir_5eaa9160e914aa78085dedce4b00e66f.html" target="_top" xlink:title="sdk">
<polygon fill="#a885b3" stroke="#404040" points="57.62,-101.5 24.38,-101.5 24.38,-80.75 57.62,-80.75 57.62,-101.5"/>
<text text-anchor="middle" x="41" y="-87.05" font-family="Arial" font-size="11.00">sdk</text>
</a>
</g>
</g>
</g>
</svg>

<g id="navigator" transform="translate(0 0)" fill="#404254">
  <rect fill="#f2f5e9" fill-opacity="0.5" stroke="#606060" stroke-width=".5" x="0" y="0" width="60" height="60"/>
  <use id="zoomplus" xlink:href="#zoomPlus" x="17" y="9" onmousedown="handleZoom(evt,'in')"/>
  <use id="zoomminus" xlink:href="#zoomMin" x="42" y="9" onmousedown="handleZoom(evt,'out')"/>
  <use id="reset" xlink:href="#resetDef" x="30" y="36" onmousedown="handleReset()"/>
   <use id="arrowup" xlink:href="#arrowUp" x="0" y="0" onmousedown="handlePan(0,-1)"/>
  <use id="arrowright" xlink:href="#arrowRight" x="0" y="0" onmousedown="handlePan(1,0)"/>
  <use id="arrowdown" xlink:href="#arrowDown" x="0" y="0" onmousedown="handlePan(0,1)"/>
  <use id="arrowleft" xlink:href="#arrowLeft" x="0" y="0" onmousedown="handlePan(-1,0)"/>
</g>
<svg viewBox="0 0 15 15" width="100%" height="30px" preserveAspectRatio="xMaxYMin meet">
 <g id="arrow_out" transform="scale(0.3 0.3)">
  <a xlink:href="dir_fcb2a60e1810a51543a3cc3a113d0956_dep_org.svg" target="_base">
   <rect id="button" ry="5" rx="5" y="6" x="6" height="38" width="38"
        fill="#f2f5e9" fill-opacity="0.5" stroke="#606060" stroke-width="1.0"/>
   <path id="arrow"
     d="M 11.500037,31.436501 C 11.940474,20.09759 22.043105,11.32322 32.158766,21.979434 L 37.068811,17.246167 C 37.068811,17.246167 37.088388,32 37.088388,32 L 22.160133,31.978069 C 22.160133,31.978069 26.997745,27.140456 26.997745,27.140456 C 18.528582,18.264221 13.291696,25.230495 11.500037,31.436501 z"
     style="fill:#404040;"/>
  </a>
 </g>
</svg>

<style type='text/css'>
<![CDATA[
[data-mouse-over-selected='false'] { opacity: 0.7; }
[data-mouse-over-selected='true']  { opacity: 1.0; }
]]>
</style>
<script type="application/ecmascript"><![CDATA[
document.addEventListener('DOMContentLoaded', (event) => {
  highlightEdges();
  highlightAdjacentNodes();
});
]]></script>
</svg>
