<?xml version="1.0" encoding="UTF-8" standalone="no"?>
<!DOCTYPE svg PUBLIC "-//W3C//DTD SVG 1.1//EN"
 "http://www.w3.org/Graphics/SVG/1.1/DTD/svg11.dtd">
<!-- Generated by graphviz version 8.1.0 (20230707.0739)
 -->
<!-- Title: Легенда Pages: 1 -->
<svg width="544pt" height="168pt"
 viewBox="0.00 0.00 543.50 167.75" xmlns="http://www.w3.org/2000/svg" xmlns:xlink="http://www.w3.org/1999/xlink">
<g id="graph0" class="graph" transform="scale(1 1) rotate(0) translate(4 163.75)">
<title>Легенда</title>
<!-- Node9 -->
<g id="Node000009" class="node">
<title>Node9</title>
<g id="a_Node000009"><a xlink:title=" ">
<polygon fill="#999999" stroke="#666666" points="312.38,-20.75 255.12,-20.75 255.12,0 312.38,0 312.38,-20.75"/>
<text text-anchor="middle" x="283.75" y="-6.3" font-family="Arial" font-size="11.00">Inherited</text>
</a>
</g>
</g>
<!-- Node10 -->
<g id="Node000010" class="node">
<title>Node10</title>
<g id="a_Node000010"><a xlink:title=" ">
<polygon fill="white" stroke="#666666" points="71.5,-90.25 0,-90.25 0,-69.5 71.5,-69.5 71.5,-90.25"/>
<text text-anchor="middle" x="35.75" y="-75.8" font-family="Arial" font-size="11.00">PublicBase</text>
</a>
</g>
</g>
<!-- Node10&#45;&gt;Node9 -->
<g id="edge1" class="edge">
<title>Node10&#45;&gt;Node9</title>
<g id="a_edge1"><a xlink:title=" ">
<path fill="none" stroke="#63b8ff" d="M82.17,-66.24C132.91,-52.43 212.6,-30.74 254.99,-19.2"/>
<polygon fill="#63b8ff" stroke="#63b8ff" points="81.54,-63.06 72.81,-69.06 83.38,-69.81 81.54,-63.06"/>
</a>
</g>
</g>
<!-- Node11 -->
<g id="Node000011" class="node">
<title>Node11</title>
<g id="a_Node000011"><a xlink:title=" ">
<polygon fill="#fff0f0" stroke="red" points="68.5,-159.75 3,-159.75 3,-139 68.5,-139 68.5,-159.75"/>
<text text-anchor="middle" x="35.75" y="-145.3" font-family="Arial" font-size="11.00">Truncated</text>
</a>
</g>
</g>
<!-- Node11&#45;&gt;Node10 -->
<g id="edge2" class="edge">
<title>Node11&#45;&gt;Node10</title>
<g id="a_edge2"><a xlink:title=" ">
<path fill="none" stroke="#63b8ff" d="M35.75,-127.95C35.75,-115.53 35.75,-100.25 35.75,-90.53"/>
<polygon fill="#63b8ff" stroke="#63b8ff" points="32.25,-127.7 35.75,-137.7 39.25,-127.7 32.25,-127.7"/>
</a>
</g>
</g>
<!-- Node13 -->
<g id="node4" class="node">
<title>Node13</title>
<g id="a_node4"><a xlink:title=" ">
<polygon fill="white" stroke="#666666" points="178.12,-90.25 89.38,-90.25 89.38,-69.5 178.12,-69.5 178.12,-90.25"/>
<text text-anchor="middle" x="133.75" y="-75.8" font-family="Arial" font-size="11.00">ProtectedBase</text>
</a>
</g>
</g>
<!-- Node13&#45;&gt;Node9 -->
<g id="edge3" class="edge">
<title>Node13&#45;&gt;Node9</title>
<g id="a_edge3"><a xlink:title=" ">
<path fill="none" stroke="darkgreen" d="M165.59,-64.55C194.57,-51.51 236.57,-32.6 261.91,-21.2"/>
<polygon fill="darkgreen" stroke="darkgreen" points="164.24,-61.76 156.56,-69.06 167.12,-68.15 164.24,-61.76"/>
</a>
</g>
</g>
<!-- Node14 -->
<g id="node5" class="node">
<title>Node14</title>
<g id="a_node5"><a xlink:title=" ">
<polygon fill="white" stroke="#666666" points="271.38,-90.25 196.12,-90.25 196.12,-69.5 271.38,-69.5 271.38,-90.25"/>
<text text-anchor="middle" x="233.75" y="-75.8" font-family="Arial" font-size="11.00">PrivateBase</text>
</a>
</g>
</g>
<!-- Node14&#45;&gt;Node9 -->
<g id="edge4" class="edge">
<title>Node14&#45;&gt;Node9</title>
<g id="a_edge4"><a xlink:title=" ">
<path fill="none" stroke="#8b1a1a" d="M247.2,-60.72C256.66,-47.94 268.96,-31.35 276.6,-21.03"/>
<polygon fill="#8b1a1a" stroke="#8b1a1a" points="244.05,-58.08 240.91,-68.2 249.68,-62.25 244.05,-58.08"/>
</a>
</g>
</g>
<!-- Node15 -->
<g id="Node000015" class="node">
<title>Node15</title>
<g id="a_Node000015"><a xlink:title=" ">
<polygon fill="#e0e0e0" stroke="#999999" points="379.88,-90.25 289.62,-90.25 289.62,-69.5 379.88,-69.5 379.88,-90.25"/>
<text text-anchor="middle" x="334.75" y="-75.8" font-family="Arial" font-size="11.00">Undocumented</text>
</a>
</g>
</g>
<!-- Node15&#45;&gt;Node9 -->
<g id="edge5" class="edge">
<title>Node15&#45;&gt;Node9</title>
<g id="a_edge5"><a xlink:title=" ">
<path fill="none" stroke="#63b8ff" d="M321.03,-60.72C311.38,-47.94 298.84,-31.35 291.04,-21.03"/>
<polygon fill="#63b8ff" stroke="#63b8ff" points="318.62,-62.34 327.44,-68.2 324.21,-58.12 318.62,-62.34"/>
</a>
</g>
</g>
<!-- Node16 -->
<g id="node7" class="node">
<title>Node16</title>
<g id="a_node7"><a xlink:title=" ">
<polygon fill="white" stroke="#666666" points="475.5,-90.25 398,-90.25 398,-69.5 475.5,-69.5 475.5,-90.25"/>
<text text-anchor="middle" x="436.75" y="-75.8" font-family="Arial" font-size="11.00">Templ&lt; int &gt;</text>
</a>
</g>
</g>
<!-- Node16&#45;&gt;Node9 -->
<g id="edge6" class="edge">
<title>Node16&#45;&gt;Node9</title>
<g id="a_edge6"><a xlink:title=" ">
<path fill="none" stroke="#63b8ff" d="M404.66,-64.72C375.09,-51.67 331.98,-32.65 306.02,-21.2"/>
<polygon fill="#63b8ff" stroke="#63b8ff" points="402.94,-68.23 413.5,-69.06 405.77,-61.82 402.94,-68.23"/>
</a>
</g>
</g>
<!-- Node17 -->
<g id="node8" class="node">
<title>Node17</title>
<g id="a_node8"><a xlink:title=" ">
<polygon fill="white" stroke="#666666" points="473.25,-159.75 400.25,-159.75 400.25,-139 473.25,-139 473.25,-159.75"/>
<text text-anchor="middle" x="436.75" y="-145.3" font-family="Arial" font-size="11.00">Templ&lt; T &gt;</text>
</a>
</g>
</g>
<!-- Node17&#45;&gt;Node16 -->
<g id="edge7" class="edge">
<title>Node17&#45;&gt;Node16</title>
<g id="a_edge7"><a xlink:title=" ">
<path fill="none" stroke="orange" stroke-dasharray="5,2" d="M436.75,-127.95C436.75,-115.53 436.75,-100.25 436.75,-90.53"/>
<polygon fill="orange" stroke="orange" points="433.25,-127.7 436.75,-137.7 440.25,-127.7 433.25,-127.7"/>
</a>
</g>
<text text-anchor="middle" x="452.12" y="-110.55" font-family="Arial" font-size="11.00" fill="grey">&lt; int &gt;</text>
</g>
<!-- Node18 -->
<g id="node9" class="node">
<title>Node18</title>
<g id="a_node9"><a xlink:title=" ">
<polygon fill="white" stroke="#666666" points="535.5,-90.25 494,-90.25 494,-69.5 535.5,-69.5 535.5,-90.25"/>
<text text-anchor="middle" x="514.75" y="-75.8" font-family="Arial" font-size="11.00">Used</text>
</a>
</g>
</g>
<!-- Node18&#45;&gt;Node9 -->
<g id="edge8" class="edge">
<title>Node18&#45;&gt;Node9</title>
<g id="a_edge8"><a xlink:title=" ">
<path fill="none" stroke="#9a32cd" stroke-dasharray="5,2" d="M483.51,-69.17C416.77,-49.16 349.98,-30.09 312.77,-19.56"/>
<polygon fill="#9a32cd" stroke="#9a32cd" points="482.2,-72.73 492.79,-72.26 484.22,-66.03 482.2,-72.73"/>
</a>
</g>
<text text-anchor="middle" x="451.88" y="-41.05" font-family="Arial" font-size="11.00" fill="grey">m_usedClass</text>
</g>
</g>
</svg>
