<?xml version="1.0" encoding="UTF-8" standalone="no"?>
<!DOCTYPE svg PUBLIC "-//W3C//DTD SVG 1.1//EN"
 "http://www.w3.org/Graphics/SVG/1.1/DTD/svg11.dtd">
<!-- Generated by graphviz version 8.1.0 (20230707.0739)
 -->
<!-- Title: Иерархия классов. Графический вид. Pages: 1 -->
<svg width="629pt" height="263pt"
 viewBox="0.00 0.00 628.75 262.75" xmlns="http://www.w3.org/2000/svg" xmlns:xlink="http://www.w3.org/1999/xlink">
<g id="graph0" class="graph" transform="scale(1 1) rotate(0) translate(4 258.75)">
<title>Иерархия классов. Графический вид.</title>
<!-- Node0 -->
<g id="Node000000" class="node">
<title>Node0</title>
<g id="a_Node000000"><a xlink:href="d8/dec/class_quasar_s_d_k_1_1_i_o_1_1_base64_object.html" target="_top" xlink:title="Объект, способный конвертировать свои бинарные данные в base64&#45;строку.">
<polygon fill="white" stroke="#666666" points="471.25,-137.75 385.5,-137.75 385.5,-117 471.25,-117 471.25,-137.75"/>
<text text-anchor="middle" x="428.38" y="-123.3" font-family="Arial" font-size="11.00">Base64Object</text>
</a>
</g>
</g>
<!-- Node1 -->
<g id="Node000001" class="node">
<title>Node1</title>
<g id="a_Node000001"><a xlink:href="d1/d05/class_quasar_s_d_k_1_1_map_1_1_map_image_segment.html" target="_top" xlink:title="Сегмент или полное радиолокационное изображение на карте, сохраненное в Base64&#45;строке.">
<polygon fill="white" stroke="#666666" points="619.25,-137.75 508.75,-137.75 508.75,-117 619.25,-117 619.25,-137.75"/>
<text text-anchor="middle" x="564" y="-123.3" font-family="Arial" font-size="11.00">MapImageSegment</text>
</a>
</g>
</g>
<!-- Node0&#45;&gt;Node1 -->
<g id="edge1_Node000000_Node000001" class="edge">
<title>Node0&#45;&gt;Node1</title>
<g id="a_edge1_Node000000_Node000001"><a xlink:title=" ">
<path fill="none" stroke="#63b8ff" d="M482.55,-127.38C491.01,-127.38 499.77,-127.38 508.26,-127.38"/>
<polygon fill="#63b8ff" stroke="#63b8ff" points="482.65,-123.88 472.65,-127.38 482.65,-130.88 482.65,-123.88"/>
</a>
</g>
</g>
<!-- Node13 -->
<g id="Node000013" class="node">
<title>Node13</title>
<g id="a_Node000013"><a xlink:href="de/de2/class_i_colorable.html" target="_top" xlink:title=" ">
<polygon fill="white" stroke="#666666" points="326.62,-215.75 261.88,-215.75 261.88,-195 326.62,-195 326.62,-215.75"/>
<text text-anchor="middle" x="294.25" y="-201.3" font-family="Arial" font-size="11.00">IColorable</text>
</a>
</g>
</g>
<!-- Node11 -->
<g id="Node000011" class="node">
<title>Node11</title>
<g id="a_Node000011"><a xlink:href="d4/d7f/class_map_1_1_geo_marker.html" target="_top" xlink:title=" ">
<polygon fill="white" stroke="#666666" points="463,-215.75 393.75,-215.75 393.75,-195 463,-195 463,-215.75"/>
<text text-anchor="middle" x="428.38" y="-201.3" font-family="Arial" font-size="11.00">GeoMarker</text>
</a>
</g>
</g>
<!-- Node13&#45;&gt;Node11 -->
<g id="edge2_Node000013_Node000011" class="edge">
<title>Node13&#45;&gt;Node11</title>
<g id="a_edge2_Node000013_Node000011"><a xlink:title=" ">
<path fill="none" stroke="#63b8ff" d="M337.76,-205.38C355.85,-205.38 376.67,-205.38 393.68,-205.38"/>
<polygon fill="#63b8ff" stroke="#63b8ff" points="337.9,-201.88 327.9,-205.38 337.9,-208.88 337.9,-201.88"/>
</a>
</g>
</g>
<!-- Node12 -->
<g id="Node000012" class="node">
<title>Node12</title>
<g id="a_Node000012"><a xlink:href="db/d2b/class_map_1_1_planner_mark.html" target="_top" xlink:title="Геометка с заданной командой для планировщика.">
<polygon fill="white" stroke="#666666" points="602.38,-215.75 525.62,-215.75 525.62,-195 602.38,-195 602.38,-215.75"/>
<text text-anchor="middle" x="564" y="-201.3" font-family="Arial" font-size="11.00">PlannerMark</text>
</a>
</g>
</g>
<!-- Node11&#45;&gt;Node12 -->
<g id="edge3_Node000011_Node000012" class="edge">
<title>Node11&#45;&gt;Node12</title>
<g id="a_edge3_Node000011_Node000012"><a xlink:title=" ">
<path fill="none" stroke="#63b8ff" d="M474.01,-205.38C490.62,-205.38 509.29,-205.38 525.23,-205.38"/>
<polygon fill="#63b8ff" stroke="#63b8ff" points="474.44,-201.88 464.44,-205.38 474.44,-208.88 474.44,-201.88"/>
</a>
</g>
</g>
<!-- Node6 -->
<g id="Node000006" class="node">
<title>Node6</title>
<g id="a_Node000006"><a xlink:href="df/dad/class_quasar_s_d_k_1_1_i_o_1_1_i_file.html" target="_top" xlink:title="Интерфейс, описывающий абстрактный файл в файловой системе.">
<polygon fill="white" stroke="#666666" points="172.62,-20.75 137.12,-20.75 137.12,0 172.62,0 172.62,-20.75"/>
<text text-anchor="middle" x="154.88" y="-6.3" font-family="Arial" font-size="11.00">IFile</text>
</a>
</g>
</g>
<!-- Node5 -->
<g id="Node000005" class="node">
<title>Node5</title>
<g id="a_Node000005"><a xlink:href="d3/d7e/class_quasar_s_d_k_1_1_i_o_1_1_basic_file.html" target="_top" xlink:title="Абстрактный класс для существующего файла в файловой системе.">
<polygon fill="white" stroke="#666666" points="324.75,-20.75 263.75,-20.75 263.75,0 324.75,0 324.75,-20.75"/>
<text text-anchor="middle" x="294.25" y="-6.3" font-family="Arial" font-size="11.00">BasicFile</text>
</a>
</g>
</g>
<!-- Node6&#45;&gt;Node5 -->
<g id="edge4_Node000006_Node000005" class="edge">
<title>Node6&#45;&gt;Node5</title>
<g id="a_edge4_Node000006_Node000005"><a xlink:title=" ">
<path fill="none" stroke="#63b8ff" d="M183.8,-10.38C206.92,-10.38 239.69,-10.38 263.34,-10.38"/>
<polygon fill="#63b8ff" stroke="#63b8ff" points="184,-6.88 174,-10.38 184,-13.88 184,-6.88"/>
</a>
</g>
</g>
<!-- Node4 -->
<g id="Node000004" class="node">
<title>Node4</title>
<g id="a_Node000004"><a xlink:href="d4/d32/class_quasar_s_d_k_1_1_i_o_1_1_draft_file.html" target="_top" xlink:title="Класс, описывающий черновик файла &#45; файл, который еще не был сохранен на диск, но готовится к этому.">
<polygon fill="white" stroke="#666666" points="457,-40.75 399.75,-40.75 399.75,-20 457,-20 457,-40.75"/>
<text text-anchor="middle" x="428.38" y="-26.3" font-family="Arial" font-size="11.00">DraftFile</text>
</a>
</g>
</g>
<!-- Node5&#45;&gt;Node4 -->
<g id="edge5_Node000005_Node000004" class="edge">
<title>Node5&#45;&gt;Node4</title>
<g id="a_edge5_Node000005_Node000004"><a xlink:title=" ">
<path fill="none" stroke="#63b8ff" d="M335.88,-16.53C356.44,-19.64 380.87,-23.34 399.32,-26.13"/>
<polygon fill="#63b8ff" stroke="#63b8ff" points="336.64,-12.95 326.23,-14.91 335.59,-19.87 336.64,-12.95"/>
</a>
</g>
</g>
<!-- Node3 -->
<g id="Node000003" class="node">
<title>Node3</title>
<g id="a_Node000003"><a xlink:href="dc/dc3/class_quasar_s_d_k_1_1_map_1_1_complete_map_image.html" target="_top" xlink:title="Радиолокационное изображение на карте, сохраненное в файл.">
<polygon fill="white" stroke="#666666" points="620.75,-69.75 507.25,-69.75 507.25,-49 620.75,-49 620.75,-69.75"/>
<text text-anchor="middle" x="564" y="-55.3" font-family="Arial" font-size="11.00">CompleteMapImage</text>
</a>
</g>
</g>
<!-- Node4&#45;&gt;Node3 -->
<g id="edge6_Node000004_Node000003" class="edge">
<title>Node4&#45;&gt;Node3</title>
<g id="a_edge6_Node000004_Node000003"><a xlink:title=" ">
<path fill="none" stroke="#63b8ff" d="M467.75,-38.7C481.9,-41.77 498.14,-45.3 513.16,-48.56"/>
<polygon fill="#63b8ff" stroke="#63b8ff" points="468.9,-35.15 458.39,-36.45 467.42,-42 468.9,-35.15"/>
</a>
</g>
</g>
<!-- Node15 -->
<g id="Node000015" class="node">
<title>Node15</title>
<g id="a_Node000015"><a xlink:href="d5/d1e/class_quasar_s_d_k_1_1_map_1_1_i_map_object.html" target="_top" xlink:title="Интерфейс, описывающий абстрактный объект карты.">
<polygon fill="white" stroke="#666666" points="70.75,-98.75 0,-98.75 0,-78 70.75,-78 70.75,-98.75"/>
<text text-anchor="middle" x="35.38" y="-84.3" font-family="Arial" font-size="11.00">IMapObject</text>
</a>
</g>
</g>
<!-- Node8 -->
<g id="Node000008" class="node">
<title>Node8</title>
<g id="a_Node000008"><a xlink:href="d7/ddf/class_quasar_s_d_k_1_1_map_1_1_basic_map_object.html" target="_top" xlink:title="Абстрактный класс, реализующий функции интерфейса IMapObject, за исключением масштаба.">
<polygon fill="white" stroke="#666666" points="203,-98.75 106.75,-98.75 106.75,-78 203,-78 203,-98.75"/>
<text text-anchor="middle" x="154.88" y="-84.3" font-family="Arial" font-size="11.00">BasicMapObject</text>
</a>
</g>
</g>
<!-- Node15&#45;&gt;Node8 -->
<g id="edge7_Node000015_Node000008" class="edge">
<title>Node15&#45;&gt;Node8</title>
<g id="a_edge7_Node000015_Node000008"><a xlink:title=" ">
<path fill="none" stroke="#63b8ff" d="M81.75,-88.38C89.84,-88.38 98.29,-88.38 106.44,-88.38"/>
<polygon fill="#63b8ff" stroke="#63b8ff" points="81.99,-84.88 71.99,-88.38 81.99,-91.88 81.99,-84.88"/>
</a>
</g>
</g>
<!-- Node7 -->
<g id="Node000007" class="node">
<title>Node7</title>
<g id="a_Node000007"><a xlink:href="d9/dd3/class_quasar_s_d_k_1_1_map_1_1_f_g_s_map_object.html" target="_top" xlink:title="Базовый класс для объектов карты, которые имеют четкую привязку в метрах по размеру.">
<polygon fill="white" stroke="#666666" points="339.75,-98.75 248.75,-98.75 248.75,-78 339.75,-78 339.75,-98.75"/>
<text text-anchor="middle" x="294.25" y="-84.3" font-family="Arial" font-size="11.00">FGSMapObject</text>
</a>
</g>
</g>
<!-- Node8&#45;&gt;Node7 -->
<g id="edge8_Node000008_Node000007" class="edge">
<title>Node8&#45;&gt;Node7</title>
<g id="a_edge8_Node000008_Node000007"><a xlink:title=" ">
<path fill="none" stroke="#63b8ff" d="M214.08,-88.38C225.65,-88.38 237.63,-88.38 248.66,-88.38"/>
<polygon fill="#63b8ff" stroke="#63b8ff" points="214.15,-84.88 204.15,-88.38 214.15,-91.88 214.15,-84.88"/>
</a>
</g>
</g>
<!-- Node9 -->
<g id="Node000009" class="node">
<title>Node9</title>
<g id="a_Node000009"><a xlink:href="da/d1a/class_quasar_s_d_k_1_1_map_1_1_scalable_map_object.html" target="_top" xlink:title=" ">
<polygon fill="white" stroke="#666666" points="349.5,-59.75 239,-59.75 239,-39 349.5,-39 349.5,-59.75"/>
<text text-anchor="middle" x="294.25" y="-45.3" font-family="Arial" font-size="11.00">ScalableMapObject</text>
</a>
</g>
</g>
<!-- Node8&#45;&gt;Node9 -->
<g id="edge12_Node000008_Node000009" class="edge">
<title>Node8&#45;&gt;Node9</title>
<g id="a_edge12_Node000008_Node000009"><a xlink:title=" ">
<path fill="none" stroke="#63b8ff" d="M204.27,-74.64C220.97,-69.89 239.43,-64.65 255.19,-60.18"/>
<polygon fill="#63b8ff" stroke="#63b8ff" points="203.81,-71.41 195.14,-77.51 205.72,-78.15 203.81,-71.41"/>
</a>
</g>
</g>
<!-- Node10 -->
<g id="Node000010" class="node">
<title>Node10</title>
<g id="a_Node000010"><a xlink:href="d5/daf/class_quasar_s_d_k_1_1_map_1_1_screen_map_object.html" target="_top" xlink:title="Базовый класс для объектов карты, привязанных по размеру к экрану.">
<polygon fill="white" stroke="#666666" points="346.12,-254.75 242.38,-254.75 242.38,-234 346.12,-234 346.12,-254.75"/>
<text text-anchor="middle" x="294.25" y="-240.3" font-family="Arial" font-size="11.00">ScreenMapObject</text>
</a>
</g>
</g>
<!-- Node8&#45;&gt;Node10 -->
<g id="edge13_Node000008_Node000010" class="edge">
<title>Node8&#45;&gt;Node10</title>
<g id="a_edge13_Node000008_Node000010"><a xlink:title=" ">
<path fill="none" stroke="#63b8ff" d="M163.5,-109.29C175.3,-138.9 200.7,-192.91 239,-224.38 243.5,-228.07 248.74,-231.12 254.17,-233.62"/>
<polygon fill="#63b8ff" stroke="#63b8ff" points="166.49,-108.32 159.64,-100.24 159.96,-110.83 166.49,-108.32"/>
</a>
</g>
</g>
<!-- Node2 -->
<g id="Node000002" class="node">
<title>Node2</title>
<g id="a_Node000002"><a xlink:href="df/d2b/class_quasar_s_d_k_1_1_map_1_1_map_image.html" target="_top" xlink:title="Абстрактный класс, описывающий радиолокационное изображение в качестве объекта карты.">
<polygon fill="white" stroke="#666666" points="461.5,-98.75 395.25,-98.75 395.25,-78 461.5,-78 461.5,-98.75"/>
<text text-anchor="middle" x="428.38" y="-84.3" font-family="Arial" font-size="11.00">MapImage</text>
</a>
</g>
</g>
<!-- Node7&#45;&gt;Node2 -->
<g id="edge9_Node000007_Node000002" class="edge">
<title>Node7&#45;&gt;Node2</title>
<g id="a_edge9_Node000007_Node000002"><a xlink:title=" ">
<path fill="none" stroke="#63b8ff" d="M350.73,-88.38C365.74,-88.38 381.5,-88.38 394.8,-88.38"/>
<polygon fill="#63b8ff" stroke="#63b8ff" points="350.98,-84.88 340.98,-88.38 350.98,-91.88 350.98,-84.88"/>
</a>
</g>
</g>
<!-- Node2&#45;&gt;Node1 -->
<g id="edge11_Node000002_Node000001" class="edge">
<title>Node2&#45;&gt;Node1</title>
<g id="a_edge11_Node000002_Node000001"><a xlink:title=" ">
<path fill="none" stroke="#63b8ff" d="M472.1,-100.84C489.36,-105.88 509.09,-111.64 525.75,-116.5"/>
<polygon fill="#63b8ff" stroke="#63b8ff" points="473.3,-97.26 462.72,-97.82 471.34,-103.98 473.3,-97.26"/>
</a>
</g>
</g>
<!-- Node2&#45;&gt;Node3 -->
<g id="edge10_Node000002_Node000003" class="edge">
<title>Node2&#45;&gt;Node3</title>
<g id="a_edge10_Node000002_Node000003"><a xlink:title=" ">
<path fill="none" stroke="#63b8ff" d="M472.24,-79.07C485.21,-76.26 499.57,-73.14 512.96,-70.23"/>
<polygon fill="#63b8ff" stroke="#63b8ff" points="471.75,-75.81 462.72,-81.35 473.24,-82.65 471.75,-75.81"/>
</a>
</g>
</g>
<!-- Node10&#45;&gt;Node11 -->
<g id="edge14_Node000010_Node000011" class="edge">
<title>Node10&#45;&gt;Node11</title>
<g id="a_edge14_Node000010_Node000011"><a xlink:title=" ">
<path fill="none" stroke="#63b8ff" d="M342.3,-230.49C359.2,-225.5 377.92,-219.97 393.48,-215.38"/>
<polygon fill="#63b8ff" stroke="#63b8ff" points="341.65,-227.32 333.05,-233.51 343.64,-234.04 341.65,-227.32"/>
</a>
</g>
</g>
<!-- Node14 -->
<g id="Node000014" class="node">
<title>Node14</title>
<g id="a_Node000014"><a xlink:href="d9/d5a/class_i_nameable.html" target="_top" xlink:title=" ">
<polygon fill="white" stroke="#666666" points="328.12,-176.75 260.38,-176.75 260.38,-156 328.12,-156 328.12,-176.75"/>
<text text-anchor="middle" x="294.25" y="-162.3" font-family="Arial" font-size="11.00">INameable</text>
</a>
</g>
</g>
<!-- Node14&#45;&gt;Node11 -->
<g id="edge15_Node000014_Node000011" class="edge">
<title>Node14&#45;&gt;Node11</title>
<g id="a_edge15_Node000014_Node000011"><a xlink:title=" ">
<path fill="none" stroke="#63b8ff" d="M339,-179.29C356.77,-184.54 376.98,-190.5 393.59,-195.4"/>
<polygon fill="#63b8ff" stroke="#63b8ff" points="340.17,-175.69 329.59,-176.22 338.19,-182.4 340.17,-175.69"/>
</a>
</g>
</g>
<!-- Node16 -->
<g id="Node000016" class="node">
<title>Node16</title>
<g id="a_Node000016"><a xlink:href="d7/d37/class_quasar_s_d_k_1_1_map_1_1_i_s_a_r_image.html" target="_top" xlink:title="Интерфейс, описывающий радиолокационное изображение с РЛС.">
<polygon fill="white" stroke="#666666" points="329.62,-137.75 258.88,-137.75 258.88,-117 329.62,-117 329.62,-137.75"/>
<text text-anchor="middle" x="294.25" y="-123.3" font-family="Arial" font-size="11.00">ISARImage</text>
</a>
</g>
</g>
<!-- Node16&#45;&gt;Node2 -->
<g id="edge16_Node000016_Node000002" class="edge">
<title>Node16&#45;&gt;Node2</title>
<g id="a_edge16_Node000016_Node000002"><a xlink:title=" ">
<path fill="none" stroke="#63b8ff" d="M340.26,-114.09C358.29,-108.77 378.66,-102.76 395.16,-97.88"/>
<polygon fill="#63b8ff" stroke="#63b8ff" points="339.56,-110.94 330.96,-117.13 341.55,-117.65 339.56,-110.94"/>
</a>
</g>
</g>
</g>
</svg>
