<?xml version="1.0" encoding="UTF-8" standalone="no"?>
<!DOCTYPE svg PUBLIC "-//W3C//DTD SVG 1.1//EN"
 "http://www.w3.org/Graphics/SVG/1.1/DTD/svg11.dtd">
<!-- Generated by graphviz version 8.1.0 (20230707.0739)
 -->
<!-- Title: Иерархия классов. Графический вид. Pages: 1 -->
<svg width="413pt" height="107pt"
 viewBox="0.00 0.00 412.50 106.75" xmlns="http://www.w3.org/2000/svg" xmlns:xlink="http://www.w3.org/1999/xlink">
<g id="graph0" class="graph" transform="scale(1 1) rotate(0) translate(4 102.75)">
<title>Иерархия классов. Графический вид.</title>
<!-- Node0 -->
<g id="Node000000" class="node">
<title>Node0</title>
<g id="a_Node000000"><a xlink:title=" ">
<polygon fill="#e0e0e0" stroke="#999999" points="74.5,-59.75 0,-59.75 0,-39 74.5,-39 74.5,-59.75"/>
<text text-anchor="middle" x="37.25" y="-45.3" font-family="Arial" font-size="11.00">QQuickItem</text>
</a>
</g>
</g>
<!-- Node1 -->
<g id="Node000001" class="node">
<title>Node1</title>
<g id="a_Node000001"><a xlink:href="d8/dda/class_s_d_k_1_1_gizmos_1_1_gizmos.html" target="_top" xlink:title=" ">
<polygon fill="white" stroke="#666666" points="171.88,-98.75 117.62,-98.75 117.62,-78 171.88,-78 171.88,-98.75"/>
<text text-anchor="middle" x="144.75" y="-84.3" font-family="Arial" font-size="11.00">Gizmos</text>
</a>
</g>
</g>
<!-- Node0&#45;&gt;Node1 -->
<g id="edge66_Node000000_Node000001" class="edge">
<title>Node0&#45;&gt;Node1</title>
<g id="a_edge66_Node000000_Node000001"><a xlink:title=" ">
<path fill="none" stroke="#63b8ff" d="M77.9,-64.03C91.1,-68.91 105.46,-74.22 117.4,-78.63"/>
<polygon fill="#63b8ff" stroke="#63b8ff" points="79.23,-60.42 68.64,-60.24 76.8,-66.99 79.23,-60.42"/>
</a>
</g>
</g>
<!-- Node2 -->
<g id="Node000002" class="node">
<title>Node2</title>
<g id="a_Node000002"><a xlink:href="d2/d20/class_s_d_k_1_1_quick_1_1_chart_base.html" target="_top" xlink:title=" ">
<polygon fill="white" stroke="#666666" points="179,-59.75 110.5,-59.75 110.5,-39 179,-39 179,-59.75"/>
<text text-anchor="middle" x="144.75" y="-45.3" font-family="Arial" font-size="11.00">ChartBase</text>
</a>
</g>
</g>
<!-- Node0&#45;&gt;Node2 -->
<g id="edge67_Node000000_Node000002" class="edge">
<title>Node0&#45;&gt;Node2</title>
<g id="a_edge67_Node000000_Node000002"><a xlink:title=" ">
<path fill="none" stroke="#63b8ff" d="M85.82,-49.38C93.99,-49.38 102.33,-49.38 110.04,-49.38"/>
<polygon fill="#63b8ff" stroke="#63b8ff" points="85.85,-45.88 75.85,-49.38 85.85,-52.88 85.85,-45.88"/>
</a>
</g>
</g>
<!-- Node5 -->
<g id="Node000005" class="node">
<title>Node5</title>
<g id="a_Node000005"><a xlink:href="d1/d31/class_s_d_k_1_1_quick_1_1_matrix_plot.html" target="_top" xlink:title=" ">
<polygon fill="white" stroke="#666666" points="176.38,-20.75 113.12,-20.75 113.12,0 176.38,0 176.38,-20.75"/>
<text text-anchor="middle" x="144.75" y="-6.3" font-family="Arial" font-size="11.00">MatrixPlot</text>
</a>
</g>
</g>
<!-- Node0&#45;&gt;Node5 -->
<g id="edge70_Node000000_Node000005" class="edge">
<title>Node0&#45;&gt;Node5</title>
<g id="a_edge70_Node000000_Node000005"><a xlink:title=" ">
<path fill="none" stroke="#63b8ff" d="M77.61,-34.83C89.84,-30.3 103.11,-25.4 114.52,-21.18"/>
<polygon fill="#63b8ff" stroke="#63b8ff" points="76.8,-31.76 68.64,-38.51 79.23,-38.33 76.8,-31.76"/>
</a>
</g>
</g>
<!-- Node3 -->
<g id="Node000003" class="node">
<title>Node3</title>
<g id="a_Node000003"><a xlink:href="d4/d49/class_s_d_k_1_1_quick_1_1_line_plot.html" target="_top" xlink:title=" ">
<polygon fill="white" stroke="#666666" points="270,-59.75 215,-59.75 215,-39 270,-39 270,-59.75"/>
<text text-anchor="middle" x="242.5" y="-45.3" font-family="Arial" font-size="11.00">LinePlot</text>
</a>
</g>
</g>
<!-- Node2&#45;&gt;Node3 -->
<g id="edge68_Node000002_Node000003" class="edge">
<title>Node2&#45;&gt;Node3</title>
<g id="a_edge68_Node000002_Node000003"><a xlink:title=" ">
<path fill="none" stroke="#63b8ff" d="M190.04,-49.38C198.39,-49.38 206.89,-49.38 214.51,-49.38"/>
<polygon fill="#63b8ff" stroke="#63b8ff" points="190.24,-45.88 180.24,-49.38 190.24,-52.88 190.24,-45.88"/>
</a>
</g>
</g>
<!-- Node4 -->
<g id="Node000004" class="node">
<title>Node4</title>
<g id="a_Node000004"><a xlink:href="d7/dcc/class_s_d_k_1_1_quick_1_1_realtime_line_plot.html" target="_top" xlink:title=" ">
<polygon fill="white" stroke="#666666" points="404.5,-59.75 306,-59.75 306,-39 404.5,-39 404.5,-59.75"/>
<text text-anchor="middle" x="355.25" y="-45.3" font-family="Arial" font-size="11.00">RealtimeLinePlot</text>
</a>
</g>
</g>
<!-- Node3&#45;&gt;Node4 -->
<g id="edge69_Node000003_Node000004" class="edge">
<title>Node3&#45;&gt;Node4</title>
<g id="a_edge69_Node000003_Node000004"><a xlink:title=" ">
<path fill="none" stroke="#63b8ff" d="M281.04,-49.38C288.94,-49.38 297.38,-49.38 305.62,-49.38"/>
<polygon fill="#63b8ff" stroke="#63b8ff" points="281.31,-45.88 271.31,-49.38 281.31,-52.88 281.31,-45.88"/>
</a>
</g>
</g>
</g>
</svg>
