<?xml version="1.0" encoding="UTF-8" standalone="no"?>
<!DOCTYPE svg PUBLIC "-//W3C//DTD SVG 1.1//EN"
 "http://www.w3.org/Graphics/SVG/1.1/DTD/svg11.dtd">
<!-- Generated by graphviz version 8.1.0 (20230707.0739)
 -->
<!-- Title: Иерархия классов. Графический вид. Pages: 1 -->
<svg width="518pt" height="1101pt"
 viewBox="0.00 0.00 517.50 1100.75" xmlns="http://www.w3.org/2000/svg" xmlns:xlink="http://www.w3.org/1999/xlink">
<g id="graph0" class="graph" transform="scale(1 1) rotate(0) translate(4 1096.75)">
<title>Иерархия классов. Графический вид.</title>
<!-- Node0 -->
<g id="Node000000" class="node">
<title>Node0</title>
<g id="a_Node000000"><a xlink:href="df/dac/class_quasar_s_d_k_1_1_i_connectable.html" target="_top" xlink:title="Абстрактный интерфейс для классов с функционалом подключения и отключения к сетевому адресу.">
<polygon fill="white" stroke="#666666" points="79.75,-975.75 0,-975.75 0,-955 79.75,-955 79.75,-975.75"/>
<text text-anchor="middle" x="39.88" y="-961.3" font-family="Arial" font-size="11.00">IConnectable</text>
</a>
</g>
</g>
<!-- Node1 -->
<g id="Node000001" class="node">
<title>Node1</title>
<g id="a_Node000001"><a xlink:href="db/d21/class_quasar_s_d_k_1_1_base_u_d_p_socket.html" target="_top" xlink:title="Базовый класс для сокетов, работающих по протоколу UDP.">
<polygon fill="white" stroke="#666666" points="228.5,-1034.75 130,-1034.75 130,-1014 228.5,-1014 228.5,-1034.75"/>
<text text-anchor="middle" x="179.25" y="-1020.3" font-family="Arial" font-size="11.00">BaseUDPSocket</text>
</a>
</g>
</g>
<!-- Node0&#45;&gt;Node1 -->
<g id="edge17_Node000000_Node000001" class="edge">
<title>Node0&#45;&gt;Node1</title>
<g id="a_edge17_Node000000_Node000001"><a xlink:title=" ">
<path fill="none" stroke="#63b8ff" d="M68.96,-981.45C82.78,-988.99 99.86,-997.75 115.75,-1004.38 123.74,-1007.71 132.5,-1010.82 140.86,-1013.56"/>
<polygon fill="#63b8ff" stroke="#63b8ff" points="70.97,-978.01 60.53,-976.23 67.58,-984.14 70.97,-978.01"/>
</a>
</g>
</g>
<!-- Node8 -->
<g id="Node000008" class="node">
<title>Node8</title>
<g id="a_Node000008"><a xlink:href="df/d2b/class_quasar_s_d_k_1_1_output_redirect_server.html" target="_top" xlink:title="Класс для перенаправления вывода РЛС в отдельный Telnet сервер.">
<polygon fill="white" stroke="#666666" points="240.5,-995.75 118,-995.75 118,-975 240.5,-975 240.5,-995.75"/>
<text text-anchor="middle" x="179.25" y="-981.3" font-family="Arial" font-size="11.00">OutputRedirectServer</text>
</a>
</g>
</g>
<!-- Node0&#45;&gt;Node8 -->
<g id="edge23_Node000000_Node000008" class="edge">
<title>Node0&#45;&gt;Node8</title>
<g id="a_edge23_Node000000_Node000008"><a xlink:title=" ">
<path fill="none" stroke="#63b8ff" d="M90.94,-972.66C99.61,-973.93 108.7,-975.25 117.61,-976.55"/>
<polygon fill="#63b8ff" stroke="#63b8ff" points="91.64,-969.08 81.24,-971.11 90.63,-976.01 91.64,-969.08"/>
</a>
</g>
</g>
<!-- Node29 -->
<g id="Node000029" class="node">
<title>Node29</title>
<g id="a_Node000029"><a xlink:href="de/d88/class_quasar_s_d_k_1_1_ping_tester.html" target="_top" xlink:title="Класс для постоянной проверки выбранного адреса на доступность.">
<polygon fill="white" stroke="#666666" points="213.88,-956.75 144.62,-956.75 144.62,-936 213.88,-936 213.88,-956.75"/>
<text text-anchor="middle" x="179.25" y="-942.3" font-family="Arial" font-size="11.00">PingTester</text>
</a>
</g>
</g>
<!-- Node0&#45;&gt;Node29 -->
<g id="edge24_Node000000_Node000029" class="edge">
<title>Node0&#45;&gt;Node29</title>
<g id="a_edge24_Node000000_Node000029"><a xlink:title=" ">
<path fill="none" stroke="#63b8ff" d="M91.03,-958.44C108.81,-955.98 128.38,-953.27 144.47,-951.05"/>
<polygon fill="#63b8ff" stroke="#63b8ff" points="90.67,-955.09 81.24,-959.93 91.63,-962.03 90.67,-955.09"/>
</a>
</g>
</g>
<!-- Node32 -->
<g id="Node000032" class="node">
<title>Node32</title>
<g id="a_Node000032"><a xlink:href="db/dbd/class_quasar_s_d_k_1_1_t_c_p_server.html" target="_top" xlink:title="Класс для приема больших файлов с РЛС по протоколу TCP&#45;IP.">
<polygon fill="white" stroke="#666666" points="214.62,-917.75 143.88,-917.75 143.88,-897 214.62,-897 214.62,-917.75"/>
<text text-anchor="middle" x="179.25" y="-903.3" font-family="Arial" font-size="11.00">TCPServer</text>
</a>
</g>
</g>
<!-- Node0&#45;&gt;Node32 -->
<g id="edge25_Node000000_Node000032" class="edge">
<title>Node0&#45;&gt;Node32</title>
<g id="a_edge25_Node000000_Node000032"><a xlink:title=" ">
<path fill="none" stroke="#63b8ff" d="M69.29,-949.6C83.07,-942.3 100.02,-933.84 115.75,-927.38 124.6,-923.74 134.37,-920.34 143.51,-917.4"/>
<polygon fill="#63b8ff" stroke="#63b8ff" points="68.02,-946.85 60.87,-954.67 71.34,-953.01 68.02,-946.85"/>
</a>
</g>
</g>
<!-- Node2 -->
<g id="Node000002" class="node">
<title>Node2</title>
<g id="a_Node000002"><a xlink:href="dd/dce/class_quasar_s_d_k_1_1_execd_socket.html" target="_top" xlink:title="Сокет для отправки команд на РЛС.">
<polygon fill="white" stroke="#666666" points="380.25,-1092.75 299.75,-1092.75 299.75,-1072 380.25,-1072 380.25,-1092.75"/>
<text text-anchor="middle" x="340" y="-1078.3" font-family="Arial" font-size="11.00">ExecdSocket</text>
</a>
</g>
</g>
<!-- Node1&#45;&gt;Node2 -->
<g id="edge18_Node000001_Node000002" class="edge">
<title>Node1&#45;&gt;Node2</title>
<g id="a_edge18_Node000001_Node000002"><a xlink:title=" ">
<path fill="none" stroke="#63b8ff" d="M217.32,-1039.16C235.71,-1046.37 258.32,-1055.05 278.75,-1062.38 287.36,-1065.46 296.72,-1068.65 305.44,-1071.55"/>
<polygon fill="#63b8ff" stroke="#63b8ff" points="218.88,-1035.62 208.3,-1035.21 216.32,-1042.13 218.88,-1035.62"/>
</a>
</g>
</g>
<!-- Node3 -->
<g id="Node000003" class="node">
<title>Node3</title>
<g id="a_Node000003"><a xlink:href="de/d4c/class_quasar_s_d_k_1_1_output_socket.html" target="_top" xlink:title="Сокет для приема и обработки вывода с РЛС.">
<polygon fill="white" stroke="#666666" points="381.38,-1053.75 298.62,-1053.75 298.62,-1033 381.38,-1033 381.38,-1053.75"/>
<text text-anchor="middle" x="340" y="-1039.3" font-family="Arial" font-size="11.00">OutputSocket</text>
</a>
</g>
</g>
<!-- Node1&#45;&gt;Node3 -->
<g id="edge19_Node000001_Node000003" class="edge">
<title>Node1&#45;&gt;Node3</title>
<g id="a_edge19_Node000001_Node000003"><a xlink:title=" ">
<path fill="none" stroke="#63b8ff" d="M239.42,-1031.46C259.02,-1033.8 280.39,-1036.36 298.29,-1038.5"/>
<polygon fill="#63b8ff" stroke="#63b8ff" points="240.09,-1027.89 229.74,-1030.18 239.26,-1034.84 240.09,-1027.89"/>
</a>
</g>
</g>
<!-- Node4 -->
<g id="Node000004" class="node">
<title>Node4</title>
<g id="a_Node000004"><a xlink:href="d5/d90/class_quasar_s_d_k_1_1_seamless_u_d_p_socket.html" target="_top" xlink:title="Базовый класс для UDP сокетов, требующих целостность датаграммы.">
<polygon fill="white" stroke="#666666" points="401.25,-1014.75 278.75,-1014.75 278.75,-994 401.25,-994 401.25,-1014.75"/>
<text text-anchor="middle" x="340" y="-1000.3" font-family="Arial" font-size="11.00">SeamlessUDPSocket</text>
</a>
</g>
</g>
<!-- Node1&#45;&gt;Node4 -->
<g id="edge20_Node000001_Node000004" class="edge">
<title>Node1&#45;&gt;Node4</title>
<g id="a_edge20_Node000001_Node000004"><a xlink:title=" ">
<path fill="none" stroke="#63b8ff" d="M239.28,-1016.94C252.07,-1015.33 265.61,-1013.62 278.46,-1012"/>
<polygon fill="#63b8ff" stroke="#63b8ff" points="239.23,-1013.54 229.74,-1018.27 240.1,-1020.49 239.23,-1013.54"/>
</a>
</g>
</g>
<!-- Node6 -->
<g id="Node000006" class="node">
<title>Node6</title>
<g id="a_Node000006"><a xlink:href="d5/d0a/class_quasar_s_d_k_1_1_telemetry_socket.html" target="_top" xlink:title="Класс для работы с сервисом navd2 на РЛС.">
<polygon fill="white" stroke="#666666" points="389.25,-975.75 290.75,-975.75 290.75,-955 389.25,-955 389.25,-975.75"/>
<text text-anchor="middle" x="340" y="-961.3" font-family="Arial" font-size="11.00">TelemetrySocket</text>
</a>
</g>
</g>
<!-- Node1&#45;&gt;Node6 -->
<g id="edge22_Node000001_Node000006" class="edge">
<title>Node1&#45;&gt;Node6</title>
<g id="a_edge22_Node000001_Node000006"><a xlink:title=" ">
<path fill="none" stroke="#63b8ff" d="M227.96,-1010.07C233,-1008.28 238.01,-1006.37 242.75,-1004.38 259.43,-997.37 262.11,-992.47 278.75,-985.38 286.56,-982.05 295.12,-978.91 303.27,-976.15"/>
<polygon fill="#63b8ff" stroke="#63b8ff" points="226.99,-1007.05 218.66,-1013.59 229.25,-1013.67 226.99,-1007.05"/>
</a>
</g>
</g>
<!-- Node5 -->
<g id="Node000005" class="node">
<title>Node5</title>
<g id="a_Node000005"><a xlink:href="d6/d4a/class_quasar_s_d_k_1_1_strip_socket.html" target="_top" xlink:title="Класс для приема больших файлов с РЛС по протоколу UDP.">
<polygon fill="white" stroke="#666666" points="509.5,-1014.75 437.25,-1014.75 437.25,-994 509.5,-994 509.5,-1014.75"/>
<text text-anchor="middle" x="473.38" y="-1000.3" font-family="Arial" font-size="11.00">StripSocket</text>
</a>
</g>
</g>
<!-- Node4&#45;&gt;Node5 -->
<g id="edge21_Node000004_Node000005" class="edge">
<title>Node4&#45;&gt;Node5</title>
<g id="a_edge21_Node000004_Node000005"><a xlink:title=" ">
<path fill="none" stroke="#63b8ff" d="M412.48,-1004.38C420.98,-1004.38 429.36,-1004.38 437.02,-1004.38"/>
<polygon fill="#63b8ff" stroke="#63b8ff" points="412.69,-1000.88 402.69,-1004.38 412.69,-1007.88 412.69,-1000.88"/>
</a>
</g>
</g>
<!-- Node9 -->
<g id="Node000009" class="node">
<title>Node9</title>
<g id="a_Node000009"><a xlink:title=" ">
<polygon fill="#e0e0e0" stroke="#999999" points="68.5,-508.75 11.25,-508.75 11.25,-488 68.5,-488 68.5,-508.75"/>
<text text-anchor="middle" x="39.88" y="-494.3" font-family="Arial" font-size="11.00">QObject</text>
</a>
</g>
</g>
<!-- Node9&#45;&gt;Node8 -->
<g id="edge45_Node000009_Node000008" class="edge">
<title>Node9&#45;&gt;Node8</title>
<g id="a_edge45_Node000009_Node000008"><a xlink:title=" ">
<path fill="none" stroke="#63b8ff" d="M41.43,-520.01C43.96,-602.64 57.01,-897.04 115.75,-965.38 118.94,-969.09 122.83,-972.12 127.08,-974.59"/>
<polygon fill="#63b8ff" stroke="#63b8ff" points="44.9,-520.11 41.12,-510.22 37.9,-520.31 44.9,-520.11"/>
</a>
</g>
</g>
<!-- Node9&#45;&gt;Node29 -->
<g id="edge46_Node000009_Node000029" class="edge">
<title>Node9&#45;&gt;Node29</title>
<g id="a_edge46_Node000009_Node000029"><a xlink:title=" ">
<path fill="none" stroke="#63b8ff" d="M41.77,-519.94C45.43,-597.99 61.75,-864.45 115.75,-926.38 123.01,-934.7 133.75,-939.59 144.27,-942.45"/>
<polygon fill="#63b8ff" stroke="#63b8ff" points="45.23,-519.92 41.29,-510.09 38.24,-520.23 45.23,-519.92"/>
</a>
</g>
</g>
<!-- Node9&#45;&gt;Node32 -->
<g id="edge49_Node000009_Node000032" class="edge">
<title>Node9&#45;&gt;Node32</title>
<g id="a_edge49_Node000009_Node000032"><a xlink:title=" ">
<path fill="none" stroke="#63b8ff" d="M42.18,-519.85C47.05,-593.13 66.47,-831.82 115.75,-887.38 122.86,-895.39 133.17,-900.21 143.38,-903.11"/>
<polygon fill="#63b8ff" stroke="#63b8ff" points="45.63,-519.97 41.5,-510.21 38.64,-520.42 45.63,-519.97"/>
</a>
</g>
</g>
<!-- Node10 -->
<g id="Node000010" class="node">
<title>Node10</title>
<g id="a_Node000010"><a xlink:href="dc/d45/class_application_1_1_quick_utils.html" target="_top" xlink:title=" ">
<polygon fill="white" stroke="#666666" points="212,-410.75 146.5,-410.75 146.5,-390 212,-390 212,-410.75"/>
<text text-anchor="middle" x="179.25" y="-396.3" font-family="Arial" font-size="11.00">QuickUtils</text>
</a>
</g>
</g>
<!-- Node9&#45;&gt;Node10 -->
<g id="edge26_Node000009_Node000010" class="edge">
<title>Node9&#45;&gt;Node10</title>
<g id="a_edge26_Node000009_Node000010"><a xlink:title=" ">
<path fill="none" stroke="#63b8ff" d="M54.67,-479.3C68.34,-461.67 90.8,-435.94 115.75,-420.38 124.93,-414.65 135.91,-410.42 146.08,-407.36"/>
<polygon fill="#63b8ff" stroke="#63b8ff" points="51.58,-476.58 48.36,-486.67 57.17,-480.79 51.58,-476.58"/>
</a>
</g>
</g>
<!-- Node11 -->
<g id="Node000011" class="node">
<title>Node11</title>
<g id="a_Node000011"><a xlink:href="da/d40/class_application_1_1_update_manager.html" target="_top" xlink:title=" ">
<polygon fill="white" stroke="#666666" points="225.5,-371.75 133,-371.75 133,-351 225.5,-351 225.5,-371.75"/>
<text text-anchor="middle" x="179.25" y="-357.3" font-family="Arial" font-size="11.00">UpdateManager</text>
</a>
</g>
</g>
<!-- Node9&#45;&gt;Node11 -->
<g id="edge27_Node000009_Node000011" class="edge">
<title>Node9&#45;&gt;Node11</title>
<g id="a_edge27_Node000009_Node000011"><a xlink:title=" ">
<path fill="none" stroke="#63b8ff" d="M48.91,-477.59C60.05,-451.43 82.63,-406.85 115.75,-381.38 120.81,-377.49 126.64,-374.34 132.67,-371.8"/>
<polygon fill="#63b8ff" stroke="#63b8ff" points="45.37,-475.98 44.84,-486.56 51.85,-478.63 45.37,-475.98"/>
</a>
</g>
</g>
<!-- Node12 -->
<g id="Node000012" class="node">
<title>Node12</title>
<g id="a_Node000012"><a xlink:href="d7/d33/class_config_1_1_paths.html" target="_top" xlink:title="Class, providing access to commonly used filesystem paths and resource management.">
<polygon fill="white" stroke="#666666" points="201.5,-332.75 157,-332.75 157,-312 201.5,-312 201.5,-332.75"/>
<text text-anchor="middle" x="179.25" y="-318.3" font-family="Arial" font-size="11.00">Paths</text>
</a>
</g>
</g>
<!-- Node9&#45;&gt;Node12 -->
<g id="edge28_Node000009_Node000012" class="edge">
<title>Node9&#45;&gt;Node12</title>
<g id="a_edge28_Node000009_Node000012"><a xlink:title=" ">
<path fill="none" stroke="#63b8ff" d="M45.27,-477.55C53.36,-444.21 73.8,-378.91 115.75,-342.38 127.18,-332.42 143.6,-327.41 156.74,-324.9"/>
<polygon fill="#63b8ff" stroke="#63b8ff" points="41.71,-476.38 42.9,-486.91 48.54,-477.94 41.71,-476.38"/>
</a>
</g>
</g>
<!-- Node13 -->
<g id="Node000013" class="node">
<title>Node13</title>
<g id="a_Node000013"><a xlink:href="df/d17/class_config_1_1_settings.html" target="_top" xlink:title=" ">
<polygon fill="white" stroke="#666666" points="207.12,-293.75 151.38,-293.75 151.38,-273 207.12,-273 207.12,-293.75"/>
<text text-anchor="middle" x="179.25" y="-279.3" font-family="Arial" font-size="11.00">Settings</text>
</a>
</g>
</g>
<!-- Node9&#45;&gt;Node13 -->
<g id="edge29_Node000009_Node000013" class="edge">
<title>Node9&#45;&gt;Node13</title>
<g id="a_edge29_Node000009_Node000013"><a xlink:title=" ">
<path fill="none" stroke="#63b8ff" d="M43.07,-476.95C48.3,-437.08 65.1,-351.22 115.75,-303.38 125.27,-294.38 138.85,-289.43 150.92,-286.71"/>
<polygon fill="#63b8ff" stroke="#63b8ff" points="39.49,-476.41 41.8,-486.75 46.45,-477.23 39.49,-476.41"/>
</a>
</g>
</g>
<!-- Node14 -->
<g id="Node000014" class="node">
<title>Node14</title>
<g id="a_Node000014"><a xlink:href="d0/d39/class_config_1_1internal_1_1_settings_wrapper.html" target="_top" xlink:title=" ">
<polygon fill="white" stroke="#666666" points="228.5,-254.75 130,-254.75 130,-234 228.5,-234 228.5,-254.75"/>
<text text-anchor="middle" x="179.25" y="-240.3" font-family="Arial" font-size="11.00">SettingsWrapper</text>
</a>
</g>
</g>
<!-- Node9&#45;&gt;Node14 -->
<g id="edge30_Node000009_Node000014" class="edge">
<title>Node9&#45;&gt;Node14</title>
<g id="a_edge30_Node000009_Node000014"><a xlink:title=" ">
<path fill="none" stroke="#63b8ff" d="M41.49,-476.56C43.97,-430.77 56.21,-323.91 115.75,-264.38 119.78,-260.35 124.62,-257.13 129.8,-254.56"/>
<polygon fill="#63b8ff" stroke="#63b8ff" points="37.95,-476.4 41.02,-486.54 44.95,-476.7 37.95,-476.4"/>
</a>
</g>
</g>
<!-- Node15 -->
<g id="Node000015" class="node">
<title>Node15</title>
<g id="a_Node000015"><a xlink:href="df/d54/class_g_u_i_1_1_color_theme.html" target="_top" xlink:title=" ">
<polygon fill="white" stroke="#666666" points="217.62,-215.75 140.88,-215.75 140.88,-195 217.62,-195 217.62,-215.75"/>
<text text-anchor="middle" x="179.25" y="-201.3" font-family="Arial" font-size="11.00">ColorTheme</text>
</a>
</g>
</g>
<!-- Node9&#45;&gt;Node15 -->
<g id="edge31_Node000009_Node000015" class="edge">
<title>Node9&#45;&gt;Node15</title>
<g id="a_edge31_Node000009_Node000015"><a xlink:title=" ">
<path fill="none" stroke="#63b8ff" d="M40.29,-476.51C40.16,-425.4 47.09,-296.98 115.75,-225.38 122.37,-218.47 131.38,-213.94 140.49,-210.97"/>
<polygon fill="#63b8ff" stroke="#63b8ff" points="36.81,-476.55 40.44,-486.51 43.81,-476.46 36.81,-476.55"/>
</a>
</g>
</g>
<!-- Node16 -->
<g id="Node000016" class="node">
<title>Node16</title>
<g id="a_Node000016"><a xlink:href="d6/dd7/class_g_u_i_1_1internal_1_1_color_theme_wrapper.html" target="_top" xlink:title=" ">
<polygon fill="white" stroke="#666666" points="239,-176.75 119.5,-176.75 119.5,-156 239,-156 239,-176.75"/>
<text text-anchor="middle" x="179.25" y="-162.3" font-family="Arial" font-size="11.00">ColorThemeWrapper</text>
</a>
</g>
</g>
<!-- Node9&#45;&gt;Node16 -->
<g id="edge32_Node000009_Node000016" class="edge">
<title>Node9&#45;&gt;Node16</title>
<g id="a_edge32_Node000009_Node000016"><a xlink:title=" ">
<path fill="none" stroke="#63b8ff" d="M43.26,-477.17C50.74,-414.13 75.69,-229.52 115.75,-186.38 119.16,-182.7 123.25,-179.7 127.67,-177.25"/>
<polygon fill="#63b8ff" stroke="#63b8ff" points="39.7,-476.44 42.03,-486.78 46.65,-477.25 39.7,-476.44"/>
</a>
</g>
</g>
<!-- Node17 -->
<g id="Node000017" class="node">
<title>Node17</title>
<g id="a_Node000017"><a xlink:href="d4/d84/class_map_1_1_click_handler.html" target="_top" xlink:title=" ">
<polygon fill="white" stroke="#666666" points="218,-137.75 140.5,-137.75 140.5,-117 218,-117 218,-137.75"/>
<text text-anchor="middle" x="179.25" y="-123.3" font-family="Arial" font-size="11.00">ClickHandler</text>
</a>
</g>
</g>
<!-- Node9&#45;&gt;Node17 -->
<g id="edge33_Node000009_Node000017" class="edge">
<title>Node9&#45;&gt;Node17</title>
<g id="a_edge33_Node000009_Node000017"><a xlink:title=" ">
<path fill="none" stroke="#63b8ff" d="M42.68,-476.81C48.82,-408.22 71.08,-196.73 115.75,-147.38 122.17,-140.28 131.11,-135.69 140.22,-132.72"/>
<polygon fill="#63b8ff" stroke="#63b8ff" points="39.12,-476.29 41.74,-486.55 46.09,-476.89 39.12,-476.29"/>
</a>
</g>
</g>
<!-- Node18 -->
<g id="Node000018" class="node">
<title>Node18</title>
<g id="a_Node000018"><a xlink:href="d2/d88/class_map_1_1_diagram.html" target="_top" xlink:title=" ">
<polygon fill="white" stroke="#666666" points="208.25,-98.75 150.25,-98.75 150.25,-78 208.25,-78 208.25,-98.75"/>
<text text-anchor="middle" x="179.25" y="-84.3" font-family="Arial" font-size="11.00">Diagram</text>
</a>
</g>
</g>
<!-- Node9&#45;&gt;Node18 -->
<g id="edge34_Node000009_Node000018" class="edge">
<title>Node9&#45;&gt;Node18</title>
<g id="a_edge34_Node000009_Node000018"><a xlink:title=" ">
<path fill="none" stroke="#63b8ff" d="M42.17,-476.84C47.01,-403.38 66.36,-164.08 115.75,-108.38 124.37,-98.66 137.7,-93.63 149.85,-91.04"/>
<polygon fill="#63b8ff" stroke="#63b8ff" points="38.63,-476.31 41.49,-486.51 45.62,-476.75 38.63,-476.31"/>
</a>
</g>
</g>
<!-- Node19 -->
<g id="Node000019" class="node">
<title>Node19</title>
<g id="a_Node000019"><a xlink:href="d8/dfa/class_map_1_1_offline_tile_loader.html" target="_top" xlink:title=" ">
<polygon fill="white" stroke="#666666" points="228.5,-59.75 130,-59.75 130,-39 228.5,-39 228.5,-59.75"/>
<text text-anchor="middle" x="179.25" y="-45.3" font-family="Arial" font-size="11.00">OfflineTileLoader</text>
</a>
</g>
</g>
<!-- Node9&#45;&gt;Node19 -->
<g id="edge35_Node000009_Node000019" class="edge">
<title>Node9&#45;&gt;Node19</title>
<g id="a_edge35_Node000009_Node000019"><a xlink:title=" ">
<path fill="none" stroke="#63b8ff" d="M41.76,-476.76C45.4,-398.53 61.64,-131.45 115.75,-69.38 119.57,-65 124.35,-61.57 129.55,-58.88"/>
<polygon fill="#63b8ff" stroke="#63b8ff" points="38.23,-476.49 41.28,-486.64 45.22,-476.8 38.23,-476.49"/>
</a>
</g>
</g>
<!-- Node20 -->
<g id="Node000020" class="node">
<title>Node20</title>
<g id="a_Node000020"><a xlink:href="d6/d47/class_map_1_1_route.html" target="_top" xlink:title=" ">
<polygon fill="white" stroke="#666666" points="201.88,-20.75 156.62,-20.75 156.62,0 201.88,0 201.88,-20.75"/>
<text text-anchor="middle" x="179.25" y="-6.3" font-family="Arial" font-size="11.00">Route</text>
</a>
</g>
</g>
<!-- Node9&#45;&gt;Node20 -->
<g id="edge36_Node000009_Node000020" class="edge">
<title>Node9&#45;&gt;Node20</title>
<g id="a_edge36_Node000009_Node000020"><a xlink:title=" ">
<path fill="none" stroke="#63b8ff" d="M41.42,-476.69C43.92,-393.89 56.9,-98.86 115.75,-30.38 125.77,-18.71 142.61,-13.79 156.28,-11.74"/>
<polygon fill="#63b8ff" stroke="#63b8ff" points="37.9,-476.42 41.12,-486.51 44.89,-476.61 37.9,-476.42"/>
</a>
</g>
</g>
<!-- Node21 -->
<g id="Node000021" class="node">
<title>Node21</title>
<g id="a_Node000021"><a xlink:href="d5/d14/class_map_1_1_route_logger.html" target="_top" xlink:title=" ">
<polygon fill="white" stroke="#666666" points="218.75,-878.75 139.75,-878.75 139.75,-858 218.75,-858 218.75,-878.75"/>
<text text-anchor="middle" x="179.25" y="-864.3" font-family="Arial" font-size="11.00">RouteLogger</text>
</a>
</g>
</g>
<!-- Node9&#45;&gt;Node21 -->
<g id="edge37_Node000009_Node000021" class="edge">
<title>Node9&#45;&gt;Node21</title>
<g id="a_edge37_Node000009_Node000021"><a xlink:title=" ">
<path fill="none" stroke="#63b8ff" d="M42.68,-519.88C48.85,-588.28 71.19,-799.17 115.75,-848.38 122.02,-855.3 130.69,-859.84 139.57,-862.81"/>
<polygon fill="#63b8ff" stroke="#63b8ff" points="46.11,-519.83 41.75,-510.17 39.13,-520.44 46.11,-519.83"/>
</a>
</g>
</g>
<!-- Node22 -->
<g id="Node000022" class="node">
<title>Node22</title>
<g id="a_Node000022"><a xlink:href="d0/def/class_networking_1_1_h_t_t_p_downloader.html" target="_top" xlink:title="Class for downloading files by HTTP/HTTPS protocol.">
<polygon fill="white" stroke="#666666" points="230.75,-839.75 127.75,-839.75 127.75,-819 230.75,-819 230.75,-839.75"/>
<text text-anchor="middle" x="179.25" y="-825.3" font-family="Arial" font-size="11.00">HTTPDownloader</text>
</a>
</g>
</g>
<!-- Node9&#45;&gt;Node22 -->
<g id="edge38_Node000009_Node000022" class="edge">
<title>Node9&#45;&gt;Node22</title>
<g id="a_edge38_Node000009_Node000022"><a xlink:title=" ">
<path fill="none" stroke="#63b8ff" d="M43.27,-519.51C50.77,-582.36 75.8,-766.38 115.75,-809.38 119.24,-813.13 123.43,-816.18 127.98,-818.67"/>
<polygon fill="#63b8ff" stroke="#63b8ff" points="46.67,-519.47 42.03,-509.94 39.71,-520.28 46.67,-519.47"/>
</a>
</g>
</g>
<!-- Node23 -->
<g id="Node000023" class="node">
<title>Node23</title>
<g id="a_Node000023"><a xlink:href="d2/d68/class_o_s_1_1_filesystem.html" target="_top" xlink:title="Class, providing access to filesystem operations and cache manipulation.">
<polygon fill="white" stroke="#666666" points="213.88,-800.75 144.62,-800.75 144.62,-780 213.88,-780 213.88,-800.75"/>
<text text-anchor="middle" x="179.25" y="-786.3" font-family="Arial" font-size="11.00">Filesystem</text>
</a>
</g>
</g>
<!-- Node9&#45;&gt;Node23 -->
<g id="edge39_Node000009_Node000023" class="edge">
<title>Node9&#45;&gt;Node23</title>
<g id="a_edge39_Node000009_Node000023"><a xlink:title=" ">
<path fill="none" stroke="#63b8ff" d="M40.32,-520.16C40.24,-571.09 47.29,-699.04 115.75,-770.38 123.32,-778.27 134.01,-783.05 144.4,-785.95"/>
<polygon fill="#63b8ff" stroke="#63b8ff" points="43.83,-520.25 40.45,-510.2 36.83,-520.16 43.83,-520.25"/>
</a>
</g>
</g>
<!-- Node24 -->
<g id="Node000024" class="node">
<title>Node24</title>
<g id="a_Node000024"><a xlink:href="d6/db1/class_processing_1_1_image_processing.html" target="_top" xlink:title=" ">
<polygon fill="white" stroke="#666666" points="230,-761.75 128.5,-761.75 128.5,-741 230,-741 230,-761.75"/>
<text text-anchor="middle" x="179.25" y="-747.3" font-family="Arial" font-size="11.00">ImageProcessing</text>
</a>
</g>
</g>
<!-- Node9&#45;&gt;Node24 -->
<g id="edge40_Node000009_Node000024" class="edge">
<title>Node9&#45;&gt;Node24</title>
<g id="a_edge40_Node000009_Node000024"><a xlink:title=" ">
<path fill="none" stroke="#63b8ff" d="M41.52,-520.09C44.06,-565.7 56.41,-672.1 115.75,-731.38 119.46,-735.08 123.85,-738.1 128.56,-740.56"/>
<polygon fill="#63b8ff" stroke="#63b8ff" points="44.98,-520 41.04,-510.17 37.98,-520.31 44.98,-520"/>
</a>
</g>
</g>
<!-- Node25 -->
<g id="Node000025" class="node">
<title>Node25</title>
<g id="a_Node000025"><a xlink:href="de/d9c/class_processing_1_1_stream_processor.html" target="_top" xlink:title=" ">
<polygon fill="white" stroke="#666666" points="230.75,-722.75 127.75,-722.75 127.75,-702 230.75,-702 230.75,-722.75"/>
<text text-anchor="middle" x="179.25" y="-708.3" font-family="Arial" font-size="11.00">StreamProcessor</text>
</a>
</g>
</g>
<!-- Node9&#45;&gt;Node25 -->
<g id="edge41_Node000009_Node000025" class="edge">
<title>Node9&#45;&gt;Node25</title>
<g id="a_edge41_Node000009_Node000025"><a xlink:title=" ">
<path fill="none" stroke="#63b8ff" d="M43.11,-519.69C48.4,-559.36 65.29,-644.79 115.75,-692.38 119.73,-696.13 124.41,-699.17 129.4,-701.65"/>
<polygon fill="#63b8ff" stroke="#63b8ff" points="46.48,-519.45 41.82,-509.94 39.53,-520.29 46.48,-519.45"/>
</a>
</g>
</g>
<!-- Node26 -->
<g id="Node000026" class="node">
<title>Node26</title>
<g id="a_Node000026"><a xlink:href="d8/d64/class_qua_s_a_r.html" target="_top" xlink:title=" ">
<polygon fill="white" stroke="#666666" points="209,-683.75 149.5,-683.75 149.5,-663 209,-663 209,-683.75"/>
<text text-anchor="middle" x="179.25" y="-669.3" font-family="Arial" font-size="11.00">QuaSAR</text>
</a>
</g>
</g>
<!-- Node9&#45;&gt;Node26 -->
<g id="edge42_Node000009_Node000026" class="edge">
<title>Node9&#45;&gt;Node26</title>
<g id="a_edge42_Node000009_Node000026"><a xlink:title=" ">
<path fill="none" stroke="#63b8ff" d="M45.42,-519.55C53.66,-552.83 74.18,-617.26 115.75,-653.38 125.04,-661.44 137.61,-666.26 149.05,-669.14"/>
<polygon fill="#63b8ff" stroke="#63b8ff" points="48.69,-519.13 43.01,-510.18 41.87,-520.72 48.69,-519.13"/>
</a>
</g>
</g>
<!-- Node27 -->
<g id="Node000027" class="node">
<title>Node27</title>
<g id="a_Node000027"><a xlink:href="d8/d13/class_quasar_s_d_k_1_1_enums.html" target="_top" xlink:title="Класс&#45;обёртка для общих перечислений SDK РЛС &quot;Квазар&quot;.">
<polygon fill="white" stroke="#666666" points="204.88,-644.75 153.62,-644.75 153.62,-624 204.88,-624 204.88,-644.75"/>
<text text-anchor="middle" x="179.25" y="-630.3" font-family="Arial" font-size="11.00">Enums</text>
</a>
</g>
</g>
<!-- Node9&#45;&gt;Node27 -->
<g id="edge43_Node000009_Node000027" class="edge">
<title>Node9&#45;&gt;Node27</title>
<g id="a_edge43_Node000009_Node000027"><a xlink:title=" ">
<path fill="none" stroke="#63b8ff" d="M48.95,-518.98C60.14,-544.92 82.78,-589.12 115.75,-614.38 126.6,-622.69 141.01,-627.6 153.26,-630.48"/>
<polygon fill="#63b8ff" stroke="#63b8ff" points="51.92,-518 44.86,-510.1 45.45,-520.67 51.92,-518"/>
</a>
</g>
</g>
<!-- Node28 -->
<g id="Node000028" class="node">
<title>Node28</title>
<g id="a_Node000028"><a xlink:href="d3/d1d/class_quasar_s_d_k_1_1_execd_argument_parser.html" target="_top" xlink:title="Класс для хранения и обработки аргументов команд сервиса execd.">
<polygon fill="white" stroke="#666666" points="242.75,-605.75 115.75,-605.75 115.75,-585 242.75,-585 242.75,-605.75"/>
<text text-anchor="middle" x="179.25" y="-591.3" font-family="Arial" font-size="11.00">ExecdArgumentParser</text>
</a>
</g>
</g>
<!-- Node9&#45;&gt;Node28 -->
<g id="edge44_Node000009_Node000028" class="edge">
<title>Node9&#45;&gt;Node28</title>
<g id="a_edge44_Node000009_Node000028"><a xlink:title=" ">
<path fill="none" stroke="#63b8ff" d="M54.95,-517.49C68.67,-534.87 91.05,-560.07 115.75,-575.38 121.66,-579.03 128.3,-582.09 134.99,-584.61"/>
<polygon fill="#63b8ff" stroke="#63b8ff" points="57.46,-516.01 48.59,-510.2 51.9,-520.27 57.46,-516.01"/>
</a>
</g>
</g>
<!-- Node30 -->
<g id="Node000030" class="node">
<title>Node30</title>
<g id="a_Node000030"><a xlink:href="d2/d12/class_quasar_s_d_k_1_1_quasar_a_p_i.html" target="_top" xlink:title="Публичный интерфейс для работы с сетевой составляющей РЛС &quot;Квазар&quot;.">
<polygon fill="white" stroke="#666666" points="213.88,-566.75 144.62,-566.75 144.62,-546 213.88,-546 213.88,-566.75"/>
<text text-anchor="middle" x="179.25" y="-552.3" font-family="Arial" font-size="11.00">QuasarAPI</text>
</a>
</g>
</g>
<!-- Node9&#45;&gt;Node30 -->
<g id="edge47_Node000009_Node000030" class="edge">
<title>Node9&#45;&gt;Node30</title>
<g id="a_edge47_Node000009_Node000030"><a xlink:title=" ">
<path fill="none" stroke="#63b8ff" d="M69.29,-514.15C83.07,-521.45 100.02,-529.91 115.75,-536.38 124.81,-540.1 134.84,-543.58 144.16,-546.55"/>
<polygon fill="#63b8ff" stroke="#63b8ff" points="71.34,-510.74 60.87,-509.08 68.02,-516.9 71.34,-510.74"/>
</a>
</g>
</g>
<!-- Node31 -->
<g id="Node000031" class="node">
<title>Node31</title>
<g id="a_Node000031"><a xlink:href="df/d8a/class_quasar_s_d_k_1_1_remote_data.html" target="_top" xlink:title="Класс&#45;хранилище для данных, связанных с РЛС.">
<polygon fill="white" stroke="#666666" points="218.38,-527.75 140.12,-527.75 140.12,-507 218.38,-507 218.38,-527.75"/>
<text text-anchor="middle" x="179.25" y="-513.3" font-family="Arial" font-size="11.00">RemoteData</text>
</a>
</g>
</g>
<!-- Node9&#45;&gt;Node31 -->
<g id="edge48_Node000009_Node000031" class="edge">
<title>Node9&#45;&gt;Node31</title>
<g id="a_edge48_Node000009_Node000031"><a xlink:title=" ">
<path fill="none" stroke="#63b8ff" d="M79.57,-503.73C98.41,-506.33 121.01,-509.46 139.82,-512.06"/>
<polygon fill="#63b8ff" stroke="#63b8ff" points="80.06,-500.12 69.67,-502.22 79.1,-507.06 80.06,-500.12"/>
</a>
</g>
</g>
<!-- Node33 -->
<g id="Node000033" class="node">
<title>Node33</title>
<g id="a_Node000033"><a xlink:href="d4/da9/class_quasar_s_d_k_1_1_telemetry.html" target="_top" xlink:title="Класс&#45;хранилище для текущей телеметрии РЛС.">
<polygon fill="white" stroke="#666666" points="211.62,-488.75 146.88,-488.75 146.88,-468 211.62,-468 211.62,-488.75"/>
<text text-anchor="middle" x="179.25" y="-474.3" font-family="Arial" font-size="11.00">Telemetry</text>
</a>
</g>
</g>
<!-- Node9&#45;&gt;Node33 -->
<g id="edge50_Node000009_Node000033" class="edge">
<title>Node9&#45;&gt;Node33</title>
<g id="a_edge50_Node000009_Node000033"><a xlink:title=" ">
<path fill="none" stroke="#63b8ff" d="M79.29,-492.78C100.53,-489.69 126.6,-485.89 146.65,-482.98"/>
<polygon fill="#63b8ff" stroke="#63b8ff" points="79.07,-489.42 69.67,-494.33 80.07,-496.35 79.07,-489.42"/>
</a>
</g>
</g>
<!-- Node34 -->
<g id="Node000034" class="node">
<title>Node34</title>
<g id="a_Node000034"><a xlink:href="d0/db8/class_scenegraph_1_1_utils_1_1_color_provider.html" target="_top" xlink:title="Класс, предоставляющий палитру контрастных цветов.">
<polygon fill="white" stroke="#666666" points="220.62,-449.75 137.88,-449.75 137.88,-429 220.62,-429 220.62,-449.75"/>
<text text-anchor="middle" x="179.25" y="-435.3" font-family="Arial" font-size="11.00">ColorProvider</text>
</a>
</g>
</g>
<!-- Node9&#45;&gt;Node34 -->
<g id="edge51_Node000009_Node000034" class="edge">
<title>Node9&#45;&gt;Node34</title>
<g id="a_edge51_Node000009_Node000034"><a xlink:title=" ">
<path fill="none" stroke="#63b8ff" d="M68.96,-482.3C82.78,-474.76 99.86,-466 115.75,-459.38 123.74,-456.04 132.5,-452.93 140.86,-450.19"/>
<polygon fill="#63b8ff" stroke="#63b8ff" points="67.58,-479.61 60.53,-487.52 70.97,-485.74 67.58,-479.61"/>
</a>
</g>
</g>
<!-- Node7 -->
<g id="Node000007" class="node">
<title>Node7</title>
<g id="a_Node000007"><a xlink:title=" ">
<polygon fill="#e0e0e0" stroke="#999999" points="79,-1034.75 0.75,-1034.75 0.75,-1014 79,-1014 79,-1034.75"/>
<text text-anchor="middle" x="39.88" y="-1020.3" font-family="Arial" font-size="11.00">QUdpSocket</text>
</a>
</g>
</g>
<!-- Node7&#45;&gt;Node1 -->
<g id="edge52_Node000007_Node000001" class="edge">
<title>Node7&#45;&gt;Node1</title>
<g id="a_edge52_Node000007_Node000001"><a xlink:title=" ">
<path fill="none" stroke="#63b8ff" d="M90.13,-1024.38C102.98,-1024.38 116.81,-1024.38 129.63,-1024.38"/>
<polygon fill="#63b8ff" stroke="#63b8ff" points="90.14,-1020.88 80.14,-1024.38 90.14,-1027.88 90.14,-1020.88"/>
</a>
</g>
</g>
</g>
</svg>
