<?xml version="1.0" encoding="UTF-8" standalone="no"?>
<!DOCTYPE svg PUBLIC "-//W3C//DTD SVG 1.1//EN"
 "http://www.w3.org/Graphics/SVG/1.1/DTD/svg11.dtd">
<!-- Generated by graphviz version 8.1.0 (20230707.0739)
 -->
<!-- Title: Иерархия классов. Графический вид. Pages: 1 -->
<svg width="189pt" height="68pt"
 viewBox="0.00 0.00 189.25 67.75" xmlns="http://www.w3.org/2000/svg" xmlns:xlink="http://www.w3.org/1999/xlink">
<g id="graph0" class="graph" transform="scale(1 1) rotate(0) translate(4 63.75)">
<title>Иерархия классов. Графический вид.</title>
<!-- Node0 -->
<g id="Node000000" class="node">
<title>Node0</title>
<g id="a_Node000000"><a xlink:href="d0/d6f/struct_map_1_1_image.html" target="_top" xlink:title=" ">
<polygon fill="white" stroke="#666666" points="46,-39.75 0,-39.75 0,-19 46,-19 46,-39.75"/>
<text text-anchor="middle" x="23" y="-25.3" font-family="Arial" font-size="11.00">Image</text>
</a>
</g>
</g>
<!-- Node1 -->
<g id="Node000001" class="node">
<title>Node1</title>
<g id="a_Node000001"><a xlink:href="d4/d7d/struct_map_1_1_strip_image.html" target="_top" xlink:title=" ">
<polygon fill="white" stroke="#666666" points="165.88,-59.75 97.38,-59.75 97.38,-39 165.88,-39 165.88,-59.75"/>
<text text-anchor="middle" x="131.62" y="-45.3" font-family="Arial" font-size="11.00">StripImage</text>
</a>
</g>
</g>
<!-- Node0&#45;&gt;Node1 -->
<g id="edge53_Node000000_Node000001" class="edge">
<title>Node0&#45;&gt;Node1</title>
<g id="a_edge53_Node000000_Node000001"><a xlink:title=" ">
<path fill="none" stroke="#63b8ff" d="M56.96,-35.56C69.66,-37.94 84.18,-40.66 96.95,-43.06"/>
<polygon fill="#63b8ff" stroke="#63b8ff" points="57.83,-31.97 47.35,-33.57 56.54,-38.85 57.83,-31.97"/>
</a>
</g>
</g>
<!-- Node2 -->
<g id="Node000002" class="node">
<title>Node2</title>
<g id="a_Node000002"><a xlink:href="d3/d4a/struct_map_1_1_telescopic_image.html" target="_top" xlink:title=" ">
<polygon fill="white" stroke="#666666" points="181.25,-20.75 82,-20.75 82,0 181.25,0 181.25,-20.75"/>
<text text-anchor="middle" x="131.62" y="-6.3" font-family="Arial" font-size="11.00">TelescopicImage</text>
</a>
</g>
</g>
<!-- Node0&#45;&gt;Node2 -->
<g id="edge54_Node000000_Node000002" class="edge">
<title>Node0&#45;&gt;Node2</title>
<g id="a_edge54_Node000000_Node000002"><a xlink:title=" ">
<path fill="none" stroke="#63b8ff" d="M57.11,-23.47C64.85,-22.1 73.25,-20.6 81.51,-19.13"/>
<polygon fill="#63b8ff" stroke="#63b8ff" points="56.58,-20.19 47.35,-25.39 57.81,-27.08 56.58,-20.19"/>
</a>
</g>
</g>
</g>
</svg>
