<?xml version="1.0" encoding="UTF-8" standalone="no"?>
<!DOCTYPE svg PUBLIC "-//W3C//DTD SVG 1.1//EN"
 "http://www.w3.org/Graphics/SVG/1.1/DTD/svg11.dtd">
<!-- Generated by graphviz version 8.1.0 (20230707.0739)
 -->
<!-- Title: Иерархия классов. Графический вид. Pages: 1 -->
<svg width="416pt" height="302pt"
 viewBox="0.00 0.00 416.00 301.75" xmlns="http://www.w3.org/2000/svg" xmlns:xlink="http://www.w3.org/1999/xlink">
<g id="graph0" class="graph" transform="scale(1 1) rotate(0) translate(4 297.75)">
<title>Иерархия классов. Графический вид.</title>
<!-- Node0 -->
<g id="Node000000" class="node">
<title>Node0</title>
<g id="a_Node000000"><a xlink:title=" ">
<polygon fill="#e0e0e0" stroke="#999999" points="111.25,-156.75 0,-156.75 0,-136 111.25,-136 111.25,-156.75"/>
<text text-anchor="middle" x="55.62" y="-142.3" font-family="Arial" font-size="11.00">QAbstractListModel</text>
</a>
</g>
</g>
<!-- Node1 -->
<g id="Node000001" class="node">
<title>Node1</title>
<g id="a_Node000001"><a xlink:href="d9/d3c/class_g_u_i_1_1_notifications_model.html" target="_top" xlink:title=" ">
<polygon fill="white" stroke="#666666" points="261.5,-293.75 157.75,-293.75 157.75,-273 261.5,-273 261.5,-293.75"/>
<text text-anchor="middle" x="209.62" y="-279.3" font-family="Arial" font-size="11.00">NotificationsModel</text>
</a>
</g>
</g>
<!-- Node0&#45;&gt;Node1 -->
<g id="edge56_Node000000_Node000001" class="edge">
<title>Node0&#45;&gt;Node1</title>
<g id="a_edge56_Node000000_Node000001"><a xlink:title=" ">
<path fill="none" stroke="#63b8ff" d="M67.3,-166.77C81.96,-192.83 110.69,-237.64 147.25,-263.38 152.47,-267.05 158.41,-270.08 164.49,-272.57"/>
<polygon fill="#63b8ff" stroke="#63b8ff" points="69.93,-165.26 62.07,-158.16 63.78,-168.62 69.93,-165.26"/>
</a>
</g>
</g>
<!-- Node2 -->
<g id="Node000002" class="node">
<title>Node2</title>
<g id="a_Node000002"><a xlink:href="d2/db3/class_g_u_i_1_1_terminal_base.html" target="_top" xlink:title=" ">
<polygon fill="white" stroke="#666666" points="251.75,-254.75 167.5,-254.75 167.5,-234 251.75,-234 251.75,-254.75"/>
<text text-anchor="middle" x="209.62" y="-240.3" font-family="Arial" font-size="11.00">TerminalBase</text>
</a>
</g>
</g>
<!-- Node0&#45;&gt;Node2 -->
<g id="edge57_Node000000_Node000002" class="edge">
<title>Node0&#45;&gt;Node2</title>
<g id="a_edge57_Node000000_Node000002"><a xlink:title=" ">
<path fill="none" stroke="#63b8ff" d="M73.97,-165.08C91.11,-182.58 118.8,-208.36 147.25,-224.38 153.6,-227.95 160.68,-231 167.71,-233.56"/>
<polygon fill="#63b8ff" stroke="#63b8ff" points="76.9,-163.04 67.45,-158.24 71.85,-167.88 76.9,-163.04"/>
</a>
</g>
</g>
<!-- Node4 -->
<g id="Node000004" class="node">
<title>Node4</title>
<g id="a_Node000004"><a xlink:href="d2/def/class_map_1_1_geo_marker_model.html" target="_top" xlink:title=" ">
<polygon fill="white" stroke="#666666" points="258.5,-215.75 160.75,-215.75 160.75,-195 258.5,-195 258.5,-215.75"/>
<text text-anchor="middle" x="209.62" y="-201.3" font-family="Arial" font-size="11.00">GeoMarkerModel</text>
</a>
</g>
</g>
<!-- Node0&#45;&gt;Node4 -->
<g id="edge59_Node000000_Node000004" class="edge">
<title>Node0&#45;&gt;Node4</title>
<g id="a_edge59_Node000000_Node000004"><a xlink:title=" ">
<path fill="none" stroke="#63b8ff" d="M90.22,-161.7C107.17,-169.21 128.14,-178.17 147.25,-185.38 155.64,-188.54 164.78,-191.68 173.38,-194.5"/>
<polygon fill="#63b8ff" stroke="#63b8ff" points="91.79,-158.12 81.23,-157.24 88.94,-164.51 91.79,-158.12"/>
</a>
</g>
</g>
<!-- Node5 -->
<g id="Node000005" class="node">
<title>Node5</title>
<g id="a_Node000005"><a xlink:href="d0/d89/class_map_1_1_image_model.html" target="_top" xlink:title=" ">
<polygon fill="white" stroke="#666666" points="246.88,-176.75 172.38,-176.75 172.38,-156 246.88,-156 246.88,-176.75"/>
<text text-anchor="middle" x="209.62" y="-162.3" font-family="Arial" font-size="11.00">ImageModel</text>
</a>
</g>
</g>
<!-- Node0&#45;&gt;Node5 -->
<g id="edge60_Node000000_Node000005" class="edge">
<title>Node0&#45;&gt;Node5</title>
<g id="a_edge60_Node000000_Node000005"><a xlink:title=" ">
<path fill="none" stroke="#63b8ff" d="M122.01,-154.98C139.08,-157.22 156.88,-159.57 171.88,-161.54"/>
<polygon fill="#63b8ff" stroke="#63b8ff" points="122.87,-151.43 112.5,-153.6 121.96,-158.37 122.87,-151.43"/>
</a>
</g>
</g>
<!-- Node6 -->
<g id="Node000006" class="node">
<title>Node6</title>
<g id="a_Node000006"><a xlink:href="d2/dfd/class_map_1_1_ruler.html" target="_top" xlink:title=" ">
<polygon fill="white" stroke="#666666" points="230.75,-137.75 188.5,-137.75 188.5,-117 230.75,-117 230.75,-137.75"/>
<text text-anchor="middle" x="209.62" y="-123.3" font-family="Arial" font-size="11.00">Ruler</text>
</a>
</g>
</g>
<!-- Node0&#45;&gt;Node6 -->
<g id="edge61_Node000000_Node000006" class="edge">
<title>Node0&#45;&gt;Node6</title>
<g id="a_edge61_Node000000_Node000006"><a xlink:title=" ">
<path fill="none" stroke="#63b8ff" d="M122.3,-138.17C146.11,-135.19 171.28,-132.04 188.26,-129.92"/>
<polygon fill="#63b8ff" stroke="#63b8ff" points="121.99,-134.8 112.5,-139.52 122.86,-141.75 121.99,-134.8"/>
</a>
</g>
</g>
<!-- Node7 -->
<g id="Node000007" class="node">
<title>Node7</title>
<g id="a_Node000007"><a xlink:href="d4/db5/class_map_1_1_stream_segment_model.html" target="_top" xlink:title=" ">
<polygon fill="white" stroke="#666666" points="272,-98.75 147.25,-98.75 147.25,-78 272,-78 272,-98.75"/>
<text text-anchor="middle" x="209.62" y="-84.3" font-family="Arial" font-size="11.00">StreamSegmentModel</text>
</a>
</g>
</g>
<!-- Node0&#45;&gt;Node7 -->
<g id="edge62_Node000000_Node000007" class="edge">
<title>Node0&#45;&gt;Node7</title>
<g id="a_edge62_Node000000_Node000007"><a xlink:title=" ">
<path fill="none" stroke="#63b8ff" d="M90.96,-131.2C107.79,-123.95 128.45,-115.37 147.25,-108.38 155.76,-105.21 165.03,-102.05 173.72,-99.2"/>
<polygon fill="#63b8ff" stroke="#63b8ff" points="89.81,-128.31 82.02,-135.5 92.59,-134.74 89.81,-128.31"/>
</a>
</g>
</g>
<!-- Node8 -->
<g id="Node000008" class="node">
<title>Node8</title>
<g id="a_Node000008"><a xlink:href="d9/d42/class_map_1_1_track_event_model.html" target="_top" xlink:title=" ">
<polygon fill="white" stroke="#666666" points="259.62,-59.75 159.62,-59.75 159.62,-39 259.62,-39 259.62,-59.75"/>
<text text-anchor="middle" x="209.62" y="-45.3" font-family="Arial" font-size="11.00">TrackEventModel</text>
</a>
</g>
</g>
<!-- Node0&#45;&gt;Node8 -->
<g id="edge63_Node000000_Node000008" class="edge">
<title>Node0&#45;&gt;Node8</title>
<g id="a_edge63_Node000000_Node000008"><a xlink:title=" ">
<path fill="none" stroke="#63b8ff" d="M74.02,-127.92C91.19,-110.65 118.91,-85.22 147.25,-69.38 153.61,-65.82 160.7,-62.78 167.73,-60.23"/>
<polygon fill="#63b8ff" stroke="#63b8ff" points="71.95,-125.05 67.48,-134.66 76.97,-129.93 71.95,-125.05"/>
</a>
</g>
</g>
<!-- Node9 -->
<g id="Node000009" class="node">
<title>Node9</title>
<g id="a_Node000009"><a xlink:href="de/de9/class_quasar_s_d_k_1_1_i_o_1_1_message_model.html" target="_top" xlink:title="Базовый класс для модели сообщений.">
<polygon fill="white" stroke="#666666" points="254,-20.75 165.25,-20.75 165.25,0 254,0 254,-20.75"/>
<text text-anchor="middle" x="209.62" y="-6.3" font-family="Arial" font-size="11.00">MessageModel</text>
</a>
</g>
</g>
<!-- Node0&#45;&gt;Node9 -->
<g id="edge64_Node000000_Node000009" class="edge">
<title>Node0&#45;&gt;Node9</title>
<g id="a_edge64_Node000000_Node000009"><a xlink:title=" ">
<path fill="none" stroke="#63b8ff" d="M67.35,-126.16C82.05,-100.33 110.83,-55.9 147.25,-30.38 152.57,-26.64 158.63,-23.58 164.83,-21.07"/>
<polygon fill="#63b8ff" stroke="#63b8ff" points="63.86,-124.24 62.09,-134.68 69.99,-127.62 63.86,-124.24"/>
</a>
</g>
</g>
<!-- Node3 -->
<g id="Node000003" class="node">
<title>Node3</title>
<g id="a_Node000003"><a xlink:href="d6/d30/class_g_u_i_1_1_debug_console.html" target="_top" xlink:title=" ">
<polygon fill="white" stroke="#666666" points="402.38,-254.75 313.62,-254.75 313.62,-234 402.38,-234 402.38,-254.75"/>
<text text-anchor="middle" x="358" y="-240.3" font-family="Arial" font-size="11.00">DebugConsole</text>
</a>
</g>
</g>
<!-- Node2&#45;&gt;Node3 -->
<g id="edge58_Node000002_Node000003" class="edge">
<title>Node2&#45;&gt;Node3</title>
<g id="a_edge58_Node000002_Node000003"><a xlink:title=" ">
<path fill="none" stroke="#63b8ff" d="M262.78,-244.38C279.32,-244.38 297.42,-244.38 313.3,-244.38"/>
<polygon fill="#63b8ff" stroke="#63b8ff" points="263.18,-240.88 253.18,-244.38 263.18,-247.88 263.18,-240.88"/>
</a>
</g>
</g>
<!-- Node10 -->
<g id="Node000010" class="node">
<title>Node10</title>
<g id="a_Node000010"><a xlink:href="df/d9e/class_quasar_s_d_k_1_1_i_o_1_1_s_a_r_output_model.html" target="_top" xlink:title="Класс&#45;модель, обрабатывающий и хранящий сообщения от РЛС (VT100).">
<polygon fill="white" stroke="#666666" points="408,-20.75 308,-20.75 308,0 408,0 408,-20.75"/>
<text text-anchor="middle" x="358" y="-6.3" font-family="Arial" font-size="11.00">SAROutputModel</text>
</a>
</g>
</g>
<!-- Node9&#45;&gt;Node10 -->
<g id="edge65_Node000009_Node000010" class="edge">
<title>Node9&#45;&gt;Node10</title>
<g id="a_edge65_Node000009_Node000010"><a xlink:title=" ">
<path fill="none" stroke="#63b8ff" d="M265.11,-10.38C279.09,-10.38 294.04,-10.38 307.74,-10.38"/>
<polygon fill="#63b8ff" stroke="#63b8ff" points="265.15,-6.88 255.15,-10.38 265.15,-13.88 265.15,-6.88"/>
</a>
</g>
</g>
</g>
</svg>
