<svg width="1160" height="328" viewBox="0 0 1160 328" fill="none" xmlns="http://www.w3.org/2000/svg">
<g filter="url(#filter0_d_106_10)">
<rect x="4" width="1152" height="320" rx="45" fill="#DCE0E8"/>
</g>
<path d="M187.953 53.3753L181.624 60.2064L205.885 84.378L200.611 93.311L195.864 105.397L193.755 117.483V126.941L195.864 137.45L199.029 150.062L206.94 161.622L213.269 168.979L226.454 179.488L238.057 184.743L251.77 186.319H263.373L273.394 184.743L280.251 182.641L287.107 179.488L295.018 175.284L305.567 186.319L300.292 189.997L289.217 195.252L272.339 200.507L257.044 201.558H248.078L232.256 197.879L221.708 193.15L212.214 187.895L205.358 182.641L197.446 175.284L192.7 168.979C190.59 165.826 186.371 159.31 186.371 158.469C186.371 157.628 183.909 152.514 182.679 150.062L180.569 141.654L178.46 129.043V119.059C178.811 115.556 179.62 108.339 180.042 107.499C180.569 106.448 181.624 101.193 181.624 100.668C181.624 100.247 182.327 97.3396 182.679 95.9383L186.371 88.0563L173.185 74.3941L168.439 81.7507L164.747 89.6327L161.055 104.346L160 121.161V131.67L161.055 142.18L164.747 156.367L169.493 167.402L177.932 180.539L188.48 193.15L201.666 204.185L217.488 213.118L230.146 216.796L240.695 219.949L254.407 221H263.373L276.031 219.949L287.107 216.796L297.128 213.118L305.567 208.914L311.896 204.71L318.752 198.93L334.574 214.169H362L308.204 161.622L309.786 159.52L314.005 153.214L317.697 144.807L320.334 137.45L321.389 128.517V120.11L320.334 110.126L317.697 101.718L314.005 93.311L307.149 82.8016L298.71 74.3941L292.909 69.6649L285.525 65.4611L275.504 62.3083L266.538 60.2064L256.517 59.681L249.133 60.2064L240.167 61.2574L233.838 63.3593L247.551 78.5979H263.901L273.394 80.1743L280.778 84.378L288.162 89.1072L293.963 95.9383L300.82 106.973L302.402 117.483V128.517L300.292 137.976L298.183 143.756L295.018 148.485L288.162 142.18H261.791L280.251 161.622L273.394 165.3L263.373 167.402H250.188L238.057 163.724L230.146 158.469L223.817 152.689L219.07 145.858L214.851 137.45L212.214 125.365L213.269 114.33L215.379 106.448L219.598 98.0402L226.454 89.6327L232.256 84.9035L208.522 61.2574L210.632 58.63L220.653 52.3244L233.311 47.0697L246.496 43.9169L259.154 43.3914L271.812 44.4424L280.251 46.5442L290.799 50.2225L300.292 55.4772L309.258 62.3083L317.697 71.2413L325.608 82.2761L332.465 95.9383L334.574 102.769L336.157 110.126L337.211 119.059V126.941L336.684 134.823L334.574 143.231L331.41 153.214L328.245 160.046L341.958 172.657L345.65 165.826L348.815 159.52L350.924 152.164L353.561 143.231L355.144 133.247L355.671 124.839V115.381L354.616 106.973L352.507 96.9893L348.815 87.0054L346.178 80.1743L342.486 73.3432L338.794 67.563L332.992 60.2064L328.245 54.9517L319.279 46.5442L311.896 41.2895L303.984 36.0349L295.018 32.3566L284.47 28.6783L273.922 26.0509L264.956 25H255.462L245.969 26.0509L233.311 28.1528L222.762 31.3056L213.796 35.5094L206.413 39.1877L201.138 42.3405L194.282 47.5952L187.953 53.3753Z" fill="#DF8E1D"/>
<path d="M413.3 218.4C401.5 218.4 392.5 214.8 386.3 207.6C380.1 200.4 377 189.867 377 176V113.8H399.4V171.6C399.4 180.267 401 186.7 404.2 190.9C407.467 195.033 412.367 197.1 418.9 197.1C426.033 197.1 431.333 195.033 434.8 190.9C438.267 186.7 440 180.4 440 172V113.8H462.5V216H440V206.4C436.867 210.4 433.067 213.4 428.6 215.4C424.2 217.4 419.1 218.4 413.3 218.4ZM524.992 218.4C513.792 218.4 504.992 215.367 498.592 209.3C492.192 203.233 488.992 195 488.992 184.6C488.992 177.8 490.626 171.9 493.892 166.9C497.159 161.833 501.759 157.933 507.692 155.2C513.626 152.4 520.559 151 528.492 151C533.159 151 537.592 151.467 541.792 152.4C546.059 153.267 549.859 154.6 553.192 156.4V149.8C553.192 143.267 551.526 138.433 548.192 135.3C544.859 132.1 539.826 130.5 533.092 130.5C528.159 130.5 523.059 131.4 517.792 133.2C512.526 135 507.359 137.6 502.292 141L495.592 123.1C501.192 119.367 507.492 116.5 514.492 114.5C521.492 112.433 528.526 111.4 535.592 111.4C548.726 111.4 558.559 114.6 565.092 121C571.692 127.333 574.992 136.867 574.992 149.6V216H553.192V207.4C549.592 210.933 545.359 213.667 540.492 215.6C535.626 217.467 530.459 218.4 524.992 218.4ZM529.592 199.3C533.926 199.3 538.126 198.367 542.192 196.5C546.326 194.633 549.992 191.967 553.192 188.5V174.6C550.192 172.933 546.792 171.667 542.992 170.8C539.259 169.867 535.592 169.4 531.992 169.4C525.326 169.4 520.092 170.767 516.292 173.5C512.492 176.167 510.592 179.867 510.592 184.6C510.592 189.133 512.259 192.733 515.592 195.4C518.926 198 523.592 199.3 529.592 199.3ZM649.967 218.4C641.434 218.4 633.667 216.933 626.667 214C619.734 211 613.801 206.867 608.867 201.6C604.001 196.267 600.367 190.067 597.967 183L619.067 175.1C622.001 181.5 626.201 186.7 631.667 190.7C637.134 194.633 643.434 196.6 650.567 196.6C658.034 196.6 664.034 194.933 668.567 191.6C673.101 188.267 675.367 183.4 675.367 177C675.367 172.6 674.034 168.933 671.367 166C668.701 163 665.134 160.467 660.667 158.4C656.201 156.267 651.301 154.267 645.967 152.4C640.967 150.6 635.901 148.633 630.767 146.5C625.634 144.367 620.967 141.767 616.767 138.7C612.567 135.567 609.167 131.733 606.567 127.2C604.034 122.6 602.767 117 602.767 110.4C602.767 103.733 604.567 97.6333 608.167 92.1C611.767 86.5 616.967 82.0333 623.767 78.7C630.567 75.3 638.767 73.6 648.367 73.6C656.301 73.6 663.301 74.9 669.367 77.5C675.434 80.0333 680.434 83.5333 684.367 88C688.301 92.4 691.067 97.3667 692.667 102.9L671.867 109.8C670.067 105.733 667.134 102.3 663.067 99.5C659.067 96.6333 653.701 95.2 646.967 95.2C640.434 95.2 635.334 96.5667 631.667 99.3C628.001 101.967 626.167 105.733 626.167 110.6C626.167 114.067 627.401 117 629.867 119.4C632.334 121.733 635.634 123.8 639.767 125.6C643.967 127.4 648.567 129.2 653.567 131C658.901 132.933 664.201 135.067 669.467 137.4C674.801 139.733 679.667 142.6 684.067 146C688.534 149.4 692.067 153.6 694.667 158.6C697.334 163.6 698.667 169.7 698.667 176.9C698.667 185.7 696.534 193.2 692.267 199.4C688.001 205.533 682.167 210.233 674.767 213.5C667.434 216.767 659.167 218.4 649.967 218.4ZM711.978 216L764.078 76H785.878L837.978 216H813.478L802.178 184.8H747.878L736.778 216H711.978ZM755.278 163.9H794.578L779.178 121.6C778.778 120.467 778.311 119.133 777.778 117.6C777.245 116.067 776.711 114.567 776.178 113.1C775.645 111.567 775.245 110.2 774.978 109C774.645 110.2 774.211 111.567 773.678 113.1C773.211 114.567 772.711 116.067 772.178 117.6C771.645 119.133 771.178 120.467 770.778 121.6L755.278 163.9ZM860.459 216V76H921.359C932.826 76 941.893 78 948.559 82C955.226 86 959.959 91.2333 962.759 97.7C965.626 104.1 967.059 110.9 967.059 118.1C967.059 123.5 966.026 128.9 963.959 134.3C961.893 139.7 958.659 144.533 954.259 148.8C949.926 153 944.359 156.033 937.559 157.9L965.959 216H940.059L912.759 160.6H883.559V216H860.459ZM883.559 139H921.759C927.159 139 931.426 138 934.559 136C937.759 134 940.026 131.433 941.359 128.3C942.693 125.167 943.359 121.867 943.359 118.4C943.359 115.2 942.726 112.033 941.459 108.9C940.259 105.7 938.059 103.033 934.859 100.9C931.726 98.7 927.359 97.6 921.759 97.6H883.559V139Z" fill="#4C4F69"/>
<path d="M301.64 288.576C299.64 288.576 297.824 288.24 296.192 287.568C294.576 286.88 293.192 285.936 292.04 284.736C290.904 283.536 290.072 282.152 289.544 280.584L294.056 278.928C294.744 280.432 295.752 281.656 297.08 282.6C298.424 283.528 299.984 283.992 301.76 283.992C303.664 283.992 305.184 283.552 306.32 282.672C307.472 281.792 308.048 280.504 308.048 278.808C308.048 277.64 307.704 276.656 307.016 275.856C306.344 275.056 305.448 274.384 304.328 273.84C303.224 273.28 302.024 272.768 300.728 272.304C299.544 271.872 298.352 271.4 297.152 270.888C295.952 270.36 294.864 269.728 293.888 268.992C292.912 268.256 292.12 267.352 291.512 266.28C290.92 265.208 290.624 263.912 290.624 262.392C290.624 260.84 291.04 259.416 291.872 258.12C292.72 256.824 293.936 255.784 295.52 255C297.104 254.216 299.016 253.824 301.256 253.824C303.096 253.824 304.712 254.112 306.104 254.688C307.512 255.248 308.672 256.024 309.584 257.016C310.496 257.992 311.128 259.104 311.48 260.352L307.064 261.816C306.648 260.856 305.928 260.04 304.904 259.368C303.896 258.696 302.576 258.36 300.944 258.36C299.28 258.36 297.968 258.72 297.008 259.44C296.064 260.16 295.592 261.152 295.592 262.416C295.592 263.344 295.912 264.128 296.552 264.768C297.192 265.392 298.032 265.944 299.072 266.424C300.128 266.904 301.272 267.368 302.504 267.816C303.736 268.264 304.968 268.776 306.2 269.352C307.432 269.912 308.56 270.6 309.584 271.416C310.624 272.232 311.456 273.24 312.08 274.44C312.704 275.624 313.016 277.056 313.016 278.736C313.016 280.832 312.512 282.616 311.504 284.088C310.512 285.544 309.16 286.656 307.448 287.424C305.736 288.192 303.8 288.576 301.64 288.576ZM316.721 288L328.913 254.4H333.473L345.689 288H340.625L337.817 280.152H324.641L321.881 288H316.721ZM326.129 275.808H336.257L332.249 264.504C332.137 264.2 332.017 263.856 331.889 263.472C331.761 263.072 331.633 262.68 331.505 262.296C331.377 261.912 331.281 261.576 331.217 261.288C331.137 261.576 331.033 261.912 330.905 262.296C330.793 262.68 330.673 263.072 330.545 263.472C330.417 263.856 330.297 264.2 330.185 264.504L326.129 275.808ZM351.464 288V254.4H365.384C368.12 254.4 370.272 254.872 371.84 255.816C373.408 256.76 374.52 257.984 375.176 259.488C375.848 260.992 376.184 262.576 376.184 264.24C376.184 265.536 375.928 266.832 375.416 268.128C374.904 269.424 374.096 270.568 372.992 271.56C371.904 272.552 370.488 273.264 368.744 273.696L375.752 288H370.28L363.56 274.152H356.312V288H351.464ZM356.312 269.616H365.48C366.92 269.616 368.056 269.36 368.888 268.848C369.736 268.32 370.336 267.656 370.688 266.856C371.056 266.04 371.24 265.192 371.24 264.312C371.24 263.512 371.072 262.704 370.736 261.888C370.4 261.056 369.816 260.36 368.984 259.8C368.152 259.224 366.984 258.936 365.48 258.936H356.312V269.616ZM407.868 288.552C405.308 288.552 403.132 288.056 401.34 287.064C399.564 286.072 398.132 284.744 397.044 283.08C395.956 281.4 395.156 279.528 394.644 277.464C394.148 275.4 393.9 273.312 393.9 271.2C393.9 269.136 394.156 267.08 394.668 265.032C395.18 262.968 395.988 261.096 397.092 259.416C398.212 257.72 399.66 256.368 401.436 255.36C403.212 254.336 405.356 253.824 407.868 253.824C409.964 253.824 411.748 254.144 413.22 254.784C414.692 255.408 415.9 256.216 416.844 257.208C417.804 258.2 418.54 259.232 419.052 260.304L414.684 262.464C414.156 261.664 413.588 260.96 412.98 260.352C412.372 259.728 411.66 259.248 410.844 258.912C410.028 258.56 409.036 258.384 407.868 258.384C406.204 258.384 404.796 258.776 403.644 259.56C402.492 260.328 401.572 261.344 400.884 262.608C400.196 263.872 399.7 265.256 399.396 266.76C399.092 268.264 398.94 269.744 398.94 271.2C398.94 272.768 399.108 274.312 399.444 275.832C399.78 277.336 400.316 278.704 401.052 279.936C401.788 281.152 402.716 282.128 403.836 282.864C404.956 283.584 406.3 283.944 407.868 283.944C409.596 283.944 410.996 283.552 412.068 282.768C413.14 281.968 414.06 280.936 414.828 279.672L419.292 281.328C418.668 282.688 417.844 283.912 416.82 285C415.796 286.088 414.548 286.952 413.076 287.592C411.604 288.232 409.868 288.552 407.868 288.552ZM438.347 288.576C435.691 288.576 433.443 288.072 431.603 287.064C429.763 286.04 428.283 284.688 427.163 283.008C426.043 281.312 425.227 279.44 424.715 277.392C424.203 275.344 423.947 273.28 423.947 271.2C423.947 269.12 424.203 267.056 424.715 265.008C425.227 262.96 426.043 261.096 427.163 259.416C428.283 257.72 429.763 256.368 431.603 255.36C433.443 254.336 435.691 253.824 438.347 253.824C441.003 253.824 443.251 254.336 445.091 255.36C446.931 256.368 448.411 257.72 449.531 259.416C450.651 261.096 451.459 262.96 451.955 265.008C452.467 267.056 452.723 269.12 452.723 271.2C452.723 273.28 452.467 275.344 451.955 277.392C451.459 279.44 450.651 281.312 449.531 283.008C448.411 284.688 446.931 286.04 445.091 287.064C443.251 288.072 441.003 288.576 438.347 288.576ZM438.347 283.968C440.075 283.968 441.531 283.576 442.715 282.792C443.915 282.008 444.883 280.984 445.619 279.72C446.355 278.456 446.883 277.08 447.203 275.592C447.523 274.088 447.683 272.624 447.683 271.2C447.683 269.648 447.523 268.12 447.203 266.616C446.883 265.096 446.355 263.72 445.619 262.488C444.899 261.24 443.939 260.248 442.739 259.512C441.555 258.76 440.091 258.384 438.347 258.384C436.603 258.384 435.131 258.776 433.931 259.56C432.747 260.344 431.787 261.376 431.051 262.656C430.331 263.92 429.803 265.304 429.467 266.808C429.147 268.296 428.987 269.76 428.987 271.2C428.987 272.736 429.147 274.264 429.467 275.784C429.803 277.288 430.331 278.664 431.051 279.912C431.787 281.144 432.747 282.128 433.931 282.864C435.131 283.6 436.603 283.968 438.347 283.968ZM460.027 288V254.4H464.779L479.107 276.936C479.331 277.288 479.563 277.68 479.802 278.112C480.043 278.544 480.275 278.984 480.499 279.432C480.483 279.032 480.459 278.608 480.427 278.16C480.411 277.712 480.403 277.312 480.403 276.96V254.4H485.251V288H480.715L466.123 265.368C465.931 265.032 465.707 264.648 465.451 264.216C465.211 263.784 464.979 263.368 464.755 262.968C464.803 263.336 464.835 263.736 464.851 264.168C464.867 264.6 464.875 265 464.875 265.368V288H460.027ZM501.306 288V259.056H491.898V254.4H515.586V259.056H506.154V288H501.306ZM522.23 288V254.4H536.15C538.886 254.4 541.038 254.872 542.606 255.816C544.174 256.76 545.286 257.984 545.942 259.488C546.614 260.992 546.95 262.576 546.95 264.24C546.95 265.536 546.694 266.832 546.182 268.128C545.67 269.424 544.862 270.568 543.758 271.56C542.67 272.552 541.254 273.264 539.51 273.696L546.518 288H541.046L534.326 274.152H527.078V288H522.23ZM527.078 269.616H536.246C537.686 269.616 538.822 269.36 539.654 268.848C540.502 268.32 541.102 267.656 541.454 266.856C541.822 266.04 542.006 265.192 542.006 264.312C542.006 263.512 541.838 262.704 541.502 261.888C541.166 261.056 540.582 260.36 539.75 259.8C538.918 259.224 537.75 258.936 536.246 258.936H527.078V269.616ZM567.535 288.576C564.879 288.576 562.631 288.072 560.791 287.064C558.951 286.04 557.471 284.688 556.351 283.008C555.231 281.312 554.415 279.44 553.903 277.392C553.391 275.344 553.135 273.28 553.135 271.2C553.135 269.12 553.391 267.056 553.903 265.008C554.415 262.96 555.231 261.096 556.351 259.416C557.471 257.72 558.951 256.368 560.791 255.36C562.631 254.336 564.879 253.824 567.535 253.824C570.191 253.824 572.439 254.336 574.279 255.36C576.119 256.368 577.599 257.72 578.719 259.416C579.839 261.096 580.647 262.96 581.143 265.008C581.655 267.056 581.911 269.12 581.911 271.2C581.911 273.28 581.655 275.344 581.143 277.392C580.647 279.44 579.839 281.312 578.719 283.008C577.599 284.688 576.119 286.04 574.279 287.064C572.439 288.072 570.191 288.576 567.535 288.576ZM567.535 283.968C569.263 283.968 570.719 283.576 571.903 282.792C573.103 282.008 574.071 280.984 574.807 279.72C575.543 278.456 576.071 277.08 576.391 275.592C576.711 274.088 576.871 272.624 576.871 271.2C576.871 269.648 576.711 268.12 576.391 266.616C576.071 265.096 575.543 263.72 574.807 262.488C574.087 261.24 573.127 260.248 571.927 259.512C570.743 258.76 569.279 258.384 567.535 258.384C565.791 258.384 564.319 258.776 563.119 259.56C561.935 260.344 560.975 261.376 560.239 262.656C559.519 263.92 558.991 265.304 558.655 266.808C558.335 268.296 558.175 269.76 558.175 271.2C558.175 272.736 558.335 274.264 558.655 275.784C558.991 277.288 559.519 278.664 560.239 279.912C560.975 281.144 561.935 282.128 563.119 282.864C564.319 283.6 565.791 283.968 567.535 283.968ZM589.214 288V254.4H594.062V283.296H610.502V288H589.214ZM636.937 288.576C634.937 288.576 633.121 288.24 631.489 287.568C629.873 286.88 628.489 285.936 627.337 284.736C626.201 283.536 625.369 282.152 624.841 280.584L629.353 278.928C630.041 280.432 631.049 281.656 632.377 282.6C633.721 283.528 635.281 283.992 637.057 283.992C638.961 283.992 640.481 283.552 641.617 282.672C642.769 281.792 643.345 280.504 643.345 278.808C643.345 277.64 643.001 276.656 642.313 275.856C641.641 275.056 640.745 274.384 639.625 273.84C638.521 273.28 637.321 272.768 636.025 272.304C634.841 271.872 633.649 271.4 632.449 270.888C631.249 270.36 630.161 269.728 629.185 268.992C628.209 268.256 627.417 267.352 626.809 266.28C626.217 265.208 625.921 263.912 625.921 262.392C625.921 260.84 626.337 259.416 627.169 258.12C628.017 256.824 629.233 255.784 630.817 255C632.401 254.216 634.313 253.824 636.553 253.824C638.393 253.824 640.009 254.112 641.401 254.688C642.809 255.248 643.969 256.024 644.881 257.016C645.793 257.992 646.425 259.104 646.777 260.352L642.361 261.816C641.945 260.856 641.225 260.04 640.201 259.368C639.193 258.696 637.873 258.36 636.241 258.36C634.577 258.36 633.265 258.72 632.305 259.44C631.361 260.16 630.889 261.152 630.889 262.416C630.889 263.344 631.209 264.128 631.849 264.768C632.489 265.392 633.329 265.944 634.369 266.424C635.425 266.904 636.569 267.368 637.801 267.816C639.033 268.264 640.265 268.776 641.497 269.352C642.729 269.912 643.857 270.6 644.881 271.416C645.921 272.232 646.753 273.24 647.377 274.44C648.001 275.624 648.313 277.056 648.313 278.736C648.313 280.832 647.809 282.616 646.801 284.088C645.809 285.544 644.457 286.656 642.745 287.424C641.033 288.192 639.097 288.576 636.937 288.576ZM668.738 288.576C666.082 288.576 663.834 288.072 661.994 287.064C660.154 286.04 658.674 284.688 657.554 283.008C656.434 281.312 655.618 279.44 655.106 277.392C654.594 275.344 654.338 273.28 654.338 271.2C654.338 269.12 654.594 267.056 655.106 265.008C655.618 262.96 656.434 261.096 657.554 259.416C658.674 257.72 660.154 256.368 661.994 255.36C663.834 254.336 666.082 253.824 668.738 253.824C671.394 253.824 673.642 254.336 675.482 255.36C677.322 256.368 678.802 257.72 679.922 259.416C681.042 261.096 681.85 262.96 682.346 265.008C682.858 267.056 683.114 269.12 683.114 271.2C683.114 273.28 682.858 275.344 682.346 277.392C681.85 279.44 681.042 281.312 679.922 283.008C678.802 284.688 677.322 286.04 675.482 287.064C673.642 288.072 671.394 288.576 668.738 288.576ZM668.738 283.968C670.466 283.968 671.922 283.576 673.106 282.792C674.306 282.008 675.274 280.984 676.01 279.72C676.746 278.456 677.274 277.08 677.594 275.592C677.914 274.088 678.074 272.624 678.074 271.2C678.074 269.648 677.914 268.12 677.594 266.616C677.274 265.096 676.746 263.72 676.01 262.488C675.29 261.24 674.33 260.248 673.13 259.512C671.946 258.76 670.482 258.384 668.738 258.384C666.994 258.384 665.522 258.776 664.322 259.56C663.138 260.344 662.178 261.376 661.442 262.656C660.722 263.92 660.194 265.304 659.858 266.808C659.538 268.296 659.378 269.76 659.378 271.2C659.378 272.736 659.538 274.264 659.858 275.784C660.194 277.288 660.722 278.664 661.442 279.912C662.178 281.144 663.138 282.128 664.322 282.864C665.522 283.6 666.994 283.968 668.738 283.968ZM690.417 288V254.4H711.345V258.984H695.265V268.344H705.777V272.928H695.265V288H690.417ZM725.462 288V259.056H716.054V254.4H739.742V259.056H730.31V288H725.462ZM751.042 288L744.106 254.4H749.17L753.13 275.304C753.258 275.96 753.37 276.552 753.466 277.08C753.562 277.592 753.634 278.096 753.682 278.592C753.778 278.096 753.89 277.584 754.018 277.056C754.162 276.512 754.322 275.936 754.498 275.328L760.042 254.4H764.026L769.642 275.28C769.802 275.888 769.938 276.44 770.05 276.936C770.162 277.416 770.25 277.888 770.314 278.352C770.394 277.888 770.474 277.416 770.554 276.936C770.65 276.44 770.762 275.896 770.89 275.304L775.186 254.4H780.178L772.882 288H768.802L762.706 265.992C762.546 265.416 762.402 264.896 762.274 264.432C762.162 263.952 762.058 263.472 761.962 262.992C761.882 263.472 761.786 263.944 761.674 264.408C761.562 264.856 761.426 265.376 761.266 265.968L755.218 288H751.042ZM782.19 288L794.382 254.4H798.942L811.158 288H806.094L803.286 280.152H790.11L787.35 288H782.19ZM791.598 275.808H801.726L797.718 264.504C797.606 264.2 797.486 263.856 797.358 263.472C797.23 263.072 797.102 262.68 796.974 262.296C796.846 261.912 796.75 261.576 796.686 261.288C796.606 261.576 796.502 261.912 796.374 262.296C796.262 262.68 796.142 263.072 796.014 263.472C795.886 263.856 795.766 264.2 795.654 264.504L791.598 275.808ZM816.933 288V254.4H830.853C833.589 254.4 835.741 254.872 837.309 255.816C838.877 256.76 839.989 257.984 840.645 259.488C841.317 260.992 841.653 262.576 841.653 264.24C841.653 265.536 841.397 266.832 840.885 268.128C840.373 269.424 839.565 270.568 838.461 271.56C837.373 272.552 835.957 273.264 834.213 273.696L841.221 288H835.749L829.029 274.152H821.781V288H816.933ZM821.781 269.616H830.949C832.389 269.616 833.525 269.36 834.357 268.848C835.205 268.32 835.805 267.656 836.157 266.856C836.525 266.04 836.709 265.192 836.709 264.312C836.709 263.512 836.541 262.704 836.205 261.888C835.869 261.056 835.285 260.36 834.453 259.8C833.621 259.224 832.453 258.936 830.949 258.936H821.781V269.616ZM849.23 288V254.4H870.11V258.984H854.078V268.344H864.278V272.928H854.078V283.368H871.142V288H849.23Z" fill="#6C6F85"/>
<defs>
<filter id="filter0_d_106_10" x="0" y="0" width="1160" height="328" filterUnits="userSpaceOnUse" color-interpolation-filters="sRGB">
<feFlood flood-opacity="0" result="BackgroundImageFix"/>
<feColorMatrix in="SourceAlpha" type="matrix" values="0 0 0 0 0 0 0 0 0 0 0 0 0 0 0 0 0 0 127 0" result="hardAlpha"/>
<feOffset dy="4"/>
<feGaussianBlur stdDeviation="2"/>
<feComposite in2="hardAlpha" operator="out"/>
<feColorMatrix type="matrix" values="0 0 0 0 0 0 0 0 0 0 0 0 0 0 0 0 0 0 0.25 0"/>
<feBlend mode="normal" in2="BackgroundImageFix" result="effect1_dropShadow_106_10"/>
<feBlend mode="normal" in="SourceGraphic" in2="effect1_dropShadow_106_10" result="shape"/>
</filter>
</defs>
</svg>
