<?xml version="1.0" encoding="UTF-8" standalone="no"?>
<!DOCTYPE svg PUBLIC "-//W3C//DTD SVG 1.1//EN"
 "http://www.w3.org/Graphics/SVG/1.1/DTD/svg11.dtd">
<!-- Generated by graphviz version 8.1.0 (20230707.0739)
 -->
<!-- Title: TelemetrySocket Pages: 1 -->
<svg width="397pt" height="168pt"
 viewBox="0.00 0.00 396.88 167.75" xmlns="http://www.w3.org/2000/svg" xmlns:xlink="http://www.w3.org/1999/xlink">
<g id="graph0" class="graph" transform="scale(1 1) rotate(0) translate(4 163.75)">
<title>TelemetrySocket</title>
<!-- Node1 -->
<g id="Node000001" class="node">
<title>Node1</title>
<g id="a_Node000001"><a xlink:title="Класс для работы с сервисом navd2 на РЛС.">
<polygon fill="#999999" stroke="#666666" points="231.38,-20.75 132.88,-20.75 132.88,0 231.38,0 231.38,-20.75"/>
<text text-anchor="middle" x="182.12" y="-6.3" font-family="Arial" font-size="11.00">TelemetrySocket</text>
</a>
</g>
</g>
<!-- Node2 -->
<g id="Node000002" class="node">
<title>Node2</title>
<g id="a_Node000002"><a xlink:href="../../db/d21/class_quasar_s_d_k_1_1_base_u_d_p_socket.html" target="_top" xlink:title="Базовый класс для сокетов, работающих по протоколу UDP.">
<polygon fill="white" stroke="#666666" points="182.38,-90.25 83.88,-90.25 83.88,-69.5 182.38,-69.5 182.38,-90.25"/>
<text text-anchor="middle" x="133.12" y="-75.8" font-family="Arial" font-size="11.00">BaseUDPSocket</text>
</a>
</g>
</g>
<!-- Node2&#45;&gt;Node1 -->
<g id="edge1_Node000001_Node000002" class="edge">
<title>Node2&#45;&gt;Node1</title>
<g id="a_edge1_Node000001_Node000002"><a xlink:title=" ">
<path fill="none" stroke="#63b8ff" d="M146.57,-60.35C155.81,-47.62 167.7,-31.25 175.12,-21.03"/>
<polygon fill="#63b8ff" stroke="#63b8ff" points="143.19,-58.06 140.15,-68.2 148.85,-62.17 143.19,-58.06"/>
</a>
</g>
</g>
<!-- Node3 -->
<g id="Node000003" class="node">
<title>Node3</title>
<g id="a_Node000003"><a xlink:title=" ">
<polygon fill="white" stroke="#bfbfbf" points="78.25,-159.75 0,-159.75 0,-139 78.25,-139 78.25,-159.75"/>
<text text-anchor="middle" x="39.12" y="-145.3" font-family="Arial" font-size="11.00">QUdpSocket</text>
</a>
</g>
</g>
<!-- Node3&#45;&gt;Node2 -->
<g id="edge2_Node000002_Node000003" class="edge">
<title>Node3&#45;&gt;Node2</title>
<g id="a_edge2_Node000002_Node000003"><a xlink:title=" ">
<path fill="none" stroke="#63b8ff" d="M61.3,-132.45C79.31,-119.52 104.13,-101.7 119.38,-90.75"/>
<polygon fill="#63b8ff" stroke="#63b8ff" points="59.67,-130.03 53.59,-138.7 63.76,-135.71 59.67,-130.03"/>
</a>
</g>
</g>
<!-- Node4 -->
<g id="Node000004" class="node">
<title>Node4</title>
<g id="a_Node000004"><a xlink:href="../../df/dac/class_quasar_s_d_k_1_1_i_connectable.html" target="_top" xlink:title="Абстрактный интерфейс для классов с функционалом подключения и отключения к сетевому адресу.">
<polygon fill="white" stroke="#666666" points="176,-159.75 96.25,-159.75 96.25,-139 176,-139 176,-159.75"/>
<text text-anchor="middle" x="136.12" y="-145.3" font-family="Arial" font-size="11.00">IConnectable</text>
</a>
</g>
</g>
<!-- Node4&#45;&gt;Node2 -->
<g id="edge3_Node000002_Node000004" class="edge">
<title>Node4&#45;&gt;Node2</title>
<g id="a_edge3_Node000002_Node000004"><a xlink:title=" ">
<path fill="none" stroke="#63b8ff" d="M135.22,-127.95C134.67,-115.53 133.99,-100.25 133.55,-90.53"/>
<polygon fill="#63b8ff" stroke="#63b8ff" points="131.75,-127.87 135.7,-137.7 138.75,-127.56 131.75,-127.87"/>
</a>
</g>
</g>
<!-- Node5 -->
<g id="Node000005" class="node">
<title>Node5</title>
<g id="a_Node000005"><a xlink:href="../../d4/da9/class_quasar_s_d_k_1_1_telemetry.html" target="_top" xlink:title="Класс&#45;хранилище для текущей телеметрии РЛС.">
<polygon fill="white" stroke="#666666" points="265.5,-90.25 200.75,-90.25 200.75,-69.5 265.5,-69.5 265.5,-90.25"/>
<text text-anchor="middle" x="233.12" y="-75.8" font-family="Arial" font-size="11.00">Telemetry</text>
</a>
</g>
</g>
<!-- Node5&#45;&gt;Node1 -->
<g id="edge4_Node000001_Node000005" class="edge">
<title>Node5&#45;&gt;Node1</title>
<g id="a_edge4_Node000001_Node000005"><a xlink:title=" ">
<path fill="none" stroke="#9a32cd" stroke-dasharray="5,2" d="M219.41,-60.72C209.76,-47.94 197.21,-31.35 189.42,-21.03"/>
<polygon fill="#9a32cd" stroke="#9a32cd" points="217,-62.34 225.82,-68.2 222.58,-58.12 217,-62.34"/>
</a>
</g>
<text text-anchor="middle" x="229.62" y="-41.05" font-family="Arial" font-size="11.00" fill="grey"> output</text>
</g>
<!-- Node6 -->
<g id="Node000006" class="node">
<title>Node6</title>
<g id="a_Node000006"><a xlink:title=" ">
<polygon fill="white" stroke="#bfbfbf" points="257.75,-159.75 200.5,-159.75 200.5,-139 257.75,-139 257.75,-159.75"/>
<text text-anchor="middle" x="229.12" y="-145.3" font-family="Arial" font-size="11.00">QObject</text>
</a>
</g>
</g>
<!-- Node6&#45;&gt;Node5 -->
<g id="edge5_Node000005_Node000006" class="edge">
<title>Node6&#45;&gt;Node5</title>
<g id="a_edge5_Node000005_Node000006"><a xlink:title=" ">
<path fill="none" stroke="#63b8ff" d="M230.34,-127.95C231.07,-115.53 231.98,-100.25 232.55,-90.53"/>
<polygon fill="#63b8ff" stroke="#63b8ff" points="226.8,-127.51 229.7,-137.7 233.78,-127.93 226.8,-127.51"/>
</a>
</g>
</g>
<!-- Node7 -->
<g id="Node000007" class="node">
<title>Node7</title>
<g id="a_Node000007"><a xlink:href="../../d8/d07/group__sdk__protocol.html#da/d38/struct_quasar_s_d_k_1_1_datagrams_1_1_telemetry_datagram" target="_top" xlink:title="Датаграмма телеметрии от РЛС к наземке.">
<polygon fill="white" stroke="#666666" points="388.88,-159.75 275.38,-159.75 275.38,-139 388.88,-139 388.88,-159.75"/>
<text text-anchor="middle" x="332.12" y="-145.3" font-family="Arial" font-size="11.00">TelemetryDatagram</text>
</a>
</g>
</g>
<!-- Node7&#45;&gt;Node5 -->
<g id="edge6_Node000005_Node000007" class="edge">
<title>Node7&#45;&gt;Node5</title>
<g id="a_edge6_Node000005_Node000007"><a xlink:title=" ">
<path fill="none" stroke="#9a32cd" stroke-dasharray="5,2" d="M309.03,-132.63C290.05,-119.69 263.74,-101.75 247.6,-90.75"/>
<polygon fill="#9a32cd" stroke="#9a32cd" points="306.71,-135.96 316.94,-138.7 310.65,-130.18 306.71,-135.96"/>
</a>
</g>
<text text-anchor="middle" x="324.75" y="-110.55" font-family="Arial" font-size="11.00" fill="grey"> m_datagram</text>
</g>
</g>
</svg>
