<?xml version="1.0" encoding="UTF-8" standalone="no"?>
<!DOCTYPE svg PUBLIC "-//W3C//DTD SVG 1.1//EN"
 "http://www.w3.org/Graphics/SVG/1.1/DTD/svg11.dtd">
<!-- Generated by graphviz version 8.1.0 (20230707.0739)
 -->
<!-- Title: NotificationsModel Pages: 1 -->
<svg width="352pt" height="132pt"
 viewBox="0.00 0.00 352.00 132.12" xmlns="http://www.w3.org/2000/svg" xmlns:xlink="http://www.w3.org/1999/xlink">
<g id="graph0" class="graph" transform="scale(1 1) rotate(0) translate(4 128.12)">
<title>NotificationsModel</title>
<!-- Node1 -->
<g id="Node000001" class="node">
<title>Node1</title>
<g id="a_Node000001"><a xlink:title=" ">
<polygon fill="#999999" stroke="#666666" points="344,-79.12 240.25,-79.12 240.25,-58.38 344,-58.38 344,-79.12"/>
<text text-anchor="middle" x="292.12" y="-64.67" font-family="Arial" font-size="11.00">NotificationsModel</text>
</a>
</g>
</g>
<!-- Node2 -->
<g id="Node000002" class="node">
<title>Node2</title>
<g id="a_Node000002"><a xlink:title=" ">
<polygon fill="white" stroke="#bfbfbf" points="125.12,-124.12 13.88,-124.12 13.88,-103.38 125.12,-103.38 125.12,-124.12"/>
<text text-anchor="middle" x="69.5" y="-109.67" font-family="Arial" font-size="11.00">QAbstractListModel</text>
</a>
</g>
</g>
<!-- Node2&#45;&gt;Node1 -->
<g id="edge1_Node000001_Node000002" class="edge">
<title>Node2&#45;&gt;Node1</title>
<g id="a_edge1_Node000001_Node000002"><a xlink:title=" ">
<path fill="none" stroke="#63b8ff" d="M136.23,-102.5C162.99,-97.7 194.17,-91.8 222.25,-85.75 230.92,-83.88 240.16,-81.72 248.96,-79.58"/>
<polygon fill="#63b8ff" stroke="#63b8ff" points="135.67,-99.22 126.44,-104.43 136.9,-106.12 135.67,-99.22"/>
</a>
</g>
</g>
<!-- Node3 -->
<g id="Node000003" class="node">
<title>Node3</title>
<g id="a_Node000003"><a xlink:title=" ">
<polygon fill="white" stroke="#bfbfbf" points="139,-85.5 0,-85.5 0,-52 139,-52 139,-85.5"/>
<text text-anchor="start" x="8" y="-71.05" font-family="Arial" font-size="11.00">vector&lt; GUI::Notifications</text>
<text text-anchor="middle" x="69.5" y="-58.3" font-family="Arial" font-size="11.00">Model::Notification &gt;</text>
</a>
</g>
</g>
<!-- Node3&#45;&gt;Node1 -->
<g id="edge2_Node000001_Node000003" class="edge">
<title>Node3&#45;&gt;Node1</title>
<g id="a_edge2_Node000001_Node000003"><a xlink:title=" ">
<path fill="none" stroke="#9a32cd" stroke-dasharray="5,2" d="M150.24,-68.75C180.13,-68.75 213.26,-68.75 239.89,-68.75"/>
<polygon fill="#9a32cd" stroke="#9a32cd" points="150.4,-65.25 140.4,-68.75 150.4,-72.25 150.4,-65.25"/>
</a>
</g>
<text text-anchor="middle" x="189.62" y="-71.05" font-family="Arial" font-size="11.00" fill="grey"> m_storage</text>
</g>
<!-- Node4 -->
<g id="Node000004" class="node">
<title>Node4</title>
<g id="a_Node000004"><a xlink:title=" ">
<polygon fill="white" stroke="#bfbfbf" points="133.38,-33.5 5.62,-33.5 5.62,0 133.38,0 133.38,-33.5"/>
<text text-anchor="start" x="13.62" y="-19.05" font-family="Arial" font-size="11.00">map&lt; NotificationType,</text>
<text text-anchor="middle" x="69.5" y="-6.3" font-family="Arial" font-size="11.00"> QString &gt;</text>
</a>
</g>
</g>
<!-- Node4&#45;&gt;Node1 -->
<g id="edge3_Node000001_Node000004" class="edge">
<title>Node4&#45;&gt;Node1</title>
<g id="a_edge3_Node000001_Node000004"><a xlink:title=" ">
<path fill="none" stroke="#9a32cd" stroke-dasharray="5,2" d="M144.1,-33.69C168.94,-39.44 196.81,-45.95 222.25,-52 230.27,-53.91 238.81,-55.96 247.05,-57.96"/>
<polygon fill="#9a32cd" stroke="#9a32cd" points="145.19,-30.11 134.66,-31.27 143.61,-36.93 145.19,-30.11"/>
</a>
</g>
<text text-anchor="middle" x="189.62" y="-54.05" font-family="Arial" font-size="11.00" fill="grey"> m_dictionary</text>
</g>
</g>
</svg>
