<?xml version="1.0" encoding="UTF-8" standalone="no"?>
<!DOCTYPE svg PUBLIC "-//W3C//DTD SVG 1.1//EN"
 "http://www.w3.org/Graphics/SVG/1.1/DTD/svg11.dtd">
<!-- Generated by graphviz version 8.1.0 (20230707.0739)
 -->
<!-- Title: LinePlot Pages: 1 -->
<svg width="183pt" height="156pt"
 viewBox="0.00 0.00 183.12 156.00" xmlns="http://www.w3.org/2000/svg" xmlns:xlink="http://www.w3.org/1999/xlink">
<g id="graph0" class="graph" transform="scale(1 1) rotate(0) translate(4 152)">
<title>LinePlot</title>
<!-- Node1 -->
<g id="Node000001" class="node">
<title>Node1</title>
<g id="a_Node000001"><a xlink:title=" ">
<polygon fill="#999999" stroke="#666666" points="135.75,-20.75 80.75,-20.75 80.75,0 135.75,0 135.75,-20.75"/>
<text text-anchor="middle" x="108.25" y="-6.3" font-family="Arial" font-size="11.00">LinePlot</text>
</a>
</g>
</g>
<!-- Node2 -->
<g id="Node000002" class="node">
<title>Node2</title>
<g id="a_Node000002"><a xlink:href="../../d2/d20/class_s_d_k_1_1_quick_1_1_chart_base.html" target="_top" xlink:title=" ">
<polygon fill="white" stroke="#bfbfbf" points="71.5,-90.25 3,-90.25 3,-69.5 71.5,-69.5 71.5,-90.25"/>
<text text-anchor="middle" x="37.25" y="-75.8" font-family="Arial" font-size="11.00">ChartBase</text>
</a>
</g>
</g>
<!-- Node2&#45;&gt;Node1 -->
<g id="edge1_Node000001_Node000002" class="edge">
<title>Node2&#45;&gt;Node1</title>
<g id="a_edge1_Node000001_Node000002"><a xlink:title=" ">
<path fill="none" stroke="#63b8ff" d="M55.18,-61.83C68.76,-48.92 86.93,-31.65 98.1,-21.03"/>
<polygon fill="#63b8ff" stroke="#63b8ff" points="53.26,-58.78 48.42,-68.2 58.08,-63.85 53.26,-58.78"/>
</a>
</g>
</g>
<!-- Node3 -->
<g id="Node000003" class="node">
<title>Node3</title>
<g id="a_Node000003"><a xlink:title=" ">
<polygon fill="white" stroke="#bfbfbf" points="74.5,-148 0,-148 0,-127.25 74.5,-127.25 74.5,-148"/>
<text text-anchor="middle" x="37.25" y="-133.55" font-family="Arial" font-size="11.00">QQuickItem</text>
</a>
</g>
</g>
<!-- Node3&#45;&gt;Node2 -->
<g id="edge2_Node000002_Node000003" class="edge">
<title>Node3&#45;&gt;Node2</title>
<g id="a_edge2_Node000002_Node000003"><a xlink:title=" ">
<path fill="none" stroke="#63b8ff" d="M37.25,-115.98C37.25,-107.24 37.25,-97.48 37.25,-90.47"/>
<polygon fill="#63b8ff" stroke="#63b8ff" points="33.75,-115.91 37.25,-125.91 40.75,-115.91 33.75,-115.91"/>
</a>
</g>
</g>
<!-- Node4 -->
<g id="Node000004" class="node">
<title>Node4</title>
<g id="a_Node000004"><a xlink:title=" ">
<polygon fill="white" stroke="#bfbfbf" points="175.12,-90.25 89.38,-90.25 89.38,-69.5 175.12,-69.5 175.12,-90.25"/>
<text text-anchor="middle" x="132.25" y="-75.8" font-family="Arial" font-size="11.00">vector&lt; float &gt;</text>
</a>
</g>
</g>
<!-- Node4&#45;&gt;Node1 -->
<g id="edge3_Node000001_Node000004" class="edge">
<title>Node4&#45;&gt;Node1</title>
<g id="a_edge3_Node000001_Node000004"><a xlink:title=" ">
<path fill="none" stroke="#9a32cd" stroke-dasharray="5,2" d="M125.26,-59.22C120.8,-46.67 115.21,-30.95 111.68,-21.03"/>
<polygon fill="#9a32cd" stroke="#9a32cd" points="122.16,-59.95 128.81,-68.2 128.76,-57.61 122.16,-59.95"/>
</a>
</g>
<text text-anchor="middle" x="126.38" y="-41.05" font-family="Arial" font-size="11.00" fill="grey"> v</text>
</g>
</g>
</svg>
