<?xml version="1.0" encoding="UTF-8" standalone="no"?>
<!DOCTYPE svg PUBLIC "-//W3C//DTD SVG 1.1//EN"
 "http://www.w3.org/Graphics/SVG/1.1/DTD/svg11.dtd">
<!-- Generated by graphviz version 8.1.0 (20230707.0739)
 -->
<!-- Title: ExecdSocket Pages: 1 -->
<svg width="452pt" height="156pt"
 viewBox="0.00 0.00 451.62 156.00" xmlns="http://www.w3.org/2000/svg" xmlns:xlink="http://www.w3.org/1999/xlink">

<svg id="main" version="1.1" xmlns="http://www.w3.org/2000/svg" xmlns:xlink="http://www.w3.org/1999/xlink" xml:space="preserve" onload="init(evt)">
<style type="text/css"><![CDATA[
.node, .edge {opacity: 0.7;}
.node.selected, .edge.selected {opacity: 1;}
.edge:hover path { stroke: red; }
.edge:hover polygon { stroke: red; fill: red; }
]]></style>
<script type="application/ecmascript" xlink:href="../../svg.min.js"/>
<svg id="graph" class="graph">
<g id="graph0" class="graph" transform="scale(1 1) rotate(0) translate(4 152)">
<title>ExecdSocket</title>
<!-- Node1 -->
<g id="Node000001" class="node">
<title>Node1</title>
<g id="a_Node000001"><a xlink:title="Сокет для отправки команд на РЛС.">
<polygon fill="#999999" stroke="#666666" points="285.38,-20.75 204.88,-20.75 204.88,0 285.38,0 285.38,-20.75"/>
<text text-anchor="middle" x="245.12" y="-6.3" font-family="Arial" font-size="11.00">ExecdSocket</text>
</a>
</g>
</g>
<!-- Node2 -->
<g id="Node000002" class="node">
<title>Node2</title>
<g id="a_Node000002"><a xlink:href="../../db/d21/class_quasar_s_d_k_1_1_base_u_d_p_socket.html" target="_top" xlink:title="Базовый класс для сокетов, работающих по протоколу UDP.">
<polygon fill="white" stroke="#666666" points="163.38,-90.25 64.88,-90.25 64.88,-69.5 163.38,-69.5 163.38,-90.25"/>
<text text-anchor="middle" x="114.12" y="-75.8" font-family="Arial" font-size="11.00">BaseUDPSocket</text>
</a>
</g>
</g>
<!-- Node2&#45;&gt;Node1 -->
<g id="edge1_Node000001_Node000002" class="edge">
<title>Node2&#45;&gt;Node1</title>
<g id="a_edge1_Node000001_Node000002"><a xlink:title=" ">
<path fill="none" stroke="#63b8ff" d="M142.94,-64.03C168.2,-51.01 204.21,-32.45 226.05,-21.2"/>
<polygon fill="#63b8ff" stroke="#63b8ff" points="141.46,-61.37 134.17,-69.06 144.67,-67.59 141.46,-61.37"/>
</a>
</g>
</g>
<!-- Node3 -->
<g id="Node000003" class="node">
<title>Node3</title>
<g id="a_Node000003"><a xlink:title=" ">
<polygon fill="white" stroke="#bfbfbf" points="78.25,-148 0,-148 0,-127.25 78.25,-127.25 78.25,-148"/>
<text text-anchor="middle" x="39.12" y="-133.55" font-family="Arial" font-size="11.00">QUdpSocket</text>
</a>
</g>
</g>
<!-- Node3&#45;&gt;Node2 -->
<g id="edge2_Node000002_Node000003" class="edge">
<title>Node3&#45;&gt;Node2</title>
<g id="a_edge2_Node000002_Node000003"><a xlink:title=" ">
<path fill="none" stroke="#63b8ff" d="M60.97,-120.39C73.93,-110.76 89.92,-98.87 100.96,-90.66"/>
<polygon fill="#63b8ff" stroke="#63b8ff" points="59.13,-118.14 53.19,-126.91 63.3,-123.76 59.13,-118.14"/>
</a>
</g>
</g>
<!-- Node4 -->
<g id="Node000004" class="node">
<title>Node4</title>
<g id="a_Node000004"><a xlink:href="../../df/dac/class_quasar_s_d_k_1_1_i_connectable.html" target="_top" xlink:title="Абстрактный интерфейс для классов с функционалом подключения и отключения к сетевому адресу.">
<polygon fill="white" stroke="#666666" points="176,-148 96.25,-148 96.25,-127.25 176,-127.25 176,-148"/>
<text text-anchor="middle" x="136.12" y="-133.55" font-family="Arial" font-size="11.00">IConnectable</text>
</a>
</g>
</g>
<!-- Node4&#45;&gt;Node2 -->
<g id="edge3_Node000002_Node000004" class="edge">
<title>Node4&#45;&gt;Node2</title>
<g id="a_edge3_Node000002_Node000004"><a xlink:title=" ">
<path fill="none" stroke="#63b8ff" d="M128.33,-116.87C124.79,-107.91 120.77,-97.72 117.91,-90.47"/>
<polygon fill="#63b8ff" stroke="#63b8ff" points="125.37,-117.9 132.29,-125.91 131.88,-115.33 125.37,-117.9"/>
</a>
</g>
</g>
<!-- Node5 -->
<g id="Node000005" class="node">
<title>Node5</title>
<g id="a_Node000005"><a xlink:href="../../d3/d1d/class_quasar_s_d_k_1_1_execd_argument_parser.html" target="_top" xlink:title="Класс для хранения и обработки аргументов команд сервиса execd.">
<polygon fill="white" stroke="#666666" points="308.62,-90.25 181.62,-90.25 181.62,-69.5 308.62,-69.5 308.62,-90.25"/>
<text text-anchor="middle" x="245.12" y="-75.8" font-family="Arial" font-size="11.00">ExecdArgumentParser</text>
</a>
</g>
</g>
<!-- Node5&#45;&gt;Node1 -->
<g id="edge4_Node000001_Node000005" class="edge">
<title>Node5&#45;&gt;Node1</title>
<g id="a_edge4_Node000001_Node000005"><a xlink:title=" ">
<path fill="none" stroke="#9a32cd" stroke-dasharray="5,2" d="M245.12,-58.45C245.12,-46.03 245.12,-30.75 245.12,-21.03"/>
<polygon fill="#9a32cd" stroke="#9a32cd" points="241.63,-58.2 245.12,-68.2 248.63,-58.2 241.63,-58.2"/>
</a>
</g>
<text text-anchor="middle" x="265.38" y="-41.05" font-family="Arial" font-size="11.00" fill="grey"> m_args</text>
</g>
<!-- Node6 -->
<g id="Node000006" class="node">
<title>Node6</title>
<g id="a_Node000006"><a xlink:title=" ">
<polygon fill="white" stroke="#bfbfbf" points="273.75,-148 216.5,-148 216.5,-127.25 273.75,-127.25 273.75,-148"/>
<text text-anchor="middle" x="245.12" y="-133.55" font-family="Arial" font-size="11.00">QObject</text>
</a>
</g>
</g>
<!-- Node6&#45;&gt;Node5 -->
<g id="edge5_Node000005_Node000006" class="edge">
<title>Node6&#45;&gt;Node5</title>
<g id="a_edge5_Node000005_Node000006"><a xlink:title=" ">
<path fill="none" stroke="#63b8ff" d="M245.12,-115.98C245.12,-107.24 245.12,-97.48 245.12,-90.47"/>
<polygon fill="#63b8ff" stroke="#63b8ff" points="241.63,-115.91 245.12,-125.91 248.63,-115.91 241.63,-115.91"/>
</a>
</g>
</g>
<!-- Node7 -->
<g id="Node000007" class="node">
<title>Node7</title>
<g id="a_Node000007"><a xlink:title=" ">
<polygon fill="white" stroke="#bfbfbf" points="436,-90.25 326.25,-90.25 326.25,-69.5 436,-69.5 436,-90.25"/>
<text text-anchor="middle" x="381.12" y="-75.8" font-family="Arial" font-size="11.00">array&lt; QString, 2 &gt;</text>
</a>
</g>
</g>
<!-- Node7&#45;&gt;Node1 -->
<g id="edge6_Node000001_Node000007" class="edge">
<title>Node7&#45;&gt;Node1</title>
<g id="a_edge6_Node000001_Node000007"><a xlink:title=" ">
<path fill="none" stroke="#9a32cd" stroke-dasharray="5,2" d="M351.56,-64.2C325.32,-51.18 287.7,-32.5 264.92,-21.2"/>
<polygon fill="#9a32cd" stroke="#9a32cd" points="349.84,-67.75 360.35,-69.06 352.95,-61.48 349.84,-67.75"/>
</a>
</g>
<text text-anchor="middle" x="384.38" y="-41.05" font-family="Arial" font-size="11.00" fill="grey"> m_remote_address_list</text>
</g>
</g>
</svg>
</svg>

<style type='text/css'>
<![CDATA[
[data-mouse-over-selected='false'] { opacity: 0.7; }
[data-mouse-over-selected='true']  { opacity: 1.0; }
]]>
</style>
<script type="application/ecmascript"><![CDATA[
document.addEventListener('DOMContentLoaded', (event) => {
  highlightEdges();
  highlightAdjacentNodes();
});
]]></script>
</svg>
