<?xml version="1.0" encoding="UTF-8" standalone="no"?>
<!DOCTYPE svg PUBLIC "-//W3C//DTD SVG 1.1//EN"
 "http://www.w3.org/Graphics/SVG/1.1/DTD/svg11.dtd">
<!-- Generated by graphviz version 8.1.0 (20230707.0739)
 -->
<!-- Title: CColorProvider.h Pages: 1 -->
<svg width="250pt" height="86pt"
 viewBox="0.00 0.00 249.62 85.50" xmlns="http://www.w3.org/2000/svg" xmlns:xlink="http://www.w3.org/1999/xlink">
<g id="graph0" class="graph" transform="scale(1 1) rotate(0) translate(4 81.5)">
<title>CColorProvider.h</title>
<!-- Node1 -->
<g id="Node000001" class="node">
<title>Node1</title>
<g id="a_Node000001"><a xlink:title=" ">
<polygon fill="#999999" stroke="#666666" points="171.75,-77.5 71.75,-77.5 71.75,-56.75 171.75,-56.75 171.75,-77.5"/>
<text text-anchor="middle" x="121.75" y="-63.05" font-family="Arial" font-size="11.00">CColorProvider.h</text>
</a>
</g>
</g>
<!-- Node2 -->
<g id="Node000002" class="node">
<title>Node2</title>
<g id="a_Node000002"><a xlink:href="../../dd/d96/_c_color_provider_8c_09_09_source.html" target="_top" xlink:title=" ">
<polygon fill="white" stroke="#666666" points="113.5,-20.75 0,-20.75 0,0 113.5,0 113.5,-20.75"/>
<text text-anchor="middle" x="56.75" y="-6.3" font-family="Arial" font-size="11.00">CColorProvider.c++</text>
</a>
</g>
</g>
<!-- Node1&#45;&gt;Node2 -->
<g id="edge1_Node000001_Node000002" class="edge">
<title>Node1&#45;&gt;Node2</title>
<g id="a_edge1_Node000001_Node000002"><a xlink:title=" ">
<path fill="none" stroke="#63b8ff" d="M101.91,-49.41C90.89,-40.13 77.58,-28.92 68.27,-21.08"/>
<polygon fill="#63b8ff" stroke="#63b8ff" points="99.23,-52.57 109.13,-56.34 103.74,-47.22 99.23,-52.57"/>
</a>
</g>
</g>
<!-- Node3 -->
<g id="Node000003" class="node">
<title>Node3</title>
<g id="a_Node000003"><a xlink:href="../../db/df9/_f_register_q_m_l_8c_09_09_source.html" target="_top" xlink:title=" ">
<polygon fill="white" stroke="#666666" points="241.62,-20.75 131.88,-20.75 131.88,0 241.62,0 241.62,-20.75"/>
<text text-anchor="middle" x="186.75" y="-6.3" font-family="Arial" font-size="11.00">FRegisterQML.c++</text>
</a>
</g>
</g>
<!-- Node1&#45;&gt;Node3 -->
<g id="edge2_Node000001_Node000003" class="edge">
<title>Node1&#45;&gt;Node3</title>
<g id="a_edge2_Node000001_Node000003"><a xlink:title=" ">
<path fill="none" stroke="#63b8ff" d="M141.59,-49.41C152.61,-40.13 165.92,-28.92 175.23,-21.08"/>
<polygon fill="#63b8ff" stroke="#63b8ff" points="139.76,-47.22 134.37,-56.34 144.27,-52.57 139.76,-47.22"/>
</a>
</g>
</g>
</g>
</svg>
